<svg xmlns="http://www.w3.org/2000/svg" width="38.789" height="57.533" viewBox="-0.5 -0.5 38.789 57.533"><path fill="#0256A0" stroke="#f7f7f7" stroke-miterlimit="10" d="M18.895 0c-5.011 0-9.817 1.993-13.36 5.542A18.93 18.93 0 0 0 0 18.92a26.53 26.53 0 0 0 3.495 11.922l15.4 25.231 15.399-25.231a26.53 26.53 0 0 0 3.495-11.922 18.93 18.93 0 0 0-5.535-13.378C28.711 1.993 23.905 0 18.895 0zm0 9.812c1.799 0 3.558.534 5.053 1.535a9.11 9.11 0 0 1 3.351 4.088c.688 1.664.868 3.496.518 5.263a9.12 9.12 0 0 1-2.489 4.664 9.09 9.09 0 0 1-4.657 2.493c-1.764.352-3.594.171-5.256-.518s-3.083-1.857-4.082-3.355A9.12 9.12 0 0 1 9.8 18.921a9.11 9.11 0 0 1 2.664-6.44c1.704-1.71 4.018-2.669 6.431-2.669z"/><ellipse fill="#f7f7f7" cx="18.893" cy="18.958" rx="9.095" ry="9.417"/></svg>