<svg xmlns="http://www.w3.org/2000/svg" width="562" height="780" fill="#1f94d3" xmlns:v="https://vecta.io/nano"><path d="M402.275 513.898l-9.212 1.675a1.35 1.35 0 0 0-.504.146c-.157.081-.296.193-.41.328a1.35 1.35 0 0 0-.254.459 1.34 1.34 0 0 0-.058.522 1.35 1.35 0 0 0 .145.504c.081.157.193.296.328.41a1.35 1.35 0 0 0 .981.312h.228l9.266-1.689a1.36 1.36 0 0 0 .873-.572c.204-.3.28-.667.213-1.023a1.37 1.37 0 0 0-.573-.873c-.299-.204-.667-.28-1.023-.213v.014zm-74.365 7.44h-9.386c-.355 0-.696.141-.948.392a1.34 1.34 0 0 0-.393.948c0 .356.142.696.393.948a1.34 1.34 0 0 0 .948.392h4.506 4.921c.355 0 .696-.141.948-.392s.393-.592.393-.948a1.34 1.34 0 0 0-.106-.522c-.07-.166-.173-.315-.301-.44a1.35 1.35 0 0 0-.449-.288 1.33 1.33 0 0 0-.526-.09zm-18.732-.188l-9.386-.402c-.181-.009-.363.019-.533.082a1.33 1.33 0 0 0-.458.286c-.132.125-.237.276-.308.443a1.34 1.34 0 0 0-.109.529c0 .342.13.672.364.921s.555.399.897.42l9.386.402c.356 0 .697-.141.948-.393s.393-.592.393-.948-.141-.696-.393-.947-.592-.393-.948-.393h.147zm180.469-220.685l8.045 4.638a1.41 1.41 0 0 0 .684.187 1.34 1.34 0 0 0 .818-.268c.236-.177.407-.427.486-.711a1.34 1.34 0 0 0-.607-1.514l-8.193-4.692a1.36 1.36 0 0 0-.502-.166 1.37 1.37 0 0 0-1.002.275 1.36 1.36 0 0 0-.346.401c-.088.155-.145.325-.167.502s-.009.356.038.528.128.333.238.473a1.37 1.37 0 0 0 .4.347h.108zm-105.822 216.57l-9.266 1.246c-.175.02-.345.075-.499.16a1.36 1.36 0 0 0-.4.339 1.37 1.37 0 0 0-.239.467 1.35 1.35 0 0 0-.042.522 1.34 1.34 0 0 0 .446.846c.247.217.566.336.895.334h.161l9.386-1.247c.356-.051.677-.242.892-.53s.306-.649.255-1.005a1.36 1.36 0 0 0-1.536-1.146l-.053.014zm-37.223 3.699l-9.386.403a1.34 1.34 0 0 0-1.341 1.34c0 .355.142.697.393.948a1.34 1.34 0 0 0 .948.392l9.386-.402a1.34 1.34 0 0 0 .508-.132c.158-.077.3-.184.417-.316a1.35 1.35 0 0 0 .336-.973 1.34 1.34 0 0 0-.391-.869c-.232-.233-.542-.372-.87-.391zm18.652-1.434l-3.942.389h-.148l-5.229.429c-.356.014-.691.169-.933.43a1.34 1.34 0 0 0 .076 1.896c.261.241.608.369.964.355h.094l5.149-.429h.134l4.103-.389a1.34 1.34 0 0 0 .897-.485c.224-.274.33-.624.296-.976-.015-.176-.065-.348-.147-.505a1.33 1.33 0 0 0-.329-.409 1.36 1.36 0 0 0-.462-.252 1.34 1.34 0 0 0-.523-.054zm147.992-203.902a1.34 1.34 0 0 0 .804.268c.284.001.561-.088.791-.254s.401-.402.489-.671a1.34 1.34 0 0 0-.489-1.501l-7.736-5.362c-.146-.117-.314-.203-.494-.251a1.34 1.34 0 0 0-.553-.03 1.33 1.33 0 0 0-.518.196c-.157.1-.291.232-.394.388a1.33 1.33 0 0 0-.204.515 1.34 1.34 0 0 0 .021.553c.046.181.129.35.243.497a1.35 1.35 0 0 0 .424.357l7.616 5.295zm-40.32-23.258l8.434 4.022a1.42 1.42 0 0 0 .603.147 1.34 1.34 0 0 0 1.312-1.038c.069-.296.035-.606-.097-.881a1.34 1.34 0 0 0-.625-.628l-8.528-4.021a1.34 1.34 0 0 0-1.028-.03c-.333.127-.602.381-.748.707a1.34 1.34 0 0 0-.03 1.028c.127.333.381.602.707.748v-.054zm-108.061-30.067a1.34 1.34 0 0 0-.523.053c-.169.052-.326.137-.463.25-.275.227-.449.555-.482.91a1.35 1.35 0 0 0 1.213 1.468l9.306 1.019h.161c.329.002.648-.117.895-.334s.406-.519.446-.846a1.34 1.34 0 0 0-1.167-1.488l-9.386-1.032zm90.777 22.976l8.702 3.405a1.34 1.34 0 1 0 1.019-2.48l-8.796-3.432c-.324-.09-.67-.055-.97.098a1.34 1.34 0 0 0-.647.73c-.117.315-.11.663.018.974a1.34 1.34 0 0 0 .674.705zm-18.638-7.654a1.34 1.34 0 0 0 .885 1.676l8.903 2.855c.142.027.288.027.429 0 .313-.007.614-.122.851-.327a1.34 1.34 0 0 0 .279-1.691c-.159-.27-.406-.476-.701-.583l-8.97-2.895c-.174-.051-.355-.066-.535-.044a1.35 1.35 0 0 0-.509.169 1.34 1.34 0 0 0-.402.356c-.108.144-.187.309-.23.484zm97.508 172.333l-6.503 6.703a1.34 1.34 0 0 0 0 1.89 1.32 1.32 0 0 0 .44.306 1.34 1.34 0 0 0 .525.11c.344.002.675-.128.926-.362l6.704-6.703a1.34 1.34 0 0 0-.081-1.89c-.122-.146-.273-.264-.445-.347a1.34 1.34 0 0 0-.548-.134c-.19-.005-.38.031-.555.104a1.35 1.35 0 0 0-.463.323zm21.508-31.783a1.37 1.37 0 0 0-.518-.093c-.177.003-.351.042-.513.113s-.308.173-.431.301a1.33 1.33 0 0 0-.281.443c-1.098 2.875-2.356 5.686-3.768 8.419-.16.315-.189.68-.082 1.016a1.34 1.34 0 0 0 .658.78 1.23 1.23 0 0 0 .604.161 1.35 1.35 0 0 0 .701-.2 1.34 1.34 0 0 0 .492-.537c1.463-2.816 2.766-5.711 3.902-8.673.127-.331.118-.699-.025-1.023a1.34 1.34 0 0 0-.739-.707zm-8.3 16.77a1.34 1.34 0 0 0-1.851.402l-5.363 7.534a1.34 1.34 0 0 0-.273.99c.044.353.227.674.507.893a1.34 1.34 0 0 0 .991.273c.353-.044.675-.227.893-.507l5.511-7.722a1.34 1.34 0 0 0 .194-.491c.031-.175.027-.354-.012-.527a1.32 1.32 0 0 0-.214-.483c-.102-.145-.233-.268-.383-.362zm-5.739-93.553a1.34 1.34 0 0 0 .214-1.877l-6.154-7.198a1.34 1.34 0 0 0-.421-.346c-.162-.085-.34-.136-.523-.15a1.34 1.34 0 0 0-1.325.792 1.33 1.33 0 0 0-.116.531 1.34 1.34 0 0 0 .105.534c.071.169.176.322.309.449l6.02 7.05c.126.16.287.289.471.378s.385.133.588.132c.303-.002.596-.106.832-.295z"/><path d="M551.394 357.127a1.23 1.23 0 0 0 .617-.147c.314-.165.55-.449.656-.788a1.34 1.34 0 0 0-.093-1.022l-4.814-8.19c-.196-.299-.502-.508-.851-.58a1.35 1.35 0 0 0-1.013.191c-.299.196-.507.502-.58.851s-.004.714.191 1.012l4.693 7.963c.115.216.287.397.498.522a1.34 1.34 0 0 0 .696.188zm6.811 17.413c.116.014.233.014.349 0a1.34 1.34 0 0 0 .952-1.635c-.803-3.073-1.793-6.095-2.963-9.048-.064-.165-.16-.316-.282-.444s-.269-.23-.431-.301-.336-.109-.513-.113a1.35 1.35 0 0 0-.518.094c-.163.065-.313.161-.439.284a1.32 1.32 0 0 0-.297.431 1.35 1.35 0 0 0-.11.512c-.002.176.03.352.096.515a79.37 79.37 0 0 1 2.869 8.754c.084.276.254.517.486.689s.513.263.801.262zM420.538 509.849l-9.105 2.145a1.34 1.34 0 0 0-.839.587c-.191.299-.255.662-.18 1.008a1.34 1.34 0 0 0 .484.763c.244.191.547.291.857.283a1.12 1.12 0 0 0 .295 0l9.172-2.158c.345-.086.641-.305.825-.609a1.34 1.34 0 0 0 .154-1.013c-.039-.178-.114-.345-.22-.493s-.241-.272-.396-.366a1.34 1.34 0 0 0-.509-.181c-.18-.025-.363-.013-.538.034zM560.27 399.755a1.34 1.34 0 0 0-.985.276c-.278.219-.459.539-.503.89a75.12 75.12 0 0 1-1.703 9.022c-.086.343-.032.706.149 1.009s.474.524.816.613c.111.019.225.019.336 0 .304.009.603-.085.847-.268a1.34 1.34 0 0 0 .494-.738c.777-3.089 1.364-6.222 1.756-9.383a1.34 1.34 0 0 0-1.207-1.421zm1.086-17.52a1.34 1.34 0 0 0-.171-.499 1.35 1.35 0 0 0-.824-.628c-.171-.045-.35-.056-.527-.033a1.35 1.35 0 0 0-.499.172c-.153.089-.288.208-.396.349a1.37 1.37 0 0 0-.232.474c-.045.172-.056.351-.032.527.404 3.04.614 6.102.63 9.169 0 .355.141.696.392.948a1.34 1.34 0 0 0 1.897 0 1.34 1.34 0 0 0 .393-.948c-.009-3.187-.219-6.371-.631-9.531zm-87.84 109.464l-8.582 3.714a1.34 1.34 0 0 0-.661.609c-.144.273-.189.588-.127.891a1.34 1.34 0 0 0 1.311 1.073c.174 0 .347-.031.51-.094l8.648-3.753c.323-.146.575-.415.701-.746a1.34 1.34 0 0 0-.03-1.023c-.147-.323-.415-.575-.747-.701a1.34 1.34 0 0 0-1.023.03zm-17.271 7.159l-8.796 3.136a1.36 1.36 0 0 0-.582 2.44c.292.212.656.298 1.011.241a1.62 1.62 0 0 0 .429 0l8.877-3.177a1.33 1.33 0 0 0 .474-.262 1.32 1.32 0 0 0 .332-.428 1.33 1.33 0 0 0 .136-.525 1.34 1.34 0 0 0-.084-.535c-.064-.171-.162-.327-.288-.458a1.35 1.35 0 0 0-.447-.307 1.33 1.33 0 0 0-1.062.009v-.134zm33.978-15.483l-8.273 4.316a1.34 1.34 0 0 0-.722 1.509c.069.296.236.56.474.749a1.35 1.35 0 0 0 .838.289 1.22 1.22 0 0 0 .603-.147l8.367-4.37a1.35 1.35 0 0 0 .67-1.344c-.022-.176-.079-.346-.167-.5a1.33 1.33 0 0 0-.346-.397c-.14-.109-.3-.189-.472-.235s-.349-.06-.526-.037a1.35 1.35 0 0 0-.5.167h.054zm-51.677 21.474l-8.971 2.681c-.355.048-.677.236-.895.521a1.35 1.35 0 0 0-.264 1.001c.048.356.235.677.52.895a1.35 1.35 0 0 0 1.001.264c.121.014.242.014.362 0l9.038-2.681c.173-.047.335-.129.476-.24s.258-.25.344-.408a1.34 1.34 0 0 0 .158-.509c.018-.179 0-.359-.053-.53a1.33 1.33 0 0 0-.673-.8 1.34 1.34 0 0 0-1.043-.073v-.121zm90.884-177.574a1.34 1.34 0 0 0 0-1.891l-7.093-6.273a1.34 1.34 0 0 0-.46-.25c-.169-.053-.346-.071-.522-.055a1.34 1.34 0 0 0-.502.149c-.156.082-.294.195-.407.33a1.34 1.34 0 0 0-.25.46c-.052.169-.071.346-.055.521a1.35 1.35 0 0 0 .149.503 1.34 1.34 0 0 0 .331.406l6.959 6.153a1.34 1.34 0 0 0 .925.362 1.34 1.34 0 0 0 .925-.415zm-8.367 135.282l-7.294 5.764a1.33 1.33 0 0 0-.349.39c-.09.151-.149.319-.174.493a1.35 1.35 0 0 0 .028.522 1.34 1.34 0 0 0 .227.472c.123.169.284.306.471.402s.392.146.601.147c.29 0 .573-.094.805-.268l7.415-5.871a1.35 1.35 0 0 0 .327-.409 1.34 1.34 0 0 0 .145-.503 1.35 1.35 0 0 0-.058-.52c-.054-.168-.14-.323-.253-.458a1.35 1.35 0 0 0-.912-.472c-.176-.015-.353.005-.52.058a1.36 1.36 0 0 0-.459.253zm-14.897 11.153l-7.871 5.013c-.301.186-.517.483-.6.827a1.34 1.34 0 0 0 .158 1.01c.119.195.286.357.486.47s.424.172.653.173c.245-.002.485-.067.698-.188l7.964-5.08a1.33 1.33 0 0 0 .401-.364c.108-.147.184-.315.224-.492a1.35 1.35 0 0 0 .012-.541 1.36 1.36 0 0 0-.204-.502c-.102-.152-.233-.281-.386-.38s-.325-.166-.504-.196a1.35 1.35 0 0 0-.541.019 1.33 1.33 0 0 0-.49.231zM180.2 183.842a1.34 1.34 0 0 0-.508.897 1.35 1.35 0 0 0 .041.525 1.34 1.34 0 0 0 .239.468l6.168 7.198c.125.135.276.243.445.317a1.34 1.34 0 0 0 .534.112c.337.003.662-.122.912-.348.26-.241.415-.574.43-.929a1.34 1.34 0 0 0-.35-.961l-6.034-7.051a1.34 1.34 0 0 0-1.877-.228zm51.114-142.025a1.34 1.34 0 0 0 .644-.161l8.273-4.33a1.34 1.34 0 0 0 .644-.774c.105-.332.078-.692-.077-1.004a1.34 1.34 0 0 0-1.761-.621l-8.367 4.384c-.256.145-.457.371-.573.642a1.33 1.33 0 0 0-.064.858 1.34 1.34 0 0 0 1.281 1.007zM192.75 197.783a1.34 1.34 0 0 0 0 1.89l7.094 6.274c.237.197.536.306.844.308a1.36 1.36 0 0 0 .571-.126c.178-.084.336-.205.462-.357a1.32 1.32 0 0 0 .25-.46 1.33 1.33 0 0 0 .055-.521c-.016-.175-.067-.346-.149-.502s-.195-.294-.33-.407l-6.96-6.152a1.34 1.34 0 0 0-.929-.338c-.341.01-.666.15-.908.391zM174.448 90.316c.222.135.477.209.737.215.224 0 .445-.057.642-.165s.363-.263.484-.452l5.364-7.534a1.34 1.34 0 0 0 .239-.468c.048-.17.062-.349.041-.524a1.34 1.34 0 0 0-.164-.5 1.35 1.35 0 0 0-.344-.398 1.34 1.34 0 0 0-1.877.241l-5.511 7.721a1.33 1.33 0 0 0-.194 1.013 1.34 1.34 0 0 0 .206.484 1.33 1.33 0 0 0 .377.367zm-10.821 60.215c-.171.044-.332.12-.473.226a1.35 1.35 0 0 0-.35.391 1.36 1.36 0 0 0-.173.495c-.024.175-.014.352.03.523a84.78 84.78 0 0 0 2.964 9.048 1.34 1.34 0 0 0 1.26.845 1.23 1.23 0 0 0 .483-.094 1.34 1.34 0 0 0 .764-1.729c-1.131-2.858-2.089-5.781-2.869-8.754-.092-.342-.315-.635-.622-.813a1.34 1.34 0 0 0-1.014-.138zm-1.73-25.255h.228c.329.002.648-.117.895-.334a1.34 1.34 0 0 0 .446-.846c.377-3.04.945-6.053 1.703-9.021.087-.345.033-.711-.149-1.016a1.34 1.34 0 0 0-.823-.613c-.345-.087-.711-.034-1.016.148a1.35 1.35 0 0 0-.614.824 78.02 78.02 0 0 0-1.77 9.383c-.039.34.053.682.257.956a1.34 1.34 0 0 0 .843.519zm8.273 42.775c-.315.165-.551.449-.656.788a1.34 1.34 0 0 0 .093 1.021l4.827 8.191c.197.294.501.498.848.569a1.34 1.34 0 0 0 1.391-2.044l-4.693-7.962c-.165-.315-.449-.551-.788-.656a1.34 1.34 0 0 0-1.022.093zm-4.022-60.966a1.21 1.21 0 0 0 .482.094c.272-.002.537-.086.759-.242s.393-.375.488-.629c1.11-2.867 2.372-5.673 3.782-8.405a1.35 1.35 0 0 0 .145-.504 1.33 1.33 0 0 0-.059-.521 1.35 1.35 0 0 0-.253-.459 1.33 1.33 0 0 0-.41-.327 1.35 1.35 0 0 0-1.025-.087c-.168.054-.324.14-.458.253a1.34 1.34 0 0 0-.327.41 88.79 88.79 0 0 0-3.902 8.686 1.34 1.34 0 0 0 .03 1.026c.073.16.176.305.304.426s.279.215.444.277zm81.954-73.646a1.22 1.22 0 0 0 .563-.121l8.568-3.7a1.34 1.34 0 1 0-1.019-2.48l-8.662 3.74a1.33 1.33 0 0 0-.429.305 1.34 1.34 0 0 0-.278.447 1.35 1.35 0 0 0 .036 1.031 1.34 1.34 0 0 0 1.221.778zM375.498 4.297h.08l9.387-.402a1.34 1.34 0 0 0 .948-2.289c-.252-.251-.593-.393-.948-.393l-9.387.402a1.34 1.34 0 1 0 .067 2.681h-.147zm37.491-.416l9.386.389h.08a1.34 1.34 0 0 0 .067-2.681l-9.386-.402a1.34 1.34 0 0 0-1.341 1.341 1.34 1.34 0 0 0 1.194 1.354zm-18.732-.201h9.386a1.34 1.34 0 1 0 0-2.68h-9.386a1.34 1.34 0 1 0 0 2.68zm37.383 1.193l5.699.469a1.34 1.34 0 0 0 .964-.355c.262-.242.416-.577.431-.932s-.114-.702-.355-.964-.577-.416-.933-.431l-5.605-.469a1.34 1.34 0 0 0-.977.322 1.35 1.35 0 0 0-.464.918 1.34 1.34 0 0 0 .322.977c.232.27.563.437.918.464zM162.125 143.976h.174c.176-.023.345-.081.498-.17a1.34 1.34 0 0 0 .394-.348 1.35 1.35 0 0 0 .231-.472 1.33 1.33 0 0 0 .03-.525c-.404-3.04-.614-6.102-.63-9.169a1.34 1.34 0 0 0-1.341-1.34c-.355 0-.696.141-.948.392a1.34 1.34 0 0 0-.393.948 73.17 73.17 0 0 0 .657 9.517c.043.323.201.619.445.833a1.34 1.34 0 0 0 .883.334zM356.779 5.731h.134l4.023-.375h.148l5.216-.429c.176-.013.347-.061.505-.141a1.34 1.34 0 0 0 .413-.323c.115-.134.203-.289.258-.457s.077-.345.064-.521a1.33 1.33 0 0 0-.141-.505 1.33 1.33 0 0 0-.323-.413c-.134-.115-.289-.203-.457-.258a1.34 1.34 0 0 0-.521-.063l-5.135.429h-.148l-4.089.375a1.34 1.34 0 0 0-.509.125 1.35 1.35 0 0 0-.422.31 1.34 1.34 0 0 0-.35.966 1.35 1.35 0 0 0 .436.93 1.34 1.34 0 0 0 .448.271c.165.06.341.087.517.079h-.067zm-37.128 5.429h.254l9.199-1.689a1.34 1.34 0 0 0 .868-.544c.206-.289.29-.648.231-.998a1.34 1.34 0 0 0-1.542-1.099l-9.278 1.689a1.36 1.36 0 0 0-.503.153c-.156.083-.294.197-.406.334a1.37 1.37 0 0 0-.248.464 1.34 1.34 0 0 0-.05.523 1.33 1.33 0 0 0 .153.503 1.35 1.35 0 0 0 .798.653c.17.051.348.068.524.051v-.04zm-36.418 9.142a1.33 1.33 0 0 0 .388 0l8.971-2.681a1.34 1.34 0 0 0 .811-.63c.087-.153.143-.322.165-.497s.009-.352-.038-.522a1.33 1.33 0 0 0-.234-.468c-.108-.139-.243-.256-.396-.343a1.34 1.34 0 0 0-1.019-.128l-9.051 2.681a1.36 1.36 0 0 0-.889.535 1.35 1.35 0 0 0-.25 1.007c.053.355.245.675.534.889a1.36 1.36 0 0 0 1.008.25v-.094zm18.088-5.094a.87.87 0 0 0 .322 0l9.104-2.131c.18-.029.353-.095.506-.193a1.35 1.35 0 0 0 .389-.377 1.34 1.34 0 0 0 .207-.5 1.33 1.33 0 0 0-.007-.541c-.039-.178-.115-.346-.221-.494a1.34 1.34 0 0 0-.399-.367 1.33 1.33 0 0 0-.511-.179 1.34 1.34 0 0 0-.54.038l-9.172 2.145a1.35 1.35 0 0 0-.501.164 1.36 1.36 0 0 0-.4.343 1.34 1.34 0 0 0-.238.47 1.35 1.35 0 0 0 .123 1.026 1.33 1.33 0 0 0 .343.4c.14.109.299.191.47.238a1.35 1.35 0 0 0 .525.04v-.081zm46.944 244.063c-.356-.042-.714.058-.995.279s-.464.546-.507.901a1.35 1.35 0 0 0 .279.995c.221.282.545.464.901.506l9.386 1.019h.134a1.34 1.34 0 0 0 .968-.345c.264-.239.422-.573.44-.928a1.34 1.34 0 0 0-.345-.968c-.239-.264-.573-.422-.929-.44l-9.332-1.019zM265.453 26.28a1.51 1.51 0 0 0 .482-.08l8.796-3.137a1.34 1.34 0 1 0-.858-2.547l-8.89 3.177a1.34 1.34 0 0 0-.827 1.486c.056.305.215.582.451.782a1.35 1.35 0 0 0 .846.319z"/><path d="M338.155 8.01h.187l9.279-1.247a1.35 1.35 0 0 0 .901-.506c.222-.282.322-.639.279-.995a1.35 1.35 0 0 0-1.502-1.18l-9.386 1.247a1.34 1.34 0 0 0-1.24 1.441c.027.356.194.686.464.918a1.35 1.35 0 0 0 .977.322h.041zm-88.873 224.881l-8.448-4.022a1.34 1.34 0 0 0-1.023-.07c-.337.113-.615.355-.774.673a1.34 1.34 0 0 0-.07 1.023c.113.337.356.615.674.774l8.541 4.021a1.34 1.34 0 0 0 .55.121 1.34 1.34 0 0 0 .839-.3c.237-.193.402-.461.466-.759s.024-.611-.113-.884a1.34 1.34 0 0 0-.642-.618v.041zm-33.522-15.443c.291.005.577-.085.812-.256a1.34 1.34 0 0 0-.061-2.21l-7.63-5.362a1.34 1.34 0 0 0-1.864.281c-.105.141-.182.301-.226.472a1.33 1.33 0 0 0-.028.522 1.35 1.35 0 0 0 .173.493c.09.152.209.284.35.39l7.736 5.429c.217.151.474.235.738.241zm86.191 36.099a1.35 1.35 0 0 0 .995-.278c.282-.222.464-.546.507-.901a1.35 1.35 0 0 0-1.18-1.502l-9.051-2.359c-.174-.065-.36-.094-.546-.084a1.36 1.36 0 0 0-.534.144c-.166.085-.313.203-.431.347s-.204.312-.254.491-.061.368-.034.552.093.361.192.518a1.35 1.35 0 0 0 .896.606l9.118 2.386.322.08zm-68.894-27.131c.167-.311.205-.676.105-1.015a1.34 1.34 0 0 0-.641-.795l-8.045-4.638c-.3-.123-.633-.134-.94-.031a1.34 1.34 0 0 0-.729.594c-.163.279-.22.608-.16.926a1.34 1.34 0 0 0 .488.804l8.206 4.691c.19.115.408.176.63.175a1.34 1.34 0 0 0 .635-.216c.19-.124.345-.294.451-.495zm52.08 21.22c.051-.169.069-.347.052-.522a1.37 1.37 0 0 0-.153-.503 1.36 1.36 0 0 0-.334-.405c-.137-.111-.294-.195-.464-.246l-8.89-2.855c-.169-.07-.352-.105-.535-.103a1.33 1.33 0 0 0-1.25.911 1.34 1.34 0 0 0-.066.541c.015.183.068.361.155.523s.206.304.35.418.31.197.488.244l8.97 2.882c.129.019.26.019.389 0 .28.005.555-.077.786-.236a1.35 1.35 0 0 0 .502-.649zm53.661 13.083c.356.025.707-.092.976-.326s.434-.565.459-.92-.092-.707-.326-.976-.565-.434-.921-.459l-9.239-1.448a1.34 1.34 0 0 0-.998.231c-.289.206-.484.519-.544.869a1.34 1.34 0 0 0 .231.998c.207.289.519.484.869.543l9.306 1.461.187.027zm-18.45-3.15a1.34 1.34 0 0 0 .985-.303c.276-.227.449-.555.483-.91s-.075-.71-.302-.985a1.35 1.35 0 0 0-.911-.483l-9.158-1.89a1.34 1.34 0 0 0-1.525 1.034c-.073.335-.016.685.16.978a1.34 1.34 0 0 0 .788.602l9.225 1.903a.86.86 0 0 0 .255.054zm-53.809-17.587l-8.703-3.405c-.162-.067-.337-.101-.513-.101a1.35 1.35 0 0 0-.513.104c-.162.068-.31.167-.434.292a1.35 1.35 0 0 0-.289.435c-.067.163-.101.338-.101.514a1.34 1.34 0 0 0 .104.512 1.32 1.32 0 0 0 .292.434 1.33 1.33 0 0 0 .435.29l8.783 3.431c.151.053.31.08.469.081a1.34 1.34 0 0 0 1.261-.871c.121-.333.106-.7-.042-1.021a1.34 1.34 0 0 0-.749-.695zM55.097 568.563a1.34 1.34 0 0 0 .751-.228l7.858-5.013a1.34 1.34 0 0 0 .456-1.837c-.184-.303-.48-.521-.824-.607a1.34 1.34 0 0 0-1.013.152l-7.965 5.08a1.34 1.34 0 0 0-.576 1.378 1.33 1.33 0 0 0 .201.485c.123.182.289.331.483.434a1.34 1.34 0 0 0 .63.156zm150.767-49.317l-5.135.429h-.148l-4.09.389c-.355.018-.689.176-.928.44a1.34 1.34 0 0 0 1.063 2.241h.134l3.942-.389h.147l5.23-.429a1.31 1.31 0 0 0 .505-.142 1.33 1.33 0 0 0 .413-.325c.114-.134.201-.29.256-.459a1.33 1.33 0 0 0 .059-.521c-.013-.177-.061-.348-.142-.506a1.33 1.33 0 0 0-.325-.412 1.34 1.34 0 0 0-.459-.256c-.168-.054-.346-.074-.522-.06zm18.813-1.019l-9.386.403a1.34 1.34 0 1 0 .067 2.681h.08l9.386-.403a1.34 1.34 0 0 0 1.341-1.34c.001-.189-.038-.376-.114-.55a1.36 1.36 0 0 0-.329-.454 1.34 1.34 0 0 0-.487-.28 1.35 1.35 0 0 0-.558-.057zm18.825-.214h-9.386a1.34 1.34 0 1 0 0 2.681h9.386a1.34 1.34 0 1 0 0-2.681zM40.106 579.81a1.34 1.34 0 0 0 .858-.322l7.308-5.777a1.34 1.34 0 0 0-.615-2.4c-.352-.05-.71.042-.994.255l-7.415 5.871a1.35 1.35 0 0 0-.327.409 1.34 1.34 0 0 0-.087 1.023 1.33 1.33 0 0 0 .709.812 1.35 1.35 0 0 0 .563.129zm157.297 197.495l-9.305-1.019a1.35 1.35 0 0 0-1.502 1.18c-.043.355.058.713.279.994a1.35 1.35 0 0 0 .901.507l9.386 1.019h.134a1.36 1.36 0 0 0 .518-.077 1.35 1.35 0 0 0 .45-.269 1.33 1.33 0 0 0 .312-.42c.076-.159.119-.332.128-.508a1.34 1.34 0 0 0-.076-.518 1.35 1.35 0 0 0-.269-.449 1.36 1.36 0 0 0-.421-.313c-.159-.075-.332-.119-.508-.127h-.027zm-37.035-5.349l-9.158-1.89c-.355-.077-.727-.009-1.032.189a1.37 1.37 0 0 0-.597.863c-.076.355-.008.727.189 1.032a1.37 1.37 0 0 0 .864.597l9.225 1.903h.268c.356.032.709-.078.984-.307s.446-.557.478-.913-.079-.709-.308-.983-.557-.446-.913-.478v-.013zm18.451 3.11l-9.239-1.448c-.355-.059-.72.027-1.013.236a1.36 1.36 0 0 0-.549.883c-.059.356.026.72.236 1.013a1.36 1.36 0 0 0 .884.549l9.305 1.448h.188c.356.025.707-.093.976-.326s.434-.565.459-.921a1.34 1.34 0 0 0-.327-.975c-.234-.269-.565-.434-.92-.459zm-55.754-237.817a1.21 1.21 0 0 0 .389 0l8.984-2.681a1.34 1.34 0 0 0 .925-1.648c-.046-.17-.126-.33-.234-.469a1.34 1.34 0 0 0-.396-.342 1.33 1.33 0 0 0-.497-.166 1.35 1.35 0 0 0-.522.038l-9.051 2.681c-.176.027-.345.087-.498.179a1.37 1.37 0 0 0-.391.356c-.106.143-.183.306-.226.478s-.051.353-.025.529.088.345.179.497a1.36 1.36 0 0 0 .356.392 1.35 1.35 0 0 0 .479.225 1.36 1.36 0 0 0 .528.025v-.094zm18.089-5.013c.107.013.215.013.322 0l9.104-2.145a1.37 1.37 0 0 0 .864-.596c.197-.306.265-.677.189-1.033a1.37 1.37 0 0 0-.597-.863c-.306-.197-.677-.265-1.033-.189l-9.171 2.145c-.176.021-.346.077-.501.163a1.33 1.33 0 0 0-.4.343 1.35 1.35 0 0 0-.239.47 1.37 1.37 0 0 0-.04.525 1.35 1.35 0 0 0 .164.501c.086.154.203.29.342.4s.3.19.47.238.35.062.526.041zm.952 235.712l-9.051-2.359a1.34 1.34 0 0 0-1.522 1.957c.176.309.468.535.811.63l9.118 2.372c.34.071.693.007.986-.178a1.34 1.34 0 0 0 .587-.812c.083-.337.033-.692-.14-.993a1.34 1.34 0 0 0-.789-.617zm-36.807-224.653a1.5 1.5 0 0 0 .469-.081l8.796-3.15c.178-.047.344-.13.488-.244a1.33 1.33 0 0 0 .35-.418c.087-.161.14-.339.155-.522s-.007-.368-.066-.542-.153-.333-.276-.47-.274-.245-.441-.321a1.34 1.34 0 0 0-.532-.119c-.184-.003-.366.032-.536.103l-8.877 3.177a1.34 1.34 0 0 0-.447.274 1.35 1.35 0 0 0-.308.426c-.073.161-.114.334-.121.511s.023.353.085.518a1.35 1.35 0 0 0 .497.626 1.34 1.34 0 0 0 .764.232zm-17.351 7.158a1.35 1.35 0 0 0 .55-.107l8.568-3.713c.163-.067.311-.166.436-.29s.224-.271.292-.434.103-.336.103-.512a1.37 1.37 0 0 0-.1-.514 1.33 1.33 0 0 0-.289-.435 1.34 1.34 0 0 0-.434-.292 1.35 1.35 0 0 0-.513-.104 1.35 1.35 0 0 0-.513.101l-8.662 3.74a1.34 1.34 0 0 0-.643.62c-.137.275-.176.588-.11.888s.233.567.472.759a1.34 1.34 0 0 0 .845.293zm71.495-22.279h.255l9.198-1.676c.356-.058.674-.256.884-.549s.295-.657.236-1.012a1.36 1.36 0 0 0-.549-.883c-.293-.21-.658-.295-1.013-.237l-9.266 1.703c-.176.017-.347.068-.503.151a1.32 1.32 0 0 0-.407.332 1.34 1.34 0 0 0-.303.985c.017.176.068.347.151.503s.195.295.332.407a1.34 1.34 0 0 0 .462.25 1.36 1.36 0 0 0 .523.053v-.027zm-88.296 30.657a1.34 1.34 0 0 0 .644-.161l8.273-4.316a1.35 1.35 0 0 0 .68-.779 1.34 1.34 0 0 0-1.873-1.621l-8.367 4.37c-.256.146-.458.371-.573.642a1.34 1.34 0 0 0-.065.858c.073.285.239.539.47.721a1.34 1.34 0 0 0 .811.286zM11.8 685.628a1.34 1.34 0 0 0-1.796-.535 1.34 1.34 0 0 0-.578 1.782l4.827 8.19a1.34 1.34 0 0 0 .487.445 1.35 1.35 0 0 0 .64.159 1.34 1.34 0 0 0 .724-.215c.149-.096.276-.221.376-.367s.17-.31.206-.484.038-.351.004-.525-.101-.34-.198-.487l-4.693-7.963zm-6.705-17.131a1.35 1.35 0 0 0-1.643-.959 1.35 1.35 0 0 0-.82.623 1.34 1.34 0 0 0-.139 1.019 82.93 82.93 0 0 0 2.977 9.049 1.34 1.34 0 0 0 1.247.844 1.21 1.21 0 0 0 .483-.094 1.34 1.34 0 0 0 .764-1.729c-1.131-2.858-2.089-5.781-2.869-8.753zm118.989 94.438l-8.903-2.856a1.35 1.35 0 0 0-.536-.102c-.183.002-.365.043-.532.119s-.317.185-.441.321a1.33 1.33 0 0 0-.276.47 1.34 1.34 0 0 0-.066.541c.015.183.068.361.155.523s.206.304.35.418.31.197.488.244l8.97 2.895c.342.105.711.07 1.026-.097a1.35 1.35 0 0 0 .657-.794c.105-.341.07-.71-.097-1.026a1.34 1.34 0 0 0-.795-.656zM3.312 659.475a72.28 72.28 0 0 1-.63-9.169 1.34 1.34 0 0 0-2.289-.948c-.251.252-.393.593-.393.948a75.38 75.38 0 0 0 .657 9.518 1.35 1.35 0 0 0 .453.829 1.33 1.33 0 0 0 .888.323h.174c.349-.049.665-.235.878-.516a1.34 1.34 0 0 0 .261-.985zM1.73 642.29h.174a1.34 1.34 0 0 0 1.341-1.179 75.23 75.23 0 0 1 1.703-9.022 1.34 1.34 0 0 0 .027-.523 1.36 1.36 0 0 0-.175-.493 1.34 1.34 0 0 0-.824-.613c-.171-.043-.348-.052-.523-.026a1.35 1.35 0 0 0-.493.175 1.33 1.33 0 0 0-.389.351c-.105.141-.182.301-.225.472-.784 3.088-1.371 6.222-1.757 9.384a1.34 1.34 0 0 0 1.14 1.474zm12.564-34.96a1.34 1.34 0 0 0 .724.215 1.35 1.35 0 0 0 .642-.165 1.34 1.34 0 0 0 .485-.452l5.363-7.534a1.33 1.33 0 0 0 .279-.471 1.34 1.34 0 0 0-.09-1.068 1.35 1.35 0 0 0-.353-.419 1.33 1.33 0 0 0-.491-.242c-.179-.046-.365-.055-.547-.026a1.35 1.35 0 0 0-.512.194c-.156.099-.289.23-.391.384l-5.511 7.721a1.34 1.34 0 0 0-.196.489 1.33 1.33 0 0 0 .598 1.374zm-8.3 16.77a1.23 1.23 0 0 0 .483.093c.27 0 .534-.083.756-.236s.394-.37.491-.621a85.21 85.21 0 0 1 3.781-8.419 1.34 1.34 0 0 0-.601-1.768c-.311-.158-.671-.19-1.004-.088a1.34 1.34 0 0 0-.782.637 87.23 87.23 0 0 0-3.889 8.672 1.34 1.34 0 0 0 .764 1.73zm181.138-102.99l-9.386 1.246c-.356.025-.687.19-.921.459s-.351.62-.326.976.19.686.459.92.62.351.976.326h.281l9.279-1.246c.176-.022.347-.077.501-.164a1.33 1.33 0 0 0 .4-.343 1.34 1.34 0 0 0 .239-.47c.048-.17.061-.349.04-.525s-.077-.346-.163-.501a1.37 1.37 0 0 0-.343-.4c-.14-.109-.299-.19-.47-.238s-.349-.062-.526-.04h-.04zM21.91 701.097a1.34 1.34 0 0 0-.398-.339 1.33 1.33 0 0 0-1.02-.12c-.169.048-.328.129-.466.238a1.35 1.35 0 0 0-.34.398 1.33 1.33 0 0 0-.161.498 1.34 1.34 0 0 0 .041.522 1.35 1.35 0 0 0 .238.466l6.168 7.198a1.36 1.36 0 0 0 .443.324c.168.076.351.116.536.119.339-.002.665-.131.912-.362a1.34 1.34 0 0 0 .081-1.891l-6.034-7.051zm84.461 55.899l-8.702-3.405a1.34 1.34 0 1 0-1.019 2.48l8.783 3.432a1.44 1.44 0 0 0 .469.08c.31-.005.609-.118.845-.319a1.33 1.33 0 0 0 .451-.782c.056-.305.004-.62-.147-.891a1.34 1.34 0 0 0-.68-.595zm-34.004-15.375l-8.045-4.639a1.34 1.34 0 0 0-.509-.226c-.183-.04-.373-.04-.557-.001a1.34 1.34 0 0 0-.509.225c-.152.11-.279.251-.374.413a1.34 1.34 0 0 0-.174.529c-.02.186-.001.375.056.553a1.34 1.34 0 0 0 .725.813l8.193 4.692a1.34 1.34 0 0 0 .644.161c.299.001.59-.097.827-.28a1.34 1.34 0 0 0-.183-2.24h-.094zm16.721 8.284l-8.447-4.022c-.159-.093-.336-.152-.519-.174a1.34 1.34 0 0 0-1.363.739 1.34 1.34 0 0 0 .247 1.531 1.35 1.35 0 0 0 .455.304l8.528 4.021a1.54 1.54 0 0 0 .55.107 1.34 1.34 0 0 0 .839-.299c.237-.193.402-.461.466-.76a1.34 1.34 0 0 0-.755-1.501v.054zm-40.32-23.258c-.286-.213-.646-.304-.999-.252a1.35 1.35 0 0 0-1.138 1.526 1.35 1.35 0 0 0 .528.885l7.737 5.361a1.33 1.33 0 0 0 .751.228 1.34 1.34 0 0 0 1.274-.954 1.34 1.34 0 0 0-.537-1.499l-7.616-5.295zm-14.71-142.856a1.34 1.34 0 0 0-1.467-.293 1.33 1.33 0 0 0-.436.293l-6.637 6.703a1.34 1.34 0 0 0 .094 1.89c.246.223.566.347.898.348.186.001.37-.036.541-.11a1.33 1.33 0 0 0 .451-.319l6.503-6.702a1.34 1.34 0 0 0 .054-1.81zm.416 130.953c-.124-.136-.276-.245-.444-.319a1.33 1.33 0 0 0-.535-.116c-.184-.001-.367.035-.536.108a1.36 1.36 0 0 0-.449.312 1.34 1.34 0 0 0-.287.465c-.063.174-.089.358-.077.542a1.32 1.32 0 0 0 .146.526 1.35 1.35 0 0 0 .344.425l7.093 6.274a1.34 1.34 0 0 0 .858.308 1.32 1.32 0 0 0 .563-.129 1.34 1.34 0 0 0 .456-.353c.114-.135.2-.291.253-.459s.073-.344.058-.52-.064-.346-.145-.503a1.32 1.32 0 0 0-.327-.408l-6.972-6.153z"/><path d="M250.623 510.01c5.202 4.746 5.216 4.022 6.704-3.82-.357.015-.713-.049-1.043-.188a2.42 2.42 0 0 1-.861-.616 2.6 2.6 0 0 1-.688-1.293 2.61 2.61 0 0 1 .12-1.46c.18-.465.489-.869.891-1.163a2.61 2.61 0 0 1 3.832.873c.234.439.338.937.298 1.434s-.222.971-.524 1.367c-.163.217-.363.403-.59.55 5.765 8.043 6.704 6.26 11.115-3.566a3.24 3.24 0 0 1-1.179-.804 3.39 3.39 0 0 1-.912-1.737c-.126-.656-.055-1.335.203-1.951s.694-1.143 1.25-1.512a3.4 3.4 0 0 1 1.879-.568 3.39 3.39 0 0 1 1.878.568 3.38 3.38 0 0 1 1.25 1.512c.259.616.329 1.295.203 1.951s-.443 1.26-.911 1.737c-.324.352-.722.627-1.167.804 4.385 9.826 5.364 11.569 11.103 3.566a2.22 2.22 0 0 1-.577-.55c-.302-.396-.484-.87-.524-1.367s.064-.995.298-1.434a2.61 2.61 0 0 1 3.832-.873c.402.294.711.698.89 1.163a2.6 2.6 0 0 1-.567 2.753 2.43 2.43 0 0 1-.868.618c-.332.139-.69.202-1.049.186 1.515 7.882 1.542 8.566 6.704 3.82l-.241-.268c-.3-.396-.481-.871-.519-1.367s.066-.992.301-1.43a2.6 2.6 0 0 1 2.451-1.367c.497.03.974.202 1.376.496a2.6 2.6 0 0 1 .891 1.159c.179.464.222.97.124 1.457a2.6 2.6 0 0 1-.682 1.294 2.45 2.45 0 0 1-1.998.791l-2.239 11.434h-39.932l-2.239-11.434c-.369.027-.739-.03-1.083-.167s-.652-.351-.901-.624c-.349-.357-.587-.806-.688-1.294s-.059-.994.12-1.459a2.6 2.6 0 0 1 4.723-.29c.234.439.338.937.298 1.434a2.59 2.59 0 0 1-.525 1.367l-.241.268h.014zm2.359 13.74h36.325a2.52 2.52 0 0 1 1.782.739c.473.472.739 1.113.739 1.782a2.52 2.52 0 0 1-.739 1.782c-.473.472-1.114.738-1.782.738h-36.338c-.666-.004-1.304-.271-1.774-.743a2.52 2.52 0 0 1 0-3.555c.47-.472 1.108-.739 1.774-.743h.013zm134.302-260.578c5.203 4.746 5.216 4.022 6.705-3.82a2.42 2.42 0 0 1-1.05-.187c-.331-.139-.628-.35-.868-.617-.346-.358-.583-.806-.682-1.294s-.055-.993.124-1.457a2.6 2.6 0 0 1 .891-1.159c.402-.294.879-.466 1.376-.496a2.6 2.6 0 0 1 2.451 1.367c.235.438.34.934.301 1.43s-.218.971-.519 1.367a2.53 2.53 0 0 1-.59.55c5.753 8.043 6.705 6.26 11.103-3.566-.444-.177-.843-.452-1.167-.804-.468-.477-.785-1.081-.911-1.737a3.4 3.4 0 0 1 1.453-3.464c.557-.37 1.21-.567 1.879-.567a3.39 3.39 0 0 1 1.878.567 3.4 3.4 0 0 1 1.453 3.464c-.126.656-.443 1.26-.911 1.737a3.25 3.25 0 0 1-1.18.804c4.398 9.826 5.363 11.569 11.116 3.566a2.53 2.53 0 0 1-.59-.55c-.3-.396-.481-.871-.519-1.367s.066-.992.301-1.43a2.6 2.6 0 0 1 2.451-1.367c.497.03.974.202 1.376.496a2.6 2.6 0 0 1 .891 1.159c.179.464.222.97.124 1.457s-.336.936-.682 1.294c-.242.265-.539.475-.87.613a2.49 2.49 0 0 1-1.048.191c1.516 7.882 1.529 8.566 6.705 3.82-.091-.079-.172-.169-.242-.268a2.6 2.6 0 0 1-.524-1.367c-.04-.497.064-.995.298-1.434a2.6 2.6 0 0 1 2.455-1.371 2.59 2.59 0 0 1 1.377.498c.402.294.711.698.891 1.163s.22.971.12 1.459a2.6 2.6 0 0 1-.688 1.293c-.249.274-.557.488-.901.625a2.43 2.43 0 0 1-1.083.166l-2.24 11.435h-39.917l-2.253-11.435c-.369.028-.74-.029-1.083-.166s-.652-.351-.902-.625c-.346-.357-.582-.806-.681-1.293a2.6 2.6 0 0 1 .124-1.457 2.61 2.61 0 0 1 .89-1.16c.402-.293.88-.465 1.376-.496a2.6 2.6 0 0 1 2.452 1.367 2.61 2.61 0 0 1 .301 1.431c-.039.496-.219.97-.519 1.367a2.31 2.31 0 0 1-.255.268h.013zm2.36 13.74h36.324c.667.004 1.304.271 1.774.743a2.52 2.52 0 0 1-1.774 4.297h-36.324a2.52 2.52 0 0 1-1.782-.738c-.473-.472-.739-1.113-.739-1.781a2.52 2.52 0 0 1 2.521-2.521zM181.903 52.568c5.202 4.745 5.216 4.022 6.704-3.82a2.45 2.45 0 0 1-1.049-.188 2.43 2.43 0 0 1-.868-.617c-.347-.357-.583-.806-.682-1.294a2.6 2.6 0 0 1 2.39-3.113 2.6 2.6 0 0 1 2.452 1.367c.235.438.339.935.301 1.431s-.219.97-.519 1.367a2.53 2.53 0 0 1-.59.55c5.752 8.043 6.704 6.26 11.102-3.566a3.52 3.52 0 0 1-1.166-.804 3.39 3.39 0 0 1-.912-1.737c-.126-.656-.055-1.335.204-1.951a3.39 3.39 0 0 1 5.006-1.512c.557.37.992.896 1.25 1.512s.33 1.295.204 1.951-.443 1.261-.912 1.737c-.33.345-.727.618-1.166.804 4.384 9.826 5.363 11.569 11.102 3.566a2.51 2.51 0 0 1-.59-.55c-.3-.397-.48-.871-.519-1.367a2.6 2.6 0 0 1 2.753-2.798 2.6 2.6 0 0 1 2.39 3.113 2.6 2.6 0 0 1-.682 1.294 2.46 2.46 0 0 1-.869.614 2.47 2.47 0 0 1-1.048.19c1.515 7.882 1.529 8.566 6.704 3.82l-.241-.268a2.6 2.6 0 0 1-.226-2.801 2.61 2.61 0 0 1 1.026-1.046 2.6 2.6 0 0 1 3.696 1.335 2.6 2.6 0 0 1-.567 2.753 2.44 2.44 0 0 1-.901.624c-.343.137-.715.194-1.084.167l-2.239 11.435h-39.918L180.2 53.332a2.44 2.44 0 0 1-1.091-.164 2.45 2.45 0 0 1-.907-.627c-.346-.357-.583-.806-.682-1.294a2.6 2.6 0 0 1 1.015-2.617 2.61 2.61 0 0 1 1.376-.496 2.6 2.6 0 0 1 2.752 2.797c-.039.496-.219.97-.519 1.367l-.241.268zm2.36 13.74h36.324a2.52 2.52 0 0 1 2.521 2.52c-.004.666-.271 1.304-.743 1.774a2.52 2.52 0 0 1-1.778.733h-36.324a2.52 2.52 0 0 1-2.521-2.507 2.52 2.52 0 0 1 2.521-2.52z" fill-rule="evenodd"/></svg>