<svg xmlns="http://www.w3.org/2000/svg" width="719" height="759" fill="#ffd103"><path d="M637.338 565.504c-.169.06-.348.09-.528.087-3.807.076-7.705.046-11.6-.074a1.64 1.64 0 0 1-1.24-.464 1.63 1.63 0 0 1-.377-.562c-.086-.212-.126-.438-.119-.666a1.65 1.65 0 0 1 .159-.658 1.64 1.64 0 0 1 .411-.538c.173-.148.374-.26.592-.327s.448-.087.674-.06c3.838.105 7.684.137 11.439.063a1.67 1.67 0 0 1 1.249.261c.365.249.616.633.698 1.068s-.012.884-.262 1.249a1.67 1.67 0 0 1-1.068.698l-.028-.077zm-23.012-.69c-.219.079-.453.11-.685.092l-11.503-1.055a1.64 1.64 0 0 1-1.45-1.817c.025-.215.092-.424.199-.613a1.66 1.66 0 0 1 .419-.49 1.65 1.65 0 0 1 .576-.291 1.66 1.66 0 0 1 .643-.046l11.38 1.1a1.64 1.64 0 0 1 .999.442c.273.257.45.599.502.97a1.65 1.65 0 0 1-1.058 1.77l-.022-.062zm-22.867-2.686a1.64 1.64 0 0 1-.809.085c-3.722-.603-7.591-1.274-11.405-2.036-.427-.084-.804-.334-1.047-.695a1.64 1.64 0 0 1-.251-1.23c.084-.427.333-.803.694-1.047a1.65 1.65 0 0 1 1.231-.251c3.778.758 7.528 1.438 11.244 2.025.429.071.813.31 1.067.664s.357.793.287 1.223a1.65 1.65 0 0 1-1.011 1.262zm-22.629-4.436c-.296.107-.617.127-.924.057-3.714-.869-7.492-1.819-11.248-2.899a1.64 1.64 0 0 1-.618-.26c-.186-.128-.344-.294-.463-.485s-.199-.407-.231-.63-.02-.451.039-.67.163-.421.304-.598a1.64 1.64 0 0 1 .517-.427c.2-.106.419-.168.645-.185a1.63 1.63 0 0 1 .665.088l11.11 2.809a1.64 1.64 0 0 1 1.248 1.502c.02.351-.072.699-.264.993a1.65 1.65 0 0 1-.802.643l.022.062zm-22.226-6.019c-.334.122-.699.132-1.04.029-3.69-1.14-7.402-2.341-11.007-3.582-.214-.063-.413-.168-.585-.309s-.314-.317-.416-.515a1.63 1.63 0 0 1-.18-.637c-.016-.222.013-.445.086-.656a1.64 1.64 0 0 1 .337-.569c.15-.165.332-.298.535-.39a1.65 1.65 0 0 1 .645-.148c.223-.005.445.035.651.118a327.78 327.78 0 0 0 10.902 3.533c.208.064.402.168.569.307a1.65 1.65 0 0 1 .408.502 1.64 1.64 0 0 1 .182.62 1.65 1.65 0 0 1-.071.643c-.074.237-.202.454-.373.634s-.38.32-.612.408l-.031.012zm-21.711-7.486a1.64 1.64 0 0 1-1.176-.008 184.92 184.92 0 0 1-10.661-4.601c-.212-.08-.406-.202-.568-.36a1.66 1.66 0 0 1-.377-.558 1.63 1.63 0 0 1-.122-.661 1.66 1.66 0 0 1 .153-.656 1.64 1.64 0 0 1 .402-.539c.17-.15.369-.263.585-.333a1.65 1.65 0 0 1 .669-.07c.226.023.444.092.642.203a178.02 178.02 0 0 0 10.486 4.507c.405.162.729.477.901.877s.179.852.018 1.257c-.084.215-.211.41-.375.572a1.63 1.63 0 0 1-.577.37zm-20.853-9.741a1.65 1.65 0 0 1-.682.101c-.231-.015-.457-.079-.663-.188a181.43 181.43 0 0 1-10.026-5.884 1.66 1.66 0 0 1-.507-.432 1.64 1.64 0 0 1-.294-.598 1.66 1.66 0 0 1-.033-.666 1.65 1.65 0 0 1 .235-.624 1.64 1.64 0 0 1 1.078-.737 1.66 1.66 0 0 1 .666.009 1.64 1.64 0 0 1 .609.272 173.94 173.94 0 0 0 9.84 5.759c.382.209.666.561.789.979s.075.868-.133 1.251c-.204.336-.522.589-.896.712l.017.046zm-19.494-12.303c-.253.092-.525.121-.792.085s-.521-.139-.739-.297c-3.123-2.275-6.242-4.726-9.192-7.151-.314-.286-.505-.682-.534-1.105a1.65 1.65 0 0 1 .38-1.166c.272-.326.66-.533 1.081-.58a1.65 1.65 0 0 1 1.182.33c2.92 2.437 5.963 4.828 9.011 6.99.175.126.324.287.437.471s.189.389.223.603a1.65 1.65 0 0 1-.024.642 1.63 1.63 0 0 1-.27.584c-.189.27-.455.477-.763.594zm-17.627-14.719c-.29.107-.603.129-.905.066a1.64 1.64 0 0 1-.802-.424c-2.294-2.209-4.559-4.481-6.731-6.788l-1.396-1.521c-.145-.16-.258-.347-.332-.55a1.63 1.63 0 0 1-.096-.634 1.64 1.64 0 0 1 .154-.623c.092-.196.221-.371.38-.517s.347-.258.55-.332a1.65 1.65 0 0 1 .634-.096 1.64 1.64 0 0 1 .623.154 1.63 1.63 0 0 1 .517.38c.446.503.902.984 1.363 1.481 2.125 2.272 4.358 4.503 6.614 6.656.156.15.281.329.368.528a1.64 1.64 0 0 1 .138.628 1.63 1.63 0 0 1-.114.633c-.079.202-.197.386-.347.541-.187.201-.42.353-.68.441l.062-.023zm-15.582-16.935c-.333.14-.703.167-1.052.076a1.64 1.64 0 0 1-.882-.578c-2.44-3.137-4.726-6.33-6.756-9.493a1.66 1.66 0 0 1-.239-.597 1.65 1.65 0 0 1 .008-.642c.045-.211.131-.412.253-.59a1.65 1.65 0 0 1 1.06-.686 1.63 1.63 0 0 1 .645.011 1.64 1.64 0 0 1 .592.258c.178.125.329.283.446.466 1.981 3.077 4.201 6.188 6.592 9.238a1.63 1.63 0 0 1 .289.576c.057.208.073.427.045.642a1.65 1.65 0 0 1-.204.61c-.108.188-.252.353-.423.485-.111.095-.238.171-.374.224zm-12.343-19.43c-.378.141-.796.138-1.172-.009a1.65 1.65 0 0 1-.869-.787c-1.705-3.382-3.214-6.859-4.518-10.415l-.119-.324a1.65 1.65 0 0 1 .054-1.258c.184-.395.518-.702.928-.851a1.64 1.64 0 0 1 2.108.981l.13.355c1.254 3.429 2.71 6.779 4.362 10.034.097.194.156.405.171.62a1.65 1.65 0 0 1-.079.639 1.63 1.63 0 0 1-.318.558c-.142.164-.314.298-.508.395l-.17.062zm-38.294-2.887c-3.662 1.336-7.375 2.533-11.023 3.619a1.63 1.63 0 0 1-.64.061c-.216-.022-.424-.086-.615-.189s-.359-.242-.495-.41-.238-.362-.3-.569a1.65 1.65 0 0 1-.061-.641 1.64 1.64 0 0 1 .189-.614c.103-.191.243-.359.411-.496a1.62 1.62 0 0 1 .569-.299c3.602-1.07 7.247-2.26 10.837-3.552.41-.15.862-.13 1.258.054a1.64 1.64 0 0 1 .851.927 1.65 1.65 0 0 1-.054 1.258c-.184.396-.517.701-.927.851zm10.72-4.21a1.64 1.64 0 0 1-1.221-.035c-.388-.169-.696-.48-.86-.869a1.64 1.64 0 0 1-.13-.629c-.002-.216.039-.431.12-.631a1.65 1.65 0 0 1 .886-.898c3.461-1.455 6.965-3.031 10.414-4.71a1.64 1.64 0 0 1 .625-.159c.217-.011.434.02.638.093a1.66 1.66 0 0 1 .554.33c.161.145.292.321.386.517a1.65 1.65 0 0 1 .158.624c.011.217-.02.434-.093.638a1.65 1.65 0 0 1-.33.554 1.67 1.67 0 0 1-.516.386 215.95 215.95 0 0 1-10.517 4.765l-.114.024zm-32.837 10.775l-.185.067a198.71 198.71 0 0 1-11.408 2.325c-.216.037-.438.032-.652-.016s-.416-.138-.596-.265a1.67 1.67 0 0 1-.45-.472c-.118-.186-.197-.392-.234-.608s-.032-.438.016-.652.138-.417.264-.596.287-.332.472-.45a1.69 1.69 0 0 1 .609-.235c3.723-.64 7.474-1.396 11.148-2.317.418-.125.87-.078 1.254.13a1.65 1.65 0 0 1 .666 2.233c-.207.384-.559.67-.978.795l.074.061zm53.49-20.727c-.4.178-.854.19-1.262.034s-.738-.468-.916-.868-.191-.853-.034-1.261a1.65 1.65 0 0 1 .868-.916c3.29-1.779 6.634-3.699 9.924-5.67a1.67 1.67 0 0 1 2.48 1.848c-.108.431-.384.8-.765 1.028-3.331 2.003-6.721 3.94-10.052 5.751l-.243.054zm-76.131 24.559c-.122.063-.252.11-.386.141-3.844.405-7.734.686-11.549.835-.437.018-.863-.139-1.184-.435a1.65 1.65 0 0 1-.53-1.146c-.018-.437.138-.863.435-1.184a1.64 1.64 0 0 1 1.145-.53c3.748-.142 7.57-.416 11.346-.814a1.63 1.63 0 0 1 .64.063c.208.062.4.165.568.303a1.64 1.64 0 0 1 .407.497 1.65 1.65 0 0 1 .186.616 1.65 1.65 0 0 1-.263 1.006c-.195.299-.48.526-.815.648zm95.857-36.38a1.64 1.64 0 0 1-1.101.039 1.65 1.65 0 0 1-.879-.664c-.12-.182-.204-.385-.245-.599a1.64 1.64 0 0 1 .004-.647 1.66 1.66 0 0 1 .254-.596c.123-.179.281-.333.464-.451 3.121-2.049 6.302-4.225 9.444-6.458.176-.125.376-.214.586-.262a1.65 1.65 0 0 1 .642-.019c.213.036.417.114.6.229a1.63 1.63 0 0 1 .467.44 1.64 1.64 0 0 1 .263.586 1.65 1.65 0 0 1 .019.642c-.036.213-.114.417-.229.601a1.65 1.65 0 0 1-.441.467 279.37 279.37 0 0 1-9.556 6.533 1.38 1.38 0 0 1-.262.148l-.03.011zm-20.618 7.314l-.216.079c-.427.09-.872.008-1.238-.23a1.64 1.64 0 0 1-.713-1.037 83.24 83.24 0 0 1-1.614-11.667 1.67 1.67 0 0 1 .089-.638c.071-.205.182-.393.326-.555s.32-.293.515-.387a1.65 1.65 0 0 1 .624-.16 1.64 1.64 0 0 1 1.734 1.538 76.4 76.4 0 0 0 1.526 11.139c.09.385.039.79-.145 1.14a1.65 1.65 0 0 1-.857.767l-.031.011zm-98.172 29.888a1.5 1.5 0 0 1-.596.095c-3.832-.09-7.736-.328-11.576-.678a1.65 1.65 0 0 1-1.115-.59c-.279-.336-.412-.77-.371-1.205a1.65 1.65 0 0 1 1.795-1.487c3.777.373 7.581.578 11.346.675a1.64 1.64 0 0 1 1.58 1.381c.061.378-.011.766-.205 1.096s-.498.583-.858.713zm137.565-50.619c-.367.129-.769.124-1.132-.015s-.667-.403-.854-.744a1.65 1.65 0 0 1-.171-1.12 1.64 1.64 0 0 1 .594-.964 366.63 366.63 0 0 0 8.988-7.132c.338-.277.772-.408 1.207-.364s.834.257 1.11.595a1.64 1.64 0 0 1 .364 1.206c-.043.435-.257.834-.595 1.111-2.99 2.457-6.05 4.869-9.075 7.181-.116.129-.257.234-.413.308l-.023-.062zm17.86-14.536a1.64 1.64 0 0 1-1.998-.71c-.196-.336-.267-.729-.2-1.112s.266-.728.563-.978l8.697-7.498c.162-.144.352-.255.557-.325a1.63 1.63 0 0 1 1.262.08c.195.096.368.229.511.393a1.63 1.63 0 0 1 .325.556c.071.206.1.423.086.639a1.65 1.65 0 0 1-.166.623 1.64 1.64 0 0 1-.393.512l-8.737 7.53a1.83 1.83 0 0 1-.485.352l-.022-.062zm-178.337 63.063a1.81 1.81 0 0 1-.825.091c-3.727-.618-7.614-1.336-11.306-2.195a1.65 1.65 0 0 1-1.252-1.968c.095-.427.355-.799.724-1.033a1.65 1.65 0 0 1 1.244-.219 220.43 220.43 0 0 0 11.272 2.102c.43.072.813.31 1.067.664s.357.794.287 1.223a1.64 1.64 0 0 1-.362.853 1.65 1.65 0 0 1-.765.522l-.084-.04zm195.57-78.211c-.359.137-.755.143-1.119.017a1.64 1.64 0 0 1-.871-.703c-.199-.329-.277-.717-.219-1.098s.246-.728.534-.984l8.386-7.822a1.65 1.65 0 0 1 1.179-.454c.437.012.852.196 1.154.513a1.65 1.65 0 0 1-.059 2.333l-8.458 7.866c-.12.146-.265.269-.427.366l-.1-.034zm-75.902 27.487a1.51 1.51 0 0 1-.705.083c-.434-.039-.835-.249-1.115-.584s-.415-.766-.377-1.201c.35-3.899.98-7.769 1.886-11.578a1.65 1.65 0 0 1 1.99-1.216c.425.102.792.369 1.02.743s.299.821.196 1.246c-.871 3.671-1.47 7.401-1.793 11.16a1.64 1.64 0 0 1-.358.831c-.195.239-.452.417-.744.516zm-142.032 45.719a1.65 1.65 0 0 1-1.019.039c-3.656-1.047-7.363-2.233-11.015-3.509a1.65 1.65 0 0 1-.941-.841c-.19-.393-.215-.846-.071-1.259a1.65 1.65 0 0 1 .841-.941c.393-.189.846-.215 1.259-.07a196.27 196.27 0 0 0 10.837 3.451c.335.096.631.294.845.568a1.65 1.65 0 0 1 .349.957c.012.347-.086.691-.281.979a1.65 1.65 0 0 1-.804.626zm234.642-89.125c-.35.126-.732.129-1.084.01a1.65 1.65 0 0 1-.854-.667c-.201-.312-.291-.683-.254-1.053s.197-.716.456-.983c2.82-2.78 5.461-5.617 7.905-8.277a1.63 1.63 0 0 1 1.158-.619c.225-.018.452.011.666.084s.41.19.576.343a1.64 1.64 0 0 1 .392.544 1.65 1.65 0 0 1 .011 1.314 1.66 1.66 0 0 1-.384.55l-7.996 8.363c-.131.167-.295.305-.483.404l-.109-.013zm-87.322 21.097a1.65 1.65 0 0 1-1.16-.014c-.407-.156-.736-.467-.914-.865s-.191-.85-.036-1.258a100.35 100.35 0 0 1 4.873-10.637c.101-.191.24-.36.407-.498s.359-.241.566-.305a1.65 1.65 0 0 1 .64-.064c.215.02.424.083.616.185a1.63 1.63 0 0 1 .497.407c.137.167.242.359.305.566a1.67 1.67 0 0 1 .065.64c-.021.215-.084.424-.186.616a93.6 93.6 0 0 0-4.705 10.279 1.64 1.64 0 0 1-.361.595 1.63 1.63 0 0 1-.574.393l-.033-.04zm102.839-38.07a1.64 1.64 0 0 1-1.063.03c-.348-.108-.65-.329-.859-.627s-.313-.657-.296-1.021.155-.712.391-.989c2.602-3.138 4.931-6.159 6.937-9.01.125-.178.285-.33.469-.446s.39-.194.605-.231a1.64 1.64 0 0 1 .647.021 1.65 1.65 0 0 1 .589.269c.355.253.594.638.666 1.068s-.031.871-.284 1.226c-2.057 2.904-4.441 6.015-7.14 9.224a1.64 1.64 0 0 1-.63.527l-.032-.041zm-271.831 98.528c-.383.139-.804.13-1.182-.024-3.527-1.462-7.1-3.047-10.617-4.722-.212-.081-.405-.205-.566-.364a1.65 1.65 0 0 1 .074-2.413c.171-.149.371-.26.587-.328s.444-.091.67-.066a1.64 1.64 0 0 1 .639.207 232.3 232.3 0 0 0 10.449 4.644 1.65 1.65 0 0 1 .538.357 1.64 1.64 0 0 1 .484 1.17c0 .218-.044.433-.128.633-.079.212-.202.406-.359.569a1.65 1.65 0 0 1-.556.378l-.033-.041zm284.937-117.405c-.214.08-.442.114-.67.101s-.45-.074-.654-.178c-.386-.201-.676-.546-.808-.961a1.65 1.65 0 0 1 .106-1.251 33.08 33.08 0 0 0 3.624-10.27c.058-.432.286-.823.632-1.087a1.65 1.65 0 0 1 2.305.31c.264.347.38.784.322 1.217-.677 3.975-2.019 7.809-3.968 11.34a1.64 1.64 0 0 1-.889.779zm-105.261 36.66a1.64 1.64 0 0 1-1.853-.54c-.213-.274-.333-.608-.345-.955a1.65 1.65 0 0 1 .281-.975c2.129-3.14 4.48-6.292 6.975-9.338a1.65 1.65 0 0 1 1.085-.468c.406-.016.805.119 1.118.38s.518.627.576 1.031a1.65 1.65 0 0 1-.264 1.151c-2.419 2.966-4.793 6.056-6.799 9.099-.189.28-.459.494-.774.615zm-200.511 70.91a1.65 1.65 0 0 1-.682.1 1.64 1.64 0 0 1-.663-.188c-3.355-1.804-6.749-3.717-10.083-5.705-.197-.104-.37-.248-.51-.422a1.62 1.62 0 0 1-.302-.588c-.06-.215-.076-.44-.046-.66a1.62 1.62 0 0 1 .218-.625 1.64 1.64 0 0 1 .446-.489 1.66 1.66 0 0 1 .603-.272 1.64 1.64 0 0 1 .662-.013c.219.04.428.125.613.249a277.71 277.71 0 0 0 9.946 5.615 1.65 1.65 0 0 1 .501.408c.138.168.242.362.305.57s.084.427.062.643-.087.427-.191.618a1.64 1.64 0 0 1-.806.767l-.073-.008zm215.094-88.715c-.289.106-.602.129-.904.066s-.58-.21-.802-.424a1.64 1.64 0 0 1-.368-.527c-.087-.199-.134-.412-.138-.628a1.66 1.66 0 0 1 .113-.634c.079-.202.198-.385.348-.541 2.666-2.723 5.47-5.497 8.432-8.032.163-.143.352-.253.557-.323a1.65 1.65 0 0 1 1.262.08c.194.096.368.228.511.391a1.66 1.66 0 0 1 .324.557 1.65 1.65 0 0 1 .085.639 1.66 1.66 0 0 1-.556 1.134c-2.874 2.537-5.656 5.181-8.256 7.845a1.64 1.64 0 0 1-.535.405l-.073-.008zm90.773-39.899a1.65 1.65 0 0 1-1.516-.218 17.12 17.12 0 0 0-10.035-2.361c-.227.023-.456-.002-.673-.073a1.62 1.62 0 0 1-.587-.338 1.63 1.63 0 0 1-.4-.545c-.095-.207-.145-.432-.148-.66s.042-.454.131-.664.222-.399.388-.555.363-.276.578-.352a1.64 1.64 0 0 1 .67-.09c5.107-.112 9.107.967 11.989 2.962a1.65 1.65 0 0 1-.397 2.894zM225.496 443.091c-.24.088-.497.118-.75.089a1.64 1.64 0 0 1-.712-.256c-3.217-2.1-6.432-4.288-9.575-6.521a1.64 1.64 0 0 1-.382-2.294c.254-.355.638-.594 1.068-.666s.871.031 1.226.284c3.117 2.207 6.289 4.376 9.459 6.441.181.118.337.27.459.448s.208.379.253.59a1.65 1.65 0 0 1 .007.642c-.04.213-.121.415-.239.596-.182.313-.462.556-.797.694l-.017-.047zm252.111-92.207a1.64 1.64 0 0 1-1.132-.016c-.364-.139-.667-.402-.855-.744a1.64 1.64 0 0 1-.17-1.119 1.65 1.65 0 0 1 .594-.965c3.066-2.344 6.244-4.625 9.478-6.75a1.63 1.63 0 0 1 1.268-.312 1.64 1.64 0 0 1 .621.241c.189.122.35.282.475.469a1.65 1.65 0 0 1 .249.618 1.63 1.63 0 0 1-.016.667c-.051.219-.146.425-.28.605a1.65 1.65 0 0 1-.497.444 174.96 174.96 0 0 0-9.3 6.616 1.3 1.3 0 0 1-.418.292l-.017-.046zm-270.786 78.887c-.26.097-.541.127-.816.087a1.66 1.66 0 0 1-.757-.318 308.96 308.96 0 0 1-9.053-7.202c-.191-.128-.353-.296-.475-.491a1.62 1.62 0 0 1-.235-.641 1.65 1.65 0 0 1 .045-.681 1.66 1.66 0 0 1 .319-.604c.147-.177.33-.321.536-.423a1.64 1.64 0 0 1 .662-.168c.23-.009.459.03.673.115s.408.214.569.378l9.007 7.219c.171.131.314.296.422.483a1.64 1.64 0 0 1 .205.608c.028.214.013.432-.043.64s-.153.404-.285.576a1.65 1.65 0 0 1-.774.422zm-17.801-14.62a1.65 1.65 0 0 1-1.653-.307c-2.842-2.464-5.759-5.13-8.601-7.787-.305-.3-.481-.707-.491-1.135a1.64 1.64 0 0 1 .439-1.155c.291-.313.693-.502 1.121-.524s.846.123 1.168.405a393.19 393.19 0 0 0 8.542 7.72c.163.143.297.317.392.511s.153.406.166.622-.015.433-.085.638a1.63 1.63 0 0 1-.324.556c-.201.228-.461.395-.751.484l.077-.028zm-16.911-15.732a1.64 1.64 0 0 1-.915.055 1.65 1.65 0 0 1-.803-.444c-2.723-2.665-5.481-5.423-8.145-8.215-.15-.156-.268-.34-.347-.541s-.118-.416-.114-.632a1.65 1.65 0 0 1 .137-.627c.087-.198.212-.378.368-.527s.339-.268.54-.347.416-.118.632-.114a1.66 1.66 0 0 1 .628.137c.198.087.377.212.527.367l8.076 8.171c.31.305.486.72.491 1.155a1.65 1.65 0 0 1-.467 1.165c-.193.192-.427.338-.685.425l.077-.028zm-16.065-16.531a1.65 1.65 0 0 1-.959.056c-.319-.077-.607-.248-.828-.49l-7.703-8.587c-.142-.163-.251-.353-.32-.558a1.64 1.64 0 0 1-.082-.637 1.66 1.66 0 0 1 .168-.621c.096-.194.229-.367.393-.509a1.65 1.65 0 0 1 .557-.32c.205-.069.422-.097.638-.083a1.66 1.66 0 0 1 .621.168 1.68 1.68 0 0 1 .509.393l7.649 8.537a1.64 1.64 0 0 1 .379.7 1.65 1.65 0 0 1 .005.796c-.064.262-.191.504-.37.706s-.404.355-.657.449zm-15.192-17.306c-.317.116-.663.131-.989.044s-.618-.274-.835-.533l-7.338-8.931a1.65 1.65 0 0 1-.298-.571c-.06-.208-.079-.426-.055-.641a1.62 1.62 0 0 1 .195-.613c.104-.19.245-.357.415-.492.341-.269.774-.392 1.205-.343s.826.267 1.097.606l7.3 8.874a1.64 1.64 0 0 1 .377 1.201c-.039.434-.248.835-.582 1.115-.152.113-.322.199-.503.254l.011.03zm-14.45-17.96a1.64 1.64 0 0 1-1.058.071 1.65 1.65 0 0 1-.882-.589l-6.981-9.201c-.261-.351-.371-.79-.307-1.223s.297-.821.648-1.081.79-.371 1.222-.307a1.65 1.65 0 0 1 1.082.648l6.949 9.16c.263.345.38.78.324 1.211s-.28.821-.623 1.087c-.117.085-.247.15-.385.193l.011.031zm-13.753-18.496a1.65 1.65 0 0 1-1.076.057 1.64 1.64 0 0 1-.88-.621l-6.656-9.46c-.248-.36-.342-.803-.263-1.233a1.65 1.65 0 0 1 2.978-.633l6.618 9.403c.253.354.356.793.286 1.222s-.306.813-.658 1.068c-.119.069-.245.127-.375.172l.026.025zM99.513 310.16c-.349.139-.736.155-1.095.044a1.65 1.65 0 0 1-.879-.654l-6.344-9.661a1.64 1.64 0 0 1-.227-1.245c.046-.212.134-.413.258-.591s.283-.33.466-.447c.365-.233.808-.312 1.231-.221a1.64 1.64 0 0 1 1.03.709l6.312 9.62c.243.362.333.805.249 1.233a1.65 1.65 0 0 1-.694 1.049l-.308.164zm-12.534-19.378c-.356.139-.75.15-1.114.03s-.673-.363-.877-.687l-6.048-9.856c-.223-.371-.291-.815-.189-1.236s.366-.784.735-1.012a1.64 1.64 0 0 1 .606-.222c.214-.034.434-.024.644.027a1.65 1.65 0 0 1 .584.274c.175.128.322.291.434.477l6.015 9.815a1.65 1.65 0 0 1 .203 1.237c-.098.423-.36.79-.727 1.021a1.21 1.21 0 0 1-.267.132zm-11.92-19.759c-.364.139-.765.145-1.133.016s-.678-.384-.875-.72l-5.761-10.031c-.214-.379-.27-.827-.154-1.247s.394-.777.772-.992a1.66 1.66 0 0 1 .612-.2 1.64 1.64 0 0 1 .642.05c.209.059.404.159.574.293a1.64 1.64 0 0 1 .417.491l5.745 9.985c.219.375.28.821.171 1.242a1.64 1.64 0 0 1-.753 1.001l-.257.112zm-11.372-20.082c-.371.14-.78.141-1.152.003a1.64 1.64 0 0 1-.872-.753l-5.492-10.252a1.66 1.66 0 0 1 .697-2.241 1.66 1.66 0 0 1 2.241.696l5.458 10.16a1.64 1.64 0 0 1 .14 1.246c-.12.418-.4.771-.78.983l-.24.158zm-10.784-20.437c-.379.141-.796.138-1.172-.009a1.65 1.65 0 0 1-.869-.787l-5.183-10.365c-.095-.194-.151-.405-.165-.621s.016-.432.086-.636a1.65 1.65 0 0 1 .834-.944c.194-.095.405-.151.621-.165s.432.016.636.086a1.65 1.65 0 0 1 .944.834l5.167 10.37a1.65 1.65 0 0 1 .096 1.251c-.134.413-.427.757-.814.955l-.181.031zm9.312-66.027c-.369-.326-.834-.523-1.325-.562s-.981.083-1.397.348L7.012 199.171a2.58 2.58 0 0 0-.983 2.775 2.81 2.81 0 0 0 2.131 2.146l15.305 2.837 6.766 18.542a2.78 2.78 0 0 0 2.169 1.817 2.08 2.08 0 0 0 1.006-.122 2.19 2.19 0 0 0 .737-.452 2.18 2.18 0 0 0 .505-.702l7.479-15.633 10.262 1.876a2.26 2.26 0 0 0 .886-.029c.29-.069.564-.195.805-.371s.444-.398.598-.654a2.24 2.24 0 0 0 .297-.835l8.223-43.008c.093-.52.047-1.056-.135-1.553s-.491-.936-.897-1.274l.05-.054zM33.68 208.822l-1.099 12.149-4.843-13.272 26.01-31.64-20.068 32.763zm502.889 88.208c-.369-.326-.834-.524-1.325-.562a2.27 2.27 0 0 0-1.397.347l-52.515 34.816c-.427.311-.75.744-.924 1.243s-.194 1.038-.054 1.548c.11.525.37 1.007.749 1.388a2.78 2.78 0 0 0 1.383.758l15.299 2.821 6.766 18.542c.159.468.443.884.822 1.203a2.71 2.71 0 0 0 1.326.604 2.2 2.2 0 0 0 1.027-.112c.288-.098.553-.254.779-.457a2.28 2.28 0 0 0 .54-.725l7.48-15.633 10.256 1.86a2.22 2.22 0 0 0 .886-.02 2.23 2.23 0 0 0 .807-.366c.242-.175.446-.397.6-.652a2.23 2.23 0 0 0 .297-.835l8.23-42.94c.093-.521.047-1.057-.135-1.553a3 3 0 0 0-.897-1.275zm-28.541 44.329l-1.093 12.165-4.844-13.273 26.011-31.639-20.074 32.747zm193.174 185.452a2.28 2.28 0 0 0-1.325-.549 2.29 2.29 0 0 0-1.391.349l-52.515 34.816c-.425.307-.746.738-.919 1.233s-.19 1.031-.049 1.536c.105.528.362 1.014.739 1.399a2.78 2.78 0 0 0 1.382.769l15.299 2.821 6.843 18.513c.158.47.442.887.821 1.205a2.69 2.69 0 0 0 1.327.603c.341.046.688.01 1.012-.107.288-.098.553-.254.78-.457a2.25 2.25 0 0 0 .539-.725l7.48-15.633 10.256 1.861c.296.051.599.043.891-.025a2.24 2.24 0 0 0 .811-.371 2.22 2.22 0 0 0 .601-.658 2.21 2.21 0 0 0 .297-.841l8.213-42.986a3.01 3.01 0 0 0-.135-1.562c-.182-.499-.494-.941-.902-1.281l-.055.09zm-28.535 44.344l-1.078 12.159-4.849-13.288 26-31.618-20.073 32.747z"/></svg>