<svg xmlns="http://www.w3.org/2000/svg" width="693" height="336" fill="#2fa937" xmlns:v="https://vecta.io/nano"><path d="M38.942 273.153c3.345-4.253 4.99-9.597 4.614-14.995a21.81 21.81 0 0 0-6.646-14.211 21.8 21.8 0 0 0-14.466-6.07c-5.408-.159-10.682 1.699-14.797 5.212S.87 251.52.179 256.886s.637 10.798 3.727 15.239 7.721 7.575 12.993 8.792 10.808.431 15.532-2.206l8.215 8.215c.794.789 1.868 1.231 2.987 1.231s2.193-.442 2.987-1.231a4.24 4.24 0 0 0 0-6.142l-7.678-7.631zm-17.136-.185c-2.644.009-5.231-.766-7.434-2.229a13.36 13.36 0 0 1-2.074-20.56 13.36 13.36 0 0 1 6.839-3.668 13.35 13.35 0 0 1 7.725.752 13.36 13.36 0 0 1 8.257 12.346c-.004 3.534-1.406 6.923-3.901 9.426s-5.878 3.917-9.412 3.933zm669.926-151.171l-7.677-7.677c3.393-4.277 5.074-9.663 4.715-15.11a21.99 21.99 0 0 0-43.743-1.412 21.99 21.99 0 0 0 16.828 24.274c5.317 1.235 10.904.448 15.674-2.209l8.23 8.231a4.22 4.22 0 0 0 1.366.914 4.2 4.2 0 0 0 3.226 0 4.22 4.22 0 0 0 1.366-.914c.406-.393.729-.863.949-1.383a4.21 4.21 0 0 0 0-3.285 4.19 4.19 0 0 0-.949-1.382l.015-.047zm-24.875-7.938c-2.645.012-5.233-.761-7.438-2.222a13.36 13.36 0 0 1-4.948-5.982 13.37 13.37 0 0 1-.785-7.723 13.36 13.36 0 0 1 3.642-6.856c1.865-1.874 4.246-3.153 6.839-3.674a13.36 13.36 0 0 1 7.727.75c2.444 1.009 4.534 2.722 6.005 4.92s2.256 4.783 2.256 7.428c-.004 3.531-1.405 6.917-3.896 9.42a13.37 13.37 0 0 1-9.402 3.939zm-340.514 40.353l-3.194-11.071c-.058-.207-.157-.401-.291-.57a1.63 1.63 0 0 0-.488-.414c-.189-.104-.396-.17-.61-.193a1.64 1.64 0 0 0-.638.056 1.68 1.68 0 0 0-.571.291 1.64 1.64 0 0 0-.417.487c-.105.188-.173.396-.198.61a1.64 1.64 0 0 0 .05.639l3.178 11.071a1.67 1.67 0 0 0 .576.845c.275.215.611.338.96.353a1.54 1.54 0 0 0 .46 0c.22-.055.426-.154.605-.291a1.66 1.66 0 0 0 .441-.506c.11-.197.18-.414.203-.639a1.66 1.66 0 0 0-.066-.668zM228.746 5.56l-7.862-2.058-3.455-.722a1.64 1.64 0 0 0-.641-.001c-.212.042-.414.125-.593.245a1.66 1.66 0 0 0-.454.453 1.64 1.64 0 0 0-.246.593 1.67 1.67 0 0 0 .253 1.242c.244.365.622.619 1.052.708l3.378.691 7.678 1.996a1.69 1.69 0 0 0 .476 0 1.64 1.64 0 0 0 1.06-.405c.294-.257.488-.61.545-.996s-.025-.78-.232-1.112a1.64 1.64 0 0 0-.897-.696l-.062.061zM182.635.062a120.76 120.76 0 0 0-11.609 1.167c-.414.057-.792.269-1.055.595a1.64 1.64 0 0 0-.36 1.156 1.64 1.64 0 0 0 .529 1.089c.309.282.714.437 1.132.431h.246a113.54 113.54 0 0 1 11.286-1.121 1.66 1.66 0 0 0 1.535-1.735 1.69 1.69 0 0 0-1.704-1.582zm77.006 21.513a1.63 1.63 0 0 0-.571-.294 1.62 1.62 0 0 0-.639-.05 1.63 1.63 0 0 0-1.094.62c-.269.345-.391.782-.339 1.216a1.66 1.66 0 0 0 .616 1.102c2.97 2.318 5.805 4.805 8.491 7.447a1.66 1.66 0 0 0 2.319-2.365 102.5 102.5 0 0 0-8.783-7.678zM205.928.938c-3.9-.476-7.815-.783-11.623-.937-.436-.016-.86.141-1.18.438s-.508.708-.525 1.144a1.64 1.64 0 0 0 .438 1.18c.297.32.708.508 1.144.525a144.7 144.7 0 0 1 11.347.921h.2c.436.026.864-.121 1.191-.411a1.65 1.65 0 0 0 .552-1.133 1.65 1.65 0 0 0-.411-1.191c-.289-.327-.697-.525-1.133-.552v.015zm-46.31 2.58c-3.762.952-7.509 2.119-11.148 3.44a1.64 1.64 0 0 0 .568 3.194 1.74 1.74 0 0 0 .568-.092 111.31 111.31 0 0 1 10.749-3.347 1.65 1.65 0 0 0 1.012-.75c.225-.374.291-.823.185-1.246s-.375-.788-.75-1.012a1.65 1.65 0 0 0-1.246-.185h.062zm149.404 95.539a1.64 1.64 0 0 0-.31-.599 1.63 1.63 0 0 0-.525-.424 1.64 1.64 0 0 0-1.889.281 1.63 1.63 0 0 0-.379.558 1.64 1.64 0 0 0 .032 1.32l3.808 10.856a1.68 1.68 0 0 0 .594.8 1.67 1.67 0 0 0 .942.321 1.66 1.66 0 0 0 .742-.195 1.65 1.65 0 0 0 .86-1.221c.038-.257.015-.518-.067-.765a316.54 316.54 0 0 0-3.808-10.932zm-32.706-61.221a1.65 1.65 0 0 0-1.115-.588 1.64 1.64 0 0 0-1.203.373c-.336.279-.548.68-.588 1.115a1.65 1.65 0 0 0 .373 1.204c2.349 2.825 4.606 5.866 6.879 9.06a1.65 1.65 0 0 0 2.295.407c.359-.25.603-.633.679-1.064s-.021-.874-.272-1.232c-2.272-3.255-4.637-6.372-7.048-9.274zm24.061 39.723a1.68 1.68 0 0 0-3.104.08 1.68 1.68 0 0 0 .033 1.286c1.536 3.347 3.071 6.894 4.515 10.549a1.65 1.65 0 0 0 .611.748c.274.183.595.281.924.281.211-.002.419-.044.614-.123a1.66 1.66 0 0 0 .905-.885c.172-.403.178-.858.017-1.265l-4.515-10.672zm-10.748-20.652a1.66 1.66 0 0 0-2.938.488 1.66 1.66 0 0 0 .097 1.201 174.09 174.09 0 0 1 5.528 10.012 1.63 1.63 0 0 0 1.459.89 1.64 1.64 0 0 0 .83-.182 1.65 1.65 0 0 0 .629-.573c.155-.243.244-.522.258-.81a1.64 1.64 0 0 0-.182-.831c-1.873-3.562-3.762-6.971-5.681-10.196zm-39.601-41.95c-3.336-1.998-6.792-3.788-10.349-5.359a1.68 1.68 0 0 0-1.282-.022c-.204.081-.391.201-.549.353s-.285.335-.373.537a1.69 1.69 0 0 0-.138.638c-.004.22.035.438.116.643a1.66 1.66 0 0 0 .353.55c.153.158.335.285.537.373 3.43 1.519 6.763 3.247 9.981 5.175a1.61 1.61 0 0 0 .844.246c.288-.001.571-.077.821-.22a1.68 1.68 0 0 0 .607-.594 1.66 1.66 0 0 0 .235-.619c.036-.22.027-.445-.026-.661a1.65 1.65 0 0 0-.777-1.038zM28.393 221.191h.2c.417-.003.817-.162 1.121-.447a1.66 1.66 0 0 0 .522-1.089s.476-4.299 1.628-11.455a1.65 1.65 0 0 0-1.367-1.888 1.66 1.66 0 0 0-.643.024 1.65 1.65 0 0 0-1.246 1.342c-1.167 7.248-1.643 11.563-1.643 11.609a1.66 1.66 0 0 0 .311 1.254 1.64 1.64 0 0 0 .492.438 1.65 1.65 0 0 0 .624.212zM137.752 11.533c-3.455 1.689-6.895 3.578-10.227 5.62a1.64 1.64 0 0 0-.537 2.257c.149.241.357.44.604.58a1.69 1.69 0 0 0 .809.219 1.78 1.78 0 0 0 .859-.246c3.218-1.988 6.534-3.813 9.935-5.466a1.65 1.65 0 0 0 .76-2.204c-.191-.393-.531-.694-.944-.836a1.65 1.65 0 0 0-1.259.076zM47.019 139.041a1.66 1.66 0 0 0-1.254.105c-.388.198-.682.541-.819.955l-3.44 11.086a1.66 1.66 0 0 0 1.121 2.043 1.55 1.55 0 0 0 .461 0 1.65 1.65 0 0 0 .961-.341c.276-.213.477-.507.575-.842l3.409-11.009c.115-.4.074-.828-.114-1.198s-.509-.656-.899-.799zm-10.35 36.592c.423.101.87.031 1.242-.197a1.64 1.64 0 0 0 .739-1.017l2.841-11.163a1.66 1.66 0 0 0 .089-.671c-.017-.228-.081-.449-.187-.651a1.65 1.65 0 0 0-.432-.522 1.66 1.66 0 0 0-.604-.305 1.64 1.64 0 0 0-1.311.195 1.66 1.66 0 0 0-.749 1.095l-2.856 11.255c-.097.425-.022.872.208 1.242a1.66 1.66 0 0 0 1.021.739zm-4.775 22.602h.307a1.66 1.66 0 0 0 1.612-1.351l2.273-11.302a1.64 1.64 0 0 0 .036-.658c-.033-.219-.109-.43-.225-.619a1.64 1.64 0 0 0-.451-.48 1.62 1.62 0 0 0-.603-.265c-.217-.047-.441-.049-.659-.007a1.65 1.65 0 0 0-.609.252 1.63 1.63 0 0 0-.46.472 1.65 1.65 0 0 0-.238.614l-2.303 11.394c-.044.215-.045.437-.003.652a1.65 1.65 0 0 0 .251.602 1.63 1.63 0 0 0 .466.456 1.64 1.64 0 0 0 .606.24zm22.925-80.952a1.64 1.64 0 0 0-.631-.116 1.65 1.65 0 0 0-1.155.499c-.15.154-.269.338-.348.538l-4.069 10.872a1.64 1.64 0 0 0-.095.635 1.65 1.65 0 0 0 .157.624c.093.195.223.37.384.515a1.64 1.64 0 0 0 .552.329c.178.061.365.092.553.092a1.64 1.64 0 0 0 1.535-1.09c1.305-3.654 2.656-7.263 4.038-10.748a1.66 1.66 0 0 0-.921-2.15zm63.094-93.589c-3.071 2.288-6.142 4.775-9.014 7.386a1.66 1.66 0 0 0-.138 2.335c.296.321.706.513 1.142.536a1.67 1.67 0 0 0 1.192-.414 131.49 131.49 0 0 1 8.799-7.201 1.66 1.66 0 0 0 .208-2.22c-.247-.33-.608-.556-1.013-.634a1.66 1.66 0 0 0-1.176.212zm-17.428 15.478c-2.625 2.749-5.251 5.651-7.769 8.66a1.64 1.64 0 0 0 .2 2.319 1.67 1.67 0 0 0 1.06.384 1.69 1.69 0 0 0 .701-.153c.22-.101.416-.247.574-.43 2.472-2.948 5.037-5.804 7.678-8.491.256-.323.382-.73.354-1.142a1.66 1.66 0 0 0-1.608-1.545c-.412-.012-.813.13-1.126.399h-.062zM64.109 96.17a1.68 1.68 0 0 0-1.266-.061c-.414.146-.753.449-.945.844-1.628 3.424-3.24 6.987-4.791 10.564a1.65 1.65 0 0 0-.141.63 1.62 1.62 0 0 0 .115.634c.08.202.2.386.352.54a1.63 1.63 0 0 0 .534.362 1.41 1.41 0 0 0 .645.138c.324.004.642-.087.915-.262a1.66 1.66 0 0 0 .621-.721c1.535-3.562 3.071-7.079 4.745-10.457a1.66 1.66 0 0 0-.784-2.211zm10.887-20.345c-.185-.11-.39-.183-.604-.213a1.63 1.63 0 0 0-.639.036c-.208.054-.404.149-.576.28a1.63 1.63 0 0 0-.423.48c-1.919 3.286-3.823 6.695-5.651 10.15a1.63 1.63 0 0 0-.124 1.259c.064.207.17.4.31.566s.312.303.505.401a1.53 1.53 0 0 0 .768.2 1.66 1.66 0 0 0 1.459-.875c1.797-3.424 3.67-6.802 5.574-10.027a1.66 1.66 0 0 0-.599-2.257zm10.533-18.841c-2.257 3.071-4.499 6.265-6.649 9.566a1.64 1.64 0 0 0-.244.598c-.041.214-.04.433.005.646a1.65 1.65 0 0 0 .253.594 1.64 1.64 0 0 0 .463.45c.263.177.574.268.891.261a1.64 1.64 0 0 0 1.381-.737c2.134-3.255 4.33-6.418 6.557-9.428a1.65 1.65 0 0 0-.354-2.304 1.65 1.65 0 0 0-2.304.354zm234.349 75.071l-3.409-11.056a1.64 1.64 0 0 0-.831-.734 1.65 1.65 0 0 0-1.108-.038 1.64 1.64 0 0 0-1.132 1.755l3.394 11.009c.135.405.422.741.8.938a1.65 1.65 0 0 0 1.227.117 1.64 1.64 0 0 0 .963-.769c.209-.371.266-.81.158-1.222h-.062zm197.467 193.888a146.4 146.4 0 0 1-11.025 2.81c-.405.079-.765.307-1.009.638a1.65 1.65 0 0 0-.311 1.152 1.64 1.64 0 0 0 .551 1.059 1.65 1.65 0 0 0 1.122.407h.338c3.792-.814 7.585-1.782 11.27-2.872a1.64 1.64 0 0 0 .57-.299 1.66 1.66 0 0 0 .411-.495 1.63 1.63 0 0 0 .191-.615c.023-.215.003-.433-.058-.641a1.64 1.64 0 0 0-.3-.569 1.65 1.65 0 0 0-.495-.412 1.66 1.66 0 0 0-.614-.191 1.67 1.67 0 0 0-.641.059v-.031zm58.763-33.842a169.35 169.35 0 0 1-8.691 7.401 1.66 1.66 0 0 0-.261 2.319c.15.199.345.359.57.466s.472.157.72.148c.373.002.736-.122 1.029-.354 2.979-2.38 5.973-4.928 8.845-7.554.299-.299.471-.701.481-1.124s-.144-.833-.428-1.145-.679-.503-1.101-.533a1.64 1.64 0 0 0-1.164.376zm29.943-34.518c-2.196 3.147-4.484 6.264-6.787 9.213a1.65 1.65 0 0 0-.331 1.212c.055.431.279.824.623 1.091.29.225.646.349 1.013.353.253-.001.501-.06.727-.171a1.65 1.65 0 0 0 .578-.474c2.334-3.071 4.607-6.142 6.879-9.367a1.65 1.65 0 0 0 .259-.588c.047-.212.051-.43.013-.644s-.117-.416-.233-.599a1.64 1.64 0 0 0-.445-.464c-.177-.124-.378-.212-.589-.259a1.66 1.66 0 0 0-.644-.013c-.213.038-.416.117-.599.234a1.64 1.64 0 0 0-.464.445v.031zm-67.501 60.146c-3.409 1.643-6.91 3.163-10.441 4.606-.202.079-.386.196-.542.346a1.64 1.64 0 0 0-.507 1.155 1.63 1.63 0 0 0 .112.633c.079.202.196.386.346.542a1.64 1.64 0 0 0 1.155.507c.217.005.432-.033.633-.112a176.72 176.72 0 0 0 10.749-4.606 1.66 1.66 0 0 0-.228-2.964c-.384-.155-.812-.16-1.2-.015l-.077-.092zm19.685-11.425c-3.071 2.15-6.372 4.192-9.627 6.142a1.66 1.66 0 0 0-.674.801c-.132.333-.153.699-.06 1.045a1.66 1.66 0 0 0 .578.872c.281.221.627.345.985.353.292.004.58-.076.829-.23a158.15 158.15 0 0 0 9.843-6.219c.359-.251.605-.634.682-1.066a1.66 1.66 0 0 0-.268-1.237 1.63 1.63 0 0 0-.451-.463c-.18-.122-.382-.208-.596-.251s-.433-.042-.646.001a1.64 1.64 0 0 0-.595.252zm62.327-68.729c-.38-.212-.828-.266-1.247-.152s-.777.39-.995.766a264.92 264.92 0 0 1-5.927 9.827 1.66 1.66 0 0 0 1.768 2.401c.41-.075.776-.302 1.026-.635 2.027-3.224 4.039-6.572 5.989-9.95.217-.381.274-.832.159-1.255a1.66 1.66 0 0 0-.773-1.002zm-28.545 38.111c-2.503 2.902-5.098 5.743-7.678 8.445-.227.232-.381.526-.442.845s-.026.648.101.947a1.63 1.63 0 0 0 .61.732 1.64 1.64 0 0 0 .913.271c.222 0 .441-.045.644-.132s.386-.214.539-.375a192.54 192.54 0 0 0 7.846-8.583 1.65 1.65 0 0 0-.176-2.327c-.165-.141-.355-.248-.561-.316a1.65 1.65 0 0 0-1.766.493h-.03z"/><path d="M659.686 129.444c-.213-.044-.432-.047-.646-.006a1.64 1.64 0 0 0-.598.244c-.182.12-.338.275-.459.455a1.65 1.65 0 0 0-.247.597c-.737 3.716-1.535 7.493-2.441 11.24-.097.428-.02.876.213 1.247a1.66 1.66 0 0 0 1.03.734 1.52 1.52 0 0 0 .369 0c.361-.012.708-.144.986-.374a1.63 1.63 0 0 0 .549-.901c.891-3.777 1.72-7.677 2.473-11.347a1.66 1.66 0 0 0-1.229-1.889zm-28.514 87.647a1.64 1.64 0 0 0-.621-.161c-.216-.012-.432.018-.636.09s-.392.182-.553.326-.292.318-.386.513c-1.658 3.47-3.393 6.925-5.144 10.272-.197.388-.235.838-.106 1.254a1.67 1.67 0 0 0 .797.973c.238.121.501.184.768.184.302.002.598-.081.856-.238a1.63 1.63 0 0 0 .603-.652c1.766-3.378 3.516-6.864 5.19-10.38.093-.194.148-.404.16-.619a1.62 1.62 0 0 0-.09-.632 1.63 1.63 0 0 0-.326-.549 1.64 1.64 0 0 0-.512-.381zm23.37-65.121c-.209-.055-.426-.069-.64-.041a1.63 1.63 0 0 0-.608.208 1.64 1.64 0 0 0-.763 1l-3.071 11.071a1.67 1.67 0 0 0 .14 1.258c.209.385.562.672.98.8a1.55 1.55 0 0 0 .461 0c.348-.009.685-.128.961-.341a1.65 1.65 0 0 0 .575-.841c1.105-3.701 2.149-7.448 3.071-11.164a1.64 1.64 0 0 0-.169-1.192c-.205-.362-.54-.633-.937-.758zm-14.249 43.916a1.63 1.63 0 0 0-.632-.121c-.216.002-.43.047-.629.133s-.378.21-.528.366-.268.341-.346.543c-1.428 3.593-2.917 7.155-4.422 10.595-.176.401-.186.856-.027 1.264a1.66 1.66 0 0 0 .872.916 1.7 1.7 0 0 0 .66.139 1.65 1.65 0 0 0 .92-.266 1.64 1.64 0 0 0 .615-.732c1.536-3.471 3.071-7.079 4.453-10.749.146-.401.13-.844-.045-1.234a1.64 1.64 0 0 0-.891-.854zm7.769-21.789a1.64 1.64 0 0 0-1.252.093c-.389.196-.684.538-.821.951-1.197 3.655-2.456 7.309-3.746 10.871-.076.203-.11.418-.102.634a1.64 1.64 0 0 0 .152.624c.092.196.221.372.381.517a1.63 1.63 0 0 0 .552.329c.175.073.363.109.552.108a1.65 1.65 0 0 0 .94-.304 1.64 1.64 0 0 0 .596-.787 386.46 386.46 0 0 0 3.793-10.963c.135-.414.102-.864-.094-1.252a1.65 1.65 0 0 0-.951-.821zM472.354 332.086h-2.794c-2.887 0-5.789-.231-8.599-.461-.436-.037-.868.101-1.202.383a1.65 1.65 0 0 0 .925 2.903l8.799.461h2.841a1.66 1.66 0 0 0 0-3.302l.03.016zM350.251 231.264a1.65 1.65 0 0 0-.335-.557c-.147-.161-.325-.292-.524-.383a1.64 1.64 0 0 0-.632-.151 1.67 1.67 0 0 0-.641.106c-.204.078-.391.196-.549.347a1.64 1.64 0 0 0-.373.532 1.65 1.65 0 0 0-.137.634c-.003.219.038.436.12.639a318.62 318.62 0 0 0 4.284 10.748 1.64 1.64 0 0 0 .612.742c.274.181.595.275.923.272.216-.002.429-.044.63-.123.405-.17.726-.493.892-.898a1.66 1.66 0 0 0-.002-1.267c-1.428-3.317-2.856-6.941-4.268-10.641zm8.875 21.144c-.079-.216-.202-.413-.361-.579a1.66 1.66 0 0 0-1.234-.51c-.23.005-.456.058-.664.155s-.394.237-.546.41a1.66 1.66 0 0 0-.189 1.922c1.673 3.577 3.408 7.078 5.159 10.395.137.267.347.491.605.645a1.6 1.6 0 0 0 .854.23c.266 0 .529-.063.767-.184a1.66 1.66 0 0 0 .803-.971c.13-.417.089-.868-.112-1.256-1.719-3.239-3.424-6.694-5.082-10.257zm10.687 20.238c-.224-.375-.587-.645-1.011-.752a1.65 1.65 0 0 0-1.246.184c-.375.224-.645.587-.752 1.011a1.65 1.65 0 0 0 .184 1.246 169.38 169.38 0 0 0 6.326 9.75c.152.219.354.397.589.52s.497.187.762.187a1.69 1.69 0 0 0 .952-.292c.358-.253.6-.638.675-1.069a1.66 1.66 0 0 0-.275-1.234c-2.119-3.01-4.208-6.234-6.204-9.551zm-33.934-85.113c-.061-.208-.162-.402-.297-.571a1.67 1.67 0 0 0-.492-.413 1.64 1.64 0 0 0-.613-.193c-.215-.024-.433-.005-.641.056a1.65 1.65 0 0 0-.57.296c-.169.136-.309.303-.413.493a1.65 1.65 0 0 0-.194.613c-.023.215-.004.432.056.64l3.332 11.086a1.63 1.63 0 0 0 .58.826c.276.207.611.321.956.326a1.92 1.92 0 0 0 .491 0c.417-.135.765-.427.968-.814a1.68 1.68 0 0 0 .123-1.259l-3.286-11.086zm6.786 22.019c-.137-.417-.433-.763-.825-.961a1.66 1.66 0 0 0-1.263-.099 1.63 1.63 0 0 0-.56.313 1.61 1.61 0 0 0-.396.505 1.63 1.63 0 0 0-.171.619c-.015.215.013.432.083.636l3.685 10.979c.113.319.32.596.595.793s.602.307.941.313c.188-.001.374-.032.552-.092.413-.146.75-.45.94-.844a1.66 1.66 0 0 0 .074-1.26l-3.655-10.902zM427.932 324.3a103.4 103.4 0 0 1-10.303-4.606c-.389-.204-.843-.244-1.262-.113s-.769.423-.973.812a1.65 1.65 0 0 0-.113 1.261c.131.419.423.769.812.973a107.82 107.82 0 0 0 10.626 4.729c.186.071.384.108.583.108.386.003.76-.129 1.058-.374a1.64 1.64 0 0 0 .571-.965c.072-.379.008-.771-.181-1.107s-.489-.596-.849-.733l.031.015zm21.789 5.866a120.68 120.68 0 0 1-11.056-2.396 1.62 1.62 0 0 0-.639-.047c-.214.027-.42.095-.607.203a1.65 1.65 0 0 0-.483.421 1.61 1.61 0 0 0-.282.575 1.69 1.69 0 0 0-.046.645 1.63 1.63 0 0 0 .206.613c.108.188.253.353.426.485a1.64 1.64 0 0 0 .581.284c3.67.983 7.493 1.812 11.347 2.457a.86.86 0 0 0 .277 0c.422.015.833-.132 1.149-.412a1.64 1.64 0 0 0-.873-2.859v.031zm-117.098-153.72l-3.163-11.117a1.64 1.64 0 0 0-.78-.993 1.66 1.66 0 0 0-.612-.2c-.216-.026-.434-.009-.642.049s-.404.158-.575.292-.312.3-.419.489a1.66 1.66 0 0 0-.2.612 1.64 1.64 0 0 0 .05.642l3.178 11.132a1.65 1.65 0 0 0 1.536 1.198 1.54 1.54 0 0 0 .46 0c.217-.058.42-.16.597-.298s.324-.31.433-.507a1.66 1.66 0 0 0 .137-1.299zm50.273 114.81c-.291-.297-.683-.474-1.098-.497a1.66 1.66 0 0 0-1.451 2.601c2.518 3.071 5.144 5.942 7.8 8.645a1.66 1.66 0 0 0 .536.354c.2.081.415.123.631.121a1.61 1.61 0 0 0 .632-.12c.2-.082.382-.203.535-.355.307-.308.479-.725.479-1.16a1.64 1.64 0 0 0-.479-1.159 130.44 130.44 0 0 1-7.585-8.43zm24.967 22.772a108.24 108.24 0 0 1-9.075-6.726c-.165-.147-.358-.26-.567-.331a1.64 1.64 0 0 0-.653-.082 1.63 1.63 0 0 0-.632.179 1.65 1.65 0 0 0-.511.414 1.63 1.63 0 0 0-.364 1.235c.026.22.095.433.205.625s.258.36.434.494c2.988 2.482 6.11 4.799 9.351 6.94a1.62 1.62 0 0 0 .906.261 1.67 1.67 0 0 0 1.382-.737c.238-.364.322-.808.232-1.234a1.64 1.64 0 0 0-.708-1.038zm87.248 16.691a160.02 160.02 0 0 1-11.332 1.09c-.411.049-.788.25-1.058.563a1.66 1.66 0 0 0 .062 2.234c.287.298.675.478 1.088.504h.107c3.885-.245 7.785-.614 11.578-1.121a1.65 1.65 0 1 0-.445-3.27z"/></svg>