<svg xmlns="http://www.w3.org/2000/svg" width="512" height="689" fill="#1f94d3"><path d="M510.535 7.123h-9.97V1.418c-.004-.377-.156-.738-.423-1.003A1.43 1.43 0 0 0 499.135 0h-14.258c-.376 0-.736.149-1.002.415s-.415.626-.415 1.002v5.706h-9.982c-.376 0-.737.149-1.002.415a1.42 1.42 0 0 0-.416 1.002v2.552l7.584 8.859h3.816v-.72a1.43 1.43 0 0 1 .459-.926c.264-.24.608-.374.964-.374a1.43 1.43 0 0 1 .964.374c.263.24.427.571.46.926v.72h11.399v-.72a1.43 1.43 0 0 1 1.429-1.429 1.43 1.43 0 0 1 1.43 1.429v.72h3.815l7.584-8.836V8.541a1.43 1.43 0 0 0-1.429-1.418zm-12.829 0h-11.399V2.847h11.399v4.276zm8.411 15.179c-.136.155-.304.279-.491.364a1.46 1.46 0 0 1-.596.132h-4.465v.709a1.43 1.43 0 0 1-1.43 1.429 1.43 1.43 0 0 1-1.429-1.429v-.709h-11.399v.709c.018.198-.006.397-.069.585a1.43 1.43 0 0 1-1.355.974 1.43 1.43 0 0 1-1.055-.466 1.44 1.44 0 0 1-.3-.508c-.063-.188-.086-.388-.068-.585v-.709h-4.477a1.46 1.46 0 0 1-1.087-.496l-5.836-6.816v18.806a1.43 1.43 0 0 0 1.418 1.429h37.057a1.44 1.44 0 0 0 1.417-1.429V15.534l-5.835 6.769zm-74.74 487.087h-9.981v-5.694a1.43 1.43 0 0 0-1.418-1.429H405.72a1.43 1.43 0 0 0-1.003.422c-.265.268-.414.63-.414 1.007v5.694h-9.982c-.377.003-.738.155-1.003.423a1.43 1.43 0 0 0-.415 1.006v2.552l7.572 8.847h3.828v-.709c-.018-.197.005-.397.068-.585a1.43 1.43 0 0 1 .299-.508 1.42 1.42 0 0 1 .479-.344c.182-.08.378-.122.577-.122s.395.042.577.122a1.42 1.42 0 0 1 .479.344c.134.147.235.32.299.508a1.4 1.4 0 0 1 .068.585v.709h11.4v-.709c-.018-.197.005-.397.068-.585a1.43 1.43 0 0 1 .778-.852c.182-.08.379-.122.577-.122s.395.042.577.122a1.42 1.42 0 0 1 .479.344 1.43 1.43 0 0 1 .299.508c.063.188.087.388.069.585v.709h3.827l7.584-8.836v-2.563a1.44 1.44 0 0 0-1.43-1.429zm-12.828 0h-11.4v-4.277h11.4v4.277zm8.41 15.179c-.134.156-.301.281-.489.367s-.391.13-.597.129h-4.477v.721c-.033.355-.197.685-.46.926a1.43 1.43 0 0 1-.964.373c-.356 0-.7-.133-.964-.373a1.43 1.43 0 0 1-.459-.926v-.721h-11.4v.721a1.43 1.43 0 0 1-2.846 0v-.721h-4.477c-.207.002-.411-.041-.599-.127s-.355-.211-.488-.369l-5.836-6.804v18.711c0 .376.15.737.415 1.003s.627.415 1.003.415h37.056a1.43 1.43 0 0 0 1.007-.415c.268-.265.42-.626.423-1.003v-18.711l-5.848 6.804zM38.486 660.225h-9.982v-5.705a1.42 1.42 0 0 0-1.418-1.418H12.829a1.42 1.42 0 0 0-1.418 1.418v5.705H1.429A1.43 1.43 0 0 0 0 661.655v2.551l7.584 8.848h3.827v-.709c-.018-.198.005-.397.069-.585s.165-.362.299-.508a1.42 1.42 0 0 1 .479-.344 1.43 1.43 0 0 1 .577-.122c.199 0 .395.042.577.122a1.42 1.42 0 0 1 .778.852c.063.189.087.387.069.585v.709h11.399v-.709c-.018-.198.005-.397.069-.585a1.42 1.42 0 0 1 .778-.852c.182-.08.378-.122.577-.122a1.43 1.43 0 0 1 .577.122 1.42 1.42 0 0 1 .778.852c.063.189.087.387.069.585v.709h3.851l7.584-8.836v-2.563a1.43 1.43 0 0 0-1.429-1.43h-.024zm-12.829 0H14.258v-4.276h11.399v4.276zm8.411 15.18a1.48 1.48 0 0 1-1.087.496h-4.477v.709a1.42 1.42 0 0 1-.069.585c-.064.188-.165.361-.299.508a1.42 1.42 0 0 1-.479.344 1.43 1.43 0 0 1-.577.122c-.199 0-.395-.042-.577-.122a1.42 1.42 0 0 1-.778-.852 1.43 1.43 0 0 1-.069-.585v-.709H14.258v.709a1.43 1.43 0 0 1-.069.585 1.42 1.42 0 0 1-.778.852c-.182.08-.378.122-.577.122a1.43 1.43 0 0 1-.577-.122 1.42 1.42 0 0 1-.778-.852 1.43 1.43 0 0 1-.069-.585v-.709H6.934a1.46 1.46 0 0 1-1.087-.496L0 668.589V687.3a1.43 1.43 0 0 0 1.43 1.43h37.057a1.43 1.43 0 0 0 1.429-1.43v-18.664l-5.847 6.769z"/><path d="M52.094 677.413c-.313.009-.617-.106-.846-.321s-.362-.512-.371-.825a1.18 1.18 0 0 1 1.146-1.217l8.34-.637c.313-.025.624.075.863.279s.388.494.413.807-.075.624-.279.863a1.18 1.18 0 0 1-.808.413l-8.387.638h-.071zm16.656-1.382c-.313.016-.62-.094-.853-.304s-.372-.505-.388-.818.094-.62.304-.853.505-.372.818-.388l8.269-.826a1.18 1.18 0 0 1 .461.042c.15.044.289.118.41.216s.222.219.296.356a1.19 1.19 0 0 1 .138.443c.016.155.002.312-.043.461a1.18 1.18 0 0 1-.216.41c-.098.122-.219.222-.356.297a1.19 1.19 0 0 1-.443.137l-8.269.839-.13-.012zm16.538-1.748c-.155.008-.31-.014-.457-.065a1.2 1.2 0 0 1-.397-.235 1.19 1.19 0 0 1-.277-.37c-.067-.14-.106-.292-.115-.447s.014-.31.065-.457a1.19 1.19 0 0 1 .235-.397c.104-.116.229-.21.369-.277s.292-.106.447-.115l8.269-.98c.313-.04.629.047.878.241a1.19 1.19 0 0 1 .209 1.671 1.19 1.19 0 0 1-.792.45l-8.269.992-.165-.011zm16.467-2.056c-.313.022-.623-.081-.86-.287s-.382-.498-.404-.811.081-.623.287-.86.498-.382.812-.404l8.209-1.182a1.19 1.19 0 0 1 .876.226 1.18 1.18 0 0 1 .234 1.654c-.189.25-.469.415-.779.459l-8.269 1.182-.106.023zm16.408-2.362c-.313.023-.623-.079-.861-.284a1.18 1.18 0 0 1-.126-1.67 1.19 1.19 0 0 1 .81-.409l8.174-1.276a1.18 1.18 0 0 1 1.358.969 1.18 1.18 0 0 1-.015.462c-.036.152-.101.295-.192.421a1.2 1.2 0 0 1-.339.315c-.133.081-.28.136-.434.161l-8.198 1.287-.177.024zm16.36-2.646a1.19 1.19 0 0 1-.459-.052 1.18 1.18 0 0 1-.405-.223c-.119-.101-.217-.224-.289-.362a1.19 1.19 0 0 1-.128-.444c-.013-.155.004-.312.051-.46s.123-.286.224-.405a1.19 1.19 0 0 1 .361-.289c.138-.071.29-.115.445-.128l8.15-1.441c.314-.057.637.014.898.196s.44.459.496.773a1.2 1.2 0 0 1-.968 1.393l-8.175 1.453-.201-.011zm16.302-2.965c-.313.029-.626-.066-.868-.267a1.18 1.18 0 0 1-.425-.802 1.19 1.19 0 0 1 1.069-1.294l8.115-1.606a1.2 1.2 0 0 1 .47-.001c.155.031.303.092.434.179a1.21 1.21 0 0 1 .513.766c.031.156.032.315.001.471s-.092.302-.179.434a1.21 1.21 0 0 1-.332.333c-.132.088-.279.149-.435.18l-8.139 1.607h-.224zm16.231-3.308a1.19 1.19 0 0 1-1.306-1.057c-.033-.314.06-.627.259-.872s.485-.401.799-.434l8.08-1.783c.313-.069.641-.011.911.162a1.21 1.21 0 0 1 .367 1.671c-.172.27-.445.46-.759.529l-8.103 1.796a.9.9 0 0 1-.284 0l.036-.012zm16.16-3.674c-.272.008-.538-.079-.753-.245s-.366-.4-.429-.664a1.18 1.18 0 0 1 .874-1.418l8.033-1.996c.304-.075.625-.026.893.135a1.18 1.18 0 0 1 .536.727c.076.302.029.622-.131.89a1.18 1.18 0 0 1-.719.54l-8.056 1.996-.248.035zm16.029-4.087a1.19 1.19 0 0 1-1.334-1.028 1.19 1.19 0 0 1 1.027-1.334l7.974-2.209c.152-.053.312-.073.472-.062s.316.057.458.131a1.18 1.18 0 0 1 .369.3 1.17 1.17 0 0 1 .221.422c.044.154.057.316.036.475s-.072.312-.154.45a1.16 1.16 0 0 1-.319.353c-.13.095-.277.163-.433.199l-7.998 2.22a.99.99 0 0 1-.342.095l.023-.012zm15.936-4.56c-.155.023-.313.015-.465-.024s-.295-.107-.421-.201-.231-.211-.311-.346-.133-.284-.156-.439-.014-.313.025-.465a1.18 1.18 0 0 1 .2-.42c.094-.126.211-.232.346-.312a1.19 1.19 0 0 1 .439-.155l7.891-2.457a1.18 1.18 0 0 1 .94.03 1.18 1.18 0 0 1 .62.707 1.17 1.17 0 0 1 .051.477 1.2 1.2 0 0 1-.143.459 1.18 1.18 0 0 1-.747.571l-7.927 2.481a1.08 1.08 0 0 1-.366.106l.024-.012zm15.77-5.079c-.314.052-.635-.023-.893-.208s-.432-.465-.483-.778.023-.635.208-.893a1.2 1.2 0 0 1 .778-.484l7.785-2.752a1.18 1.18 0 0 1 1.517.703c.109.294.095.62-.037.904a1.18 1.18 0 0 1-.665.614l-7.832 2.776a1.49 1.49 0 0 1-.402.13l.024-.012zm15.545-5.694a1.18 1.18 0 0 1-1.163-.959c-.052-.27-.007-.55.125-.791s.345-.429.601-.53l7.655-3.095c.29-.12.616-.121.906-.001a1.18 1.18 0 0 1 .643 1.545 1.19 1.19 0 0 1-.64.642l-7.701 3.106c-.137.084-.29.136-.449.154l.023-.071zm15.262-6.402c-.269-.002-.53-.095-.739-.265s-.354-.405-.41-.669-.022-.538.099-.778.321-.433.566-.545l7.466-3.543c.282-.138.607-.158.904-.057s.541.318.679.6.158.607.056.904-.318.541-.6.679l-7.536 3.544c-.157.085-.33.133-.508.141l.023-.011zm14.884-7.253c-.215.001-.427-.056-.613-.167s-.337-.269-.438-.46c-.074-.137-.12-.289-.135-.444a1.18 1.18 0 0 1 .047-.462c.047-.15.122-.289.222-.409s.223-.219.362-.291l7.206-3.981c.135-.077.284-.128.438-.148a1.2 1.2 0 0 1 .462.031 1.19 1.19 0 0 1 .414.206 1.18 1.18 0 0 1 .452.786 1.18 1.18 0 0 1-.031.462 1.19 1.19 0 0 1-.205.414c-.095.124-.214.227-.349.305l-7.288 4.016c-.173.098-.368.151-.567.153l.023-.011zm14.317-8.269c-.254-.001-.502-.084-.706-.237a1.19 1.19 0 0 1-.424-.612c-.072-.244-.063-.505.026-.744s.253-.443.467-.581l6.827-4.559a1.18 1.18 0 0 1 .427-.223c.157-.045.32-.056.481-.034a1.17 1.17 0 0 1 .454.161c.139.084.258.196.352.328a1.18 1.18 0 0 1 .192.442c.033.159.032.323-.001.482a1.17 1.17 0 0 1-.193.441c-.094.133-.214.244-.353.328l-6.922 4.63a1.18 1.18 0 0 1-.65.166l.023.012zm13.502-9.533c-.247.002-.488-.074-.69-.217a1.18 1.18 0 0 1-.434-.578c-.081-.233-.086-.486-.016-.723a1.18 1.18 0 0 1 .408-.597l6.261-5.268c.232-.209.537-.318.85-.303a1.18 1.18 0 0 1 1.053.784 1.18 1.18 0 0 1 .065.46c-.008.156-.048.309-.116.449s-.164.267-.281.37l-6.367 5.363c-.216.167-.483.255-.756.248l.023.012zm12.25-11.057a1.18 1.18 0 0 1-1.158-1.164 1.18 1.18 0 0 1 .343-.832l5.399-6.108a1.17 1.17 0 0 1 .356-.293c.137-.074.287-.12.442-.135a1.19 1.19 0 0 1 .46.045 1.17 1.17 0 0 1 .407.218 1.18 1.18 0 0 1 .423.793c.031.31-.062.619-.257.861l-5.529 6.249c-.117.12-.259.214-.416.275a1.17 1.17 0 0 1-.493.079l.023.012zm10.348-12.805a1.19 1.19 0 0 1-.65-.201 1.18 1.18 0 0 1-.33-1.63c1.494-2.252 2.866-4.582 4.111-6.981a1.18 1.18 0 0 1 1.594-.508c.279.144.489.393.585.692s.067.624-.077.902c-1.287 2.471-2.702 4.872-4.241 7.195-.111.165-.263.299-.441.39a1.18 1.18 0 0 1-.574.129l.023.012zm7.525-14.565c-.141.001-.281-.023-.414-.071-.145-.055-.277-.138-.39-.244a1.19 1.19 0 0 1-.268-.376 1.18 1.18 0 0 1-.027-.904 67.12 67.12 0 0 0 2.363-7.702c.028-.158.088-.31.177-.444s.205-.25.34-.338a1.18 1.18 0 0 1 .446-.176c.158-.027.321-.021.478.017s.304.107.433.204.236.22.316.36.13.295.147.456a1.17 1.17 0 0 1-.046.477 68.93 68.93 0 0 1-2.456 7.973c-.088.226-.242.42-.443.555a1.18 1.18 0 0 1-.68.201l.024.012zm3.851-15.935h-.13a1.18 1.18 0 0 1-.444-.138 1.19 1.19 0 0 1-.356-.298c-.097-.122-.17-.263-.213-.413s-.056-.307-.038-.463c.274-2.451.412-4.916.413-7.382v-.709c-.006-.063-.006-.126 0-.189l-3.142-1.713c-.273-.157-.472-.415-.554-.719s-.04-.627.117-.9.415-.471.718-.553a1.19 1.19 0 0 1 .9.116c2.347 1.36 4.773 2.579 7.265 3.65a1.19 1.19 0 0 1 .632.649c.116.291.112.617-.012.905s-.357.515-.648.632-.617.112-.905-.012l-2.008-.909a69.95 69.95 0 0 1-.426 7.406 1.18 1.18 0 0 1-.4.742c-.22.189-.502.291-.793.286l.024.012zm28.161-2.611a1.18 1.18 0 0 1-.835-.346c-.221-.222-.346-.522-.346-.835s.125-.614.346-.836.522-.346.835-.346a54.53 54.53 0 0 0 8.045-.791c.155-.026.314-.022.467.013s.299.1.427.191.237.206.321.34.141.281.167.436a1.21 1.21 0 0 1-.204.895 1.21 1.21 0 0 1-.34.321c-.133.083-.281.14-.437.167a55.89 55.89 0 0 1-8.387.826l-.059-.035zm-8.269-.425h-.153c-2.794-.362-5.557-.926-8.269-1.689-.302-.085-.559-.286-.713-.56a1.18 1.18 0 0 1-.108-.899c.085-.303.286-.559.559-.713s.598-.193.9-.108a55.14 55.14 0 0 0 7.914 1.618c.31.041.591.204.782.452a1.18 1.18 0 0 1-.129 1.572c-.198.184-.453.296-.723.315l-.06.012zm24.476-2.363c-.249 0-.491-.079-.693-.225s-.352-.353-.429-.59c-.097-.297-.071-.621.07-.901a1.18 1.18 0 0 1 .686-.587 65.79 65.79 0 0 0 7.56-2.965c.28-.108.59-.105.867.008a1.18 1.18 0 0 1 .679 1.463 1.18 1.18 0 0 1-.553.667c-2.544 1.189-5.16 2.219-7.832 3.083a1.2 1.2 0 0 1-.343.024l-.012.023zm-54.645-10.301a1.17 1.17 0 0 1-.685-.224l-6.568-5.198a1.16 1.16 0 0 1-.328-.359 1.18 1.18 0 0 1-.155-.46 1.2 1.2 0 0 1 .043-.484 1.18 1.18 0 0 1 .235-.426c.107-.124.238-.224.386-.295a1.19 1.19 0 0 1 .951-.03c.152.061.289.154.403.271l6.415 5.056a1.18 1.18 0 0 1 .314.339c.081.132.135.28.159.434s.018.31-.019.461a1.18 1.18 0 0 1-.194.419c-.109.153-.253.278-.419.364a1.17 1.17 0 0 1-.538.132zm10.1-.838a1.18 1.18 0 0 1-1.182-1.04c-.33-2.634-.803-5.327-1.417-8.021-.035-.151-.04-.307-.014-.461s.081-.299.163-.431.19-.246.316-.336.27-.154.421-.189.309-.039.463-.013.301.083.433.166.245.193.335.32.153.272.186.425c.623 2.73 1.108 5.49 1.453 8.269.02.154.009.311-.032.461a1.19 1.19 0 0 1-.206.414 1.18 1.18 0 0 1-.35.302c-.136.077-.285.127-.439.146l-.13-.012zm-22.634-9.947c-.156 0-.31-.032-.454-.093a1.16 1.16 0 0 1-.384-.261l-5.67-6.131a1.18 1.18 0 0 1-.244-.401 1.17 1.17 0 0 1-.068-.465 1.18 1.18 0 0 1 .119-.455 1.17 1.17 0 0 1 .287-.372 1.15 1.15 0 0 1 .409-.231c.15-.049.309-.067.466-.054a1.19 1.19 0 0 1 .451.133c.14.074.263.175.363.298l5.564 6.024c.22.222.344.521.344.833a1.18 1.18 0 0 1-.344.833c-.107.116-.237.209-.381.274s-.3.1-.458.104v-.036zm18.984-6.154c-.26.013-.516-.06-.729-.208s-.373-.36-.453-.607l-2.835-7.678a1.18 1.18 0 0 1 .644-1.542 1.18 1.18 0 0 1 1.542.644l2.894 7.844c.097.297.071.621-.07.9s-.389.491-.686.588c-.098.045-.201.076-.307.094v-.035zm-29.816-6.343c-.18-.001-.358-.043-.52-.122a1.18 1.18 0 0 1-.413-.339l-4.867-6.781c-.087-.128-.147-.273-.178-.425a1.18 1.18 0 0 1-.002-.462 1.19 1.19 0 0 1 .174-.427c.086-.129.196-.241.325-.328s.273-.147.426-.178.309-.032.461-.002a1.16 1.16 0 0 1 .427.175c.13.085.241.196.328.324l4.725 6.663c.096.124.166.265.206.416a1.17 1.17 0 0 1 .03.463c-.021.155-.072.305-.151.44a1.19 1.19 0 0 1-.309.346c-.19.153-.42.248-.662.272v-.035zm128.853-7.253c-.222.001-.44-.061-.629-.178a1.19 1.19 0 0 1-.439-.486c-.097-.2-.136-.423-.112-.644a1.18 1.18 0 0 1 .247-.606l4.985-6.556c.087-.136.201-.252.335-.342a1.18 1.18 0 0 1 .443-.182 1.19 1.19 0 0 1 .479.01 1.17 1.17 0 0 1 .436.199c.13.095.239.216.321.355a1.18 1.18 0 0 1 .114.931c-.046.155-.123.299-.226.423l-5.02 6.615a1.19 1.19 0 0 1-.408.358c-.162.086-.342.134-.526.138v-.035zm-105.31-1.69c-.221.001-.438-.061-.626-.178s-.34-.284-.437-.483l-3.851-7.23a1.18 1.18 0 0 1-.117-.899c.082-.304.281-.562.554-.719a1.19 1.19 0 0 1 .9-.116 1.18 1.18 0 0 1 .718.553l3.91 7.36c.14.28.162.604.062.901a1.18 1.18 0 0 1-.593.681c-.158.095-.336.152-.52.166v-.036zm-32.804-4.725c-.204.001-.405-.05-.583-.149a1.19 1.19 0 0 1-.433-.418l-4.087-7.276a1.18 1.18 0 0 1 .496-1.595 1.18 1.18 0 0 1 .9-.082c.299.093.549.301.695.578l4.028 7.159c.16.269.206.591.128.894s-.272.564-.542.724c-.183.104-.391.157-.602.153v.012zm147.907-6.875a1.18 1.18 0 0 1-1.16-.972 1.18 1.18 0 0 1 .192-.882l4.571-6.852c.171-.263.439-.447.746-.513s.627-.006.89.165.448.439.513.746a1.18 1.18 0 0 1-.164.89l-4.619 6.898a1.19 1.19 0 0 1-.42.38 1.17 1.17 0 0 1-.549.14zm-123.254-2.74a1.19 1.19 0 0 1-.572-.143c-.175-.095-.324-.233-.432-.401l-3.544-5.292-1.063-1.547a1.18 1.18 0 0 1 .33-1.593 1.18 1.18 0 0 1 1.607.246l1.075 1.559 3.544 5.352a1.17 1.17 0 0 1 .155.89c-.034.152-.098.295-.187.422s-.203.235-.334.318a1.12 1.12 0 0 1-.579.189zm-32.343-5.044a1.19 1.19 0 0 1-.64-.19 1.18 1.18 0 0 1-.435-.507l-3.213-7.714a1.19 1.19 0 0 1-.076-.457 1.17 1.17 0 0 1 .105-.451c.064-.142.155-.27.269-.377a1.2 1.2 0 0 1 .393-.245 1.19 1.19 0 0 1 .908.029 1.2 1.2 0 0 1 .622.662l3.142 7.584c.128.285.137.61.027.902a1.18 1.18 0 0 1-.618.657c-.152.07-.317.106-.484.107zm164.575-6.096a1.17 1.17 0 0 1-.614-.177 1.18 1.18 0 0 1-.39-1.618l4.17-7.088a1.18 1.18 0 0 1 1.606-.449c.137.076.256.179.353.302s.168.263.209.414.054.308.034.462-.069.305-.147.441l-4.205 7.146c-.106.175-.256.318-.434.418s-.378.151-.582.149zm-141.635-2.457c-.186.001-.37-.043-.536-.127a1.18 1.18 0 0 1-.421-.357l-4.973-6.556c-.193-.245-.281-.556-.246-.866a1.18 1.18 0 0 1 .435-.788c.122-.097.261-.17.411-.213a1.18 1.18 0 0 1 .461-.039 1.2 1.2 0 0 1 .441.141c.136.076.256.178.353.3l5.02 6.615c.093.125.16.267.197.418s.045.307.022.461-.076.301-.156.434a1.18 1.18 0 0 1-.311.341c-.201.151-.445.234-.697.236zm-28.705-6.957c-.266.009-.528-.073-.743-.232a1.18 1.18 0 0 1-.438-.643c-.776-2.709-1.344-5.473-1.701-8.269a1.18 1.18 0 0 1 .038-.462 1.2 1.2 0 0 1 .212-.413 1.19 1.19 0 0 1 .354-.3c.136-.076.286-.124.441-.142s.313-.005.463.038a1.2 1.2 0 0 1 .713.566c.075.137.124.287.142.442a54.34 54.34 0 0 0 1.641 7.926 1.17 1.17 0 0 1 .034.46c-.019.154-.069.303-.146.438s-.179.254-.302.349-.263.165-.412.206c-.096.027-.196.039-.296.036zm178.514-4.938c-.194-.001-.384-.05-.555-.142a1.18 1.18 0 0 1-.484-1.595l3.792-7.312c.141-.28.387-.493.685-.592s.623-.074.903.067a1.18 1.18 0 0 1 .526 1.588l-3.815 7.36a1.19 1.19 0 0 1-1.052.626zm-160.086-1.052a1.18 1.18 0 0 1-.886-.401l-5.623-5.906a1.21 1.21 0 0 1-.303-.375c-.074-.144-.118-.302-.128-.464a1.19 1.19 0 0 1 .068-.477 1.18 1.18 0 0 1 .252-.41 1.19 1.19 0 0 1 .396-.276c.149-.063.31-.096.472-.094s.322.036.471.101.281.162.391.282l5.788 6.06a1.18 1.18 0 0 1 .286.857c-.023.312-.168.603-.404.808a1.18 1.18 0 0 1-.78.295zm-19.408-10.265a1.18 1.18 0 0 1-.532-.118 1.19 1.19 0 0 1-.365-.285c-.101-.118-.178-.256-.227-.404s-.067-.305-.054-.46a1.18 1.18 0 0 1 .126-.446c.366-.815.963-1.504 1.717-1.983a4.55 4.55 0 0 1 2.524-.71c1.616.089 3.183.58 4.56 1.429a1.21 1.21 0 0 1 .351.305c.095.124.166.265.207.416s.052.308.032.463-.069.305-.147.441a1.19 1.19 0 0 1-.305.35 1.2 1.2 0 0 1-.415.208 1.19 1.19 0 0 1-.464.032 1.2 1.2 0 0 1-.44-.147 7.43 7.43 0 0 0-3.414-1.182 2.24 2.24 0 0 0-2.138 1.406 1.19 1.19 0 0 1-.417.488 1.18 1.18 0 0 1-.611.197h.012zm186.925-3.449a1.3 1.3 0 0 1-.508-.106c-.282-.136-.498-.377-.602-.671a1.19 1.19 0 0 1 .046-.901l3.414-7.489c.136-.27.37-.478.655-.581a1.18 1.18 0 0 1 1.489.651 1.18 1.18 0 0 1 .018.875l-3.449 7.549c-.097.202-.249.374-.44.493a1.18 1.18 0 0 1-.635.18h.012zm6.674-15.109c-.154.002-.306-.026-.449-.082a1.19 1.19 0 0 1-.384-.257 1.18 1.18 0 0 1-.346-.838 1.2 1.2 0 0 1 .092-.453l3.059-7.643c.113-.292.338-.529.625-.656s.612-.136.905-.023.529.337.657.624.135.613.022.906l-3.083 7.69a1.18 1.18 0 0 1-.442.537c-.198.131-.431.199-.668.195h.012zm5.977-15.356a1.28 1.28 0 0 1-.402-.071 1.2 1.2 0 0 1-.398-.239c-.115-.106-.208-.233-.274-.375s-.103-.295-.11-.451a1.2 1.2 0 0 1 .073-.459l2.741-7.761a1.2 1.2 0 0 1 .215-.43c.1-.127.226-.232.368-.308a1.19 1.19 0 0 1 .938-.078 1.18 1.18 0 0 1 .414.243 1.19 1.19 0 0 1 .283.388 1.17 1.17 0 0 1 .105.469c.003.162-.028.323-.09.472l-2.753 7.82a1.18 1.18 0 0 1-.444.548c-.201.133-.437.202-.678.197l.012.035zm5.316-15.652a1.32 1.32 0 0 1-.355 0 1.19 1.19 0 0 1-.405-.223c-.119-.1-.217-.223-.288-.362a1.17 1.17 0 0 1-.127-.444 1.19 1.19 0 0 1 .052-.459l2.363-7.879a1.18 1.18 0 0 1 .569-.698c.275-.148.597-.182.896-.094.149.043.288.116.409.213a1.2 1.2 0 0 1 .296.353 1.19 1.19 0 0 1 .138.44c.017.154.003.31-.04.459l-2.433 7.926a1.18 1.18 0 0 1-1.099.733l.024.035zm4.725-15.841a1.42 1.42 0 0 1-.319 0 1.18 1.18 0 0 1-.815-1.453l2.114-7.973c.079-.304.274-.565.545-.724a1.18 1.18 0 0 1 1.62.418 1.18 1.18 0 0 1 .127.896l-2.138 8.009a1.18 1.18 0 0 1-1.158.768l.024.059zm4.111-16.018a1.03 1.03 0 0 1-.272 0 1.18 1.18 0 0 1-.874-1.417l1.843-8.045a1.21 1.21 0 0 1 .525-.761c.269-.174.597-.234.91-.166a1.21 1.21 0 0 1 .927 1.435l-1.854 8.08a1.18 1.18 0 0 1-1.241.839l.036.035zm3.543-16.16h-.236a1.18 1.18 0 0 1-.425-.178c-.128-.087-.239-.198-.324-.328s-.145-.274-.175-.427a1.19 1.19 0 0 1 .003-.461l1.583-8.103a1.2 1.2 0 0 1 1.4-.963 1.2 1.2 0 0 1 .962 1.4l-1.594 8.139c-.069.266-.227.5-.45.662s-.493.241-.767.224l.023.035zm3.048-16.266h-.201a1.18 1.18 0 0 1-.765-.479c-.182-.254-.255-.571-.203-.879l1.334-8.163a1.2 1.2 0 0 1 .476-.782c.256-.187.576-.265.889-.216s.594.219.782.475.265.576.216.889l-1.347 8.186a1.17 1.17 0 0 1-.435.68c-.22.169-.492.254-.769.242l.023.047zm2.552-16.372h-.166a1.18 1.18 0 0 1-1.004-1.335l1.111-8.198c.02-.155.07-.305.148-.441a1.19 1.19 0 0 1 .723-.556c.151-.04.308-.051.463-.031s.305.071.441.149.254.182.35.306a1.2 1.2 0 0 1 .206.416 1.19 1.19 0 0 1 .031.464l-1.11 8.269c-.061.273-.217.515-.44.683a1.18 1.18 0 0 1-.777.238l.024.036zm2.102-16.444h-.13a1.16 1.16 0 0 1-.439-.141 1.19 1.19 0 0 1-.353-.298c-.096-.122-.168-.262-.21-.411s-.055-.306-.037-.461l.886-8.269c.031-.313.186-.601.429-.8s.557-.294.87-.263.602.186.801.43.294.556.262.869l-.897 8.269c-.036.293-.179.561-.402.754a1.18 1.18 0 0 1-.803.286l.023.035zm1.666-16.537h-.106a1.19 1.19 0 0 1-.445-.13c-.138-.072-.261-.171-.361-.29a1.18 1.18 0 0 1-.221-.407 1.16 1.16 0 0 1-.048-.461l.685-8.269c.023-.313.17-.604.408-.809a1.19 1.19 0 0 1 1.671.125 1.18 1.18 0 0 1 .283.861l-.673 8.269c-.012.311-.147.605-.375.818a1.18 1.18 0 0 1-.842.316l.024-.023zm1.264-16.538h-.083c-.155-.011-.307-.052-.446-.121s-.264-.165-.366-.283a1.18 1.18 0 0 1-.229-.401c-.049-.148-.069-.304-.057-.459l.484-8.269c.015-.303.146-.589.366-.797a1.18 1.18 0 0 1 .815-.325 1.18 1.18 0 0 1 .79.37c.206.219.321.51.321.811l-.485 8.269a1.17 1.17 0 0 1-.057.47c-.051.151-.131.291-.237.41s-.235.216-.379.284a1.19 1.19 0 0 1-.461.112l.024-.071zm.874-16.538a1.18 1.18 0 0 1-1.181-1.181l.295-8.269a1.18 1.18 0 0 1 1.217-1.146 1.18 1.18 0 0 1 .825.371c.214.228.33.532.321.846l-.308 8.269a1.18 1.18 0 0 1-.345.847 1.19 1.19 0 0 1-.389.258c-.146.059-.302.089-.459.088l.024-.083zm.508-16.538a1.18 1.18 0 0 1-1.181-1.181l.118-8.269a1.18 1.18 0 0 1 1.181-1.181 1.18 1.18 0 0 1 1.181 1.181l-.118 8.269a1.17 1.17 0 0 1-.063.487c-.055.156-.142.298-.255.419a1.2 1.2 0 0 1-.404.279 1.21 1.21 0 0 1-.483.091l.024-.095zm.165-16.538a1.18 1.18 0 0 1-1.181-1.181v-8.269a1.18 1.18 0 0 1 1.181-1.181 1.18 1.18 0 0 1 1.182 1.181v8.269a1.2 1.2 0 0 1-.063.487c-.055.156-.142.299-.256.419a1.19 1.19 0 0 1-.404.279c-.153.064-.317.095-.482.091l.023-.095zm-.165-16.538a1.18 1.18 0 0 1-1.181-1.181l-.213-8.269a1.18 1.18 0 0 1 1.181-1.181 1.18 1.18 0 0 1 .836.346c.221.222.346.522.346.835l.212 8.269a1.18 1.18 0 0 1-1.181 1.181zm-.484-16.537c-.314 0-.614-.125-.836-.346s-.346-.522-.346-.836l-.354-8.269c0-.313.125-.613.346-.835s.522-.346.835-.346a1.18 1.18 0 0 1 .815.325c.22.209.351.494.367.797l.366 8.269c0 .314-.125.614-.346.836s-.522.346-.836.346l-.011.059zm-.792-16.538c-.301 0-.591-.114-.811-.321a1.18 1.18 0 0 1-.37-.79l-.508-8.269c-.02-.313.085-.621.292-.857s.499-.38.812-.401.622.085.858.292a1.19 1.19 0 0 1 .401.813l.507 8.269c.017.311-.091.617-.299.849a1.18 1.18 0 0 1-.811.391l-.071.024zm-1.087-16.538a1.18 1.18 0 0 1-.807-.316c-.219-.204-.353-.484-.374-.783l-.65-8.269c-.026-.311.073-.62.274-.86s.49-.388.801-.415.621.072.86.273a1.18 1.18 0 0 1 .416.802l.65 8.269a1.17 1.17 0 0 1-.053.459c-.048.149-.124.286-.225.405s-.225.216-.363.286a1.18 1.18 0 0 1-.446.125l-.083.024zm-1.37-16.538a1.18 1.18 0 0 1-1.181-1.075l-.792-8.269c-.016-.154-.002-.31.042-.459a1.17 1.17 0 0 1 .569-.703 1.18 1.18 0 0 1 .441-.137c.155-.016.312-.002.462.043s.288.119.409.217a1.19 1.19 0 0 1 .295.359c.073.138.118.289.133.444l.792 8.269c.029.312-.066.622-.265.864s-.487.394-.799.424l-.106.023zm-1.654-16.467c-.292.002-.574-.104-.792-.299a1.18 1.18 0 0 1-.389-.752l-.933-8.269a1.19 1.19 0 0 1 1.045-1.317 1.19 1.19 0 0 1 1.317 1.045l.934 8.269c.018.155.005.313-.038.463s-.116.29-.214.412a1.19 1.19 0 0 1-.8.436l-.13.012zm-1.925-16.431a1.18 1.18 0 0 1-.789-.295c-.218-.191-.358-.457-.392-.745l-1.075-8.186a1.19 1.19 0 0 1 .233-.882c.095-.124.213-.229.349-.308s.284-.13.44-.151.312-.011.464.029.293.109.417.204.23.213.308.349a1.19 1.19 0 0 1 .151.44l1.075 8.21c.02.154.009.311-.032.461a1.17 1.17 0 0 1-.207.414 1.18 1.18 0 0 1-.349.303c-.136.077-.285.126-.44.145l-.153.012zm-2.221-16.396c-.287.003-.564-.099-.782-.286a1.18 1.18 0 0 1-.399-.73l-1.181-8.174a1.18 1.18 0 0 1 .212-.876c.184-.252.46-.422.768-.471.155-.025.312-.019.465.017a1.19 1.19 0 0 1 .422.195c.126.092.233.209.314.343a1.18 1.18 0 0 1 .157.437l1.182 8.198c.043.31-.038.625-.226.875a1.18 1.18 0 0 1-.778.459l-.154.012zm-2.516-16.361a1.18 1.18 0 0 1-1.181-.992l-1.37-8.151c-.027-.155-.023-.314.012-.467a1.2 1.2 0 0 1 .191-.427c.091-.128.207-.237.34-.321a1.2 1.2 0 0 1 .437-.167c.155-.026.314-.022.467.013s.299.1.427.191.237.207.321.34.141.281.167.437l1.382 8.174a1.18 1.18 0 0 1-.016.462 1.17 1.17 0 0 1-.192.421c-.091.126-.206.233-.339.315a1.18 1.18 0 0 1-.433.161l-.213.012zm-2.918-16.16a1.18 1.18 0 0 1-1.181-.957l-1.583-8.115a1.2 1.2 0 0 1 0-.47c.03-.155.091-.303.179-.434s.201-.245.332-.333a1.2 1.2 0 0 1 .434-.18c.155-.031.315-.031.47 0a1.21 1.21 0 0 1 .767.511c.088.132.15.279.181.434l1.583 8.151a1.18 1.18 0 0 1-.005.462c-.031.152-.093.297-.181.425s-.2.238-.33.323a1.19 1.19 0 0 1-.43.172l-.236.012z"/></svg>