<svg xmlns="http://www.w3.org/2000/svg" width="507" height="674" fill="#2fa937"><path d="M83.758 144.474a284.96 284.96 0 0 0-6.383 9.412 1.6 1.6 0 0 0 .471 2.214c.355.231.788.311 1.203.222a1.6 1.6 0 0 0 1.008-.694c2.043-3.196 4.149-6.28 6.287-9.316.139-.17.241-.367.301-.578a1.6 1.6 0 0 0-.172-1.264 1.59 1.59 0 0 0-.444-.476 1.6 1.6 0 0 0-.597-.26c-.215-.044-.436-.044-.651.001s-.418.134-.596.261a1.61 1.61 0 0 0-.443.478h.016zm9.319-7.223a272.13 272.13 0 0 1 7.022-8.757c.152-.158.27-.345.347-.551a1.59 1.59 0 0 0-.471-1.785c-.169-.141-.364-.246-.574-.308a1.6 1.6 0 0 0-.649-.052 1.59 1.59 0 0 0-.616.211 1.6 1.6 0 0 0-.48.44 245.11 245.11 0 0 0-7.101 8.869 1.6 1.6 0 0 0 1.261 2.572c.245-.002.486-.061.705-.172a1.59 1.59 0 0 0 .556-.467zM232.103 48.1c-3.734.511-7.5 1.166-11.171 1.902a1.6 1.6 0 0 0-1.084.575 1.61 1.61 0 0 0-.36 1.174c.04.424.247.814.575 1.086a1.6 1.6 0 0 0 1.173.361c.105.016.213.016.319 0a197.76 197.76 0 0 1 11.011-1.87 1.59 1.59 0 0 0 .592-.202 1.61 1.61 0 0 0 .47-.415 1.62 1.62 0 0 0 .274-.563 1.61 1.61 0 0 0 .036-.626c-.021-.216-.086-.426-.191-.617s-.248-.357-.42-.49-.369-.23-.58-.284a1.59 1.59 0 0 0-.644-.031zm-116.924 61.506c-.299-.298-.704-.465-1.125-.465s-.826.167-1.125.465c-2.649 2.637-5.298 5.401-7.867 8.214-.283.314-.43.727-.409 1.149a1.6 1.6 0 0 0 1.59 1.519 1.59 1.59 0 0 0 .644-.131c.203-.088.386-.217.536-.38 2.538-2.781 5.139-5.497 7.756-8.118a1.6 1.6 0 0 0 0-2.253zm-41.586 53.373c-.364-.216-.799-.279-1.209-.174a1.6 1.6 0 0 0-.977.733c-1.915 3.196-3.798 6.552-5.617 9.876-.101.184-.165.387-.187.596a1.6 1.6 0 0 0 .056.623 1.59 1.59 0 0 0 .29.554c.132.163.295.3.48.4a1.6 1.6 0 0 0 .766.192c.287.001.569-.076.816-.222a1.6 1.6 0 0 0 .588-.609c1.787-3.308 3.67-6.584 5.553-9.78a1.6 1.6 0 0 0 .174-1.21c-.105-.411-.368-.763-.732-.979zm93.88-93.882c-3.319 1.742-6.654 3.627-9.91 5.561a1.6 1.6 0 0 0-.665.776c-.131.325-.152.683-.059 1.021a1.6 1.6 0 0 0 .571.848 1.59 1.59 0 0 0 .967.328c.287 0 .568-.077.814-.224 3.192-1.918 6.495-3.755 9.766-5.481a1.59 1.59 0 0 0 .5-.388c.139-.162.244-.349.31-.551s.09-.416.071-.629-.078-.419-.177-.607a1.59 1.59 0 0 0-.399-.491c-.164-.135-.354-.236-.557-.297s-.418-.08-.63-.057a1.58 1.58 0 0 0-.602.192zM53.182 203.28a1.61 1.61 0 0 0-.612-.124 1.61 1.61 0 0 0-.612.121 1.58 1.58 0 0 0-.519.347 1.59 1.59 0 0 0-.347.519 315.41 315.41 0 0 0-4.181 10.563 1.6 1.6 0 0 0 .037 1.223 1.6 1.6 0 0 0 .889.838 1.59 1.59 0 0 0 .559.096c.324.003.641-.094.909-.277a1.6 1.6 0 0 0 .591-.745 310.47 310.47 0 0 1 4.149-10.467 1.6 1.6 0 0 0-.343-1.746 1.6 1.6 0 0 0-.519-.348zm78.785-108.711a1.59 1.59 0 0 0-2.234-.207 232.58 232.58 0 0 0-8.586 7.447c-.238.217-.405.5-.479.814a1.61 1.61 0 0 0 .063.943c.116.3.32.559.585.742s.579.281.9.282a1.6 1.6 0 0 0 1.07-.416c2.776-2.525 5.633-5.002 8.473-7.351a1.59 1.59 0 0 0 .571-1.084 1.61 1.61 0 0 0-.065-.621 1.62 1.62 0 0 0-.298-.549zm56.204-34.932c-3.511 1.374-7.038 2.86-10.485 4.442a1.6 1.6 0 0 0-.766.74c-.163.327-.209.7-.131 1.058a1.6 1.6 0 0 0 1.568 1.255 1.6 1.6 0 0 0 .654-.144c3.399-1.598 6.862-3.02 10.325-4.379a1.61 1.61 0 0 0 .551-.325 1.59 1.59 0 0 0 .379-.516 1.62 1.62 0 0 0 .147-.623 1.6 1.6 0 0 0-.11-.631c-.079-.201-.197-.383-.348-.537a1.6 1.6 0 0 0-.531-.357 1.59 1.59 0 0 0-.628-.12c-.215.003-.428.05-.625.137zm-40.23 21.109a227.41 227.41 0 0 0-9.272 6.584 1.61 1.61 0 0 0-.42.462 1.6 1.6 0 0 0 .085 1.776c.15.201.346.363.57.474s.472.168.723.165c.339-.003.669-.115.941-.32 3-2.237 6.08-4.41 9.16-6.488a1.6 1.6 0 0 0 .431-2.205 1.59 1.59 0 0 0-1.016-.685c-.207-.042-.419-.042-.625-.001a1.6 1.6 0 0 0-.577.239zM58.544 195.067l4.787-10.147a1.6 1.6 0 0 0-.718-2.142c-.377-.189-.813-.222-1.214-.09a1.6 1.6 0 0 0-.924.793c-1.676 3.356-3.319 6.808-4.899 10.259-.093.194-.146.404-.156.619a1.6 1.6 0 0 0 .098.63 1.61 1.61 0 0 0 .336.542 1.59 1.59 0 0 0 1.735.409 1.59 1.59 0 0 0 .892-.825l.064-.048zM23.309 349.56a1.59 1.59 0 0 0 1.128-.468 1.6 1.6 0 0 0 .467-1.13l.431-11.186a1.6 1.6 0 0 0-.091-.617c-.071-.198-.179-.38-.32-.536a1.6 1.6 0 0 0-.5-.372c-.189-.09-.395-.142-.605-.153a1.6 1.6 0 0 0-.617.092c-.198.07-.379.179-.535.32a1.6 1.6 0 0 0-.372.501c-.09.19-.142.396-.152.606l-.431 11.329a1.61 1.61 0 0 0 .462 1.141 1.59 1.59 0 0 0 .52.35 1.6 1.6 0 0 0 .614.123zm.064 22.612a1.6 1.6 0 0 0 1.596-1.598l-.16-11.186a1.6 1.6 0 0 0-.467-1.13 1.59 1.59 0 0 0-2.256 0 1.6 1.6 0 0 0-.467 1.13l.16 11.345c.04.396.225.763.52 1.028a1.6 1.6 0 0 0 1.075.411zm.989-45.239h.096a1.6 1.6 0 0 0 1.596-1.47l1.005-11.186a1.63 1.63 0 0 0-.057-.625c-.059-.203-.159-.39-.291-.554-.268-.331-.656-.543-1.079-.587a1.6 1.6 0 0 0-1.177.349 1.61 1.61 0 0 0-.586 1.081l-1.005 11.314a1.6 1.6 0 0 0 .405 1.148c.281.315.675.505 1.095.53zm2.234-22.468h.207c.39.003.767-.136 1.061-.392a1.6 1.6 0 0 0 .535-.998l1.596-11.186a1.62 1.62 0 0 0-.293-1.203c-.253-.346-.633-.577-1.056-.643s-.855.04-1.201.293a1.62 1.62 0 0 0-.642 1.057l-1.596 11.186a1.6 1.6 0 0 0 1.388 1.886zm3.431-22.276h.303c.378.006.746-.122 1.038-.362a1.6 1.6 0 0 0 .558-.948l1.436-7.335.782-3.692a1.6 1.6 0 0 0-.22-1.206 1.59 1.59 0 0 0-.435-.448 1.57 1.57 0 0 0-.574-.247 1.6 1.6 0 0 0-.624-.011 1.61 1.61 0 0 0-.581.231c-.177.114-.329.262-.448.436a1.59 1.59 0 0 0-.247.574l-.782 3.724-1.452 7.398a1.6 1.6 0 0 0 .232 1.201 1.59 1.59 0 0 0 1.012.685zm8.314-36.227a1.61 1.61 0 0 0-1.213.152c-.182.104-.342.243-.471.409a1.59 1.59 0 0 0-.279.558l-2.856 10.978a1.59 1.59 0 0 0-.026.626 1.6 1.6 0 0 0 .215.587c.11.18.254.336.424.46a1.61 1.61 0 0 0 .568.261 1.5 1.5 0 0 0 .367 0 1.6 1.6 0 0 0 1.596-1.215l2.84-10.898a1.6 1.6 0 0 0-1.165-1.918zm-13.66 148.773c.421-.032.811-.231 1.087-.551a1.6 1.6 0 0 0 .381-1.159l-.734-11.185a1.6 1.6 0 0 0-.155-.605 1.61 1.61 0 0 0-.911-.818 1.62 1.62 0 0 0-.617-.088 1.6 1.6 0 0 0-.604.156 1.59 1.59 0 0 0-.499.375c-.14.156-.248.339-.318.537a1.6 1.6 0 0 0-.088.618l.734 11.314c.028.404.209.783.505 1.058a1.6 1.6 0 0 0 1.091.428l.128-.08zm7.197 42.97l-1.851-11.106a1.62 1.62 0 0 0-.213-.593 1.61 1.61 0 0 0-.993-.735c-.206-.051-.419-.061-.629-.03a1.61 1.61 0 0 0-1.059.638 1.61 1.61 0 0 0-.268.57 1.62 1.62 0 0 0-.03.63l1.867 11.186a1.6 1.6 0 0 0 .553.958c.293.243.662.374 1.042.368h.287a1.59 1.59 0 0 0 .589-.229c.179-.116.333-.265.454-.441a1.6 1.6 0 0 0 .25-1.216zm14.219-211.286c.138-.402.11-.843-.077-1.225s-.518-.674-.92-.812a1.6 1.6 0 0 0-1.224.077c-.382.187-.673.519-.811.922l-3.511 10.802a1.6 1.6 0 0 0 .114 1.217c.197.374.535.655.94.78a1.6 1.6 0 0 0 .479 0 1.59 1.59 0 0 0 .988-.287c.289-.202.502-.494.608-.831a241.49 241.49 0 0 1 3.415-10.643zm-17.65 189.01l-1.277-11.186a1.6 1.6 0 0 0-.185-.595c-.1-.184-.236-.348-.399-.48a1.59 1.59 0 0 0-.552-.29c-.201-.059-.412-.079-.62-.057a1.6 1.6 0 0 0-1.074.584 1.6 1.6 0 0 0-.346 1.174l1.293 11.266a1.6 1.6 0 0 0 .535.998c.294.256.671.395 1.061.392h.207c.419-.059.797-.283 1.052-.622a1.6 1.6 0 0 0 .305-1.184zM209.81 52.574c-3.639.959-7.309 2.045-10.916 3.196a1.6 1.6 0 0 0-1.021 2.013c.108.334.323.623.612.822s.634.298.984.281a1.29 1.29 0 0 0 .495-.08c3.542-1.151 7.149-2.205 10.739-3.196a1.6 1.6 0 0 0 .976-.742c.214-.367.273-.804.165-1.215a1.6 1.6 0 0 0-1.954-1.143l-.08.064zm67.662-5.497c-3.767-.352-7.596-.591-11.347-.735-.209-.008-.418.025-.615.097a1.58 1.58 0 0 0-.532.326 1.6 1.6 0 0 0-.512 1.111 1.58 1.58 0 0 0 .097.616 1.59 1.59 0 0 0 .325.532c.287.312.687.496 1.11.513 3.702.128 7.468.384 11.17.719h.144c.423.019.837-.131 1.149-.417a1.6 1.6 0 0 0 .102-2.26c-.286-.313-.684-.5-1.107-.519l.016.016zm-22.709-.815c-3.766 0-7.596.272-11.346.575-.423.017-.822.202-1.109.513a1.6 1.6 0 0 0 .09 2.26c.311.288.724.44 1.147.423h.128c3.702-.304 7.452-.495 11.17-.575a1.6 1.6 0 0 0 1.596-1.598 1.6 1.6 0 0 0-1.596-1.598h-.08zm33.72 5.401l5.457.895h.287a1.6 1.6 0 0 0 .622-.067 1.61 1.61 0 0 0 .549-.3 1.6 1.6 0 0 0 .502-1.711 1.59 1.59 0 0 0-.299-.55 1.6 1.6 0 0 0-.487-.393c-.186-.098-.39-.158-.599-.177l-5.554-.927c-.207-.032-.419-.022-.623.028a1.59 1.59 0 0 0-.564.265 1.61 1.61 0 0 0-.421.462 1.6 1.6 0 0 0-.211.588 1.6 1.6 0 0 0 .007.643 1.59 1.59 0 0 0 .26.588c.125.176.285.325.469.438a1.6 1.6 0 0 0 .605.217zM184.772 353.987c-3.687.703-7.405 1.502-11.059 2.381a1.59 1.59 0 0 0-.596.195 1.61 1.61 0 0 0-.477.408 1.63 1.63 0 0 0-.283.56c-.057.204-.074.417-.048.626s.091.413.194.597a1.6 1.6 0 0 0 .408.477c.166.131.356.227.56.284a1.61 1.61 0 0 0 .625.049h.367c3.59-.863 7.261-1.598 10.899-2.333a1.62 1.62 0 0 0 .588-.235c.179-.116.333-.267.454-.442a1.61 1.61 0 0 0 .25-.583 1.63 1.63 0 0 0-.667-1.677 1.64 1.64 0 0 0-.582-.251c-.209-.044-.424-.047-.633-.008v-.048zm243.582 108.312c-.116-.176-.266-.326-.44-.444a1.57 1.57 0 0 0-.576-.24c-.206-.041-.418-.042-.625-.002a1.59 1.59 0 0 0-.577.238 1.6 1.6 0 0 0-.442.441c-.118.175-.199.371-.241.577s-.042.419-.001.625a1.62 1.62 0 0 0 .237.578 252.81 252.81 0 0 1 5.985 9.428c.143.236.344.43.585.565a1.59 1.59 0 0 0 .787.202c.292.003.579-.074.83-.223.179-.11.336-.254.46-.425s.212-.363.261-.568a1.61 1.61 0 0 0 .024-.626 1.6 1.6 0 0 0-.219-.586c-1.947-3.212-3.973-6.408-6.048-9.54zm21.815 39.55c-.077-.204-.195-.391-.347-.547a1.58 1.58 0 0 0-.535-.364 1.59 1.59 0 0 0-.635-.122 1.58 1.58 0 0 0-.631.141c-.199.09-.377.219-.524.38a1.6 1.6 0 0 0-.33.557c-.071.207-.099.425-.082.643a1.61 1.61 0 0 0 .179.622c1.516 3.388 3.001 6.839 4.389 10.291.159.392.467.704.856.869a1.59 1.59 0 0 0 1.218.01 1.6 1.6 0 0 0 .878-2.077c-1.404-3.484-2.888-6.984-4.436-10.403zm-400.178-70.28c-2.505 2.813-4.979 5.689-7.357 8.581-.133.163-.234.35-.295.551a1.6 1.6 0 0 0-.061.622c.021.21.083.413.182.598s.234.35.397.483a1.62 1.62 0 0 0 .55.295 1.61 1.61 0 0 0 .621.061 1.59 1.59 0 0 0 .597-.183c.185-.099.349-.234.481-.397a260.37 260.37 0 0 1 7.261-8.47 1.6 1.6 0 0 0-.12-2.261c-.315-.284-.73-.431-1.154-.408s-.821.212-1.104.528zm350.277-4.746a1.59 1.59 0 0 0-.507-.363 1.57 1.57 0 0 0-.607-.141 1.59 1.59 0 0 0-.615.102c-.196.074-.376.186-.529.33a1.59 1.59 0 0 0-.362.508c-.087.191-.135.398-.141.608a1.6 1.6 0 0 0 .102.616c.074.196.186.376.329.529 2.554 2.717 5.075 5.513 7.501 8.31a1.59 1.59 0 0 0 .538.409 1.58 1.58 0 0 0 .658.15c.386.004.76-.132 1.054-.383a1.6 1.6 0 0 0 .159-2.254 269.67 269.67 0 0 0-7.58-8.421zm14.793 17.146a1.6 1.6 0 0 0-2.25-.255c-.332.264-.546.651-.594 1.073a1.61 1.61 0 0 0 .339 1.18c2.314 2.908 4.58 5.912 6.766 8.916a1.59 1.59 0 0 0 .565.492c.225.117.474.178.728.18a1.6 1.6 0 0 0 .836-.235c.252-.154.456-.375.59-.638s.192-.559.168-.853a1.59 1.59 0 0 0-.302-.815c-2.218-3.036-4.516-6.089-6.846-9.045zm-31.022-32.95c-.319-.256-.724-.38-1.131-.346s-.786.223-1.058.528a1.6 1.6 0 0 0 .066 2.199 266.1 266.1 0 0 1 8.187 7.622c.299.298.703.465 1.125.465s.826-.167 1.125-.465a1.58 1.58 0 0 0 .349-.52c.081-.194.123-.403.123-.614s-.042-.42-.123-.615a1.59 1.59 0 0 0-.349-.52 270.16 270.16 0 0 0-8.314-7.734zm78.194 122.518a282.6 282.6 0 0 0-3.606-10.723c-.067-.202-.174-.39-.315-.551s-.311-.291-.503-.385a1.6 1.6 0 0 0-.614-.158c-.213-.012-.426.02-.627.093a1.58 1.58 0 0 0-.541.33 1.59 1.59 0 0 0-.511 1.133c-.005.214.032.426.11.625 1.245 3.468 2.442 7.031 3.559 10.595.105.336.319.629.608.831s.636.303.988.287a1.6 1.6 0 0 0 .479 0c.202-.069.388-.179.547-.322a1.58 1.58 0 0 0 .378-.51c.091-.194.142-.404.15-.618a1.58 1.58 0 0 0-.102-.627zm-232.46-183.513l-11.298.159a1.6 1.6 0 0 0-1.129 2.728c.3.3.706.468 1.129.468 3.686-.128 7.452-.175 11.171-.144a1.59 1.59 0 0 0 1.128-.468 1.6 1.6 0 0 0 0-2.259 1.59 1.59 0 0 0-1.128-.468l.127-.016zM475.51 611.375a1.6 1.6 0 0 0-.507-1.114c-.31-.289-.721-.443-1.145-.428s-.823.197-1.112.507a1.6 1.6 0 0 0-.427 1.147 305.29 305.29 0 0 1 .191 10.77v.304a1.6 1.6 0 0 0 1.596 1.598c.423 0 .829-.169 1.128-.468a1.6 1.6 0 0 0 .468-1.13v-.416a301.56 301.56 0 0 0-.192-10.77zM252.338 351.366c-3.718-.4-7.5-.719-11.267-.943-.209-.012-.419.016-.618.085a1.61 1.61 0 0 0-.538.315c-.157.14-.285.309-.377.498s-.146.394-.158.604a1.59 1.59 0 0 0 .085.619c.068.199.175.382.315.539a1.61 1.61 0 0 0 .497.378 1.58 1.58 0 0 0 .603.158 242.75 242.75 0 0 1 11.171.943h.175c.21.011.419-.018.617-.088s.381-.178.537-.318a1.61 1.61 0 0 0 .375-.499 1.63 1.63 0 0 0 .155-.605 1.62 1.62 0 0 0-.088-.618 1.61 1.61 0 0 0-.318-.538c-.14-.156-.309-.284-.498-.375a1.61 1.61 0 0 0-.604-.155h-.064zm218.704 228.049a1.59 1.59 0 0 0 1.312-1.198 1.6 1.6 0 0 0 .028-.624c-.558-3.691-1.197-7.446-1.899-11.186a1.62 1.62 0 0 0-.676-1.043c-.175-.121-.373-.206-.582-.25s-.423-.048-.633-.009-.409.119-.588.235a1.62 1.62 0 0 0-.454.442 1.65 1.65 0 0 0-.25.583 1.63 1.63 0 0 0-.008.634c.702 3.659 1.324 7.366 1.883 11.026.057.381.251.728.544.978a1.6 1.6 0 0 0 1.052.38l.271.032zm-2.952-24.066a277.18 277.18 0 0 0-2.745-10.978c-.056-.202-.151-.392-.279-.558a1.59 1.59 0 0 0-1.063-.605c-.208-.026-.419-.011-.621.045a1.58 1.58 0 0 0-.557.279c-.166.129-.304.289-.408.472a1.59 1.59 0 0 0-.152 1.214c.973 3.596 1.883 7.239 2.713 10.835.081.36.284.681.575.908a1.59 1.59 0 0 0 1.021.338 1.29 1.29 0 0 0 .351 0 1.58 1.58 0 0 0 .988-.731 1.59 1.59 0 0 0 .21-.592c.03-.209.019-.422-.033-.627zm5.202 46.438h.128a1.6 1.6 0 0 0 1.468-1.71 275.61 275.61 0 0 0-1.038-11.186c-.023-.209-.088-.411-.19-.595s-.239-.345-.404-.476a1.59 1.59 0 0 0-.555-.285 1.61 1.61 0 0 0-.622-.05 1.6 1.6 0 0 0-.594.191c-.184.102-.345.239-.476.404s-.227.354-.284.556a1.58 1.58 0 0 0-.05.623c.415 3.675.766 7.414 1.037 11.186a1.6 1.6 0 0 0 .543.963c.289.246.657.38 1.037.379zm-33.225-120.153c-.101-.184-.238-.345-.402-.476a1.59 1.59 0 0 0-.554-.286c-.201-.058-.412-.075-.621-.052a1.57 1.57 0 0 0-.593.191c-.366.205-.637.547-.753.951a1.6 1.6 0 0 0 .131 1.206c1.771 3.196 3.526 6.568 5.186 9.908.134.266.339.489.593.644a1.6 1.6 0 0 0 .843.235c.25-.005.495-.065.718-.176a1.6 1.6 0 0 0 .702-2.141l-5.25-10.004zM296.478 360.698c-3.591-1.134-7.229-2.189-10.836-3.196a1.6 1.6 0 0 0-1.214.166 1.61 1.61 0 0 0-.741.977c-.108.411-.048.848.166 1.215a1.6 1.6 0 0 0 .975.742c3.559.927 7.149 1.966 10.676 3.085.153.057.316.084.479.079a1.59 1.59 0 0 0 1.034-.383 1.6 1.6 0 0 0 .538-.964c.06-.375-.016-.759-.214-1.083a1.6 1.6 0 0 0-.863-.686v.048zm-230.657 54.7c-2.729 2.572-5.458 5.241-8.075 7.989a1.6 1.6 0 0 0 0 2.254c.297.295.698.461 1.117.463.212-.003.422-.048.616-.133s.37-.208.517-.362c2.585-2.653 5.266-5.274 7.979-7.815a1.6 1.6 0 0 0 .504-1.115c.013-.424-.142-.836-.432-1.146a1.6 1.6 0 0 0-2.258-.072l.032-.063zm55.087-39.199a237.38 237.38 0 0 0-9.91 5.449 1.59 1.59 0 0 0-.665.776 1.6 1.6 0 0 0-.06 1.021c.093.337.293.635.571.848a1.59 1.59 0 0 0 .968.327c.279.002.555-.07.798-.208 3.191-1.869 6.479-3.675 9.766-5.385a1.58 1.58 0 0 0 .532-.375c.15-.16.266-.349.339-.556s.104-.427.089-.646a1.6 1.6 0 0 0-.176-.627c-.101-.195-.241-.367-.412-.505s-.367-.24-.578-.298a1.6 1.6 0 0 0-1.262.179zm41.89-16.907a227.95 227.95 0 0 0-10.772 3.452 1.59 1.59 0 0 0-.866.689 1.6 1.6 0 0 0 .336 2.051c.291.245.66.379 1.041.376.179-.002.357-.035.526-.096 3.511-1.215 7.086-2.365 10.628-3.404.407-.119.749-.394.953-.766a1.6 1.6 0 0 0 .132-1.215c-.118-.407-.393-.75-.764-.954a1.59 1.59 0 0 0-1.214-.133zm111.849-4.347c-3.67-.783-7.42-1.47-11.17-2.061-.21-.034-.424-.026-.631.024s-.401.138-.573.263-.317.282-.429.463a1.63 1.63 0 0 0-.219.592c-.033.21-.025.424.024.631a1.62 1.62 0 0 0 .726 1.003 1.6 1.6 0 0 0 .591.22 239.64 239.64 0 0 1 10.963 2.045h.319a1.59 1.59 0 0 0 1.029-.35c.292-.233.492-.562.567-.928a1.6 1.6 0 0 0-1.197-1.902zm42.975 13.535c-3.447-1.47-6.974-2.876-10.485-4.186-.397-.149-.838-.133-1.224.044a1.6 1.6 0 0 0-.834.898 1.61 1.61 0 0 0 .044 1.226c.177.387.5.688.897.836 3.479 1.294 6.958 2.684 10.357 4.123a1.42 1.42 0 0 0 .622.128 1.6 1.6 0 0 0 .878-.26c.261-.17.466-.413.591-.699.084-.194.128-.403.131-.614a1.61 1.61 0 0 0-.114-.618 1.6 1.6 0 0 0-.344-.525 1.59 1.59 0 0 0-.519-.353zm-110.429-17.578a224.67 224.67 0 0 0-11.171 1.279 1.58 1.58 0 0 0-.602.164c-.188.094-.356.224-.494.383-.278.321-.418.739-.388 1.163s.226.818.546 1.097a1.6 1.6 0 0 0 1.161.389h.208c3.67-.512 7.404-.927 11.091-1.247.21-.018.414-.077.601-.175a1.6 1.6 0 0 0 .487-.393c.135-.162.237-.349.299-.55a1.6 1.6 0 0 0 .065-.623c-.014-.219-.072-.433-.171-.629a1.58 1.58 0 0 0-.984-.81c-.21-.06-.431-.077-.648-.048zm-65.763 15.821a238.46 238.46 0 0 0-10.373 4.49c-.332.152-.602.413-.766.74s-.209.7-.131 1.057a1.6 1.6 0 0 0 .562.905 1.59 1.59 0 0 0 1.005.35 1.67 1.67 0 0 0 .671-.144c3.351-1.598 6.798-3.052 10.229-4.426.393-.159.708-.468.874-.859s.17-.832.011-1.226a1.6 1.6 0 0 0-2.082-.887zM82.96 400.68c-2.936 2.317-5.889 4.794-8.729 7.175a1.6 1.6 0 0 0-.176 2.253c.275.322.667.522 1.089.555s.84-.104 1.161-.379c2.809-2.429 5.713-4.794 8.617-7.079.166-.129.304-.29.408-.472a1.59 1.59 0 0 0 .196-.593 1.6 1.6 0 0 0-.045-.622 1.59 1.59 0 0 0-.28-.558 1.6 1.6 0 0 0-.472-.409 1.61 1.61 0 0 0-.592-.196 1.59 1.59 0 0 0-.622.045 1.6 1.6 0 0 0-.557.28zm283.541-3.963c-.168-.125-.36-.216-.564-.267a1.57 1.57 0 0 0-.622-.029 1.6 1.6 0 0 0-.587.211c-.18.108-.336.251-.461.42a1.6 1.6 0 0 0 .335 2.222 261.1 261.1 0 0 1 8.809 6.871 1.6 1.6 0 0 0 .554.325c.205.069.422.097.637.08a1.6 1.6 0 0 0 .617-.178 1.59 1.59 0 0 0 .497-.407 1.6 1.6 0 0 0 .297-.571 1.61 1.61 0 0 0 .048-.641 1.6 1.6 0 0 0-.209-.608c-.109-.187-.256-.349-.43-.477-2.905-2.381-5.905-4.714-8.921-6.951zm-265.142-9.157c-3.191 2.03-6.287 4.171-9.351 6.392-.281.196-.491.477-.6.802a1.6 1.6 0 0 0 .586 1.81c.278.199.613.303.955.297a1.49 1.49 0 0 0 .91-.304 260.03 260.03 0 0 1 9.24-6.264 1.6 1.6 0 0 0 .693-1.009c.088-.415.008-.848-.222-1.204a1.6 1.6 0 0 0-1.008-.694c-.415-.089-.847-.009-1.203.222v-.048zm246.376-3.483a1.6 1.6 0 0 0-1.119-.037c-.365.123-.673.375-.867.708a1.6 1.6 0 0 0-.191 1.104c.072.378.278.719.581.957 3.191 1.918 6.383 3.931 9.399 6.025a1.7 1.7 0 0 0 .894.271c.261.001.519-.063.749-.186s.429-.3.575-.517a1.59 1.59 0 0 0 .242-.575c.042-.206.043-.418.003-.625a1.6 1.6 0 0 0-.676-1.021c-3.191-2.109-6.399-4.123-9.59-6.104zm-9.783-5.657c-3.287-1.79-6.67-3.532-10.053-5.178a1.62 1.62 0 0 0-.606-.158c-.21-.012-.421.018-.62.088s-.381.178-.538.319-.284.312-.375.502c-.18.382-.203.82-.062 1.218s.432.725.813.908c3.335 1.598 6.67 3.34 9.909 5.113.236.127.499.193.766.192.356.002.703-.116.984-.333a1.6 1.6 0 0 0 .571-.87c.088-.346.058-.71-.085-1.036a1.59 1.59 0 0 0-.704-.765zM35.628 449.099l-1.213 1.598-.415-1.966a1.61 1.61 0 0 0-.241-.575 1.58 1.58 0 0 0-.443-.438 1.59 1.59 0 0 0-.577-.236c-.206-.04-.417-.039-.623.003a1.59 1.59 0 0 0-.574.241c-.173.117-.323.268-.438.444a1.6 1.6 0 0 0-.232 1.201l1.149 5.481a1.57 1.57 0 0 0 .16.383v.112a1.79 1.79 0 0 0 .399.448l.239.127.176.096a1.88 1.88 0 0 0 .511.08h.335c.077-.025.152-.057.223-.096l.239-.112a1.59 1.59 0 0 0 .383-.335l.112-.08 3.303-4.474a1.6 1.6 0 0 0 .102-1.787 1.6 1.6 0 0 0-.421-.467 1.59 1.59 0 0 0-2.154.352z"/><path d="M474 614c-7.974 0-14.438 6.611-14.438 14.766 0 6.593 9.436 18.609 13.052 22.971a1.78 1.78 0 0 0 2.772 0c3.616-4.362 13.052-16.378 13.052-22.971 0-8.155-6.464-14.766-14.438-14.766zm0 19.688c-2.658 0-4.812-2.204-4.812-4.922s2.154-4.922 4.812-4.922 4.812 2.203 4.812 4.922-2.154 4.922-4.812 4.922zm-30.695 5.619a3.68 3.68 0 0 0-1.674 1.379 3.81 3.81 0 0 0-.631 2.102v29.335c0 1.326 1.31 2.233 2.514 1.741l15.819-7.364v-27.314c-1.013-1.873-1.841-3.696-2.435-5.44l-13.593 5.561zM474 656.149c-1.612 0-3.137-.724-4.183-1.988-2.253-2.718-4.649-5.815-6.817-8.99v21.328l22 7.5v-28.827c-2.168 3.174-4.563 6.272-6.817 8.99-1.046 1.263-2.571 1.987-4.183 1.987zm30.486-23.263l-15.819 7.364V674l16.028-6.557a3.68 3.68 0 0 0 1.674-1.379 3.81 3.81 0 0 0 .631-2.102v-29.335c0-1.326-1.31-2.233-2.514-1.741zM33 447c-7.974 0-14.437 6.611-14.437 14.766 0 6.593 9.436 18.609 13.051 22.971a1.78 1.78 0 0 0 2.773 0c3.615-4.362 13.051-16.378 13.051-22.971C47.438 453.611 40.974 447 33 447zm0 19.688c-2.658 0-4.812-2.204-4.812-4.922s2.154-4.922 4.813-4.922 4.813 2.203 4.813 4.922-2.154 4.922-4.812 4.922zm-30.695 5.619a3.68 3.68 0 0 0-1.675 1.379 3.81 3.81 0 0 0-.631 2.102v29.335c0 1.326 1.31 2.233 2.514 1.741l15.819-7.364v-27.314c-1.013-1.873-1.841-3.696-2.435-5.44l-13.593 5.561zM33 489.149c-1.612 0-3.137-.724-4.183-1.988-2.253-2.718-4.649-5.815-6.817-8.99v21.328l22 7.5v-28.827c-2.168 3.174-4.563 6.272-6.817 8.99-1.046 1.263-2.571 1.987-4.183 1.987zm30.486-23.263l-15.819 7.364V507l16.028-6.557a3.68 3.68 0 0 0 1.675-1.379 3.81 3.81 0 0 0 .631-2.102v-29.335c0-1.326-1.31-2.233-2.514-1.741zM319 5c-7.974 0-14.438 6.611-14.438 14.766 0 6.593 9.436 18.609 13.052 22.971a1.78 1.78 0 0 0 2.772 0c3.616-4.362 13.052-16.378 13.052-22.971C333.438 11.611 326.974 5 319 5zm0 19.688c-2.658 0-4.812-2.203-4.812-4.922s2.154-4.922 4.812-4.922 4.812 2.203 4.812 4.922-2.154 4.922-4.812 4.922zm-30.695 5.619c-.68.278-1.263.759-1.674 1.379a3.81 3.81 0 0 0-.631 2.102v29.334c0 1.327 1.31 2.234 2.514 1.741l15.819-7.364V30.186c-1.013-1.873-1.841-3.696-2.435-5.44l-13.593 5.561zM319 47.149c-1.612 0-3.137-.724-4.183-1.988-2.253-2.719-4.649-5.815-6.817-8.991v21.328l22 7.5V36.172c-2.168 3.175-4.563 6.272-6.817 8.991-1.046 1.262-2.571 1.986-4.183 1.986zm30.486-23.263l-15.819 7.364V65l16.028-6.557c.68-.278 1.263-.759 1.674-1.379a3.81 3.81 0 0 0 .631-2.102V25.627c0-1.327-1.31-2.234-2.514-1.741z"/></svg>