<svg xmlns="http://www.w3.org/2000/svg" width="1034" height="713" fill="#1f94d3" xmlns:v="https://vecta.io/nano"><path d="M403.218 118.393c-.314-.34-.757-.56-1.232-.612s-.942.07-1.3.338a1.53 1.53 0 0 0-.432.487c-.106.188-.169.396-.185.611a1.54 1.54 0 0 0 .092.642 1.71 1.71 0 0 0 .355.573 318.51 318.51 0 0 1 8.055 9.119 1.95 1.95 0 0 0 .983.601 1.98 1.98 0 0 0 .813.044 1.78 1.78 0 0 0 .733-.287c.37-.254.608-.637.659-1.066a1.6 1.6 0 0 0-.384-1.22c-2.668-3.125-5.398-6.232-8.157-9.23zm30.199 38.427a1.81 1.81 0 0 0-.47-.538 1.99 1.99 0 0 0-1.392-.405 1.84 1.84 0 0 0-.689.201c-.209.11-.389.26-.528.44s-.234.386-.28.606a1.49 1.49 0 0 0 .016.67 1.68 1.68 0 0 0 .309.623c2.212 3.289 4.416 6.677 6.525 10.073.123.195.287.366.482.505a1.97 1.97 0 0 0 .651.304c.45.12.925.078 1.324-.116a1.55 1.55 0 0 0 .806-.972c.112-.416.035-.863-.211-1.245a236.8 236.8 0 0 0-6.543-10.146zm-77.092-79.34a261.96 261.96 0 0 0-10.565-6.892c-.201-.125-.426-.214-.661-.261a1.95 1.95 0 0 0-.706-.013 1.8 1.8 0 0 0-.644.236c-.193.118-.356.27-.48.449-.25.358-.328.799-.217 1.226s.4.807.806 1.055a283.86 283.86 0 0 1 10.406 6.783 1.99 1.99 0 0 0 .614.299c.412.118.849.101 1.233-.048s.691-.421.865-.767a1.49 1.49 0 0 0 .084-1.122c-.119-.378-.38-.713-.735-.944zm19.982 15.196a281.11 281.11 0 0 0-9.793-7.815 2 2 0 0 0-1.326-.401 1.75 1.75 0 0 0-1.2.558c-.294.328-.427.756-.369 1.19s.301.839.677 1.125c3.238 2.469 6.469 5.104 9.668 7.647a2.12 2.12 0 0 0 .759.389 1.94 1.94 0 0 0 1.174-.043c.368-.135.669-.381.854-.7a1.48 1.48 0 0 0 .166-1.055c-.078-.365-.287-.703-.593-.958l-.017.063zm69.935 84.635c-.243-.366-.625-.64-1.069-.768s-.915-.098-1.318.082-.706.499-.849.889-.113.823.083 1.21c1.973 3.411 3.921 6.916 5.799 10.402.119.219.289.415.496.572a2 2 0 0 0 .704.34 1.94 1.94 0 0 0 1.216-.062 1.67 1.67 0 0 0 .555-.365c.155-.155.273-.338.348-.539a1.47 1.47 0 0 0 .087-.631c-.017-.215-.08-.428-.186-.626l-5.866-10.504zm-51.583-67.835c-2.963-2.935-5.939-5.822-8.949-8.584a1.95 1.95 0 0 0-.596-.372 2 2 0 0 0-.695-.142c-.237-.006-.471.031-.687.109a1.69 1.69 0 0 0-.575.345c-.325.298-.502.707-.491 1.139s.207.852.548 1.168a258.37 258.37 0 0 1 8.865 8.476c.238.239.542.415.877.505.293.078.599.089.889.031s.557-.181.775-.36a1.55 1.55 0 0 0 .399-.507c.094-.193.144-.403.147-.618a1.56 1.56 0 0 0-.126-.635c-.087-.204-.217-.393-.381-.555zm95.583 177.54c-.049-.217-.146-.425-.283-.612a1.86 1.86 0 0 0-.516-.475 2 2 0 0 0-.669-.264 1.95 1.95 0 0 0-.714-.012c-.234.04-.455.123-.648.244a1.57 1.57 0 0 0-.479.46c-.123.183-.203.388-.235.603a1.52 1.52 0 0 0 .047.652l2.749 11.287c.071.305.233.591.469.824s.536.405.866.494a2.25 2.25 0 0 0 .812.049c.231-.035.45-.112.644-.226s.359-.263.487-.439a1.47 1.47 0 0 0 .254-.585c.041-.21.036-.428-.016-.641l-2.768-11.359zm-32.621-88.57c-.1-.201-.242-.384-.416-.538a1.97 1.97 0 0 0-.602-.362 2.01 2.01 0 0 0-.697-.132c-.237-.002-.469.038-.684.119s-.408.2-.568.351a1.53 1.53 0 0 0-.366.531 1.48 1.48 0 0 0-.107.629 1.58 1.58 0 0 0 .167.631c1.734 3.464 3.469 7.064 5.126 10.676.11.239.279.454.493.628a1.97 1.97 0 0 0 .737.376c.379.101.777.09 1.134-.033.438-.151.784-.458.96-.853s.169-.846-.02-1.255l-5.157-10.768zm26.24 65.998c-.066-.211-.177-.409-.326-.585a1.9 1.9 0 0 0-.54-.437 2.02 2.02 0 0 0-.673-.225 1.94 1.94 0 0 0-.701.023 1.77 1.77 0 0 0-.625.266c-.184.127-.338.287-.452.471a1.47 1.47 0 0 0-.21.601 1.51 1.51 0 0 0 .062.642l3.303 11.182c.059.212.162.413.305.593a1.87 1.87 0 0 0 .524.452 2.03 2.03 0 0 0 .664.245 1.97 1.97 0 0 0 .702-.002c.23-.042.445-.126.634-.246a1.59 1.59 0 0 0 .469-.455c.121-.18.2-.381.233-.593a1.52 1.52 0 0 0-.039-.642 436.5 436.5 0 0 0-3.33-11.29zm-16.234-44.359a1.74 1.74 0 0 0-.382-.559c-.166-.163-.363-.297-.582-.393a2.01 2.01 0 0 0-.69-.167 1.92 1.92 0 0 0-.694.085c-.441.14-.795.436-.984.824a1.5 1.5 0 0 0-.021 1.249c1.538 3.564 3.047 7.238 4.486 10.893.104.259.276.494.5.684a1.97 1.97 0 0 0 .784.402c.343.096.704.092 1.033-.01.446-.127.808-.413 1.009-.795s.223-.829.063-1.243c-1.392-3.693-2.988-7.39-4.522-10.97zm8.722 22.021a1.71 1.71 0 0 0-.352-.571c-.156-.169-.345-.31-.557-.416s-.443-.172-.678-.198-.473-.008-.696.05a1.74 1.74 0 0 0-.608.291 1.54 1.54 0 0 0-.427.487c-.105.187-.166.394-.181.608a1.53 1.53 0 0 0 .092.639c1.334 3.626 2.625 7.343 3.882 11.05.091.276.259.53.487.735a1.98 1.98 0 0 0 .81.439c.314.084.643.09.951.019.456-.106.838-.375 1.061-.748s.269-.82.129-1.242l-3.913-11.143zm-57.225-104.991a1.86 1.86 0 0 0-.522-.454 2 2 0 0 0-.662-.247c-.235-.042-.473-.043-.703-.001a1.81 1.81 0 0 0-.634.245 1.58 1.58 0 0 0-.471.453c-.122.179-.201.38-.235.592s-.022.429.036.641a1.7 1.7 0 0 0 .303.592c2.46 3.137 4.911 6.372 7.262 9.631a1.93 1.93 0 0 0 1.063.723c.244.065.498.083.745.054a1.8 1.8 0 0 0 .688-.226 1.6 1.6 0 0 0 .497-.433 1.49 1.49 0 0 0 .266-.584 1.5 1.5 0 0 0-.008-.643 1.65 1.65 0 0 0-.279-.605 366.77 366.77 0 0 0-7.346-9.738zM187.38 35.568a250.67 250.67 0 0 0-12.424 1.726 1.73 1.73 0 0 0-1.016.521 1.48 1.48 0 0 0-.401 1.005c-.001.373.137.742.392 1.046s.612.525 1.011.627c.269.068.548.079.816.033l12.246-1.69a1.82 1.82 0 0 0 .658-.199c.2-.106.374-.248.51-.418a1.48 1.48 0 0 0 .284-.574 1.49 1.49 0 0 0 .014-.641 1.63 1.63 0 0 0-.253-.611 1.85 1.85 0 0 0-.487-.488 1.99 1.99 0 0 0-.645-.29c-.232-.058-.471-.074-.705-.047zm-24.695 3.999c-3.979.855-8.11 1.786-12.118 2.819a1.68 1.68 0 0 0-.895.584 1.47 1.47 0 0 0-.307.975c.017.352.158.697.402.981s.578.495.952.6a1.97 1.97 0 0 0 .991.013c4.016-.996 8.016-1.929 11.991-2.768.459-.1.846-.365 1.076-.737s.283-.819.148-1.244-.446-.793-.866-1.022a2 2 0 0 0-1.374-.202zm-24.039 6.096c-3.893 1.164-7.837 2.449-11.72 3.785-.438.151-.784.457-.96.853s-.169.846.02 1.255a1.78 1.78 0 0 0 .493.628 1.98 1.98 0 0 0 .738.376 1.95 1.95 0 0 0 1.134-.033c3.843-1.329 7.744-2.592 11.594-3.734a1.63 1.63 0 0 0 1-.818c.194-.389.206-.84.034-1.255s-.515-.759-.953-.957a1.98 1.98 0 0 0-1.38-.098zm73.909-11.755c-4.182.076-8.425.236-12.627.525-.413.033-.792.195-1.074.461s-.449.616-.472.993.097.757.342 1.075a1.93 1.93 0 0 0 1.003.669 2.02 2.02 0 0 0 .637.07 255.82 255.82 0 0 1 12.436-.509 1.78 1.78 0 0 0 1.235-.498 1.48 1.48 0 0 0 .439-1.168c-.032-.435-.253-.851-.613-1.154a2 2 0 0 0-1.306-.464zm99.431 19.217c-3.906-1.654-7.912-3.216-11.878-4.649a2.01 2.01 0 0 0-.699-.117c-.236.003-.468.048-.68.134s-.403.209-.559.364-.276.338-.352.539-.107.416-.091.632a1.6 1.6 0 0 0 .183.629c.105.199.251.379.43.53a1.97 1.97 0 0 0 .61.35 248.49 248.49 0 0 1 11.673 4.578l.28.075a1.94 1.94 0 0 0 1.253-.065c.387-.159.69-.444.854-.802a1.47 1.47 0 0 0 .132-.63 1.57 1.57 0 0 0-.149-.64 1.76 1.76 0 0 0-.406-.551 1.95 1.95 0 0 0-.601-.375zm-24.012-8.694l-7.803-2.226-4.513-1.21a1.92 1.92 0 0 0-1.36.129 1.55 1.55 0 0 0-.811.975c-.112.418-.034.866.215 1.249s.649.668 1.113.792l4.321 1.158 7.768 2.217a1.92 1.92 0 0 0 1.36-.129c.407-.207.699-.557.81-.975a1.55 1.55 0 0 0-.214-1.249 1.92 1.92 0 0 0-1.113-.792l.227.061zm-50.063-9.642c-4.195-.366-8.467-.584-12.692-.773a1.8 1.8 0 0 0-1.257.444c-.329.297-.508.708-.499 1.141a1.63 1.63 0 0 0 .413 1.038 1.95 1.95 0 0 0 1.02.61 2.01 2.01 0 0 0 .438.117c4.162.138 8.366.405 12.491.753a1.97 1.97 0 0 0 .707-.064c.226-.064.434-.169.612-.308a1.58 1.58 0 0 0 .423-.505 1.51 1.51 0 0 0 .17-.624c.01-.219-.027-.439-.109-.649a1.75 1.75 0 0 0-.371-.575 1.97 1.97 0 0 0-.577-.413 2.07 2.07 0 0 0-.695-.189l-.074-.003zm96.936 29.435a250.59 250.59 0 0 0-11.278-5.837 2.02 2.02 0 0 0-1.405-.133c-.459.127-.835.417-1.044.808s-.235.85-.072 1.276.503.785.944.997c3.733 1.81 7.467 3.687 11.098 5.739.147.056.3.097.455.122a2.04 2.04 0 0 0 .698.146 1.92 1.92 0 0 0 .691-.106c.218-.077.416-.193.58-.342a1.53 1.53 0 0 0 .381-.526 1.49 1.49 0 0 0 .123-.629c-.006-.217-.058-.434-.154-.637a1.78 1.78 0 0 0-.406-.548 1.99 1.99 0 0 0-.598-.376l-.013.047zm-71.664-25.931c-4.173-.798-8.407-1.512-12.569-2.071-.472-.064-.942.044-1.308.299a1.51 1.51 0 0 0-.651 1.064c-.046.396.068.801.323 1.139a1.94 1.94 0 0 0 1.06.698l.245.066a246.72 246.72 0 0 1 12.372 2.035c.472.093.956.013 1.344-.223s.65-.608.727-1.034-.037-.872-.316-1.239-.702-.626-1.174-.719l-.053-.014zm561.749 390.162c-.25-.381-.649-.664-1.111-.788a1.92 1.92 0 0 0-1.356.127c-.203.102-.38.241-.52.409a1.48 1.48 0 0 0-.296.568 1.49 1.49 0 0 0-.028.641c.038.215.121.424.246.614 2.177 3.28 4.342 6.675 6.447 10.154.121.197.284.372.478.514a2 2 0 0 0 .65.311 1.96 1.96 0 0 0 1.031-.004c.331-.094.619-.275.828-.522s.333-.548.353-.867-.064-.641-.24-.926c-2.03-3.409-4.291-6.863-6.482-10.231zm42.366 85.507a1.68 1.68 0 0 0-.324-.615c-.152-.185-.343-.341-.56-.459s-.456-.195-.702-.226a1.94 1.94 0 0 0-.729.043 1.76 1.76 0 0 0-.633.306c-.183.142-.33.319-.432.518a1.46 1.46 0 0 0-.161.644c-.004.225.043.451.138.663 1.3 3.617 2.591 7.333 3.804 11.13.092.276.26.529.488.735a1.97 1.97 0 0 0 .81.438c.314.084.643.091.951.019.456-.105.838-.374 1.061-.748s.269-.819.129-1.241l-3.84-11.207zm13.658 45.016c-.046-.218-.139-.427-.274-.615s-.309-.352-.511-.481-.429-.222-.666-.272-.481-.056-.715-.018a1.81 1.81 0 0 0-.652.237 1.57 1.57 0 0 0-.486.455c-.125.181-.207.386-.241.601a1.52 1.52 0 0 0 .039.653l2.707 11.308c.07.306.232.592.468.825a1.96 1.96 0 0 0 .866.493c.26.072.533.088.794.045.467-.065.877-.298 1.14-.648s.356-.788.26-1.218l-2.729-11.365zm-70.199-150.247a1.95 1.95 0 0 0-1.179-.707 1.89 1.89 0 0 0-1.339.234c-.384.239-.641.613-.713 1.039s.046.871.329 1.235c2.438 3.147 4.876 6.362 7.193 9.679.25.348.629.606 1.062.723.244.065.498.083.745.054s.482-.107.689-.226c.394-.223.667-.584.759-1.005s-.005-.867-.27-1.24c-2.36-3.295-4.882-6.617-7.276-9.786zm63.941 127.637c-.134-.427-.446-.797-.868-1.028a2 2 0 0 0-1.379-.206 1.68 1.68 0 0 0-1.083.737c-.232.373-.287.822-.152 1.249 1.151 3.679 2.229 7.49 3.259 11.204.081.291.247.56.479.78a1.97 1.97 0 0 0 .837.466 1.98 1.98 0 0 0 .915.025 1.74 1.74 0 0 0 .786-.389 1.51 1.51 0 0 0 .454-.702c.08-.269.081-.556.004-.833-1.017-3.761-2.121-7.545-3.252-11.303zm-25.888-66.123c-.2-.404-.564-.728-1.011-.9s-.944-.179-1.377-.018-.77.476-.935.876-.145.852.054 1.256l5.065 10.693c.108.242.275.459.488.636a1.98 1.98 0 0 0 .739.384c.378.101.776.09 1.134-.033a1.72 1.72 0 0 0 .582-.331 1.53 1.53 0 0 0 .386-.516c.089-.195.134-.407.132-.622a1.57 1.57 0 0 0-.143-.634l-5.114-10.791zm-11.24-21.162c-.238-.37-.619-.65-1.064-.783s-.919-.106-1.325.072a1.58 1.58 0 0 0-.858.888c-.144.392-.116.827.081 1.216 1.955 3.406 3.882 6.922 5.734 10.435a1.81 1.81 0 0 0 .495.572 2 2 0 0 0 .704.339c.409.111.839.089 1.217-.061.212-.085.402-.208.558-.362a1.5 1.5 0 0 0 .352-.537c.077-.2.108-.414.093-.63a1.57 1.57 0 0 0-.182-.627c-1.883-3.538-3.857-7.017-5.805-10.522zm21.115 42.869c-.173-.412-.515-.754-.951-.95a1.97 1.97 0 0 0-1.375-.094c-.445.136-.8.43-.992.818s-.203.837-.031 1.25l4.426 10.91c.101.261.272.499.495.691a1.98 1.98 0 0 0 .785.41c.343.09.703.086 1.033-.009.446-.128.808-.414 1.009-.796s.223-.828.063-1.243a435.74 435.74 0 0 0-4.462-10.987zm-327.55-177.241c-3.906 1.144-7.859 2.393-11.773 3.703-.218.073-.416.185-.582.331a1.52 1.52 0 0 0-.386.516 1.46 1.46 0 0 0-.132.622 1.55 1.55 0 0 0 .143.633 1.76 1.76 0 0 0 .394.549c.169.16.368.289.588.381s.454.144.69.153a1.91 1.91 0 0 0 .688-.096c3.853-1.293 7.763-2.52 11.622-3.626a1.73 1.73 0 0 0 .597-.307 1.54 1.54 0 0 0 .412-.499c.098-.191.153-.4.161-.615s-.03-.432-.113-.637a1.76 1.76 0 0 0-.369-.563 1.94 1.94 0 0 0-.57-.402 2.01 2.01 0 0 0-.684-.18 1.94 1.94 0 0 0-.694.068l.008-.031zm365.297 347.42l-.671-11.488c-.016-.216-.079-.429-.185-.627a1.79 1.79 0 0 0-.433-.527c-.179-.149-.387-.268-.613-.347a1.99 1.99 0 0 0-.699-.111 1.77 1.77 0 0 0-1.225.499c-.312.311-.47.728-.438 1.161.294 3.798.522 7.612.683 11.441.019.367.171.723.433 1.013s.619.497 1.013.588c.165.06.334.106.507.136a1.88 1.88 0 0 0 .684-.151 1.66 1.66 0 0 0 .551-.385c.151-.162.264-.352.332-.558s.088-.425.061-.644zm-10.31-80.385c-.042-.214-.13-.42-.258-.607a1.84 1.84 0 0 0-.488-.484c-.195-.132-.414-.229-.645-.285a2.01 2.01 0 0 0-.703-.045 1.72 1.72 0 0 0-1.149.631 1.48 1.48 0 0 0-.282 1.211l2.184 11.371c.058.32.216.622.457.87s.552.428.895.52c.235.062.478.082.716.057a1.72 1.72 0 0 0 1.167-.606c.278-.34.39-.773.312-1.205l-2.206-11.428z"/><path d="M890.282 604.633c-.068-.434-.321-.834-.703-1.114a2 2 0 0 0-1.335-.376 1.74 1.74 0 0 0-1.186.582c-.287.334-.41.766-.342 1.2l1.7 11.427c.047.33.202.644.445.901a1.96 1.96 0 0 0 .912.541c.214.057.435.082.655.075.234-.016.461-.074.666-.171a1.65 1.65 0 0 0 .53-.393 1.49 1.49 0 0 0 .313-.557c.062-.204.079-.421.049-.636l-1.704-11.479zm3.16 22.976c-.01-.225-.071-.447-.178-.654a1.77 1.77 0 0 0-.445-.549c-.186-.156-.403-.276-.638-.355s-.483-.112-.727-.101a1.86 1.86 0 0 0-.696.17c-.214.1-.401.24-.549.411a1.48 1.48 0 0 0-.313.586c-.058.215-.067.441-.025.664l1.207 11.445c.035.358.196.702.46.98a1.96 1.96 0 0 0 1.003.558c.19.048.386.072.581.072.236-.008.465-.057.676-.147a1.65 1.65 0 0 0 .549-.375c.152-.159.267-.343.337-.546a1.48 1.48 0 0 0 .075-.634l-1.317-11.525zm-262.828-322.89c-4.205-.402-8.473-.703-12.698-.892-.236-.037-.476-.031-.705.017s-.443.137-.629.262-.343.284-.459.468a1.48 1.48 0 0 0-.218.602c-.028.214-.009.433.056.644s.174.412.321.589a1.91 1.91 0 0 0 .539.444 2 2 0 0 0 .672.231l.42.113c4.15.185 8.328.547 12.475.883.484.049.96-.078 1.322-.354s.582-.678.61-1.117-.137-.88-.459-1.226a2.01 2.01 0 0 0-1.26-.617l.013-.047zm25.218 3.777a247.85 247.85 0 0 0-12.531-2.213 1.9 1.9 0 0 0-1.348.204c-.392.23-.66.597-.744 1.022s.023.871.296 1.241a1.95 1.95 0 0 0 1.163.734l.227.061c4.111.613 8.283 1.343 12.356 2.165.469.096.95.02 1.339-.211a1.53 1.53 0 0 0 .735-1.019 1.5 1.5 0 0 0-.014-.65c-.053-.216-.151-.422-.29-.607a1.89 1.89 0 0 0-.52-.47c-.205-.124-.432-.212-.669-.257zm-50.603-4.901c-4.187.023-8.439.148-12.646.385a1.78 1.78 0 0 0-1.106.448c-.292.266-.465.623-.49 1.008s.102.772.356 1.094.621.557 1.035.665a2 2 0 0 0 .62.065c4.15-.236 8.328-.364 12.441-.39a1.86 1.86 0 0 0 .682-.127 1.67 1.67 0 0 0 .563-.358c.158-.153.28-.335.358-.536a1.47 1.47 0 0 0 .096-.63c-.031-.435-.249-.851-.606-1.155a2 2 0 0 0-1.303-.469zm75.326 11.291c-4.047-1.27-8.172-2.46-12.273-3.526a1.92 1.92 0 0 0-1.36.13c-.408.207-.699.557-.811.974a1.55 1.55 0 0 0 .214 1.25c.249.383.65.668 1.114.792 4.023 1.078 8.099 2.171 12.063 3.469.461.135.952.1 1.366-.098a1.56 1.56 0 0 0 .838-.955 1.54 1.54 0 0 0-.18-1.252c-.239-.388-.632-.682-1.093-.817l.122.033zm-125.297-6.096c-3.966.807-8.11 1.719-12.144 2.711a1.65 1.65 0 0 0-1.043.76 1.49 1.49 0 0 0-.112 1.239c.148.419.468.775.891.993a1.99 1.99 0 0 0 1.367.168c4.008-.965 8.004-1.882 11.966-2.674.228-.05.442-.14.628-.267a1.58 1.58 0 0 0 .455-.471 1.47 1.47 0 0 0 .213-.604c.026-.214.006-.433-.061-.645a1.7 1.7 0 0 0-.326-.587 1.91 1.91 0 0 0-.542-.441 2 2 0 0 0-.674-.227c-.237-.035-.476-.028-.705.021l.087.024zm24.772-3.792a250.73 250.73 0 0 0-12.452 1.617c-.462.072-.865.309-1.121.661s-.343.787-.244 1.214c.07.306.233.592.469.825s.536.404.865.493a1.98 1.98 0 0 0 .799.029c4.077-.592 8.224-1.166 12.273-1.58.47-.049.89-.267 1.167-.607a1.48 1.48 0 0 0 .312-1.204c-.077-.432-.341-.827-.728-1.099s-.87-.397-1.34-.349zm124.435 18.823a252.98 252.98 0 0 0-11.844-4.776 2.02 2.02 0 0 0-.699-.126c-.237-.001-.47.042-.684.124a1.69 1.69 0 0 0-.566.357c-.159.153-.282.335-.361.535a1.49 1.49 0 0 0-.102.631 1.59 1.59 0 0 0 .173.632 1.79 1.79 0 0 0 .422.535 1.96 1.96 0 0 0 .606.359c3.887 1.446 7.811 3.037 11.621 4.699l.298.08c.415.117.855.097 1.24-.056s.689-.43.859-.781c.095-.195.145-.407.148-.624a1.55 1.55 0 0 0-.131-.642c-.09-.206-.222-.396-.391-.558a1.93 1.93 0 0 0-.589-.389zm63.877 40.158c-3.158-2.7-6.42-5.361-9.698-7.891a2 2 0 0 0-1.312-.393c-.468.028-.896.224-1.19.544s-.434.741-.386 1.171.277.833.639 1.125l9.578 7.775c.215.186.474.325.754.404.389.103.798.086 1.161-.048a1.63 1.63 0 0 0 .847-.69c.185-.313.247-.681.175-1.042s-.271-.698-.568-.955zm18.201 16.944l-8.928-8.662c-.352-.266-.793-.409-1.237-.401s-.86.167-1.168.445-.485.656-.498 1.061a1.62 1.62 0 0 0 .429 1.13c3.005 2.778 5.981 5.665 8.774 8.537.238.248.548.431.89.525a1.95 1.95 0 0 0 1.135-.026c.359-.12.659-.346.855-.643s.277-.65.232-1.004-.216-.692-.484-.962zm-38.006-32.313a274.89 274.89 0 0 0-10.5-6.994 2 2 0 0 0-.66-.289c-.237-.055-.482-.068-.719-.036s-.462.108-.661.223a1.61 1.61 0 0 0-.499.446c-.13.179-.218.383-.258.598s-.031.438.026.655a1.66 1.66 0 0 0 .303.607c.144.184.326.341.535.463 3.48 2.196 6.961 4.528 10.337 6.899.187.129.396.225.618.284a1.96 1.96 0 0 0 1.05-.002 1.68 1.68 0 0 0 .838-.537c.14-.168.24-.362.296-.57a1.49 1.49 0 0 0 .025-.641c-.038-.215-.122-.424-.248-.614a1.82 1.82 0 0 0-.483-.492zm46.474 41.29a1.97 1.97 0 0 0-1.233-.619c-.476-.054-.946.067-1.306.334a1.5 1.5 0 0 0-.615 1.093 1.62 1.62 0 0 0 .438 1.211c2.689 2.979 5.37 6.057 7.968 9.163a1.95 1.95 0 0 0 .979.617c.265.072.542.089.809.05a1.79 1.79 0 0 0 .733-.277 1.58 1.58 0 0 0 .459-.466c.117-.183.19-.387.218-.601s.008-.432-.057-.643-.175-.411-.323-.587c-2.559-3.113-5.337-6.25-8.07-9.275zm-67.835-54.769c-3.684-2.065-7.441-4.067-11.197-5.933-.425-.197-.909-.239-1.35-.118s-.802.398-1.009.77a1.49 1.49 0 0 0-.099 1.222c.143.412.454.766.867.986a229.38 229.38 0 0 1 11.012 5.85c.159.06.323.104.49.131a1.98 1.98 0 0 0 1.389.04c.441-.155.787-.467.961-.867a1.52 1.52 0 0 0-.031-1.267c-.194-.411-.555-.743-1.004-.924l-.029.11zM156.685 31.454L141.16 18.446l6.026-6.255c.853-.638 1.943-.966 3.076-.925a5.29 5.29 0 0 1 3.107 1.15 200.95 200.95 0 0 1 8.535 7.259c.896.84 1.437 1.937 1.519 3.078s-.302 2.248-1.077 3.107a10.82 10.82 0 0 1-.786.834l-4.875 4.76zm769.087 637.681l-15.525-13.008 6.026-6.255c.858-.614 1.943-.92 3.063-.864 1.135.034 2.239.45 3.099 1.167 2.914 2.349 5.777 4.75 8.514 7.338.902.833 1.445 1.929 1.521 3.07.077 1.133-.304 2.231-1.07 3.084-.246.288-.509.571-.786.834l-4.842 4.634zM525.721 303.082l-15.525-13.009 6.044-6.25c.852-.614 1.93-.922 3.045-.87a5.32 5.32 0 0 1 3.1 1.168c2.914 2.349 5.79 4.771 8.552 7.264.896.84 1.437 1.937 1.519 3.079s-.302 2.248-1.077 3.107c-.246.288-.509.571-.786.834l-4.872 4.677zM135.927 22.79l16.427 13.84-.734.781-21.338 20.992c-.538.531-1.217.927-1.978 1.155L112.39 64.09a4.21 4.21 0 0 1-1.905.113c-.261-.064-.507-.175-.724-.326a2.04 2.04 0 0 1-.541-.552c-.284-.433-.377-.942-.257-1.417l4.005-16.065a2.48 2.48 0 0 1 .654-1.038l22.097-21.867a.76.76 0 0 1 .247-.153l-.039.006zm-9.39 33.008l-1.814-6.384a.97.97 0 0 0-.227-.368c-.105-.107-.234-.192-.377-.249l-7.157-1.278-1.963 7.816a2.12 2.12 0 0 0 .08 1.381c.182.45.508.845.934 1.132a1.98 1.98 0 0 0 1.134.539 1.87 1.87 0 0 0 1.206-.249l8.184-2.34zM905.014 660.47l16.428 13.84-.735.781-21.338 20.992c-.543.525-1.221.92-1.978 1.155l-15.909 4.516c-.605.189-1.262.228-1.905.112-.261-.064-.507-.175-.724-.326a2.03 2.03 0 0 1-.541-.552 1.83 1.83 0 0 1-.283-.684c-.045-.241-.038-.484.021-.717l4.01-16.081c.123-.392.347-.748.653-1.038l22.102-21.883a.77.77 0 0 1 .247-.153l-.048.038zm-9.407 33.003l-1.797-6.38a.96.96 0 0 0-.227-.368 1.07 1.07 0 0 0-.376-.248l-7.157-1.278-1.963 7.815c-.13.45-.101.932.08 1.382a2.51 2.51 0 0 0 .933 1.132 1.99 1.99 0 0 0 1.135.539c.429.053.857-.035 1.206-.249l8.166-2.345zM504.964 294.417l16.444 13.844-.734.781-21.355 20.987c-.542.527-1.22.922-1.978 1.155l-15.932 4.527c-.607.18-1.261.219-1.905.113a2.17 2.17 0 0 1-1.264-.878c-.146-.213-.244-.448-.288-.692a1.64 1.64 0 0 1 .03-.725l4.006-16.065a2.14 2.14 0 0 1 .653-1.039l22.08-21.871a.77.77 0 0 1 .247-.153l-.004.016zm-9.391 33.008l-1.796-6.38a.99.99 0 0 0-.235-.373c-.108-.107-.24-.192-.386-.249l-7.157-1.277-1.976 7.795a2.14 2.14 0 0 0 .086 1.392c.184.453.512.851.941 1.141.304.294.709.483 1.139.533s.859-.041 1.206-.258l8.178-2.324z"/></svg>