<svg xmlns="http://www.w3.org/2000/svg" width="544" height="764" fill="#ffd103" clip-path="url(#clip0_520_305)" xmlns:v="https://vecta.io/nano"><path d="M80.192 163.766c-2.46 3.46-4.883 7.064-7.234 10.669a1.82 1.82 0 0 0-.252 1.365c.1.47.383.882.786 1.144a1.81 1.81 0 0 0 2.505-.535c2.315-3.622 4.702-7.118 7.126-10.56.157-.192.273-.415.341-.655a1.81 1.81 0 0 0-.194-1.433c-.129-.213-.3-.396-.503-.54s-.433-.243-.677-.294-.494-.05-.737.002a1.79 1.79 0 0 0-.676.296 1.81 1.81 0 0 0-.502.541h.018zm10.562-8.187a308.16 308.16 0 0 1 7.958-9.927 1.81 1.81 0 0 0 .394-.624c.087-.233.125-.482.112-.73a1.82 1.82 0 0 0-.645-1.294 1.82 1.82 0 0 0-.65-.349 1.81 1.81 0 0 0-1.433.18 1.81 1.81 0 0 0-.544.499c-2.731 3.242-5.426 6.629-8.048 10.053a1.81 1.81 0 0 0 .326 2.536 1.81 1.81 0 0 0 1.103.38c.278-.003.551-.069.799-.195a1.82 1.82 0 0 0 .63-.529zM248.317 54.522c-4.232.58-8.501 1.322-12.66 2.156-.48.046-.922.28-1.229.652a1.82 1.82 0 0 0-.408 1.331c.046.48.28.923.651 1.23A1.82 1.82 0 0 0 236 60.3a1.22 1.22 0 0 0 .362 0 224.34 224.34 0 0 1 12.479-2.119 1.81 1.81 0 0 0 .672-.229 1.82 1.82 0 0 0 .532-.47 1.81 1.81 0 0 0 .31-.639c.06-.232.075-.472.042-.709a1.8 1.8 0 0 0-.218-.699c-.119-.216-.281-.405-.475-.556s-.419-.26-.657-.322-.487-.073-.73-.035zm-132.514 69.72a1.81 1.81 0 0 0-2.55 0 273.4 273.4 0 0 0-8.917 9.31c-.32.356-.487.825-.463 1.304a1.81 1.81 0 0 0 1.802 1.721c.251.002.499-.049.73-.148a1.8 1.8 0 0 0 .608-.431c2.876-3.152 5.824-6.231 8.79-9.202.337-.339.526-.799.526-1.277a1.81 1.81 0 0 0-.526-1.277h0zm-47.131 60.5c-.413-.245-.905-.316-1.37-.197a1.81 1.81 0 0 0-1.108.831c-2.17 3.623-4.304 7.426-6.366 11.194a1.81 1.81 0 0 0-.149 1.382 1.8 1.8 0 0 0 .329.628 1.83 1.83 0 0 0 .544.454c.267.144.565.218.868.217.325.001.645-.086.925-.252a1.81 1.81 0 0 0 .666-.69c2.026-3.75 4.16-7.463 6.294-11.086.245-.413.315-.906.197-1.372a1.81 1.81 0 0 0-.83-1.109h0zM175.07 78.324c-3.762 1.974-7.542 4.112-11.232 6.304a1.82 1.82 0 0 0-.754.88 1.81 1.81 0 0 0-.067 1.157c.105.382.332.72.647.961a1.81 1.81 0 0 0 1.097.371c.324 0 .643-.088.922-.254 3.617-2.174 7.361-4.257 11.069-6.213a1.8 1.8 0 0 0 .565-.439c.158-.183.277-.395.352-.625a1.81 1.81 0 0 0 .081-.713 1.8 1.8 0 0 0-.201-.688 1.81 1.81 0 0 0-1.084-.893 1.81 1.81 0 0 0-.713-.065 1.8 1.8 0 0 0-.682.217h0zM45.54 230.425c-.22-.092-.455-.14-.693-.141s-.474.046-.694.137a1.81 1.81 0 0 0-.589.393 1.8 1.8 0 0 0-.393.589 357.29 357.29 0 0 0-4.738 11.973 1.82 1.82 0 0 0 .041 1.386 1.82 1.82 0 0 0 1.641 1.059 1.8 1.8 0 0 0 1.03-.314 1.81 1.81 0 0 0 .67-.845c1.483-3.967 3.075-7.952 4.702-11.865a1.79 1.79 0 0 0 .14-.694c0-.239-.046-.475-.136-.695a1.81 1.81 0 0 0-.98-.983h0zm89.289-123.228c-.306-.365-.744-.594-1.218-.639a1.8 1.8 0 0 0-1.314.404c-3.274 2.699-6.547 5.542-9.73 8.441-.27.245-.459.567-.544.922a1.81 1.81 0 0 0 .073 1.069c.131.341.361.634.662.841a1.81 1.81 0 0 0 1.021.319c.448-.001.88-.169 1.211-.471 3.147-2.862 6.385-5.669 9.604-8.332a1.82 1.82 0 0 0 .445-.549 1.8 1.8 0 0 0 .201-.679 1.82 1.82 0 0 0-.411-1.326zM198.527 67.6a226.34 226.34 0 0 0-11.882 5.036 1.81 1.81 0 0 0-.869.839c-.185.371-.237.794-.148 1.199s.314.767.637 1.026.725.399 1.139.397a1.81 1.81 0 0 0 .742-.163c3.852-1.811 7.777-3.423 11.701-4.963a1.81 1.81 0 0 0 .625-.369 1.82 1.82 0 0 0 .43-.584c.103-.221.158-.462.166-.707a1.78 1.78 0 0 0-.125-.715 1.81 1.81 0 0 0-.394-.609 1.82 1.82 0 0 0-.602-.405 1.81 1.81 0 0 0-.712-.136 1.8 1.8 0 0 0-.708.155h0zm-45.594 23.929a257.36 257.36 0 0 0-10.508 7.463 1.82 1.82 0 0 0-.715 1.189 1.81 1.81 0 0 0 .981 1.885c.255.126.535.19.819.187a1.81 1.81 0 0 0 1.067-.362c3.4-2.536 6.891-5 10.381-7.355a1.81 1.81 0 0 0 .489-2.499c-.132-.199-.301-.37-.499-.504a1.8 1.8 0 0 0-.653-.273c-.234-.047-.474-.047-.708-.001a1.8 1.8 0 0 0-.654.271h0zM51.617 221.114l5.426-11.502c.213-.43.247-.927.095-1.382a1.81 1.81 0 0 0-.909-1.045 1.8 1.8 0 0 0-1.376-.102 1.81 1.81 0 0 0-1.048.899 382.1 382.1 0 0 0-5.552 11.629 1.81 1.81 0 0 0-.066 1.415 1.82 1.82 0 0 0 .381.614 1.8 1.8 0 0 0 .59.416 1.81 1.81 0 0 0 2.387-.887l.072-.055zM11.683 396.237c.48 0 .94-.19 1.279-.53s.53-.801.53-1.281l.488-12.679a1.82 1.82 0 0 0-1.033-1.73 1.79 1.79 0 0 0-.685-.172c-.238-.012-.475.023-.699.103a1.8 1.8 0 0 0-.606.363 1.82 1.82 0 0 0-.421.568 1.81 1.81 0 0 0-.172.686l-.488 12.843a1.82 1.82 0 0 0 .523 1.293 1.8 1.8 0 0 0 .589.397 1.81 1.81 0 0 0 .696.139zm.073 25.631a1.81 1.81 0 0 0 1.279-.53c.339-.34.53-.801.53-1.281l-.181-12.68c0-.48-.191-.941-.53-1.281a1.81 1.81 0 0 0-2.558 0c-.339.34-.53.801-.53 1.281l.181 12.861a1.81 1.81 0 0 0 .59 1.165c.334.302.769.467 1.219.465zm1.121-51.279h.108a1.81 1.81 0 0 0 1.809-1.667l1.139-12.68a1.82 1.82 0 0 0-.065-.707c-.068-.229-.18-.443-.33-.629a1.82 1.82 0 0 0-1.223-.665c-.479-.05-.96.092-1.334.396a1.82 1.82 0 0 0-.664 1.225l-1.139 12.825a1.81 1.81 0 0 0 1.7 1.902zm2.532-25.468h.235a1.81 1.81 0 0 0 1.808-1.576l1.809-12.68a1.84 1.84 0 0 0-.331-1.363 1.83 1.83 0 0 0-3.286.802l-1.809 12.679c-.046.245-.042.497.013.74a1.82 1.82 0 0 0 .858 1.166 1.8 1.8 0 0 0 .702.232h0zm3.888-25.251h.344c.428.007.845-.138 1.176-.41a1.81 1.81 0 0 0 .632-1.075l1.628-8.315.886-4.184a1.81 1.81 0 0 0-.742-1.876 1.78 1.78 0 0 0-.65-.279c-.233-.049-.473-.055-.708-.012a1.82 1.82 0 0 0-.658.261 1.84 1.84 0 0 0-.508.494 1.82 1.82 0 0 0-.279.651l-.886 4.221-1.646 8.387a1.81 1.81 0 0 0 .263 1.361c.131.198.3.369.497.502a1.82 1.82 0 0 0 .651.274h0zm9.423-41.064a1.82 1.82 0 0 0-.704-.051 1.81 1.81 0 0 0-1.52 1.319l-3.237 12.444a1.82 1.82 0 0 0-.03.709c.037.236.12.462.244.666a1.8 1.8 0 0 0 .481.521 1.81 1.81 0 0 0 .644.296 1.61 1.61 0 0 0 .416 0c.413.012.818-.118 1.147-.369a1.81 1.81 0 0 0 .662-1.008l3.219-12.353c.109-.464.032-.951-.215-1.358a1.81 1.81 0 0 0-1.105-.816zM13.239 447.445a1.81 1.81 0 0 0 1.663-1.938l-.832-12.68a1.82 1.82 0 0 0-.6-1.252 1.81 1.81 0 0 0-1.993-.284c-.214.103-.406.248-.565.425a1.82 1.82 0 0 0-.36.61 1.81 1.81 0 0 0-.1.7l.832 12.825a1.81 1.81 0 0 0 .572 1.199 1.8 1.8 0 0 0 1.236.485l.145-.09zm8.156 48.708l-2.098-12.589c-.036-.238-.118-.467-.241-.673a1.83 1.83 0 0 0-1.126-.833 1.82 1.82 0 0 0-.713-.034c-.238.036-.466.118-.672.242s-.385.287-.528.481a1.83 1.83 0 0 0-.304.646c-.058.234-.069.476-.034.714l2.116 12.68c.073.425.296.81.627 1.086a1.8 1.8 0 0 0 1.181.417h.326a1.79 1.79 0 0 0 .668-.26 1.81 1.81 0 0 0 .514-.499 1.82 1.82 0 0 0 .281-.661 1.81 1.81 0 0 0 .002-.717zm16.115-239.5a1.82 1.82 0 0 0-.088-1.389c-.212-.433-.587-.764-1.043-.92a1.81 1.81 0 0 0-1.387.088 1.82 1.82 0 0 0-.919 1.044l-3.979 12.245a1.81 1.81 0 0 0 1.194 2.264 1.83 1.83 0 0 0 .543 0c.399.018.793-.096 1.12-.326s.569-.56.689-.942c1.175-4.003 2.496-8.079 3.87-12.064zM17.507 470.902l-1.447-12.68c-.025-.236-.096-.466-.209-.675a1.82 1.82 0 0 0-.452-.544 1.83 1.83 0 0 0-.625-.329c-.228-.067-.467-.089-.703-.064a1.8 1.8 0 0 0-.674.21 1.82 1.82 0 0 0-.543.452 1.81 1.81 0 0 0-.393 1.331l1.465 12.77a1.81 1.81 0 0 0 .606 1.131c.333.29.761.449 1.202.445h.235c.475-.067.904-.321 1.192-.705a1.81 1.81 0 0 0 .345-1.342zM223.051 59.594c-4.124 1.087-8.283 2.319-12.371 3.623a1.81 1.81 0 0 0-.464 3.214 1.8 1.8 0 0 0 1.115.318 1.45 1.45 0 0 0 .561-.091c4.015-1.304 8.103-2.5 12.172-3.623a1.81 1.81 0 0 0 1.105-.841 1.82 1.82 0 0 0 .188-1.378c-.122-.466-.425-.864-.84-1.107a1.81 1.81 0 0 0-1.376-.188l-.09.072zm76.683-6.231c-4.268-.399-8.608-.67-12.859-.833a1.82 1.82 0 0 0-1.3.479c-.352.326-.561.779-.58 1.26a1.79 1.79 0 0 0 .11.699c.082.223.207.428.368.603a1.81 1.81 0 0 0 1.258.582 228.8 228.8 0 0 1 12.66.815h.163c.479.022.948-.148 1.302-.473a1.82 1.82 0 0 0 .115-2.562 1.81 1.81 0 0 0-1.255-.588l.018.018zm-25.736-.924c-4.268 0-8.608.308-12.858.652a1.81 1.81 0 0 0-1.258.582c-.326.353-.498.822-.479 1.302a1.81 1.81 0 0 0 1.881 1.739h.145c4.196-.344 8.446-.562 12.66-.652a1.81 1.81 0 0 0 1.808-1.811c0-.481-.19-.941-.529-1.281s-.799-.53-1.279-.53h-.091zm38.216 6.123l6.185 1.014h.325a1.81 1.81 0 0 0 .705-.076 1.82 1.82 0 0 0 .622-.34 1.83 1.83 0 0 0 .445-.552c.111-.211.178-.443.2-.681s-.004-.478-.076-.706-.186-.44-.339-.623a1.82 1.82 0 0 0-1.231-.646l-6.294-1.051c-.235-.036-.475-.025-.706.032a1.81 1.81 0 0 0-.64.3 1.82 1.82 0 0 0-.716 1.189 1.84 1.84 0 0 0 .008.728 1.8 1.8 0 0 0 .295.666 1.81 1.81 0 0 0 .532.496 1.8 1.8 0 0 0 .685.246zM194.675 401.255a271.14 271.14 0 0 0-12.534 2.699c-.237.028-.467.104-.676.221a1.83 1.83 0 0 0-.539.463c-.148.189-.257.404-.322.635a1.83 1.83 0 0 0-.054.71c.028.238.103.467.22.676s.275.393.463.541a1.82 1.82 0 0 0 1.342.377h.416c4.069-.978 8.229-1.812 12.353-2.645a1.83 1.83 0 0 0 .666-.266c.203-.132.378-.302.515-.501a1.86 1.86 0 0 0 .283-.661c.05-.236.054-.481.01-.718a1.86 1.86 0 0 0-.266-.668c-.131-.203-.302-.378-.501-.515s-.423-.234-.659-.284a1.84 1.84 0 0 0-.717-.01v-.054zm276.06 122.775a1.82 1.82 0 0 0-.499-.502c-.198-.133-.42-.226-.653-.273s-.474-.048-.708-.002-.456.138-.654.27-.369.302-.502.499a1.81 1.81 0 0 0-.272.654 1.82 1.82 0 0 0-.002.709 1.83 1.83 0 0 0 .269.655c2.334 3.496 4.612 7.101 6.783 10.687.162.268.39.488.663.64a1.8 1.8 0 0 0 .892.23c.331.003.656-.085.94-.254a1.8 1.8 0 0 0 .522-.481 1.81 1.81 0 0 0 .296-.644 1.8 1.8 0 0 0 .027-.709c-.038-.236-.122-.462-.248-.665-2.206-3.641-4.503-7.264-6.854-10.814zm24.723 44.831a1.81 1.81 0 0 0-.393-.62c-.172-.177-.378-.318-.606-.412s-.473-.142-.72-.138a1.81 1.81 0 0 0-.716.159 1.82 1.82 0 0 0-.593.431c-.166.183-.294.398-.374.632s-.112.481-.093.728a1.81 1.81 0 0 0 .203.705c1.719 3.84 3.4 7.753 4.974 11.666.181.443.529.797.97.984s.937.191 1.381.012a1.81 1.81 0 0 0 .995-2.355c-1.592-3.949-3.274-7.916-5.028-11.792zM41.923 489.197a324.84 324.84 0 0 0-8.337 9.727c-.151.184-.265.397-.334.625a1.81 1.81 0 0 0 .137 1.382c.113.211.266.396.45.547a1.81 1.81 0 0 0 .624.335c.228.069.467.092.704.069a1.81 1.81 0 0 0 .677-.207 1.82 1.82 0 0 0 .546-.45c2.659-3.243 5.426-6.467 8.229-9.601.321-.358.488-.829.462-1.309a1.82 1.82 0 0 0-.598-1.254 1.81 1.81 0 0 0-2.559.136h0zm396.981-5.38a1.82 1.82 0 0 0-.575-.411c-.216-.098-.45-.153-.688-.16s-.474.031-.697.116a1.81 1.81 0 0 0-.599.374 1.82 1.82 0 0 0-.571 1.264c-.007.238.032.476.116.698a1.83 1.83 0 0 0 .373.601c2.894 3.079 5.752 6.249 8.501 9.419a1.81 1.81 0 0 0 .609.464 1.82 1.82 0 0 0 .747.17 1.81 1.81 0 0 0 1.812-1.674c.034-.479-.123-.952-.437-1.315-2.786-3.224-5.661-6.43-8.591-9.546zm16.765 19.436c-.299-.377-.736-.619-1.215-.674a1.81 1.81 0 0 0-1.335.384 1.82 1.82 0 0 0-.289 2.554c2.622 3.297 5.191 6.702 7.668 10.108a1.81 1.81 0 0 0 .641.557c.255.133.537.202.824.203a1.81 1.81 0 0 0 .948-.265c.285-.175.517-.425.668-.724a1.82 1.82 0 0 0 .192-.967c-.027-.333-.146-.653-.343-.924a354.2 354.2 0 0 0-7.759-10.252zm-35.158-37.35c-.362-.291-.82-.431-1.282-.393a1.81 1.81 0 0 0-1.2.599c-.308.346-.472.798-.458 1.262a1.81 1.81 0 0 0 .534 1.231 300.04 300.04 0 0 1 9.278 8.64 1.81 1.81 0 0 0 2.55 0c.17-.168.304-.369.396-.59a1.81 1.81 0 0 0 .139-.696c0-.239-.047-.476-.139-.697a1.81 1.81 0 0 0-.396-.589c-3.074-2.989-6.239-5.923-9.422-8.767z"/><path d="M509.131 604.781c-1.284-4.094-2.659-8.17-4.088-12.155a1.78 1.78 0 0 0-.356-.624 1.8 1.8 0 0 0-.57-.437 1.81 1.81 0 0 0-.696-.18c-.241-.012-.483.023-.71.106a1.82 1.82 0 0 0-.614.374 1.8 1.8 0 0 0-.419.584c-.1.22-.154.459-.16.701a1.82 1.82 0 0 0 .125.708 311.33 311.33 0 0 1 4.033 12.009 1.82 1.82 0 0 0 .689.943c.327.229.721.344 1.12.325a1.76 1.76 0 0 0 .542 0c.23-.078.44-.203.621-.365a1.81 1.81 0 0 0 .599-1.278c.009-.243-.03-.484-.116-.711h0zM245.676 396.763c-4.268 0-8.572 0-12.804.181a1.81 1.81 0 0 0-1.279 3.092c.339.34.799.531 1.279.531 4.177-.145 8.446-.2 12.66-.163.479 0 .939-.191 1.278-.531a1.81 1.81 0 0 0-1.278-3.092l.144-.018zm278.502 296.249c-.017-.48-.224-.934-.575-1.262s-.817-.503-1.297-.486-.933.224-1.26.576-.502.819-.485 1.299c.145 4.058.217 8.169.217 12.209v.344a1.81 1.81 0 0 0 3.087 1.281c.339-.34.53-.801.53-1.281v-.471c0-4.039-.072-8.187-.217-12.209zM271.249 398.284a269.85 269.85 0 0 0-12.768-1.068c-.238-.015-.476.018-.7.096s-.433.199-.611.357-.323.35-.427.564a1.81 1.81 0 0 0-.179.685 1.82 1.82 0 0 0 .096.702c.078.225.199.433.357.611s.349.324.563.428.446.165.684.179c4.196.254 8.428.616 12.66 1.069h.199c.237.013.475-.021.7-.1a1.81 1.81 0 0 0 .608-.36c.177-.159.321-.351.424-.566s.163-.448.176-.686a1.81 1.81 0 0 0-.1-.7c-.079-.225-.201-.432-.359-.61a1.79 1.79 0 0 0-.566-.425 1.81 1.81 0 0 0-.684-.176h-.073zm247.865 258.501c.235-.035.461-.117.665-.24a1.8 1.8 0 0 0 .522-.477c.142-.191.243-.409.3-.641a1.81 1.81 0 0 0 .032-.707c-.633-4.184-1.356-8.441-2.152-12.679-.044-.238-.134-.465-.266-.668a1.83 1.83 0 0 0-1.16-.799 1.84 1.84 0 0 0-.717-.01 1.85 1.85 0 0 0-.667.266c-.202.132-.377.302-.514.502a1.85 1.85 0 0 0-.293 1.379c.796 4.148 1.501 8.35 2.134 12.498a1.81 1.81 0 0 0 .617 1.109c.332.283.755.436 1.192.431l.307.036zm-3.346-27.279c-.94-4.13-1.989-8.314-3.111-12.444-.062-.23-.17-.445-.316-.633a1.81 1.81 0 0 0-.534-.463c-.206-.117-.434-.193-.67-.223a1.8 1.8 0 0 0-1.335.367c-.188.147-.345.328-.463.535s-.193.435-.223.671a1.83 1.83 0 0 0 .051.706c1.103 4.075 2.134 8.205 3.074 12.281.092.408.323.773.652 1.03a1.81 1.81 0 0 0 1.157.383 1.56 1.56 0 0 0 .398 0 1.81 1.81 0 0 0 .643-.302 1.82 1.82 0 0 0 .477-.527 1.81 1.81 0 0 0 .238-.671 1.79 1.79 0 0 0-.038-.71zm5.896 52.639h.145c.477-.037.919-.262 1.231-.625s.468-.836.433-1.314a312.53 312.53 0 0 0-1.176-12.679 1.81 1.81 0 0 0-.673-1.215 1.83 1.83 0 0 0-.63-.323 1.8 1.8 0 0 0-1.378.16 1.81 1.81 0 0 0-.918 1.794c.47 4.166.868 8.405 1.176 12.68a1.81 1.81 0 0 0 1.79 1.522zM484.01 545.947a1.82 1.82 0 0 0-.456-.54c-.186-.148-.4-.258-.628-.323a1.8 1.8 0 0 0-1.376.157 1.81 1.81 0 0 0-.854 1.078c-.132.457-.078.949.149 1.367 2.007 3.623 3.997 7.445 5.877 11.231.152.301.385.554.673.73a1.81 1.81 0 0 0 .955.266 1.9 1.9 0 0 0 .814-.199 1.81 1.81 0 0 0 .898-1.049c.149-.455.112-.951-.102-1.378l-5.95-11.34zM321.275 408.863c-4.07-1.286-8.193-2.482-12.281-3.623a1.81 1.81 0 0 0-1.375.188c-.416.243-.718.641-.84 1.107a1.82 1.82 0 0 0 .187 1.378c.243.416.641.719 1.106.841 4.033 1.051 8.102 2.228 12.099 3.496a1.44 1.44 0 0 0 .543.091c.43-.001.845-.156 1.172-.435s.543-.667.61-1.092a1.82 1.82 0 0 0-.242-1.228 1.81 1.81 0 0 0-.979-.778v.055zM59.864 470.866c-3.093 2.916-6.185 5.941-9.151 9.057a1.81 1.81 0 0 0-.526 1.277c0 .478.189.938.526 1.277a1.79 1.79 0 0 0 1.266.525 1.79 1.79 0 0 0 .699-.151 1.81 1.81 0 0 0 .586-.41c2.93-3.007 5.968-5.978 9.043-8.858.35-.329.556-.784.571-1.265s-.161-.947-.489-1.298a1.81 1.81 0 0 0-2.559-.082l.036-.072zm62.432-44.433c-3.78 1.956-7.542 4.039-11.232 6.177-.34.202-.605.511-.754.879a1.81 1.81 0 0 0-.067 1.157 1.82 1.82 0 0 0 .647.962 1.81 1.81 0 0 0 1.097.371c.317.002.628-.079.904-.236 3.617-2.119 7.343-4.166 11.068-6.104.229-.099.434-.243.604-.425a1.81 1.81 0 0 0 .384-.631c.083-.234.117-.483.1-.731a1.82 1.82 0 0 0-.666-1.284c-.193-.157-.416-.271-.656-.338a1.83 1.83 0 0 0-.736-.048 1.81 1.81 0 0 0-.693.251h0zm47.475-19.164c-4.088 1.195-8.193 2.518-12.208 3.912a1.81 1.81 0 0 0-1.22 2.014c.069.427.289.814.619 1.092a1.8 1.8 0 0 0 1.179.426 1.81 1.81 0 0 0 .597-.108 264.73 264.73 0 0 1 12.045-3.858 1.81 1.81 0 0 0 1.08-.868c.23-.422.285-.917.15-1.379a1.81 1.81 0 0 0-.866-1.081c-.421-.231-.916-.285-1.376-.15h0zm126.762-4.927a239.12 239.12 0 0 0-12.66-2.337c-.237-.038-.48-.029-.714.027a1.81 1.81 0 0 0-.649.299c-.195.141-.36.319-.486.524a1.84 1.84 0 0 0-.249.672 1.85 1.85 0 0 0 .027.715 1.84 1.84 0 0 0 .298.65c.142.195.32.361.524.487a1.83 1.83 0 0 0 .671.249c4.123.67 8.301 1.449 12.424 2.318h.362c.423.009.836-.132 1.166-.396s.558-.638.643-1.053c.103-.466.018-.953-.236-1.357a1.81 1.81 0 0 0-1.121-.798zm48.705 15.342c-3.906-1.666-7.903-3.26-11.882-4.746a1.81 1.81 0 0 0-1.388.051c-.437.2-.777.566-.945 1.018a1.82 1.82 0 0 0 1.067 2.337c3.942 1.467 7.885 3.043 11.737 4.673a1.59 1.59 0 0 0 .706.145 1.81 1.81 0 0 0 .994-.294c.296-.193.528-.469.67-.793a1.81 1.81 0 0 0 .149-.696 1.82 1.82 0 0 0-.13-.7c-.089-.222-.222-.425-.39-.596a1.81 1.81 0 0 0-.588-.399zm-125.153-19.925c-4.25.38-8.536.869-12.66 1.449-.237.017-.469.08-.683.186a1.82 1.82 0 0 0-.999 1.752c.034.481.256.928.619 1.244s.837.474 1.316.441h.235a243.97 243.97 0 0 1 12.57-1.413 1.81 1.81 0 0 0 .681-.199 1.79 1.79 0 0 0 .552-.445c.153-.184.269-.396.339-.624a1.82 1.82 0 0 0 .074-.707c-.016-.248-.082-.49-.194-.712a1.79 1.79 0 0 0-.462-.575c-.192-.158-.414-.275-.653-.343a1.79 1.79 0 0 0-.735-.054zm-74.531 17.933c-3.943 1.594-7.904 3.314-11.756 5.09a1.8 1.8 0 0 0-.868.838 1.82 1.82 0 0 0-.149 1.199c.089.405.314.767.637 1.026a1.81 1.81 0 0 0 1.14.396 1.91 1.91 0 0 0 .759-.163c3.798-1.811 7.705-3.459 11.593-5.017.446-.18.803-.531.991-.974a1.82 1.82 0 0 0 .013-1.39c-.18-.447-.53-.804-.972-.992a1.81 1.81 0 0 0-1.388-.013h0zm-66.266 38.491c-3.328 2.627-6.674 5.434-9.893 8.133-.365.313-.59.757-.628 1.236a1.81 1.81 0 0 0 1.663 1.947 1.81 1.81 0 0 0 1.316-.429c3.183-2.754 6.475-5.435 9.766-8.025.188-.146.345-.328.462-.535a1.81 1.81 0 0 0 .222-.672 1.82 1.82 0 0 0-.368-1.338c-.146-.188-.328-.345-.534-.463a1.81 1.81 0 0 0-.671-.222 1.8 1.8 0 0 0-.705.051 1.81 1.81 0 0 0-.631.317h0zm321.347-4.492c-.191-.142-.409-.244-.639-.302s-.471-.069-.706-.034-.461.117-.665.24a1.81 1.81 0 0 0-.143 2.994c3.364 2.518 6.728 5.126 9.984 7.789a1.81 1.81 0 0 0 .628.368c.232.079.477.11.722.091a1.8 1.8 0 0 0 .699-.202c.217-.114.409-.271.563-.461a1.81 1.81 0 0 0 .336-.647 1.82 1.82 0 0 0 .055-.727c-.032-.243-.112-.478-.236-.689a1.82 1.82 0 0 0-.489-.541c-3.291-2.699-6.691-5.343-10.109-7.879zm-300.494-10.379c-3.618 2.3-7.126 4.728-10.599 7.245a1.81 1.81 0 0 0-.686 2.045 1.81 1.81 0 0 0 .67.915c.316.226.695.344 1.083.337.372.003.735-.118 1.031-.344a296.26 296.26 0 0 1 10.472-7.101c.403-.262.685-.673.785-1.143a1.81 1.81 0 0 0-2.756-1.9v-.054zm279.225-3.949c-.404-.166-.854-.181-1.268-.042a1.81 1.81 0 0 0-.983.802c-.221.377-.297.822-.215 1.252s.314.815.657 1.086c3.617 2.173 7.234 4.455 10.653 6.828.302.195.653.302 1.013.308.296.001.588-.072.849-.211a1.81 1.81 0 0 0 .652-.586c.133-.197.226-.419.274-.652s.048-.474.003-.708a1.79 1.79 0 0 0-.268-.655c-.131-.199-.3-.369-.498-.503-3.617-2.391-7.252-4.673-10.869-6.919zm-11.087-6.412a280.44 280.44 0 0 0-11.394-5.869c-.214-.104-.448-.165-.686-.179a1.81 1.81 0 0 0-1.737 1.03c-.205.433-.231.929-.071 1.381s.49.821.921 1.028c3.78 1.812 7.56 3.786 11.231 5.797.267.144.565.219.868.217.403.002.796-.131 1.115-.378s.547-.594.647-.985a1.82 1.82 0 0 0-.096-1.175 1.81 1.81 0 0 0-.798-.867h0zM25.646 509.068l-1.374 1.811-.47-2.228c-.047-.233-.14-.455-.273-.652a1.81 1.81 0 0 0-.502-.497c-.198-.131-.42-.222-.653-.267s-.473-.044-.706.003a1.82 1.82 0 0 0-.651.274c-.197.133-.366.304-.497.502s-.222.421-.267.655a1.81 1.81 0 0 0 .004.707l1.302 6.213c.041.152.102.298.181.434v.127a2.01 2.01 0 0 0 .452.507l.271.145.199.109c.188.056.383.087.579.091h.38a1.55 1.55 0 0 0 .253-.109l.271-.127a1.82 1.82 0 0 0 .434-.38l.127-.091 3.744-5.072a1.83 1.83 0 0 0 .312-.641 1.82 1.82 0 0 0 .041-.712 1.79 1.79 0 0 0-.237-.672 1.83 1.83 0 0 0-.477-.529 1.81 1.81 0 0 0-1.299-.284c-.453.074-.862.318-1.142.683h0z"/><path d="M522.587 700.439c-5.68 0-11.126 2.26-15.142 6.282s-6.272 9.477-6.272 15.165c.232 4.755 1.59 9.386 3.961 13.513L522.587 764l17.452-28.601c2.371-4.127 3.729-8.758 3.961-13.513 0-5.688-2.256-11.143-6.272-15.165s-9.462-6.282-15.141-6.282zm0 11.122c2.038 0 4.032.605 5.727 1.74a10.33 10.33 0 0 1 3.797 4.634 10.34 10.34 0 0 1 .586 5.965c-.398 2.003-1.379 3.843-2.821 5.286a10.31 10.31 0 0 1-5.278 2.826c-1.999.398-4.073.194-5.957-.587a10.32 10.32 0 0 1-4.626-3.803c-1.133-1.698-1.737-3.694-1.737-5.736 0-2.739 1.086-5.365 3.019-7.301a10.3 10.3 0 0 1 7.29-3.024zM21.414 505.825a21.4 21.4 0 0 0-15.142 6.282C2.256 516.129 0 521.584 0 527.272c.215 4.778 1.567 9.436 3.943 13.585l17.453 28.602 17.471-28.602a29.87 29.87 0 0 0 3.979-13.512c-.005-5.69-2.265-11.145-6.284-15.167s-9.467-6.28-15.148-6.28v-.073zm0 11.122a10.3 10.3 0 0 1 5.727 1.74 10.32 10.32 0 0 1 3.797 4.634 10.34 10.34 0 0 1 .587 5.965 10.33 10.33 0 0 1-2.821 5.287 10.31 10.31 0 0 1-5.278 2.826 10.3 10.3 0 0 1-5.956-.588 10.31 10.31 0 0 1-4.626-3.803c-1.133-1.698-1.737-3.694-1.737-5.736 0-2.738 1.086-5.364 3.019-7.301a10.3 10.3 0 0 1 7.289-3.024zM331.294 0a21.4 21.4 0 0 0-15.142 6.282c-4.015 4.022-6.272 9.477-6.272 15.165.235 4.755 1.593 9.386 3.961 13.513l17.453 28.602 17.453-28.602c2.382-4.123 3.746-8.755 3.978-13.513a21.48 21.48 0 0 0-1.631-8.211 21.44 21.44 0 0 0-4.647-6.96 21.41 21.41 0 0 0-6.953-4.648 21.38 21.38 0 0 0-8.2-1.627h0zm0 11.122a10.29 10.29 0 0 1 5.727 1.74c1.695 1.135 3.017 2.747 3.797 4.634a10.35 10.35 0 0 1 .587 5.965 10.33 10.33 0 0 1-2.822 5.286 10.3 10.3 0 0 1-11.234 2.239 10.31 10.31 0 0 1-4.627-3.803 10.34 10.34 0 0 1-1.737-5.736c.005-2.737 1.093-5.36 3.025-7.296s4.551-3.024 7.284-3.029h0z"/></svg>