<svg xmlns="http://www.w3.org/2000/svg" width="424" height="502" fill="#2FA937" xmlns:v="https://vecta.io/nano"><path d="M275.625 474.06l-8.499 1.549c-.329.028-.633.185-.846.437a1.24 1.24 0 0 0 .149 1.752c.252.213.579.317.907.289h.211l8.561-1.561a1.26 1.26 0 0 0 .456-.187c.138-.092.257-.21.349-.347s.158-.292.191-.454a1.26 1.26 0 0 0 .001-.493c-.031-.163-.095-.317-.186-.456a1.24 1.24 0 0 0-.347-.349 1.26 1.26 0 0 0-.455-.19c-.162-.033-.329-.034-.492-.002v.012zm-68.701 6.877h-8.673c-.328 0-.644.13-.876.363a1.24 1.24 0 0 0 .876 2.115h4.138 4.56a1.24 1.24 0 0 0 .876-2.115c-.232-.233-.548-.363-.876-.363h-.025zm-17.308-.174l-8.673-.371c-.318-.001-.624.121-.855.34a1.24 1.24 0 0 0 .78 2.138l8.673.371c.329 0 .644-.13.876-.363a1.24 1.24 0 0 0 .363-.876c0-.329-.13-.644-.363-.876a1.24 1.24 0 0 0-.876-.363h.075zm166.753-204.011l7.433 4.287c.193.11.41.17.632.174a1.23 1.23 0 0 0 .613-.163c.187-.106.343-.26.453-.444.168-.282.219-.618.14-.936s-.281-.592-.561-.762l-7.571-4.336c-.143-.079-.3-.128-.462-.146a1.25 1.25 0 0 0-.913.268c-.126.103-.232.23-.31.373a1.25 1.25 0 0 0-.137.471c-.014.164.005.329.056.486a1.24 1.24 0 0 0 .24.428 1.22 1.22 0 0 0 .387.3zm-97.78 200.207l-8.574 1.14c-.162.01-.321.052-.468.123a1.23 1.23 0 0 0-.63.711 1.22 1.22 0 0 0-.066.479c.01.163.051.322.123.469a1.24 1.24 0 0 0 1.19.696h.149l8.673-1.152c.328-.048.624-.224.823-.49a1.25 1.25 0 0 0 .236-.929c-.048-.328-.224-.625-.49-.823a1.25 1.25 0 0 0-.929-.236l-.037.012zm-34.406 3.42l-8.673.372c-.329 0-.644.13-.876.363a1.24 1.24 0 0 0-.363.876c0 .328.131.643.363.876a1.24 1.24 0 0 0 .876.363l8.673-.384a1.24 1.24 0 0 0 .876-.363c.232-.233.363-.548.363-.876a1.22 1.22 0 0 0-.367-.868 1.24 1.24 0 0 0-.872-.359zm17.246-1.325l-3.655.346h-.136l-4.819.397a1.24 1.24 0 0 0-.803 2.146c.241.224.561.343.889.332h.099l4.746-.409h.136l3.717-.359c.328-.031.631-.192.841-.446s.311-.582.28-.911-.192-.631-.446-.842a1.24 1.24 0 0 0-.911-.279l.062.025zm136.745-188.438a1.24 1.24 0 0 0 .731.236c.195.002.387-.042.561-.128a1.24 1.24 0 0 0 .443-.368 1.25 1.25 0 0 0 .23-.921c-.024-.161-.08-.316-.164-.456a1.25 1.25 0 0 0-.326-.358l-7.149-5.017a1.24 1.24 0 0 0-.952-.232c-.166.028-.325.09-.466.182a1.23 1.23 0 0 0-.357.351 1.26 1.26 0 0 0-.188.463c-.031.166-.027.336.01.501a1.23 1.23 0 0 0 .207.455 1.24 1.24 0 0 0 .371.336l7.049 4.956zm-37.268-21.521l7.806 3.717a1.24 1.24 0 0 0 1.308-.145c.218-.173.371-.413.435-.683s.036-.554-.08-.806a1.24 1.24 0 0 0-.561-.584l-7.879-3.717a1.25 1.25 0 0 0-.473-.11c-.164-.006-.327.021-.48.079a1.24 1.24 0 0 0-.727 1.603 1.25 1.25 0 0 0 .651.696v-.05zm-99.836-27.79a1.23 1.23 0 0 0-.483.049c-.156.048-.302.126-.428.231s-.23.232-.306.376a1.24 1.24 0 0 0-.14.465 1.25 1.25 0 0 0 .05.483 1.24 1.24 0 0 0 .23.428c.104.126.232.23.376.307a1.27 1.27 0 0 0 .466.139l8.586.929h.148a1.24 1.24 0 0 0 .898-.31 1.23 1.23 0 0 0 .293-.386c.071-.147.113-.306.123-.469a1.26 1.26 0 0 0-.066-.479 1.24 1.24 0 0 0-.245-.418 1.23 1.23 0 0 0-.386-.293c-.146-.071-.305-.113-.468-.123l-8.648-.929zm83.866 21.236l8.041 3.147a1.33 1.33 0 0 0 .471.087 1.24 1.24 0 0 0 .777-.287c.219-.181.368-.433.423-.712a1.24 1.24 0 0 0-.12-.82 1.23 1.23 0 0 0-.61-.56l-8.115-3.172c-.306-.113-.644-.101-.94.034s-.529.38-.646.685a1.23 1.23 0 0 0-.08.476 1.25 1.25 0 0 0 .108.471c.067.149.162.283.281.394a1.26 1.26 0 0 0 .41.257zm-17.185-7.075c-.047.157-.064.321-.048.483a1.24 1.24 0 0 0 .141.464c.078.144.182.272.309.375a1.24 1.24 0 0 0 .429.227l8.214 2.639a1.52 1.52 0 0 0 .396.062 1.24 1.24 0 0 0 .808-.291c.226-.191.377-.456.425-.747s-.01-.591-.164-.844-.391-.442-.672-.534l-8.289-2.664a1.25 1.25 0 0 0-.483-.048c-.162.016-.32.064-.464.141s-.271.182-.374.309-.181.272-.228.428zm90.061 159.284l-6.009 6.133c-.231.232-.36.546-.36.874s.129.641.36.873a1.24 1.24 0 0 0 .407.283c.153.066.318.101.485.101a1.24 1.24 0 0 0 .855-.334l6.195-6.195a1.24 1.24 0 0 0-.074-1.747c-.117-.131-.261-.236-.422-.307a1.25 1.25 0 0 0-.51-.107 1.24 1.24 0 0 0-.509.114c-.16.073-.302.18-.418.312zm19.91-29.376c-.305-.118-.645-.109-.944.023a1.24 1.24 0 0 0-.654.683 78.57 78.57 0 0 1-3.494 7.781 1.24 1.24 0 0 0 1.103 1.796 1.23 1.23 0 0 0 .645-.179 1.24 1.24 0 0 0 .458-.49 80.65 80.65 0 0 0 3.605-8.016 1.23 1.23 0 0 0 .08-.477 1.24 1.24 0 0 0-.108-.471c-.067-.148-.162-.282-.281-.394a1.24 1.24 0 0 0-.41-.256zm-7.694 15.512a1.23 1.23 0 0 0-.452-.181c-.161-.03-.326-.028-.486.007s-.312.101-.447.194a1.25 1.25 0 0 0-.337.351l-4.956 6.963a1.27 1.27 0 0 0-.221.433 1.24 1.24 0 0 0-.037.485c.019.162.071.319.151.462a1.22 1.22 0 0 0 .318.367 1.23 1.23 0 0 0 .435.219 1.24 1.24 0 0 0 .485.034c.162-.02.319-.073.461-.155a1.25 1.25 0 0 0 .366-.321l5.08-7.149a1.24 1.24 0 0 0-.36-1.709zm-5.302-86.482c.255-.204.419-.501.456-.826a1.24 1.24 0 0 0-.258-.908l-5.687-6.666c-.111-.12-.245-.217-.394-.285a1.25 1.25 0 0 0-.473-.113 1.25 1.25 0 0 0-.48.079c-.153.058-.293.145-.412.257-.24.224-.38.533-.392.861s.107.646.33.886l5.563 6.517c.101.128.227.235.37.315a1.25 1.25 0 0 0 .462.148c.162.018.327.004.484-.041s.303-.121.431-.224zm8.697 14.757a1.37 1.37 0 0 0 .583-.137 1.24 1.24 0 0 0 .606-.728c.098-.314.067-.653-.086-.944l-4.46-7.57c-.18-.274-.461-.465-.781-.533a1.24 1.24 0 0 0-.929.173 1.25 1.25 0 0 0-.539.787c-.033.16-.034.325-.004.485s.093.314.184.451l4.336 7.359c.105.198.262.363.454.479a1.24 1.24 0 0 0 .636.178zm6.294 16.094a1.34 1.34 0 0 0 .31 0c.158-.04.306-.111.437-.209a1.24 1.24 0 0 0 .483-.819 1.25 1.25 0 0 0-.028-.483c-.748-2.839-1.662-5.632-2.738-8.363-.054-.159-.14-.304-.252-.428a1.24 1.24 0 0 0-.4-.295c-.152-.07-.316-.109-.483-.114a1.23 1.23 0 0 0-.49.086 1.25 1.25 0 0 0-.416.27c-.119.117-.214.257-.277.412a1.24 1.24 0 0 0-.093.488 1.25 1.25 0 0 0 .106.485c1.034 2.64 1.915 5.337 2.639 8.078a1.24 1.24 0 0 0 1.202.892zM292.5 470.269l-8.413 1.982c-.329.036-.629.201-.836.459s-.303.588-.267.916a1.25 1.25 0 0 0 1.376 1.103c.086.012.173.012.26 0l8.487-1.995a1.24 1.24 0 0 0 .762-.562c.17-.281.221-.618.142-.937a1.25 1.25 0 0 0-.191-.46c-.095-.138-.216-.257-.358-.347a1.23 1.23 0 0 0-.465-.178c-.165-.028-.335-.021-.497.019zm129.125-101.708c-.325-.043-.654.046-.914.246a1.24 1.24 0 0 0-.473.819c-.347 2.814-.873 5.603-1.574 8.351a1.24 1.24 0 0 0 .905 1.499h.297c.281.009.557-.078.782-.247a1.24 1.24 0 0 0 .457-.682 69.42 69.42 0 0 0 1.635-8.673 1.24 1.24 0 0 0-.292-.882c-.208-.245-.503-.4-.823-.431zm1.053-16.218c-.042-.329-.214-.627-.477-.829a1.25 1.25 0 0 0-1.752.227c-.202.263-.291.595-.249.924a67.1 67.1 0 0 1 .583 8.487c0 .328.13.644.363.876a1.24 1.24 0 0 0 .876.363c.328 0 .643-.131.876-.363a1.24 1.24 0 0 0 .363-.876c-.008-2.946-.202-5.888-.583-8.809zm-81.226 101.2l-7.917 3.432a1.24 1.24 0 0 0-.007 2.289c.303.127.644.128.948.003l8.004-3.469a1.24 1.24 0 0 0 .647-.694c.115-.308.103-.649-.034-.948a1.24 1.24 0 0 0-.694-.647c-.307-.115-.648-.103-.947.034zm-15.946 6.591l-8.14 2.899c-.281.093-.519.282-.673.535s-.211.551-.163.843.198.557.424.747a1.24 1.24 0 0 0 .808.291 1.21 1.21 0 0 0 .409-.074l8.202-2.924a1.25 1.25 0 0 0 .41-.256 1.26 1.26 0 0 0 .389-.865 1.23 1.23 0 0 0-.08-.477c-.117-.305-.349-.551-.646-.685a1.24 1.24 0 0 0-.94-.034zm31.383-14.285l-7.644 3.989c-.254.123-.459.329-.58.583a1.24 1.24 0 0 0 1.137 1.771 1.32 1.32 0 0 0 .558-.136l7.718-4.039a1.24 1.24 0 0 0 .368-.32 1.25 1.25 0 0 0 .218-.436c.043-.158.054-.323.034-.486a1.27 1.27 0 0 0-.155-.462c-.081-.142-.19-.267-.32-.367a1.23 1.23 0 0 0-.435-.218c-.159-.043-.324-.055-.486-.034a1.25 1.25 0 0 0-.463.155h.05zm-47.737 19.848l-8.289 2.478a1.25 1.25 0 0 0-.601 2.229c.262.202.594.292.923.249a1.04 1.04 0 0 0 .334 0l8.363-2.478a1.24 1.24 0 0 0 .44-.223c.13-.102.238-.23.318-.376a1.24 1.24 0 0 0 .146-.471 1.23 1.23 0 0 0-.285-.922c-.107-.127-.238-.232-.386-.307a1.23 1.23 0 0 0-.475-.131c-.165-.012-.332.01-.488.064v-.112zm83.965-164.153a1.24 1.24 0 0 0 0-1.747l-6.542-5.799a1.24 1.24 0 0 0-.427-.269c-.16-.06-.33-.086-.5-.077s-.336.053-.488.129-.288.183-.397.313a1.24 1.24 0 0 0-.279.949 1.23 1.23 0 0 0 .505.851l6.43 5.699a1.24 1.24 0 0 0 .855.335 1.24 1.24 0 0 0 .843-.384zm-7.719 125.051l-6.74 5.34c-.131.096-.242.218-.326.358a1.23 1.23 0 0 0-.164.455c-.024.161-.016.326.023.484a1.23 1.23 0 0 0 .207.437c.115.154.265.279.437.365s.361.131.554.131a1.24 1.24 0 0 0 .743-.235l6.852-5.427a1.24 1.24 0 0 0 .161-1.747c-.104-.125-.232-.229-.376-.305a1.24 1.24 0 0 0-1.371.144zm-13.778 10.32l-7.26 4.622a1.25 1.25 0 0 0-.361.326c-.097.132-.167.282-.206.441s-.047.324-.022.486a1.23 1.23 0 0 0 .168.457c.111.182.267.333.454.437s.397.158.611.157a1.36 1.36 0 0 0 .644-.173l7.36-4.696a1.24 1.24 0 1 0-1.388-2.057zM70.427 169.01a1.23 1.23 0 0 0-.314.37 1.24 1.24 0 0 0-.107.946c.045.157.121.303.224.431l5.687 6.653a1.24 1.24 0 0 0 .417.295c.158.068.328.103.5.102a1.24 1.24 0 0 0 1.132-.746 1.24 1.24 0 0 0-.228-1.336l-5.563-6.504a1.22 1.22 0 0 0-.368-.318 1.24 1.24 0 0 0-.946-.114c-.157.044-.305.119-.433.221zm47.242-131.282a1.31 1.31 0 0 0 .594-.149l7.632-4.002a1.24 1.24 0 0 0 .398-.291c.112-.123.198-.266.253-.423s.079-.322.069-.488-.054-.328-.127-.476a1.24 1.24 0 0 0-.303-.389 1.23 1.23 0 0 0-.92-.293c-.165.016-.326.063-.472.142l-7.732 4.052a1.24 1.24 0 0 0-.53.596c-.106.252-.126.532-.057.796a1.24 1.24 0 0 0 1.195.925zM82.023 181.883a1.24 1.24 0 0 0 0 1.747l6.542 5.798c.223.185.504.286.793.285a1.23 1.23 0 0 0 1.167-.817 1.24 1.24 0 0 0-.375-1.376l-6.43-5.699a1.24 1.24 0 0 0-1.697.062zM65.124 82.541a1.24 1.24 0 0 0 1.71-.359l4.956-6.975c.1-.129.174-.276.217-.433a1.24 1.24 0 0 0-.866-1.525 1.24 1.24 0 0 0-1.308.434l-5.092 7.149a1.24 1.24 0 0 0 .384 1.709z"/><path d="M55.113 138.221a1.24 1.24 0 0 0-.88 1.512c.752 2.838 1.666 5.63 2.738 8.363a1.24 1.24 0 0 0 .456.567c.205.139.448.214.696.213a1.24 1.24 0 0 0 1.134-.743 1.24 1.24 0 0 0 .018-.942c-1.034-2.645-1.919-5.346-2.651-8.09a1.24 1.24 0 0 0-1.512-.88zm-1.586-23.355h.149c.304.003.599-.107.827-.308s.375-.48.412-.782c.353-2.809.879-5.594 1.574-8.338a1.23 1.23 0 0 0 .064-.504 1.24 1.24 0 0 0-.143-.487c-.081-.151-.192-.283-.326-.388a1.22 1.22 0 0 0-.455-.225 1.24 1.24 0 0 0-.507-.024 1.23 1.23 0 0 0-.474.181 1.24 1.24 0 0 0-.55.827 70.34 70.34 0 0 0-1.636 8.673 1.24 1.24 0 0 0 .251.906c.199.258.492.426.815.469zm7.632 39.536a1.24 1.24 0 0 0-.52 1.673l4.46 7.558a1.24 1.24 0 0 0 1.028.57c.243-.002.48-.075.681-.211a1.24 1.24 0 0 0 .359-1.71l-4.336-7.359a1.24 1.24 0 0 0-.729-.607c-.314-.097-.653-.066-.944.086zm-3.692-56.349a1.24 1.24 0 0 0 1.599-.718 78.2 78.2 0 0 1 3.482-7.768 1.24 1.24 0 0 0-.484-1.749 1.24 1.24 0 0 0-1.709.608c-1.349 2.608-2.553 5.288-3.605 8.029a1.23 1.23 0 0 0-.08.477 1.24 1.24 0 0 0 .799 1.121zm75.713-68.07a1.25 1.25 0 0 0 .508-.111l7.93-3.42c.304-.125.546-.365.672-.669a1.24 1.24 0 0 0-1.614-1.623l-8.004 3.457a1.24 1.24 0 0 0-.653.695 1.23 1.23 0 0 0 .034.953 1.24 1.24 0 0 0 1.127.719zM250.895 3.048l8.673-.384a1.24 1.24 0 0 0 .802-2.145 1.24 1.24 0 0 0-.889-.332l-8.673.372a1.24 1.24 0 0 0-.867.385c-.226.238-.349.557-.341.885a1.24 1.24 0 0 0 1.27 1.208l.025.012zm34.642-.396l8.672.372h.062a1.24 1.24 0 0 0 1.277-1.202c.009-.329-.112-.648-.337-.887a1.24 1.24 0 0 0-.865-.389l-8.673-.372a1.24 1.24 0 0 0-.94 2.089 1.24 1.24 0 0 0 .866.389h-.062zm-17.309-.174h8.673a1.24 1.24 0 0 0 1.239-1.239A1.24 1.24 0 0 0 276.901 0h-8.673a1.24 1.24 0 0 0-1.239 1.239 1.24 1.24 0 0 0 1.239 1.239zm34.568 1.103l5.278.434a1.24 1.24 0 0 0 .099-2.478l-5.192-.434a1.24 1.24 0 0 0-.903.297c-.25.215-.404.52-.429.849a1.24 1.24 0 0 0 .298.903 1.24 1.24 0 0 0 .849.429zM53.75 132.15h.173a1.24 1.24 0 0 0 1.053-1.388c-.369-2.81-.56-5.64-.57-8.474a1.24 1.24 0 0 0-.363-.876c-.232-.233-.547-.363-.876-.363s-.644.13-.876.363a1.24 1.24 0 0 0-.363.876 69.39 69.39 0 0 0 .595 8.784 1.24 1.24 0 0 0 1.227 1.078zM233.599 4.411h.124l3.655-.347h.136l4.82-.409a1.23 1.23 0 0 0 .467-.13 1.25 1.25 0 0 0 .62-.721c.051-.155.071-.318.059-.481a1.23 1.23 0 0 0-.13-.467 1.23 1.23 0 0 0-.299-.382 1.24 1.24 0 0 0-.903-.297l-4.745.396h-.137l-3.791.347a1.24 1.24 0 0 0-.469.118c-.147.07-.279.168-.389.289-.22.244-.335.566-.319.894a1.24 1.24 0 0 0 1.301 1.177v.012zm-34.32 4.956h.248l8.5-1.561c.162-.028.318-.087.458-.175a1.26 1.26 0 0 0 .356-.337 1.24 1.24 0 0 0 .2-.448c.036-.161.042-.327.014-.49a1.26 1.26 0 0 0-.175-.458c-.088-.14-.202-.261-.337-.356a1.26 1.26 0 0 0-.938-.214l-8.561 1.561c-.329.031-.631.192-.842.446a1.24 1.24 0 0 0-.279.911c.031.329.192.631.446.842a1.24 1.24 0 0 0 .91.28zm-33.65 8.413a1.24 1.24 0 0 0 .372 0l8.288-2.478a1.25 1.25 0 0 0 .433-.216 1.24 1.24 0 0 0 .317-.366 1.25 1.25 0 0 0 .153-.459 1.23 1.23 0 0 0-.035-.483 1.24 1.24 0 0 0-.217-.433c-.1-.129-.224-.236-.365-.317s-.298-.132-.46-.153-.325-.008-.482.035l-8.363 2.478a1.25 1.25 0 0 0-.461.163 1.26 1.26 0 0 0-.363.327 1.25 1.25 0 0 0-.21.441c-.041.159-.049.325-.026.488a1.26 1.26 0 0 0 .931 1.034c.16.041.325.049.488.026v-.087zm16.689-4.696h.31l8.412-1.97a1.24 1.24 0 0 0 .942-1.474c-.035-.16-.102-.311-.196-.445a1.24 1.24 0 0 0-1.291-.496l-8.474 1.982a1.24 1.24 0 0 0-.763.563c-.169.281-.22.618-.142.937.074.262.231.492.448.656a1.24 1.24 0 0 0 .754.249zm43.364 225.631c-.329-.04-.659.053-.92.258a1.25 1.25 0 0 0 .623 2.22l8.673.941h.123a1.24 1.24 0 1 0 .112-2.478l-8.611-.941zM149.213 23.367a1.25 1.25 0 0 0 .433-.074l8.14-2.912a1.24 1.24 0 0 0 .705-.623c.143-.292.166-.629.064-.938-.052-.155-.134-.298-.241-.421a1.24 1.24 0 0 0-.384-.296 1.21 1.21 0 0 0-.468-.126 1.24 1.24 0 0 0-.481.063l-8.202 2.936a1.24 1.24 0 0 0-.731 1.586c.089.237.248.441.456.585a1.24 1.24 0 0 0 .709.22zM216.377 6.48h.186l8.574-1.152a1.24 1.24 0 0 0 .823-.465c.201-.258.293-.585.255-.91-.02-.162-.072-.319-.153-.461a1.23 1.23 0 0 0-.317-.367 1.24 1.24 0 0 0-.918-.251l-8.673 1.152a1.24 1.24 0 0 0-.85.424c-.216.249-.325.573-.302.901s.176.635.424.851.573.325.902.302l.049-.025zm-82.143 207.852l-7.794-3.717a1.24 1.24 0 0 0-.945-.065c-.311.105-.568.328-.715.622a1.24 1.24 0 0 0 .558 1.661l7.88 3.717a1.25 1.25 0 0 0 .508.111c.282-.001.556-.099.775-.277a1.24 1.24 0 0 0 .43-.702 1.23 1.23 0 0 0-.104-.816c-.127-.253-.336-.454-.593-.571v.037zm-30.9-14.286a1.23 1.23 0 0 0 .582-.144c.179-.095.332-.233.446-.401.091-.135.155-.287.188-.446a1.25 1.25 0 0 0 .002-.484 1.23 1.23 0 0 0-.525-.792l-7.049-4.956a1.24 1.24 0 0 0-.442-.248 1.25 1.25 0 0 0-.504-.05c-.17.018-.334.072-.482.156s-.277.2-.379.337a1.24 1.24 0 0 0-.213.46c-.039.167-.042.339-.011.506a1.24 1.24 0 0 0 .558.821l7.149 5.031c.202.135.439.208.682.21zm79.604 33.403a1.23 1.23 0 0 0 1.238-.941 1.24 1.24 0 0 0 .021-.485c-.025-.161-.082-.316-.167-.455a1.23 1.23 0 0 0-.77-.559l-8.351-2.193a1.21 1.21 0 0 0-.483-.035 1.25 1.25 0 0 0-.824.469c-.1.129-.174.276-.217.433s-.055.321-.035.482a1.23 1.23 0 0 0 .902 1.042l8.413 2.205.273.037zm-63.659-25.101c.155-.288.189-.626.097-.939a1.24 1.24 0 0 0-.592-.734l-7.434-4.287a1.23 1.23 0 0 0-.472-.23c-.172-.042-.352-.047-.526-.014s-.339.103-.483.205-.266.234-.356.387a1.23 1.23 0 0 0-.163.499c-.018.176.002.354.059.522s.149.322.27.451.268.231.432.299l7.57 4.336c.181.102.387.154.595.149a1.24 1.24 0 0 0 .584-.194 1.23 1.23 0 0 0 .419-.45zm48.171 19.613a1.23 1.23 0 0 0 .048-.483c-.016-.162-.064-.32-.141-.464s-.182-.271-.308-.374a1.24 1.24 0 0 0-.429-.228l-8.227-2.639c-.308-.102-.645-.079-.938.064a1.24 1.24 0 0 0 .146 2.278l8.301 2.664a1.14 1.14 0 0 0 .359 0c.259.005.513-.071.726-.218a1.24 1.24 0 0 0 .463-.6zm49.559 12.092c.329.023.653-.085.902-.301a1.24 1.24 0 0 0-.728-2.177l-8.549-1.338c-.163-.027-.329-.021-.49.016a1.23 1.23 0 0 0-.446.203c-.134.097-.248.217-.335.357a1.26 1.26 0 0 0-.157.948 1.27 1.27 0 0 0 .203.447c.096.134.217.248.357.335a1.26 1.26 0 0 0 .459.172l8.598 1.351.186-.013zm-17.135-2.887c.329.031.656-.069.911-.28s.415-.513.446-.841-.069-.656-.28-.911-.513-.415-.841-.446l-8.463-1.747c-.162-.045-.332-.057-.499-.035a1.24 1.24 0 0 0-.472.166c-.145.086-.27.202-.368.339a1.26 1.26 0 0 0-.212.957c.032.165.097.323.192.462s.217.258.359.349a1.23 1.23 0 0 0 .468.178l8.524 1.76a.79.79 0 0 0 .235.049zm-49.67-16.292l-8.041-3.135a1.24 1.24 0 0 0-.912.049c-.286.132-.512.368-.631.66a1.24 1.24 0 0 0 .614 1.583l8.115 3.172c.139.05.286.076.434.074a1.24 1.24 0 0 0 .796-.29c.223-.188.372-.448.423-.735a1.24 1.24 0 0 0-.798-1.378zm-56.051 258.13l-4.745.396h-.136l-3.779.36c-.329.014-.638.159-.86.402a1.24 1.24 0 0 0 .971 2.075h.124l3.717-.359h.136l4.82-.396a1.23 1.23 0 0 0 .467-.132 1.24 1.24 0 0 0 .381-.3 1.25 1.25 0 0 0 .236-.424 1.24 1.24 0 0 0 .055-.482c-.012-.168-.058-.331-.135-.48a1.24 1.24 0 0 0-.755-.621c-.161-.047-.33-.06-.497-.039zm17.37-.942l-8.673.372a1.24 1.24 0 0 0-1.208 1.27c.009.329.147.64.385.867a1.24 1.24 0 0 0 .885.341h.112l8.673-.372a1.24 1.24 0 0 0 1.239-1.239 1.25 1.25 0 0 0-.108-.518c-.073-.163-.18-.308-.314-.425s-.292-.205-.463-.256a1.24 1.24 0 0 0-.528-.04zm17.395-.198h-8.672c-.329 0-.644.131-.877.363a1.24 1.24 0 0 0 .877 2.115h8.672c.329 0 .644-.13.876-.363a1.24 1.24 0 0 0 .363-.876c0-.329-.13-.644-.363-.876a1.24 1.24 0 0 0-.876-.363zM17.646 495.643a1.2 1.2 0 0 0 .359 0l8.289-2.478a1.24 1.24 0 0 0 .433-.216c.129-.1.236-.224.317-.366a1.24 1.24 0 0 0 .118-.942 1.23 1.23 0 0 0-.217-.432 1.24 1.24 0 0 0-.366-.317c-.142-.08-.297-.132-.459-.153a1.23 1.23 0 0 0-.483.035l-8.363 2.478a1.25 1.25 0 0 0-.822.494c-.197.268-.281.602-.231.931s.227.624.494.822a1.25 1.25 0 0 0 .93.231v-.087zm16.702-4.646h.31l8.413-1.982c.305-.086.565-.285.728-.556a1.24 1.24 0 0 0-1.261-1.86l-8.487 1.982a1.25 1.25 0 0 0-1.091 1.388c.039.329.208.628.468.832a1.25 1.25 0 0 0 .92.258v-.062zm-33.13 10.247c.148.001.295-.024.434-.075l8.14-2.911a1.24 1.24 0 0 0 .726-1.559 1.24 1.24 0 0 0-1.531-.783l-8.202 2.937c-.267.105-.488.299-.628.55a1.23 1.23 0 0 0-.136.823 1.24 1.24 0 0 0 .417.723c.219.185.494.29.781.295zm50.066-13.989h.248l8.499-1.548c.329-.056.622-.24.814-.512a1.26 1.26 0 0 0 .214-.938c-.056-.329-.24-.621-.512-.814s-.609-.27-.938-.214l-8.561 1.561c-.16.031-.313.094-.45.184a1.22 1.22 0 0 0-.344.343 1.24 1.24 0 0 0 .242 1.654 1.23 1.23 0 0 0 .787.284zm25.56-6.529l-8.673 1.152a1.23 1.23 0 0 0-.849.429 1.24 1.24 0 0 0-.297.903c.025.328.179.634.429.849a1.24 1.24 0 0 0 .903.297h.173l8.574-1.152c.163-.02.32-.071.463-.152a1.25 1.25 0 0 0 .59-.751 1.24 1.24 0 0 0 .037-.485 1.26 1.26 0 0 0-.151-.463 1.25 1.25 0 0 0-.751-.59c-.158-.044-.323-.057-.486-.037h.037zM93.806 56.547h-3.717a1.35 1.35 0 0 0-1.35 1.35v2.267a1.35 1.35 0 0 0 1.35 1.363h3.717a1.36 1.36 0 0 0 1.351-1.363v-2.267c-.006-.356-.151-.696-.403-.948a1.38 1.38 0 0 0-.948-.403zm-9.664 0h-3.717a1.35 1.35 0 0 0-1.35 1.35v2.267a1.35 1.35 0 0 0 1.35 1.363h3.717c.361 0 .708-.144.964-.399a1.36 1.36 0 0 0 .399-.964v-2.267a1.38 1.38 0 0 0-.407-.952c-.254-.252-.597-.395-.956-.398zm9.664-8.437h-3.717a1.35 1.35 0 0 0-1.35 1.35v2.304a1.35 1.35 0 0 0 1.35 1.351h3.717a1.35 1.35 0 0 0 1.351-1.351V49.46a1.39 1.39 0 0 0-1.351-1.35z"/><path d="M84.142 48.11h-3.717a1.35 1.35 0 0 0-1.35 1.35v2.304a1.35 1.35 0 0 0 1.35 1.351h3.717a1.35 1.35 0 0 0 1.363-1.35V49.46a1.39 1.39 0 0 0-1.363-1.351zm19.316 0h-3.717a1.35 1.35 0 0 0-1.35 1.35v2.304c.003.357.147.699.399.951s.594.396.951.399h3.717a1.35 1.35 0 0 0 1.35-1.351V49.46a1.39 1.39 0 0 0-.406-.945c-.251-.252-.589-.396-.944-.406zm176.33 203.986h-3.717a1.36 1.36 0 0 0-1.351 1.363v2.292a1.35 1.35 0 0 0 1.351 1.351h3.717c.178.001.355-.033.52-.1a1.34 1.34 0 0 0 .443-.292 1.35 1.35 0 0 0 .296-.439c.068-.165.104-.342.104-.52v-2.304a1.39 1.39 0 0 0-.411-.949c-.254-.252-.595-.396-.952-.402zm-9.652 0h-3.717a1.36 1.36 0 0 0-1.35 1.363v2.292a1.35 1.35 0 0 0 .395.955c.254.253.597.396.955.396h3.717c.179.001.356-.033.521-.1s.315-.166.442-.292a1.35 1.35 0 0 0 .4-.959v-2.304c-.009-.358-.156-.698-.41-.949a1.39 1.39 0 0 0-.953-.402z"/><path d="M279.788 243.671h-3.717a1.35 1.35 0 0 0-1.351 1.351v2.292c-.001.178.033.355.1.52a1.34 1.34 0 0 0 .292.443c.125.126.275.227.439.296s.342.104.52.104h3.717a1.37 1.37 0 0 0 .521-.104 1.35 1.35 0 0 0 .738-.738 1.37 1.37 0 0 0 .104-.521v-2.292a1.39 1.39 0 0 0-.411-.949c-.254-.252-.595-.396-.952-.402zm-9.652 0h-3.717a1.35 1.35 0 0 0-1.35 1.351v2.292c-.002.178.032.355.099.52a1.34 1.34 0 0 0 .292.443 1.37 1.37 0 0 0 .44.296 1.36 1.36 0 0 0 .519.104h3.717a1.36 1.36 0 0 0 1.363-1.363v-2.292c-.009-.358-.156-.698-.41-.949a1.39 1.39 0 0 0-.953-.402zm19.316 0h-3.717a1.35 1.35 0 0 0-1.351 1.351v2.292c-.001.178.033.355.1.52a1.34 1.34 0 0 0 .292.443c.125.126.275.227.439.296s.342.104.52.104h3.717a1.37 1.37 0 0 0 .956-.404c.252-.255.394-.6.394-.959v-2.292a1.38 1.38 0 0 0-.406-.945 1.39 1.39 0 0 0-.944-.406zM156.82 485.31h-3.717a1.36 1.36 0 0 0-.959.395c-.255.253-.4.596-.404.956v2.304c.004.36.149.703.404.956a1.36 1.36 0 0 0 .959.395h3.717a1.35 1.35 0 0 0 1.35-1.351v-2.304c-.009-.355-.154-.694-.405-.945s-.59-.396-.945-.406zm-9.652 0h-3.717a1.36 1.36 0 0 0-1.362 1.351v2.304a1.36 1.36 0 0 0 1.362 1.351h3.717a1.35 1.35 0 0 0 1.351-1.351v-2.304c-.01-.355-.155-.694-.406-.945a1.39 1.39 0 0 0-.945-.406zm9.652-8.437h-3.717c-.361 0-.708.144-.964.399a1.36 1.36 0 0 0-.399.964v2.292c0 .362.144.708.399.964a1.36 1.36 0 0 0 .964.399h3.717a1.36 1.36 0 0 0 1.35-1.363v-2.292a1.39 1.39 0 0 0-.401-.953c-.252-.253-.592-.4-.949-.41zm-9.652 0h-3.717c-.361 0-.708.144-.963.399a1.36 1.36 0 0 0-.399.964v2.292a1.36 1.36 0 0 0 .399.964c.255.255.602.399.963.399h3.717a1.36 1.36 0 0 0 1.351-1.363v-2.292c-.006-.357-.15-.699-.402-.953a1.39 1.39 0 0 0-.949-.41zm19.304 0h-3.717c-.362 0-.709.144-.964.399a1.36 1.36 0 0 0-.399.964v2.292a1.36 1.36 0 0 0 .399.964c.255.255.602.399.964.399h3.717a1.36 1.36 0 0 0 1.35-1.363v-2.292c-.006-.357-.15-.699-.402-.953a1.39 1.39 0 0 0-.948-.41zm131.07-224.368v-17.903c.001-1.118-.414-2.195-1.164-3.023-.433-.482-.962-.868-1.554-1.132s-1.231-.403-1.878-.405h-3.457v-2.019a1.52 1.52 0 0 0-.11-.592 1.5 1.5 0 0 0-.333-.502 1.51 1.51 0 0 0-.502-.332c-.187-.077-.389-.114-.591-.111h-2.293c-.202-.001-.402.037-.589.114s-.358.19-.501.333-.256.313-.332.5a1.53 1.53 0 0 0-.114.59v2.019h-12.452v-2.019a1.5 1.5 0 0 0-.11-.592 1.51 1.51 0 0 0-.834-.834 1.5 1.5 0 0 0-.592-.111h-2.329a1.53 1.53 0 0 0-1.536 1.537v2.019h-3.383c-.647.002-1.287.14-1.879.405s-1.12.65-1.553 1.132c-.75.828-1.165 1.905-1.164 3.023v24.581c.003 1.218.488 2.386 1.35 3.247a4.61 4.61 0 0 0 3.246 1.35h21.645c.619 1.18 1.498 2.204 2.569 2.996s2.308 1.332 3.618 1.578a8.83 8.83 0 0 0 3.943-.154c1.286-.348 2.477-.983 3.483-1.857a8.83 8.83 0 0 0 2.327-3.188 8.84 8.84 0 0 0 .706-3.883 8.83 8.83 0 0 0-1.055-3.803c-.634-1.172-1.525-2.185-2.607-2.964h.025zm-14.05 7.137l.087 1.09h-20.654c-.202.002-.402-.037-.59-.114a1.52 1.52 0 0 1-.5-.332c-.143-.143-.256-.313-.332-.501a1.53 1.53 0 0 1-.114-.589v-18.783h33.019v10.655a7.75 7.75 0 0 0-2.082-.273 8.85 8.85 0 0 0-8.834 8.834v.013zm12.489-.905l-3.642 3.928a1.24 1.24 0 0 1-.868.359 1.24 1.24 0 0 1-.855-.359l-2.168-2.342a1.17 1.17 0 0 1-.24-.38 1.16 1.16 0 0 1-.076-.444c.004-.151.038-.3.1-.438a1.14 1.14 0 0 1 .26-.367c.109-.104.239-.186.38-.24s.292-.08.443-.076a1.15 1.15 0 0 1 .439.1 1.14 1.14 0 0 1 .367.259l1.35 1.45 2.8-3.023c.216-.214.508-.335.812-.335a1.15 1.15 0 0 1 .811.335c.118.097.215.217.284.354a1.12 1.12 0 0 1 .117.438 1.09 1.09 0 0 1-.07.448c-.054.143-.137.274-.244.383v-.05zM111.523 56.944V39.103c-.001-1.117-.416-2.194-1.165-3.023-.433-.481-.962-.865-1.553-1.127a4.61 4.61 0 0 0-1.878-.397h-3.383v-2.143a1.53 1.53 0 0 0-.946-1.423 1.53 1.53 0 0 0-.59-.114h-2.292a1.51 1.51 0 0 0-.59.114 1.53 1.53 0 0 0-.833.833 1.53 1.53 0 0 0-.114.59v2.032H85.678v-2.032a1.53 1.53 0 0 0-.112-.587c-.075-.186-.188-.356-.33-.499s-.31-.256-.496-.334-.385-.117-.586-.117H81.85a1.51 1.51 0 0 0-.59.114 1.53 1.53 0 0 0-.833.833 1.53 1.53 0 0 0-.114.59v2.032h-3.382a4.65 4.65 0 0 0-1.877.4c-.591.263-1.121.645-1.555 1.124a4.52 4.52 0 0 0-1.165 3.023v24.631a4.61 4.61 0 0 0 4.597 4.597h21.608c.619 1.18 1.497 2.204 2.569 2.996a8.83 8.83 0 0 0 7.561 1.424c1.286-.348 2.477-.983 3.483-1.857s1.801-1.963 2.327-3.188a8.83 8.83 0 0 0-.35-7.686c-.634-1.172-1.525-2.185-2.606-2.964zm-14.025 7.124a10.5 10.5 0 0 0 .087 1.09H76.931a1.51 1.51 0 0 1-.59-.114 1.53 1.53 0 0 1-.833-.833 1.53 1.53 0 0 1-.114-.59V44.864h33.018v10.643a7.7 7.7 0 0 0-2.069-.273c-2.346 0-4.596.932-6.255 2.591s-2.591 3.909-2.591 6.255v-.012zm12.489-.892l-3.643 3.915a1.24 1.24 0 0 1-.867.372 1.24 1.24 0 0 1-.855-.372l-2.156-2.342c-.208-.22-.321-.514-.313-.817a1.14 1.14 0 0 1 1.174-1.113 1.14 1.14 0 0 1 .799.357l1.376 1.437 2.8-3.023a1.12 1.12 0 0 1 .372-.251c.14-.058.288-.088.439-.088a1.14 1.14 0 0 1 .44.088c.139.058.266.144.372.251a1.1 1.1 0 0 1 .331 1.24 1.1 1.1 0 0 1-.244.382l-.025-.037zm64.55 422.543v-17.928a4.5 4.5 0 0 0-1.164-3.023c-.431-.489-.961-.881-1.555-1.15s-1.238-.409-1.89-.411h-3.394v-2.02c.003-.201-.034-.402-.109-.589s-.188-.357-.33-.5-.311-.257-.497-.333a1.52 1.52 0 0 0-.588-.114h-2.305a1.51 1.51 0 0 0-.59.114c-.187.076-.357.189-.5.332a1.53 1.53 0 0 0-.333.5c-.076.188-.115.388-.113.59v2.02h-12.39v-2.02c.003-.201-.034-.402-.109-.589s-.187-.357-.329-.5-.311-.257-.498-.333a1.5 1.5 0 0 0-.588-.114h-2.304a1.51 1.51 0 0 0-.59.114c-.187.076-.357.189-.5.332a1.53 1.53 0 0 0-.333.5c-.077.188-.115.388-.114.59v2.02h-3.469a4.6 4.6 0 0 0-1.873.405c-.589.264-1.116.65-1.546 1.131-.759.824-1.18 1.903-1.177 3.023v24.582c.003 1.218.488 2.385 1.35 3.246a4.61 4.61 0 0 0 3.246 1.35h21.608a8.84 8.84 0 0 0 6.186 4.575 8.82 8.82 0 0 0 3.944-.155 8.84 8.84 0 0 0 5.81-5.044c.525-1.225.766-2.552.706-3.883a8.84 8.84 0 0 0-3.662-6.767v.049zm-14.025 7.124a8.3 8.3 0 0 0 .099 1.091h-20.666a1.53 1.53 0 0 1-1.536-1.537v-18.77h33.018v10.655c-.673-.185-1.37-.277-2.069-.273a8.86 8.86 0 0 0-8.846 8.834zm12.501-.904l-3.717 3.927a1.24 1.24 0 0 1-.854.36c-.325-.002-.637-.131-.868-.36l-2.156-2.341c-.18-.225-.27-.51-.251-.797a1.16 1.16 0 0 1 .354-.758c.209-.199.484-.313.773-.319a1.15 1.15 0 0 1 .785.288l1.363 1.449 2.787-3.023c.216-.214.508-.334.812-.334a1.15 1.15 0 0 1 .811.334c.118.098.214.218.283.354s.109.284.118.436-.013.305-.064.448a1.09 1.09 0 0 1-.238.385l.062-.049z"/></svg>