<svg xmlns="http://www.w3.org/2000/svg" width="222.643" height="76.411" fill="#fff"><path d="M152.21 21.104h-2.519V3.883l-6.017 17.22h-2.697l-6.018-17.22v17.22h-2.52V.534h3.854l6.047 17.339L148.386.534h3.823v20.57zm20.512-2.49c0 .396.044.834.134 1.319s.192.874.311 1.17h-2.52c-.119-.277-.213-.598-.282-.963a6.84 6.84 0 0 1-.104-1.259v-2.816c0-1.007-.268-1.773-.803-2.297s-1.397-.786-2.587-.786h-6.747v8.121h-2.52V.504h9.101c1.047 0 1.985.153 2.815.46s1.53.734 2.104 1.278 1.008 1.204 1.305 1.978.443 1.614.443 2.526c0 1.11-.247 2.089-.74 2.942s-1.186 1.535-2.075 2.049c1.442.85 2.164 2.292 2.164 4.328v2.549zm-5.91-8.061c1.229 0 2.209-.336 2.943-1.009s1.099-1.6 1.099-2.786c0-1.343-.371-2.316-1.114-2.919s-1.748-.904-3.017-.904h-6.599v7.618h6.688zm29.533 4.03c-.355 1.048-.841 1.996-1.452 2.846a9.6 9.6 0 0 1-2.135 2.164 9.64 9.64 0 0 1-2.697 1.378c-.987.325-2.035.489-3.142.489-1.403 0-2.727-.283-3.972-.845a10.29 10.29 0 0 1-3.251-2.301c-.923-.969-1.653-2.106-2.193-3.413s-.81-2.7-.81-4.186.269-2.873.81-4.169 1.271-2.43 2.193-3.398 2.006-1.736 3.251-2.3S185.516 0 186.919 0c1.166 0 2.252.17 3.26.511a9.36 9.36 0 0 1 2.712 1.423 9.54 9.54 0 0 1 2.076 2.171c.582.841 1.042 1.764 1.378 2.772h-2.639c-.572-1.305-1.427-2.372-2.563-3.201s-2.544-1.246-4.224-1.246a6.99 6.99 0 0 0-2.994.652 7.81 7.81 0 0 0-2.445 1.793c-.701.761-1.254 1.646-1.659 2.653a8.51 8.51 0 0 0-.607 3.202c0 1.126.202 2.193.607 3.202a8.57 8.57 0 0 0 1.659 2.651 7.78 7.78 0 0 0 2.445 1.794 6.99 6.99 0 0 0 2.994.653c1.521 0 2.875-.4 4.061-1.201s2.094-1.881 2.727-3.246h2.638zM51.346 58.396c.323 1.938.143 3.361-.409 4.069-.585.752-1.564 1.22-2.554 1.22-1.371 0-2.476-.642-2.774-2.182-5.351-27.637-7.096-32.16-7.782-33.73-.789-1.808-1.395-1.971-2.097-.745-.345.602-1.173 2.109-2.223 4.017l-4.93 8.886c-1.217 2.148-2.83 3.381-4.424 3.381-1.276 0-2.401-.794-3.166-2.235-2.434-4.589-5.998-10.781-6.444-11.472-.175-.271-1.2-2.481-2.467-1.192-3.502 3.565-5.451 10.657-6.169 14.121-.281 1.358-1.341 2.235-2.698 2.235A3.31 3.31 0 0 1 .66 43.567c-.573-.704-.782-1.602-.59-2.527.495-2.389 6.026-20.118 12.95-20.117.373 0 .745.051 1.106.151 3.006.834 4.601 3.954 5.881 6.461l.659 1.262c.528.963.932 1.753 1.322 2.517a91.46 91.46 0 0 0 1.874 3.479c.442.783 1.069.438 1.247.092l2.658-5.335 1.767-3.583a50.53 50.53 0 0 0 .494-1.029c1.28-2.719 3.034-6.443 6.562-6.442.143 0 .256-.019.437.02 2.052.433 3.882 2.497 5.334 5.761 5.069 11.396 8.985 34.119 8.985 34.119zm32.932-14.828c-.971-.24-2.765-.025-3.954-.484-.768-.298-.723-.711-.719-.836.034-1.216 2.741-3.171 4.059-3.884 1.438-.776 1.841-1.688 1.569-2.967-.315-1.485-1.67-2.605-3.15-2.605a3.16 3.16 0 0 0-1.292.282c-2.769 1.231-7.061 5.294-7.581 9.417-.265 2.099.494 3.918 2.193 5.262 1.114.882 2.663 1.109 4.036 1.253 1.438.15 1.859.097 2.396.492s3.539 5.639-13.083 9.355c-1.677.375-2.354 1.503-2.261 2.562.116 1.322 1.439 2.729 3.66 2.729.162 0 .329-.008.501-.023 3.416-.311 7.331-1.857 10.472-4.138 3.575-2.596 5.881-5.901 6.494-9.311.589-3.272-.499-6.4-3.34-7.104zm-12.575 4.244c-3.516-1.722-3.482-4.436-3.972-5.778-.373-1.024-3.01-1.94-3.777.657-.534 1.807-2.875 5.255-5.904 4.075-2.323-.905-1.158-5.348.443-6.949 1.035-1.035 2.309-2.187 5.929-1.869 1.463.129 1.905.445 1.989-1.092.083-1.501-.875-3.213-2.815-3.427a12.09 12.09 0 0 0-1.313-.073c-3.265 0-5.729 1.603-7.608 3.751-1.725 1.971-4.064 6.24-2.203 11.71.836 2.454 2.654 3.646 4.971 3.771 2.861.154 5.982-1.683 8.158-3.413 0 0 1.927 2.957 5.024 2.728 1.94-.145 3.65-2.831 1.078-4.091zm59.694-15.484c-5.804-.249-6.962 4.142-7.291 2.762-.358-1.504-1.062-2.251-2.211-2.057-1.224.207-1.765 1.044-2.082 2.437-.094.412-.105.839-.035 1.271.464 2.845-.804 14.387 1.129 16.368 1.201 1.231 2.812 1.047 3.668-.342.713-1.154 1.059-11.355 1.477-12.619.437-1.323 1.271-2.416 3.098-2.608.589-.063 7.048-1.033 5.228 14.138-.196 1.639.785 2.509 1.714 2.628 1.161.149 2.652-.82 3.128-2.909a5.87 5.87 0 0 0 .088-.477c.466-3.273.665-8.299-.551-11.732-1.702-4.81-4.304-6.729-7.36-6.86zm-25.113 17.123l-1.737-.707c-1.295-.521-2.634-1.061-3.895-1.641-.467-.215-.951-.458-1.403-.686-.353-.178-.729-.854-.586-1.361.342-1.22 1.643-3.272 6.267-7.755.58-.563.781-1.862.343-2.747-.508-1.026-1.685-1.713-2.929-1.716-1.6-.004-4.103 3.026-4.841 4.104-1.387 2.026-1.721.607-1.752-.075l-.937-22.535c-.072-1.907-1.612-2.905-3.096-2.905-.847 0-1.642.321-2.18.88-.522.542-.782 1.265-.75 2.09l2.066 46.29c.098 1.897 1.646 2.891 3.124 2.891.849 0 1.642-.322 2.175-.884.517-.544.768-1.269.725-2.095l-.299-6.178c-.021-.427-.04-1.508-.06-1.934-.017-.354.186-1.094 1.654-.251 1.988 1.143 4.197 2.689 6.515 3.013a3.89 3.89 0 0 0 .523.037c1.495 0 2.738-.991 3.022-2.411.242-1.199-.268-2.722-1.949-3.424zm8.312-8.255c-.711-2.162-.247-5.271-.247-5.271.822-3.187-2.514-3.166-3.596-1.981-1.899 2.079-2.355 6.549-1.731 9.203.665 2.821 1.677 5.249 3.385 7.087.509.548 1.705.786 2.475.559 1.704-.504 2.663-2.236 1.843-4.112 0-.001-1.417-3.324-2.129-5.485zm-.689-16.427c-1.423.656-2.073 1.955-2.324 3.164-.166.796.014 1.655.491 2.355.452.663 1.114 1.098 1.862 1.225a2.88 2.88 0 0 0 1.363-.088c1.647-.518 2.488-2.438 2.575-3.92.053-.907-.477-1.806-1.04-2.262-.824-.668-1.987-.908-2.927-.474zm40.733 15.802c.151 2.077-1.653 8.884-5.247 8.844-2.757-.031-3.283-5.083-2.25-7.363.668-1.476 1.538-3.163 5.408-4.245 1.564-.438 2.144-.282 1.632-1.906-.499-1.585-2.158-2.983-4.249-2.449-.472.12-.938.267-1.387.436-3.379 1.272-5.303 3.891-6.411 6.847-1.017 2.711-1.402 8.138 2.418 11.906 1.601 1.58 4.637 2.327 6.938 1.726 3.237-.847 5.555-3.023 6.654-5.402 1.119-2.422 2.615-7.446.146-10.545-.751-.944-3.871-.837-3.652 2.151zm18.072-8.251c-5.702.175-7.051 3.704-7.443 2.294-.428-1.537-1.155-2.261-2.271-1.973-1.189.307-1.678 1.217-1.918 2.689a3.64 3.64 0 0 0 .03 1.323c.599 2.923-.057 15.015 1.938 16.929 1.24 1.189 2.81.878 3.579-.629.64-1.254.461-11.884.807-13.229.361-1.408 2.349-2.771 4.159-2.811 1.77-.038 5.16-.117 4.518 14.219-.077 1.72.897 2.549 1.813 2.604 1.146.068 2.559-1.051 2.919-3.259a6.75 6.75 0 0 0 .062-.502c.29-3.438-.145-7.918-1.212-11.629-1.197-4.157-3.979-6.118-6.981-6.026zm43.527-2.897c2.573-1.76 5.416-1.692 5.619-3.588.103-.958-.951-2.741-1.931-2.657s-3.765 2.386-4.907 4.417c-.749 1.333.416 2.378 1.219 1.828zm5.407 18.763c-.293.501-.685.879-.992 1.225-1.85 2.076-4.874 3.572-8.422 3.433-2.521-.099-5.373-1.793-6.512-3.891-2.717-5.005-.651-10.396 1.217-12.834 2.037-2.659 5.885-5.25 10.163-4.99 3.233.196 6.979 2.875 4.985 7.455-1.774 4.078-6.95 6.836-11.959 6.64.161 1.098.712 2.482 2.068 2.979 2.969 1.087 5.498-.238 7.563-2.745 1.976-2.4 3.529-.071 1.889 2.728zm-11.553-5.849c.794-.065 3.241-.3 5.49-1.856 1.168-.809 2.183-1.68 2.663-2.553 1.337-2.428-.658-2.41-1.026-2.424-2.492-.096-4.618 2.369-5.605 3.495-.677.77-1.24 2.03-1.522 3.338zm-9.056-7.112c-.633-1.026-3.743-1.293-3.884 1.698-.099 2.081-2.706 8.623-6.27 8.151-2.732-.36-2.65-5.439-1.351-7.58.84-1.384 1.905-2.955 5.877-3.566 1.605-.247 2.162-.023 1.85-1.696-.306-1.634-1.786-3.221-3.926-2.941-.482.063-.963.153-1.429.267-3.507.858-5.731 3.228-7.186 6.029a13.07 13.07 0 0 0 .713 13.155c1.542 2.417 3.809 3.218 6.33 2.743 1.679-.316 3.448-1.308 4.935-2.514-.692 2.939-1.738 6.388-3.18 8.582-4.815 7.325-10.159 3.668-11.57 7.619s5.362 2.821 5.362 2.821c16.178-4.779 14.951-25.659 14.576-29.556-.004-1.123-.239-2.226-.847-3.212zM92.804 75.354c1.133.916 3.235 1.569 8.525.511s14.242-5.659 25.996-6.749c7.956-.737 16.261.499 26.766 2.192 8.995 1.449 15.19 2.531 20.969.079 2.513-1.066-3.733.189-19.146-2.556-7.967-1.419-19.204-5.115-40.628-1.677s-25.187 6.013-22.482 8.2z"/></svg>