<svg xmlns="http://www.w3.org/2000/svg" viewBox="0 0 243 188.04"><path d="M156.12 13.41c-1.21 0-2.04 1.3-2.04 3.14 0 .64 0 2.36.89 2.94.02 1.13.69 1.93 1.59 1.93 1.16 0 1.59-1.08 1.59-4.01.01-.93-.14-4-2.03-4zm-20.34-6.69l-.46-.25c-1.25-.67-3.45-1.8-4.22-1.8-.91 0-1.76.85-2.21 1.59l-.16.26v1.53c.12.09.29.26.44.49.21.32.65.47 1.05.41.05-.01.1-.01.14-.02.35-.12 1.25-.23 1.6-.22.07.01.13.01.14.02.06.1.26.07.44-.05.17-.12.37-.14.44-.04.06.08.4-.03.77-.26.01-.01.03-.02.05-.02.21-.1.64-.08 1.18.03a8.93 8.93 0 0 1 1.7.54l1.47.67v-.76l-1.99-.45-.38-1.67z" fill="#fff"/><path d="M241.64 95.62l-.69-.93-3.87-4.79-.45-.55c-1.13-1.36-2.06-2.42-3.06-2.63-1.13-.23-3.39-1.02-3.89-1.39-.77-1.19-1.35-1.46-1.69-1.52-.26-.1-.93-.43-1.44-.67l-1.9-.87c-.65-.26-1.1-.52-1.3-.66-.27-.49-.94-.77-1.96-1.2l-.56-.24c-.16-.08-.28-.15-.37-.21-.19-.36-.56-.62-1.03-.71-.21-.29-.52-.47-.83-.57-.08-.1-.17-.23-.26-.37-.52-.74-.83-1.17-1.26-1.39-.06-.03-.55-.28-1.06-.42l-.24-.36-.46-.64c-.2-.22-.38-.38-.54-.5a2.34 2.34 0 0 0-.62-.88c-.01-.1-.04-.25-.04-.42 0-.41 0-1.18-.34-1.68-.05-.3-.18-.57-.37-.78-.01-.1-.03-.24-.03-.41.21.1.45.16.71.16.85 0 1.52-.59 1.52-1.33 0-.75-.72-1.17-1.31-1.38l-.29-1.92-.29-1.76a8.16 8.16 0 0 1-.16-.96c.14-.2.21-.44.24-.7 0-.01.02-.04.03-.05.39-.03.69-.16.91-.34.69-.16 1.32-.75 1.33-.76.8-.78.13-3.13-.06-3.41-.2-.31-.55-.63-.97-.8l-.07-.26v-1.51c.27-.9 1.28-1.77 1.62-1.95 1.25-.15 1.88-.63 1.88-1.41 0-.6-.47-1.15-1.26-1.46l-.21-.08h-.43c-.69 0-1.19.28-1.5.49l-.21-.17c-.01-.13-.01-.32-.01-.54 0-.5 0-1.42-.44-1.96-.06-.46-.33-.93-.64-1.24-.08-.51-.41-1.01-.7-1.29s-.78-.59-1.32-.67c-.01-.01-.01-.02-.03-.03.02-.49.12-1.4.23-1.7.63-.99.16-3.72-.24-4.59-.41-.86-1.03-1.01-1.37-1.03a7.01 7.01 0 0 1-.72-.06c-.28-.18-.67-.3-1.27-.31-.06-.54-.35-1-.77-1.25a14.28 14.28 0 0 1-.48-1.44c-.15-.56-.35-1.34-.89-1.7l-.71-.76-2.08-2.12-.96-.85c-.2-.34-.61-.66-1.4-.71-.17-.13-.4-.24-.67-.28-.27-.23-.71-.44-1.42-.61-.23-.23-.58-.41-1.11-.45a1.5 1.5 0 0 0-.74-.38c-.23-.37-.63-.63-1.09-.73-.29-.22-.88-.78-1.01-.99-.21-.33-.34-.63-.38-.77-.02-.41-.23-1.3-2.94-1.6a4.47 4.47 0 0 0-1.1.02h-.8c-.29 0-.72.1-1.3.29h-.29c-.19-.18-.45-.32-.77-.38-.16-.16-.4-.31-.73-.45a1.51 1.51 0 0 0-.75-.86l-.2-.35c-.67-1.24-1.21-2.13-2-2.44l-.81-.35c-.1-.2-.23-.45-.44-.78v-.32c0-.09.02-.18.04-.27.04-.23.07-.48.07-.77v-.41l-.02-.2c-.05-.29-.12-.63-.23-.95l.03-1.76-.08-.2-.67-1.83c-.08-.66-.63-1.17-1.3-1.17-1.3 0-1.3 1.48-1.3 2.37 0 .19-.01.36-.03.49a1.22 1.22 0 0 0-.4.9c0 .54.32.85.7 1.13a5.08 5.08 0 0 1 .04.65c0 .43 0 1.33.41 1.87.11.39.3 1.26.32 1.63-.12.27-.66.82-.84.94-.46.22-1.13.56-2.7 10.35l-.83.01c-.09-.12-.19-.23-.3-.32a3.96 3.96 0 0 0-.13-.66c-.15-.52-.47-.94-.86-1.17 0-.22-.02-.45-.76-1.89-.2-.4-.5-.87-.76-1.26-.09-.14-.17-.26-.22-.35a1.3 1.3 0 0 0-.33-.57 1.24 1.24 0 0 0-.33-.88l-.39-.38h-.5c-.79 0-1.45.76-1.62 1.16-.2.47-.11.99.25 1.34a2.21 2.21 0 0 0 .53.4.43.43 0 0 1 .02.12h-.69c-.34-.44-.94-.73-1.55-.73l-.75.03-.32.61c-.6 1.12.91 3.77 1.14 4.09l1.19 1.67c.27.53.85.72 1.29.72h.01c-.03.01-.05.02-.07.04h-1.68c-.24-.2-.53-.35-.89-.35l-1.18.04v.31c-2.49-.03-2.49-.7-2.49-1.78 0-.32.16-.69.31-1.07.21-.48.43-1.01.43-1.63v-2.71l-.83-.23a43.21 43.21 0 0 0-1.39-.38c-.19-.17-.41-.3-.67-.42v-.58h-1.15c-.64 0-1.91.84-2.28 1.4-.11.17-.2.29-.27.37.29.05.66.14.69.26.03.1.1.31.21.44.05.07.1.12.17.12.2 0 .61.05.73.22.05.07.1.11.16.15.08.07.17.1.22.07.09-.06.43.14.75.43l.21.33.87 1.31.1.14c.07 1.47.27 2.89.45 3.15.17.26.25.53.16.59s-.07.25.05.43c.09.14.18.47.23.82.01.09.02.18.02.28.03.43.39 2.16.29 2.21-.09.06.32.58.89 1.16s1.99 2.28 1.9 2.34-.07.25.05.43c.11.18.14.36.05.42s-.03.23.13.38.6.54.51.59c-.09.06-.03.23.13.37.16.15.45.32.45.51 0 .2.39.94.74 1.48.35.53.57 2.86.5 5.17s-1.61 6.93-1.48 7.11c.11.18.14.37.04.43-.09.06-.04.44.09.85.15.42.21 1.7.03 1.81-.18.12-.28.44-.23.71.06.28.02 1.25-.07 1.31-.1.06.23.72.74 1.48.5.75 1.51 1.4 2.24 1.44.74.04 1.55.04 1.61.13.05.08.25.06.44-.06.18-.11.54-.13.79-.04.25.1.99.29 1.17.18s.37-.13.44-.05c.06.09.25.07.44-.05.18-.11 1.18-.12 2.21-.02s2.02.4 2.2.67c.1.15.21.27.31.33.24-.08.5-.13.74-.13 1.16 0 2.1.31 2.1.69a.7.7 0 0 0 .7.69c.39 0 .91.61 1.16 1.37v.46 1.83c-.01.01-.03.02-.04.03.03.04.06.08.1.12.25.28 1.1 2.08 1.28 3.53.19 1.45-1.61 4.99-1.48 5.17.11.18.08.52-.1.74-.16.23-.17.62-.14.66.03.05.1.16.16.24.06.09-.36 1.23-.19 1.49.18.27.4 1.41.51 2.54.03.27-.03.69-.14 1.17-.08.34-.18.73-.29 1.12l-.33 1.12h1.46c.46.86.84 3.48.66 4.37-.47 2.27-.07 2.75.13 2.98l.4.44h.54c.7 0 1.52-.57 1.52-2.16 0-.2.02-.37.02-.48.11-.14.21-.31.32-.48.08-.13.16-.27.24-.39.03 0 .07 0 .1-.01.26.28.68.66 1.34 1.25l.29.26c.18.16.31.31.4.41l.03.6.91.19.37.04c.34 0 .87-.07 1.47-.16 1.72-.24 1.54-4.01 1.46-4.96.21-.34 1.28-.91 1.7-.95.28-.02.54-.03.75-.03.24.18.56.24.87.22-.08-.16-.1-.32-.02-.37.09-.05.07-.25-.05-.42-.08-.12-.1-.23-.08-.32.01-.04.01-.09.04-.11.09-.05.11-.27.04-.48-.08-.21.17-1.23.6-1.75.02-.03.04-.05.06-.08.39-.5.66-.95.61-1.04-.03-.05-.01-.17.05-.3-.05-.1-.1-.21-.16-.3v-.42c.27-.22.45-.54.52-.91.19-.27.34-.68.34-1.31 0-.04.01-.1.04-.15.8.09 2.04.42 2.5.67.12.45.22.8.33 1.08.05-.02.13-.05.16-.07.22-.14 1.16.05 2.08.44v-.17l.13-.41c.1-.34.06-1.69-.54-2.31 0-.02-.01-.04-.01-.05.03-.02.05-.05.08-.07.27-.07.68-.16.93-.19.44-.05.77-.15 1.03-.27a13.04 13.04 0 0 0 .91.19l1.12.23c.13.07.24.12.31.17.18.27.49.49.91.58.09.07.19.17.3.27.86.77 1.47 1.27 2.12 1.37a18.58 18.58 0 0 0 1.57.16 1.76 1.76 0 0 1 .26.21c.32.43.84.75 1.35.82.03.02.06.03.08.05.04.78.76 1.16 1.52 1.56l.05.03c.14.27.49.59 1.39 1.38s2.25 1.99 3.43 3.15c2.9 2.87 3.93 3.69 4.44 3.92.11.14.24.26.36.35.14.61.72 1.04.99 1.2a4.97 4.97 0 0 1 .47.57c.23.32.8.99 1.52 1.16.24.37.66.64 1.1.73.08.06.17.14.19.14a1.9 1.9 0 0 0 1.3.91c.3.23.72.38 1.17.54.23.27.64.51 1.37.53a1.69 1.69 0 0 0 .64.28c.11.09.3.28.5.53l.35.44h4.76l.32-.59c.84-1.48.13-3.73-.97-5.23zM172.09 29.1a2.08 2.08 0 0 0 .38.22c0 .22.04.46.1.69a1.22 1.22 0 0 0-.7.15 3.71 3.71 0 0 0-.07-.44c.09-.1.2-.28.29-.62zm1.62.75v.32c-.12 0-.22-.02-.3-.05a.87.87 0 0 1 .3-.27zm-3.45-5.86a1.06 1.06 0 0 1 .43-.27l-.16.28-.27-.01z" fill="#fff"/><path d="M225.55 93.25c-.9-1.37-2.14-1.39-2.74-.04-.59 1.35-1 5.94-1.35 6.16s-.45.69-.23 1.03c.23.35 1.67-.57 3.19-2.02 1.53-1.44 2.04-3.75 1.13-5.13zm-23.64 29.29l-.21-2.05c-.03-.02-.05-.03-.06-.02-.09.06-.38-.23-.65-.62-.26-.4-.93-.54-1.08-.57s-.46-.34-.69-.71c-.24-.35-.54-.57-.68-.48-.14.08-.34.01-.46-.16-.04-.06-.42-.2-.96-.36.25.36.43.65.48.65.12 0 .21.64.21 1.41 0 .76-.68 2.24-1.5 3.27-.83 1.03-1.38 2.11-1.23 2.4s.18.93.07.93-.3.36-.41.8c-.12.43.57 1.43 1.5 2.2.94.76 1.98 2.64 1.98 3.2 0 .55-.25 1.17-.55 1.4-.3.22-1.1.89-1.1 1 0 .06-.24.15-.62.23l.54.15 1.68.7 4.03-2.55 1.29-6.18c.06-.1-.03-.4-.21-.67-.14-.21-.01-.59.28-.96-.63-.81-1.51-2.04-1.65-3.01zm7.81-34.39c.09-.06.01-.33-.16-.59-.18-.27-.09-.73-.02-.91.08-.17-.69-1.18-1.71-2.23-.4-.42-.99-.76-1.59-1.02-.92-.4-1.85-.58-2.08-.44-.03.02-.11.05-.16.07-.44.18-1.35.31-2.19.27l-.82.52-.33.21a1.89 1.89 0 0 0-.22.33c-.06.13-.09.25-.05.3.05.09-.22.54-.61 1.04-.02.02-.04.05-.06.08-.43.52-.67 1.54-.6 1.75.07.2.05.42-.04.48-.03.02-.03.07-.04.11-.01.09 0 .2.08.32.12.18.14.37.05.42-.08.05-.06.21.02.37.01.01.01.04.03.06.12.18.14.37.05.42-.09.07-.08.57.04 1.13l.32.48c2.24 3.39 5.91 2.21 6.89 1.59l1.32-.84 1.16-.74c.4-1.13.81-2.11.9-2.16.09-.06.05-.29-.1-.51-.13-.23-.17-.45-.08-.51zm-23.5-14.29c-.19-1.46-1.03-3.25-1.28-3.53l-.1-.12c-1.78.98-3.23 1.49-3.23 1.11 0-.37-1.68-1.3-3.73-2.05V67.9v-.45c.4-1 1.34-1.84 2.29-2.15-.1-.06-.21-.17-.31-.33-.18-.27-1.16-.57-2.2-.67-1.03-.1-2.03-.09-2.21.02-.18.12-.38.14-.44.05s-.25-.07-.44.05c-.18.11-.92-.08-1.17-.18-.25-.09-.61-.07-.79.04-.18.12-.38.14-.44.06-.06-.09-.87-.09-1.61-.13-.73-.04-1.74-.7-2.24-1.44-.5-.76-.83-1.42-.74-1.48s.13-1.02.07-1.31c-.06-.27.05-.59.23-.71.18-.11.12-1.4-.03-1.81-.14-.41-.18-.79-.09-.85.09-.05.07-.25-.04-.43-.12-.18 1.41-4.8 1.48-7.11.08-2.32-.14-4.64-.5-5.17-.35-.53-.74-1.28-.74-1.48 0-.19-.29-.36-.45-.51-.16-.14-.23-.32-.13-.37.09-.05-.35-.44-.51-.59s-.22-.31-.13-.38c.09-.05.06-.24-.05-.42-.12-.18-.14-.37-.05-.43.08-.06-1.33-1.76-1.9-2.34-.58-.58-.98-1.1-.89-1.16.1-.06-.27-1.79-.29-2.21 0-.1-.02-.18-.02-.28-.05-.34-.14-.68-.23-.82-.11-.18-.14-.37-.05-.43s.02-.33-.16-.59-.38-1.68-.45-3.15c0 0 0-.01-.1-.14l-.87-1.31-.21-.33c-.32-.3-.66-.49-.75-.43-.06.03-.14 0-.22-.07a1.1 1.1 0 0 1-.16-.15c-.11-.18-.53-.22-.73-.22-.07 0-.12-.05-.17-.12-.11-.13-.18-.34-.21-.44-.03-.12-.39-.21-.7-.25l-.31-.04c-.26-.02-.63-.25-.81-.51-.17-.26-.39-.44-.48-.38-.09.05-1.51-.49-3.14-1.22l-1.18-1.77-.21-.31c-.2-.51-.29-.96-.2-1.02.09-.05.07-.25-.05-.42-.12-.18-.14-.37-.05-.43.08-.06-.05-.43-.31-.83-.26-.39-.41-.77-.31-.83.09-.05.02-.32-.16-.58s-.25-.53-.16-.59.12-.18.06-.27c-.06-.08-.18-.11-.27-.05-.09.05-.26-.04-.37-.22-.12-.17-.29-.27-.39-.21-.09.05-3.75-2.35-5.84-3.17-1.56-.61-4.37-1.95-6.22-2.81l-1.47-.67a8.93 8.93 0 0 0-1.7-.54c-.55-.11-.97-.12-1.18-.03-.02.01-.04.01-.05.02-.37.23-.71.34-.77.26-.06-.1-.26-.08-.44.04-.18.11-.38.14-.44.05-.01-.01-.07-.01-.14-.02-.35-.01-1.26.1-1.6.22-.04.01-.09.01-.14.02-.4.06-.84-.09-1.05-.41-.15-.23-.32-.4-.44-.49-.05-.07-.1-.09-.14-.07-.09.06-.29-.08-.43-.3s-.34-.36-.43-.3-.21.04-.27-.06c-.06-.09-.04-.21.06-.26.09-.06-1.34-1.52-1.88-2.13-.53-.61-1.04-1.06-1.13-1s-1.49.01-3.11-.09l-1.48.93-.33.21c-.49.43-1.41 1.12-2.03 1.52-.64.41-1.11.8-1.05.9.06.08-.41.49-1.05.88-.63.4-1.2.66-1.26.57s-.36 0-.68.2-.75.27-.96.15-1.27-.11-1.5.03-.51.12-.63-.06-.62-.34-.79-.3c-.16.05-.39-.06-.51-.24-.06-.1-.23-.19-.4-.25.02.23.07.39.13.39.08 0 .14.12.14.27s.06.27.14.27.01.74-.14 1.65-.69 3.43-.84 3.43-.28.06-.28.14-.25.2-.56.28-.63.69-.7.69c-.08 0-.23.58-.34 1.3-.12.72-2.74 1.78-2.74 1.86s-.29.2-.63.27c-.34.08-1.33.2-1.33.27 0 .08-.13.14-.28.14s-.29.09-.29.21-.32.2-.7.2-.7.07-.7.14-.29.13-.63.13c-.35 0-.63-.06-.63-.13s-.39-.14-.84-.14c-.47 0-.85-.09-.85-.2s-.6-.11-1.33 0c-.74.12-2.86-1.85-3.02-1.85s-.41-.15-.56-.35l-.25-.3-1.6 1.02-3.68 2.55c-.73.46-1.27 1.06-1.22 1.34.06.28-.19.69-.56.93-.36.23-1.06 1.79-1.25 2.17-.04.07-.07.14-.1.21 0 .35-.05.95-.13 1.63-.13 1.08-.21 4.29 0 4.7.21.42.68 1.52.85 1.52s.31.14.31.31c0 .16.35.47.78.68s1.87.84 2.65.84c.76 0 1.4.07 1.4.15 0 .09.31.09.31 0s.7-.15 1.55-.15c.86 0 1.55-.07 1.55-.15s.31-.15.7-.15.7-.07.7-.15.18-.22.39-.31c.21-.08.86-.21.86-.3 0-.08.21-.15.46-.15s.47-.07.47-.15c0-.09.21-.15.47-.15s.47-.07.47-.15.21-.16.46-.16c.26 0 .47-.07.47-.15s.52-.15 1.16-.15 1.16-.1 1.16-.23.28-.23.62-.23.62.1.62.23c0 .12.07.23.16.23.08 0 .26-.07.39-.15.13-.09.39-.2.39-.08s.28.23.62.23.63-.1.63-.23.66-.2 1.48-.15c.26.01.7.24 1.18.53l3.48-4.33c.7-.88 1.76-1.42 2.9-1.5 1.14-.07 2.26.34 3.07 1.12l19.63 18.8.85.82.38.36 1.33 1.27c.13-.23.3-.49.49-.75.3-.41 1.98-.73 2.99-.86.43-.06.74-.08.74-.06 0 .09.28.15.62.15s.62.07.62.15c0 .04.08.11.2.19s.28.18.47.28l.26.13c.4.2 1.05 1.25 1.45 1.7.11.13.2.21.26.2.25-.05.77-.16.77-.08s.07.15.16.15c.08 0 .19.07.23.16s-.39.52-.39.6c0 .09-.21.16-.47.16s-.51.1-.54.23c-.04.12-.31.38-.38.38-.09 0-.19.31-.24.68-.03.24-.33.57-.61.78-.15.12-.31.21-.39.21-.26 0-.47.07-.47.15s-.21.15-.46.15c-.14 0-.25.03-.34.05l1.27 1.21 11.04 10.58h.38.92c.77-.51 1.4-.61 1.4-.23s.11.69.24.69c.1 0 .52 1.88.42 2.77l15.29 14.64c.91-.15 1.84-.17 1.96-.01.23.29.92 1.06 1.02 1.06.11 0 .21.18.21.4l.03 1.65c.53.59.87 1.31.97 2.08v.04c.57.32 1.34.62 2.1.89l.31.11 1.44.45 1.08.38c.11.22.21.85.21 1.41 0 .25.02.49.05.67v.05l.09-.11c.18-.11.07-.76.01-1.04-.05-.28.05-.6.23-.72s.22-.52.23-.72c0-.19.08-.39.17-.45s.07-.26-.05-.43c-.04-.08.16-.73.41-1.55l.33-1.12.29-1.12c.1-.48.16-.9.14-1.17-.11-1.13-.33-2.27-.51-2.54-.18-.26.24-1.39.19-1.49l-.16-.24c-.03-.04-.02-.43.14-.66.17-.23.21-.56.1-.74-.15-.18 1.65-3.72 1.46-5.17zm-10.68-5.97v.46c-.51.5-.93 1.22-.93 1.6a1.85 1.85 0 0 1-.46 1.14h-.47-.46c0-1-.31-1.82-.71-1.82-.38 0-.49-.41-.23-.92.26-.5 1.99-1.41 3.27-.91-.01 0-.01 0-.01.45z" fill="#fff"/><path d="M44.23 119.36c.04-.08 0-.15-.08-.15-.09 0-1.03-1.91-1.92-2.48-.18.51-.34.9-.47 1.05-.27.33-1.66 1.59-1.75 1.55-.1-.04-.45.06-.78.22-.33.15-2.13.97-3.26.72l-.36-.08v.09 4.4c1.87.17 5.79-.24 8.7-.91v-2.74-.31c-.17-.49-.12-1.28-.08-1.36zM21.01 98.71h-.31c-.42.08-.78.25-.78.38s-.64.3-.85.37c-.21.09-.39.23-.39.31s-.8.52-1.01.6c-.21.09-.39.29-.39.46s-.35.44-.78.61v1.06 4.1c1.03.09 5.1-.15 5.83-.53.72-.37 2-1.75 2.25-2.13.25-.37.04-2.73-.46-5.24 0 .01 0 .01-3.11.01zm21.05 2.13c.39-.34.09-2.43-.47-2.81-.55-.38-1.01-.75-1.01-.83 0-.09-.42-.15-.93-.15s-1.73.74-1.94.9c-.22.17.07 3.37.62 3.42.55.04 3.35-.2 3.73-.53zM9.98 75.64c0-.17-.07-.31-.16-.31-.08 0-1.83-1.16-3.88-2.58H4.7 3.45c-1.53.84-2.97 1.91-3.18 2.58-.22.67-.33 1.22-.24 1.22.08 0 .81 1.31 1.24 1.6s.77.7.77.91 1.19.52 2.64.68h1.4 1.09c.51-.58 1.07-1.06 1.24-1.06s.31-.07.31-.15.15-.15.31-.15c.18 0 .57-.13.7-.3.14-.18.25-.66.25-1.08 0-.41.07-1.06.15-1.06-.09 0-.15-.14-.15-.3zm3.41-10.33c-.6 0-1.08.07-1.08.15s-1.92 1.16-2.18 1.83c-.25.67.68 4.45 1.71 4.7l1.86.38c0-.04.03-.11.08-.15.04-.04.42-.08.85-.08s.78-.14.78-.31.35-.68.77-1.14c.43-.45-.14-3.15-.69-3.94-.56-.79-1.5-1.44-2.1-1.44zM103.5 32.6c0 .12-.29.23-.63.23s-.62-.1-.62-.23-.26-.01-.39.08c-.13.08-.31.15-.39.15s-.16-.1-.16-.23-.28-.23-.62-.23-.62.1-.62.23c0 .12-.52.23-1.16.23s-1.16.07-1.16.15-.21.15-.47.15c-.25 0-.46.08-.46.16s-.21.15-.47.15-.47.07-.47.15-.21.15-.47.15-.46.07-.46.15c0 .09-.64.22-.86.3-.21.09-.39.23-.39.31 0 .09-.31.15-.7.15-.38 0-.7.07-.7.15s-.7.15-1.55.15-1.55.07-1.55.15c0 .09-.31.09-.31 0s-.63-.15-1.4-.15-2.21-.63-2.65-.84c-.42-.21-.78-.52-.78-.68 0-.17-.14-.31-.31-.31s-.64-1.1-.85-1.52c-.21-.41-.13-3.62 0-4.7l.13-1.63c0-.22-.02-.34-.05-.34-.08 0 .04-1.13.08-1.6.04-.46 0-.83-.08-.83s-.16-.41-.16-.92c0-.49-.07-.91-.16-.91-.08 0-.16-.44-.16-.99 0-.54-.07-.99-.15-.99-.09 0-.01-.47.15-1.06v-.76-.76c-1.71-2.17-6.02-2.79-6.91-1.75-.9 1.05-1.63 2.24-1.63 2.66 0 .41.07.75.15.75.09 0 .16.07.16.15s-.07.15-.16.15c-.08 0-.15.44-.15.99 0 .53.07.99.15.99.09 0 .16.2.16.45s.07.46.16.46c.08 0 .16.13.16.3s.06.3.15.3.09.98 0 1.06c-.09.09-.09.16 0 .16s.16.41.16.92c0 .49.07.9.15.9.09 0 .16.28.16.61 0 .34.07.61.16.61s.15.51.15 1.14c0 .64.08 1.14.16 1.14.09 0 .35 1.06.39 1.43.04.38.15.69.23.69.09 0 .09.72 0 .69-.09-.04-.16-.01-.16.08 0 .08.07.15.16.15s.16.21.16.45c0 .26.07.46.16.46.08 0 .02.64-.16.68-.17.04-.31.21-.31.38s-.07.31-.15.31c-.09 0-.16.13-.16.3 0 .16-.07.3-.16.3-.08 0-1.05 1.36-1.4 1.52-.34.17-.62.38-.62.45 0 .09-.14.16-.31.16s-.5.26-.55.38c-.04.12-.39.22-.78.22-.38 0-.7.07-.7.15 0 .09-.14.15-.31.15s-.31.07-.31.15-2.59.49-5.75.91h-3.11-4.97c.43-1.25.78-2.49.78-2.73 0-.25-.45-.83-.62-.92-.17-.08-.32-.28-.32-.46 0-.16-.07-.3-.15-.3-.09 0-.3-.21-.47-.46-.17-.26-.45-.46-.62-.46s-.31-.1-.31-.23-.14-.23-.31-.23-.5-.25-.54-.37c-.05-.13-.29-.23-.55-.23-.25 0-1.3-.21-2.32-.46h-.78-1.86c-1.88.84-3.42 2.21-3.42 3.04 0 .84.07 1.52.16 1.52.08 0 .16.14.16.31s1.4 1.84 1.78 2.43-1.62 3.57-3.49 3.87l-3.73.53c-.17 0-.31.07-.31.15 0 .09-.77.84-1.71 1.67v1.82.45c.08.34.22.61.32.61.08 0 .22.88.31 1.22s-1.18 4.09-1.86 5.39l-1.25 2.66c0 .17-.07.3-.15.3-.09 0-.42.44-.55.61-.13.16-.37.3-.54.3s-.57.44-.7.61c-.13.16-.37.3-.54.3s-.5.41-.54.53c-.05.12-.29.22-.55.22-.25 0-.46.08-.46.15 0 .08-1.32.63-1.78 1.21-.47.59-1.21 1.07-1.63 1.07-.43 0-.78.14-.78.3 0 .17-1.71 1.13-2.09 1.59-.39.46-.71.9-.71.99 0 .08-1.12.34-1.55.38-.43.05-.77.18-.77.31 0 .12-.21.22-.47.22-.25 0-.65.25-.69.38-.05.12-.36.23-.71.23-.34 0-.62.07-.62.15s-.9.85-1.24 1.14-.03 1.74.31 1.74.62.08.62.16c0 .09.35.15.77.15.43 0 .78.07.78.15s.21.15.46.15 2.27 1.12 2.57 1.74c.29.63.61 1.14.69 1.14.09 0 .16.34.16.76s.26.95.39.98c.13.05.23.15.23.23s.21.15.46.15.46.08.46.15c0 .08.14.22.31.31h.15.93c.61-.59 1.37-1.06 1.71-1.06s.62-.07.62-.15.15-.14.31-.14c.18 0 .31-.08.31-.15 0-.09.53-.16 1.17-.16s1.16-.07 1.16-.15.21-.22.47-.31h.32 1.4c.01.01.02.02.03.02.73-.12 1.56-.07 2.53.29 2.82 1 4.38 2.81 2.76 7.14l-.09.26c.24.56.92 1.77.99 2.32.09.67.22 1.21.31 1.21s.16.14.16.3c0 .17.07.31.15.31.09 0 .16.31.16.68s.85 1.43 1.32 2.36c.47.92.86 1.87.86 2.12s.5 1.14.93 1.59c.42.46.63 2.65.46 3.19s-.38.98-.46.98c-.09 0-.16.48-.16 1.07 0 .58-1.09 1.73-1.09 1.97 0 .26-.07.47-.16.47s-1 2.92-2.02 3.71c-1.03.8-5.05 2.92-6.29 3.42l-.44.18c1.78.09 3.96.5 4.29.62.5.18.88.41.85.52-.04.1.1.24.3.32.2.07.39.26.4.42.02.16.22.65.43.72.2.07.38.26.4.42.01.09.34.93.58 1.92.06-.1.1-.19.1-.24 0-.17.7-.85 1.55-1.52v-1.37-.46c-.17-.33.12-2.18.46-2.43s.97-.45 1.4-.45.78.1.78.23c0 .12.77.22 1.71.22a9.29 9.29 0 0 0 1.15-.06c.22-.33.5-.59.73-.67l.4-.14c.02-.05.04-.12.04-.19 0-.17.08-.3.16-.3s.16-.14.16-.3c0-.17.07-.3.16-.3.08 0 .57-.44.7-.61s1.85-.12 2.49-.07c.64.04 1.17.15 1.17.22 0 .09.13.15.31.15.17 0 .31.07.31.15 0 .07.53.24.87.33.07-.05.1-.1.1-.15-.02-.15.03-.54.13-.51.1.04.31-.26.46-.67s-.01-1.66-.35-2.78l.27-.75.18-.47c.96-1.13 1.9-1.99 2.1-1.91.21.07.4.05.44-.06.03-.1.32-.09.62.01.3.11.58.11.62.01s.32-.09.62.02 1.14-.04 1.86-.32 2.72-1.32 3.03-2.14l-2.84-.46c-1.41-.23-2.58-1.15-3.09-2.45-.51-1.29-.29-2.76.58-3.85l11.81-14.67 32.31-40.19c-.47-.28-.92-.52-1.18-.53-.81-.06-1.47.01-1.47.14zM66.7 78.63c-.83 1.6-3.61 2.95-3.64 3.05-.04.1-.23.13-.45.06-.2-.08-.84-.11-1.42-.09s-2.52 1.21-2.72 1.13c-.2-.07-.6.17-.89.52-.29.36-1.29 1.22-1.59 1.11-.31-.11-.65-.77-.77-1.47s-1.19-2.18-1.39-2.25-.33-.22-.3-.32c.04-.1-.31-.35-.77-.56-.46-.2-2.4-3.64-2.71-4.68-.3-1.03-.33-2.29-.06-2.82.27-.52.9-1.92.8-1.96s.06-.74.37-1.55c.3-.81 1.01-1.54 1.57-1.61s1.81-.73 1.88-.94a.62.62 0 0 1 .55-.36c.22.01.89-.15.97-.35.08-.21.52-.3.98-.21s2.34-.71 2.84-.52c.51.18.95.24.99.14.04-.11.15-.16.25-.12s.15.15.12.25c-.04.1.59.42 1.4.71.82.28 1.45.61 1.4.71-.03.1.18.27.49.38.3.11.52.28.48.38s.1.25.3.32c.2.08.81.6 1.36 1.19.55.58 1.07 2.62 1.16 2.65.1.04.09.32-.02.63s-.12.58-.02.62c.1.03.07.4-.09.81-.15.41-.19.84-.08.95.11.12.34.59.26.79-.08.21-.05.41.05.44.11.04-.48 1.37-1.3 2.97zm42.28-69.57c0-.15-.06-.27-.14-.27-.06 0-.11-.16-.13-.39-.01-.05-.01-.11-.01-.16 0-.31-.06-.54-.14-.54s-.14-.35-.14-.76c0-.42-.06-.76-.14-.76s-.14-.12-.14-.28c0-.15-.07-.27-.14-.27-.08 0-.66-.74-.77-.96s-.34-.41-.49-.41-1.32-1.62-1.9-1.92-1.05-.65-1.05-.75c0-.12-.32-.21-.7-.21-.39 0-1.28-.63-1.48-.9-.19-.26-.73-.48-1.19-.48-.47 0-.84.07-.84.14 0 .08-1.77.31-2.39.34-.61.04-1.12.13-1.12.21 0 .07-.58.31-.77.34-.2.04-.35.13-.35.21s-.13.14-.28.14-.59.37-.99.82h-.28c-.15 0-.42-.14-.7-.14h-.29c-.23.15-.42.34-.42.42 0 .07-1.19.99-1.26 1.37-.08.38-.2.68-.28.68s-.14.19-.14.41c0 .23-.24.58-.35.62s-.21.2-.21.34c0 .16-.06.28-.14.28-.07 0-.14.13-.14.28s-.06.27-.14.27-.14.27-.14.61c0 .35-.06.62-.14.62s-.14.19-.14.41c0 .23-.06.42-.14.42s-.21.18-.28.41v.14.69c.23.53.49.96.56.96.08 0 .14.65.14 1.44s.06 1.44.14 1.44.14.19.14.41c0 .23 1.08 1.38 1.19 1.72.12.34.27.62.35.62.05 0 .26.24.45.45l.25.3c.15.19.4.35.56.35.15 0 2.28 1.97 3.02 1.85.73-.11 1.33-.11 1.33 0 0 .12.38.2.85.2.46 0 .84.07.84.14s.28.13.63.13c.34 0 .63-.06.63-.13s.32-.14.7-.14.7-.09.7-.2.13-.21.29-.21c.15 0 .28-.06.28-.14s.99-.2 1.33-.27c.34-.08.63-.2.63-.27 0-.08 2.62-1.13 2.74-1.86.11-.72.27-1.3.34-1.3.08 0 .39-.61.7-.69.31-.07.56-.2.56-.28s.13-.14.28-.14.69-2.52.84-3.43.22-1.65.14-1.65c-.06 0-.12-.12-.12-.27zm37.87 41.68c-.09 0-.16-.07-.16-.15 0-.09-.52.03-.77.08-.06 0-.15-.08-.26-.2-.4-.45-1.05-1.5-1.45-1.7-.1-.04-.18-.09-.26-.13-.19-.1-.35-.2-.47-.28-.12-.09-.2-.15-.2-.19 0-.09-.28-.15-.62-.15s-.62-.06-.62-.15c0-.02-.31 0-.74.06-1 .13-2.69.45-2.99.86-.19.26-.36.52-.49.75l.07.07 3.18 3.05 1.17 1.13.54.52c.09-.02.21-.05.34-.05.25 0 .46-.07.46-.15s.21-.15.47-.15c.09 0 .24-.09.39-.21.28-.21.59-.54.61-.78.05-.37.15-.68.24-.68.08 0 .34-.25.38-.38s.29-.23.54-.23c.26 0 .47-.07.47-.16 0-.08.43-.52.39-.6-.03-.12-.14-.18-.22-.18z" fill="#fff"/><path d="M199.86 105.01c0-.23-.4-.59-.54-.67-.16-.08-.28-.32-.28-.54 0-.21-.4-.59-.55-.66s-.37-.4-.48-.73-.39-.6-.62-.6-1-.77-1.23-1.07c-.23-.29-.6-.53-.82-.53-.23 0-.61-.39-.68-.53-.08-.15-.32-.27-.55-.27-.22 0-.61-.39-.68-.53s-.59-.35-1.16-.47c-.56-.12-1.02-.29-1.02-.4s-.83-.2-1.84-.2c-1.02 0-2.05-.39-2.12-.53-.08-.14-.33-.27-.55-.27-.23 0-.41-.08-.41-.2 0-.11-.59-.39-.82-.46s-.41-.32-.41-.54a.41.41 0 0 0-.41-.4c-.23 0-.5-.27-.61-.6-.12-.33-.3-.6-.41-.6s-.21-.18-.21-.4-.09-.4-.2-.4c-.05 0-.1-.11-.15-.28v-.05c-.03-.17-.05-.41-.05-.67 0-.56-.1-1.18-.21-1.41-.03-.05-.47-.19-1.08-.38l-1.44-.45-.31-.11c-.76-.26-1.53-.56-2.1-.89a4.29 4.29 0 0 1-.03 1.13c-.02.08-.03.17-.05.27a4.02 4.02 0 0 1-.88 1.64 4.14 4.14 0 0 1-1.06.84c-.25.14-.52.26-.8.34l-.65.2-3.35.98-1.15.34-5.49 1.62-.25 6.38-1.19 31.19c.77-.27 1.59-.43 2.46-.46l3.24-.12c1.25-1.83 2.57-3.57 3.95-5.2a7.83 7.83 0 0 1 2.16-1.8c1.41-.8 3.02-1.21 4.78-1.21.71 0 1.46.07 2.29.21 1.17.2 2.48.53 4.04 1.04 1.3.44 2.46 1.19 3.39 2.18 1.97 2.11 2.78 4.25 3.08 5.96l.58-.04a15.44 15.44 0 0 1 1.64.09c.45.06.9.15 1.34.28.38-.09.62-.17.62-.23 0-.12.8-.78 1.1-1 .3-.23.55-.85.55-1.4 0-.56-1.04-2.44-1.98-3.2-.94-.77-1.62-1.77-1.5-2.2.11-.45.3-.8.41-.8s.08-.64-.07-.93.4-1.38 1.23-2.4c.82-1.03 1.5-2.5 1.5-3.27s-.1-1.41-.21-1.41c-.05 0-.24-.29-.48-.65-.32-.47-.74-1.05-1.08-1.21-.6-.3-1.29-2.27-1.36-2.93-.08-.67.45-1.39.68-1.47.22-.07.41-.22.41-.33s1-.68 1.23-.93c.22-.26.59-.47.82-.47.22 0 .41-.1.41-.2 0-.11.79-.79 1.09-1.01.29-.22.54-.67.54-.99 0-.33.09-.6.2-.6s.2-.45.2-1-.09-1-.2-1c-.13 0-.22-.18-.22-.39zm14.54 12c-.79-1.1-1.9-2.1-2.46-2.21s-1.02-.29-1.02-.4c0-.12-3.17.19-4.37.33-1.2.15-2.67 1.55-2.93 1.8-.26.26-.57.47-.68.47-.12 0-1.01 1.66-1.16 2.07-.08.2-.1.74-.07 1.41a20.38 20.38 0 0 0 .21 2.05c.14.96 1.03 2.2 1.66 3l.65.8c.08.15.33.27.55.27s.61.39.68.53c.08.15.32.27.55.27.22 0 .41.09.41.19 0 .12.46.21 1.03.21.56 0 5.65-.81 6.48-1.8.82-.99 1.7-4.31 1.77-5.26s-.51-2.63-1.3-3.73zm-41.89-47.75c.39 0 .71.82.71 1.82h.46.47c.26-.25.46-.76.46-1.14 0-.37.42-1.09.93-1.6v-.46-.45c-1.28-.5-3.01.41-3.27.91-.25.51-.15.92.24.92zm-14.72-3.42c0-.38-.62-.28-1.4.23h-.92-.38l3.36 3.22c.1-.88-.32-2.77-.42-2.77-.13.01-.24-.3-.24-.68zm23.82 5.47c0 .38 1.44-.13 3.23-1.11.01-.01.03-.02.04-.03v-1.83-.46c-.25-.76-.77-1.37-1.16-1.37a.7.7 0 0 1-.7-.69c0-.38-.94-.69-2.1-.69-.24 0-.5.05-.74.13-.95.31-1.89 1.15-2.29 2.15v.45 1.37c2.04.78 3.72 1.71 3.72 2.08zm-7.87 12.63l3.02 2.89a2.2 2.2 0 0 1 .2.23l-.03-1.65c0-.22-.09-.4-.21-.4-.11 0-.8-.77-1.02-1.06-.12-.18-1.05-.16-1.96-.01z" fill="#fff"/><path d="M78.2 111.06l-2.97-15.2-7.85-1.26c-.31.82-2.31 1.86-3.03 2.14s-1.56.43-1.86.32c-.31-.11-.59-.12-.62-.02-.04.1-.32.1-.62-.01s-.58-.11-.62-.01c-.04.11-.24.13-.44.06s-1.15.78-2.1 1.91l-.19.49-.27.75c.34 1.12.5 2.37.35 2.78s-.36.71-.46.67c-.1-.03-.14.36-.13.51.01.05-.03.1-.1.15-.19.16-.58.34-.67.43-.12.11-.38.14-.58.07-.21-.07-.69.17-.8.27-.12.11-.91.05-1.76-.13-.85-.19-1.58-.26-1.61-.15-.03.07-.53.28-.93.44l-.4.14c-.24.08-.52.34-.73.67-.09.15-.18.3-.24.46-.19.51.09 2.58.67 3.6s.84 2.15.59 2.52c-.25.38-.54.65-.64.61-.1-.03-.3.57-.26.89.03.32-.84 1.15-1.94 1.83-1.1.69-2.21 1.84-2.48 2.55s-.4 1.32-.3 1.36.33 1.76.76 2.23c.45.46.38 2.52.21 3.16-.16.64-.89 1.15-1.12 1.14-.23 0-.45.08-.49.18s-1.14.31-1.43.47c-.29.17-.69.25-.9.17-.2-.08-.4-.05-.44.05-.04.11-.98.47-1.33.58-.34.11-.71.45-.84.75-.11.31-.29.52-.39.49s-.34.35-.53.86-.26.95-.16.99c.1.03.12.24.04.44-.02.06-.01.12 0 .21 1.45-1.57 3.49-2.54 5.73-2.6h.39c4.05 0 7.39 1.83 9.23 4.75.1-.52.23-1.02.36-1.5.69-2.48 2.56-4.39 4.93-5.26.62-.23 1.28-.4 1.97-.48.5-.05.98-.08 1.43-.08 2.76 0 5.19.92 7.03 2.49 1.83 1.57 3.06 3.78 3.43 6.4 2.52-.62 5.25-.38 7.93.74.37.15.73.34 1.09.52.26-.28.56-.54.88-.8l-4.79-24.74zM32.09 80.89c-.03.1.1.25.3.32s.41.55.43.71c.01.16.28.38.58.49s.52.28.48.38 2.73.24 6.15.3c0 0 .01-.02.65-1.72l.09-.26c1.62-4.33.07-6.14-2.76-7.14-.97-.35-1.8-.41-2.53-.29-2.04.34-3.15 2.09-3.46 2.91l-.42 1.11.35 2.79c.12.12.18.3.14.4zm7.93 38.43c.1.04 1.48-1.22 1.75-1.55.12-.14.29-.54.47-1.05.21-.62.44-1.41.61-2.21.15-.66 0-1.55-.19-2.35-.24-.98-.57-1.83-.58-1.92-.02-.17-.2-.35-.4-.42-.21-.07-.42-.56-.43-.72s-.2-.35-.4-.42c-.2-.08-.33-.21-.3-.32.04-.1-.34-.33-.85-.52-.34-.12-2.51-.53-4.29-.62-.95-.05-1.79-.01-2.16.21-1.08.65-3.02 3.46-3.42 4.32s-.46 2.6-.12 3.88c.33 1.27.98 2.55 1.45 2.83s.83.59.78.7c-.03.08 2.39.7 3.69 1l.36.08c1.13.25 2.93-.57 3.26-.72.32-.14.66-.24.77-.2zm12.74-39.49c.46.21.81.45.77.56-.03.1.1.25.3.32s1.26 1.55 1.39 2.25.47 1.35.77 1.47c.3.11 1.31-.76 1.59-1.11.29-.36.69-.59.89-.52.2.08 2.14-1.11 2.72-1.13s1.22.02 1.42.09c.21.07.4.04.45-.06.03-.1 2.81-1.45 3.64-3.05.82-1.59 1.41-2.93 1.31-2.96s-.12-.23-.05-.44c.08-.2-.16-.67-.26-.79-.11-.11-.07-.54.08-.95.16-.41.19-.78.09-.81-.1-.04-.09-.31.02-.62.12-.31.12-.59.02-.63-.1-.03-.61-2.07-1.16-2.65s-1.16-1.11-1.36-1.19c-.2-.07-.34-.22-.3-.32s-.18-.27-.48-.38c-.31-.11-.52-.28-.49-.38.04-.1-.59-.43-1.4-.71-.81-.29-1.44-.61-1.4-.71.03-.1-.02-.22-.12-.25-.1-.04-.22.02-.25.12-.04.1-.48.04-.99-.14-.5-.19-2.38.61-2.84.52s-.91 0-.98.21c-.08.21-.74.36-.97.35-.23 0-.48.16-.55.36-.08.21-1.32.88-1.88.94-.56.07-1.27.8-1.57 1.61-.31.82-.47 1.52-.37 1.55s-.53 1.43-.8 1.96c-.27.52-.24 1.78.06 2.82.29 1.03 2.24 4.47 2.7 4.67z" fill="#fff"/><path d="M121.91 176.26l-1.17-.08m8.63-1.07l-.86.34"/><path d="M216.3 160.06c-.58-2.23-2.14-4.1-4.24-5.11-1.65-.79-3.18-1.41-4.64-1.89l-.02-.5c-.11-2.84-.57-5.76-1.35-8.68a7.94 7.94 0 0 0-.77-1.86c-1.51-2.61-3.89-4.66-7.09-6.13l-1.68-.7c-.18-.06-.36-.1-.54-.15a7.79 7.79 0 0 0-1.34-.28 15.44 15.44 0 0 0-1.64-.09c-.2 0-.38.03-.58.04-.31-1.71-1.12-3.85-3.08-5.96a8.23 8.23 0 0 0-3.39-2.18c-1.55-.51-2.86-.85-4.04-1.04-.83-.14-1.57-.21-2.29-.21-1.76 0-3.37.41-4.78 1.21a7.83 7.83 0 0 0-2.16 1.8c-1.38 1.63-2.7 3.37-3.95 5.2l-3.24.12c-.87.03-1.68.19-2.46.46l1.19-31.19.25-6.38 5.49-1.62 1.15-.34 3.35-.98.65-.2c.28-.08.55-.2.8-.34a4.14 4.14 0 0 0 1.06-.84c.41-.47.73-1.02.88-1.64l.05-.27c.06-.38.08-.76.03-1.13v-.04c-.1-.76-.44-1.48-.97-2.08-.06-.08-.13-.15-.2-.23l-3.02-2.89-15.29-14.64-3.36-3.22-11.04-10.58-1.27-1.21-.54-.52-1.17-1.13-3.18-3.05-.07-.07-1.33-1.27-.38-.36-.85-.82-19.63-18.8a4.09 4.09 0 0 0-3.07-1.12c-1.14.08-2.19.62-2.9 1.5l-3.48 4.33-32.33 40.19-11.81 14.67c-.87 1.09-1.1 2.56-.58 3.85.52 1.3 1.69 2.23 3.09 2.45l2.84.46 7.85 1.26 2.97 15.2 4.83 24.76c-.32.26-.62.52-.88.8l-1.09-.52c-2.67-1.12-5.41-1.36-7.93-.74-.36-2.62-1.6-4.83-3.43-6.4-1.84-1.57-4.27-2.49-7.03-2.49-.45 0-.93.03-1.43.08-.69.08-1.34.25-1.97.48-2.38.87-4.24 2.79-4.93 5.26l-.36 1.5c-1.84-2.92-5.18-4.75-9.23-4.75h-.39c-2.24.07-4.28 1.04-5.73 2.6-.67.72-1.23 1.57-1.59 2.53-.73 1.94-1.21 3.94-1.39 5.91-.01.09-.02.17-.02.25-1.45 1.64-2.9 4.47-1.95 8.86.3 1.38.97 2.65 1.92 3.66 0 .13.01.25.02.38a97.87 97.87 0 0 0 .4 4.77c.2 1.85 1.06 3.57 2.44 4.86 2.67 2.5 5.48 3.02 7.37 3.02.12 0 .25-.02.37-.02.53-.02 1.06-.07 1.58-.17.37-.07.74-.17 1.1-.29.78-.27 1.48-.62 2.11-.99 2.03-1.21 3.3-2.88 3.9-4.69h.83a2.16 2.16 0 0 1 .05.27c.15.82.45 1.59.85 2.32.42.76.97 1.45 1.64 2.05.11.1.2.21.32.3.69.57 1.39.99 2.07 1.34 1.48.75 2.88 1.05 4.02 1.14a9.79 9.79 0 0 0 .75.03c.93 0 1.86-.13 2.76-.38a10.01 10.01 0 0 0 .92-.32c.62-.25 1.17-.56 1.69-.87.95.25 1.93.38 2.93.38.15 0 .31-.01.44-.01.04 0 .08-.01.12-.01.24.54.58 1.29.66 1.68.03.17.06.34.08.51.07.48.08.92.02 1.07-.08.21.8 1.21 1.95 2.23l1.47.53.98.35c1.2.28 2.24.33 2.32.13s.3-.31.5-.24c.21.07.73-.04.96-.15s.39-.12.36-.02c-.04.11.01.22.11.26.09.02.87-.66 1.34-1.13v10.42c0 3.57 3.09 6.46 6.91 6.46h56.51c3.81 0 6.9-2.89 6.9-6.46v-7.52c1.11-.79 2-1.83 2.57-3.06a63.93 63.93 0 0 1 1.08-2.21c.99 1.7 2.45 3.17 4.32 4.41 1.67 1.1 3.67 2.03 6.04 2.75.11.03.21.07.32.1a19.94 19.94 0 0 0 4.12.63 13.66 13.66 0 0 0 .64.01 11.45 11.45 0 0 0 1.65-.12 13.9 13.9 0 0 0 3.87-1.08.69.69 0 0 0 .15-.07c.69-.29 1.35-.6 1.99-.93.38.23.76.46 1.14.66a9.91 9.91 0 0 0 .89.38c.34.12.68.23 1.04.3 1.77.4 3.37.59 4.91.59 1.46 0 2.85-.18 4.13-.54.38-.09.72-.21 1.09-.31 3.29-.91 6.17-2.12 8.57-3.67.42-.07.85-.12 1.28-.19l3.54-.53c1.96-.31 3.73-1.32 4.97-2.83.67-.8 1.14-1.42 1.45-1.83 1.32-1.89 1.77-4.25 1.19-6.48z" fill="#fff"/><path fill="#fff" d="M104.81 98.67l3.5.59 6.31 1.05 2.24.37 2.24.38 2.13.35 2.34.4.57.09 1.59.27.2.03v.15l.01.19.06 1.16.06 1.13.95 17.23.46 8.31.16 2.96.19 3.35a17.46 17.46 0 0 1 4.51 1.2 25.45 25.45 0 0 1 2.41 1.17l.49-37.48.01-.79.01-.9.04-3.23c0-.01-.01-.02-.01-.03-.01-.14-.07-.28-.17-.37-.11-.11-.27-.17-.43-.16l-7.33.37-5.94.29-1.21.06-1.24.06-4.58.23h-.04l-7.8.39-1.66.08a.59.59 0 0 0-.55.53c-.02.27.19.53.48.57zm17.14 14.32h-.13c-.16 0-.31.03-.46.06-.48.11-.92.36-1.25.73a2.41 2.41 0 0 0-.64 1.75c.06 1.14.91 2.04 2 2.26a2.42 2.42 0 0 0 .47.04h.13c.32-.02.62-.1.9-.22.9-.4 1.51-1.31 1.46-2.33-.04-.6-.29-1.13-.69-1.54-.46-.46-1.09-.75-1.79-.75zm-.01 4.29h0 0 0zm-26.71 57.83h-2.39v3.56 3.25h1.18v-1.99h0 1.23c1.02 0 1.78-.19 2.28-.58.5-.38.75-.99.75-1.81 0-.83-.25-1.44-.73-1.83-.49-.41-1.27-.6-2.32-.6zm1.48 3.4c-.24.24-.68.36-1.33.36h-1.36v-2.73h1.19c.64 0 1.11.1 1.41.29.3.2.45.53.45.99-.01.49-.13.85-.36 1.09zm9.71.37c0 .62-.16 1.12-.48 1.48-.32.37-.75.54-1.3.54-.54 0-.98-.18-1.29-.54-.32-.36-.47-.86-.47-1.48v-3.77h-1.18v3.82c0 .98.28 1.73.83 2.26s1.26.79 2.12.79c.87 0 1.58-.26 2.13-.79s.82-1.29.82-2.26v-3.82h-1.17v3.77zm9.3-.5l.25-.11c.05-.02.13-.08.26-.17.35-.26.52-.67.52-1.19 0-.44-.16-.84-.48-1.19-.17-.19-.42-.34-.76-.45s-.75-.16-1.22-.16h-2.71v6.81h3.05c.95 0 1.62-.2 2.02-.63a1.81 1.81 0 0 0 .5-1.26c0-.43-.13-.79-.39-1.08-.27-.29-.61-.48-1.04-.57zm-2.98-2.21h1.51c.44 0 .75.07.96.21.2.15.31.38.31.71 0 .56-.43.84-1.28.84h-1.5v-1.76zm2.84 4.49c-.23.13-.56.2-.99.2h-1.85V179h1.7c.99 0 1.48.29 1.48.9 0 .37-.11.63-.34.76zm6.33-4.4v-1.15h-1.17v1.07 5.74h4.36v-1.09h-3.19zm6.6-1.15v.34 6.47h1.18v-6.81h-.32zm8.51.96c.4 0 .75.07 1.04.18.3.13.61.35.94.66l.75-.8c-.73-.78-1.63-1.18-2.71-1.18s-1.97.34-2.69 1.02c-.71.68-1.06 1.52-1.06 2.54 0 1.01.35 1.85 1.04 2.51.7.66 1.58.99 2.63.99s1.95-.4 2.69-1.2l-.77-.76c-.32.3-.62.51-.91.64s-.64.2-1.05.2c-.65 0-1.21-.23-1.69-.7-.48-.46-.71-1.04-.71-1.74 0-.69.24-1.26.72-1.7s1.07-.66 1.78-.66zm8.81 1.86c-.72-.17-1.18-.32-1.4-.47s-.32-.36-.32-.64c0-.27.11-.48.32-.62.08-.05.18-.08.27-.11.18-.05.36-.09.58-.09.35 0 .69.06 1.05.17a2.45 2.45 0 0 1 .54.25c.11.06.21.13.3.2l.14-.19.49-.67c-.32-.26-.69-.46-1.14-.61-.43-.14-.88-.22-1.32-.22-.69 0-1.27.18-1.74.52a1.07 1.07 0 0 0-.19.18c-.33.33-.51.75-.51 1.28 0 .63.21 1.1.62 1.4.2.16.44.3.71.39.26.1.66.21 1.17.33.51.13.87.25 1.08.41a.7.7 0 0 1 .31.61.72.72 0 0 1-.33.63c-.22.16-.53.24-.9.24-.76 0-1.5-.29-2.2-.9l-.74.87c.84.74 1.81 1.1 2.9 1.1.75 0 1.35-.19 1.8-.55.46-.37.68-.86.68-1.44 0-.6-.18-1.05-.54-1.35-.37-.31-.91-.55-1.63-.72zm-77.94-35.51l-.08.02-.08-.06c-.35-.12-.66-.14-.92-.08l-1.29.21-.61.07-.02-.61v-2.42l-.13-1.47-.13-1.53c-.13-1.19-.79-1.7-2.06-1.67-.29 1.18-.45 2.5-.47 3.93l.1 4.77.02.41-.38.14c-.9.35-1.78.6-2.63.74-2.13.37-4.38.51-6.7.44l-3.47-.07-1.69.02-.61.02.02-.6.17-2.4v-.03-2.98c-.01-1.21-.59-1.76-1.93-1.82-.4 1.14-.66 2.29-.76 3.42v.02c-.13 1.29-.19 2.58-.19 3.86v.52l-.53.04c-.55.04-.98.19-1.31.48-.21.17-.27.69-.13 1.42a6.07 6.07 0 0 0 1.53.58l.42.1.01.43.2 4.4.35 4.18c.53.45 1.04.62 1.54.53.31-.11.47-.21.56-.26h0l.01-.17c.28-.83.39-1.91.32-3.21l-.1-2.54-.08-2.48-.04-.58.6-.01 2.09-.1 1.49-.14c1.08-.13 2.09-.2 3.01-.2h.4c2.09.06 4.54-.22 7.36-.82l.62-.13.07.62.83 5.59.17 1.01.7 3.93.06.34c.57.41 1.09.54 1.6.4.32-.14.47-.24.55-.3l-.01-.01.04-.15c.02-.1.02-.18.03-.27.04-.31.03-.58-.06-.81-.19-.46-.32-1.02-.41-1.71l-.19-1.41-.29-2.6-.41-4.91-.03-.43.41-.14c1.61-.57 1.89-.99 1.94-1.1l.12-.18c.56-.57.79-1.1.67-1.65-.12-.33-.22-.5-.27-.59zm18.95 11.59l-.02-.36c-1.01-.82-1.98-1.83-2.89-3.04-1.05-1.39-2.09-2.97-3.08-4.69-1.01-.92-2.08-1.62-3.17-2.08-1.03-.43-1.94-.52-2.69-.23-1.19.39-2.27.97-3.23 1.73-.94.75-1.72 1.82-2.32 3.2a12.76 12.76 0 0 0-.27 5.39c.01.03.04.07.05.1.24.53.55 1.06.94 1.57.4.53 1.09 1.05 2.04 1.54.51.28 1.01.42 1.52.42h.11c.58-.02 1.19-.1 1.81-.22 1.63-.94 3.04-2.05 4.21-3.31a16.27 16.27 0 0 0 1.14-1.35l.35-.47.47.36c.67.52 1.41 1.01 2.19 1.47l.33.21a16.26 16.26 0 0 0 2.74 1.28c.06.01.13.03.21.03a2.49 2.49 0 0 1-.24-.56c-.11-.37-.16-.68-.2-.99zm-12.36.55c-.35.29-.73.43-1.13.43-.35 0-.71-.11-1.06-.34a2.27 2.27 0 0 1-.6-.64c-.56-.85-.49-2.06.21-3.62.81-1.82 1.56-3 2.26-3.61 1.25-1 2.44-1.4 3.53-1.23l.16.02.13.11c.92.78 1.21 1.78.85 2.89-.64 1.34-1.56 2.83-2.76 4.51l-.98.93-.61.55zm20.66-5.37l1.59-2.01c.08-.12.26-.41.62-.41h.29l.18.22c.2.26.24.44-.35 2.42l-.05.11c-.76 1.35-1.31 2.86-1.66 4.48l-.23 1.21c-.06.51.02 1.28 1.26 1.87.25.17.5.29.76.36.13-.19.32-.36.48-.51.35-.28.73-.45 1.14-.52l.17-1.53.1-.89.09-.85.94-3.02.18-.59c0-.58.03-1.14.15-1.68.09-.72.3-1.46.56-2.2-.2-.89-.73-1.65-1.61-2.26-.34-.12-.73-.19-1.16-.23-.45-.04-1.1.05-1.92.26-.75.28-1.53 1-2.25 2.11l-1.57 2.62-1.45 2.93.35-3.23c.04-.31.16-1.01.4-2.15.27-1.34.12-1.63.12-1.65l-.09-.19a3.25 3.25 0 0 0-.48-1.06c-.02-.03-.05-.06-.08-.09-.18-.21-.48-.42-.89-.61-.09-.04-.17-.09-.27-.12l-.13-.07c-.36-.28-.66-.32-1-.15-.08.04-.17.08-.26.15-.33.18-.51.31-.63.41-.14.13-.17.2-.17.2 0 .03.04.09.05.11.59 1.08.87 2.14.87 3.2l-.45 3.91c-.12.92-.34 2.03-.67 3.28l-.14.55v.03l.04.39c.01.05.01.1.02.16.03.16.06.33.12.51.08.3.29.61.59.92.08.08.13.16.23.25.12.06.33.1.59.11.19.02.41 0 .63-.03.04-.01.09-.01.14-.02.81-.16.9-.39.9-.39.49-.87.58-1.17.6-1.26.01-.08.06-.18.08-.26.06-.23.11-.45.22-.7.15-.34.42-.81.84-1.41l2.21-2.68zm16.89 10.95l.13-2.19.07-3.17-.01-.76-.01-.42-.1-3.87c.04-1.72.5-3.46 1.32-5.21.06-.14.11-.28.19-.42-.57-1.27-1.51-2.22-2.86-2.9-.23-.13-.44-.22-.64-.31-.47-.2-.87-.3-1.19-.31h-.01c-.54 0-.98.06-1.37.18-.78.28-1.48.64-2.07 1.04-.61.42-1.15.87-1.61 1.36a12.93 12.93 0 0 0-1.33 2.62c-.29.76-.5 1.54-.6 2.3-.12.53-.14 1.08-.13 1.66.02.72.14 1.47.37 2.26.25.67.62 1.13 1.15 1.39.52.25 1.05.46 1.58.64l.21.08c.17-.01.32-.04.46-.08.49-.11.89-.31 1.22-.62a7.14 7.14 0 0 1 1.99-1.35l.85-.39-.03.92-.03 1.45-.01 3.21v.19l-.01.53c-.02 1.4-.18 2.72-.46 3.93l-.12.51-.06.14c-.78 1.26-1.82 1.43-2.66.53a16.42 16.42 0 0 1-1.91-1.18c-.5-.37-.96-.75-1.36-1.14l-.17-.19c-.73-.75-1.44-1.62-2.1-2.6l-.12-.17c-.22-.13-.47-.21-.77-.24a.36.36 0 0 0-.11-.02c-.26.01-.47.07-.69.17-.08.04-.18.07-.26.14a.79.79 0 0 0-.13.13l-.13.14h0c.03.09.09.25.24.54.19.41.42.76.72 1.08l.98 1.11 1 1.03c.01.01.02.01.02.03.74.69 1.53 1.31 2.35 1.83l3.87 2.28c.87.38 1.83.45 2.76.13.48-.97.85-1.93 1.07-2.89l.28-1.36.23-1.76zm-3.29-12.98c-.19.52-.42 1.04-.68 1.54-.51 1.17-1.43 2.07-2.7 2.68l-.68.33-.14-.73a8.4 8.4 0 0 1 .09-3.49c.46-1.14 1.26-2.23 2.43-3.34l.2-.12c.81-.29 1.34-.03 1.55.2.27.29.35.71.28 1.3-.03.52-.15 1.09-.35 1.63zm71.35 14.48l-.3.1-2.71 1.48c-.3.16-.65.31-1.01.44-.75.28-1.64.49-2.69.65-.42.04-.72-.16-.92-.59-.13-.3-.1-.92.07-1.83l.32-1.48.29-.95.47-1.5 1.35-3.83c.02-.03.03-.07.04-.1l2.32-6 .43-.83.48-.85 3.46-.46 3.48-.47.75-.46.72-.47-.52-.72-.52-.72a41.49 41.49 0 0 0-4.69-1.2l3.63-5.42c-.03-.8-.42-1.6-1.17-2.39-2.42-.8-3.91-1.03-4.48-.71-2.01 2.38-3.86 4.98-5.56 7.82l-7.61.36c-.06.81-.05 1.54 0 2.22-2.22-.08-3.92.21-5.05.93a26.21 26.21 0 0 0-3.42 2.55 12.66 12.66 0 0 1-1.79 1.38c-.7.46-1.3.91-1.77 1.35.15-1.11.16-1.82.01-2.14-.14-.31-.3-.62-.49-.93-1.38-1.35-2.88-1.82-4.49-1.39l-.33.76c-.1.21-.2.44-.28.72l-.12 3.85-.1 3.22v.65c-.09 1.1-.28 2.2-.5 3.28a27.41 27.41 0 0 1-.99 3.48c-.48-.14-.99-.15-1.54 0-1.31-.94-2.57-2.11-3.79-3.48l-1.54-1.86-1.51-2.07-3.42-5.36c-1.73-1.58-3.54-2.76-5.43-3.54-.4-.16-.79-.29-1.17-.39-1.41-.39-2.68-.4-3.8 0a17.14 17.14 0 0 0-1.77.7c-.15.06-.29.14-.43.2-1.13.55-2.21 1.2-3.2 1.98-.21.16-.39.36-.6.54-1.06.96-1.98 2.16-2.75 3.62l-.62 1.21-.22 1.04c-.3 1.32-.48 2.63-.52 3.93-.05 1.32.03 2.63.25 3.93l.02.2c.42.99 1 1.96 1.73 2.91.73.94 1.91 1.83 3.54 2.68 1.01.56 2.04.81 3.08.78 1.05-.04 2.11-.18 3.18-.41 3.05-1.73 5.62-3.79 7.7-6.16l1.23-1.51 1.9 1.34.26.17 1.94 1.19.37.2c1.35.75 2.73 1.39 4.17 1.89a8.89 8.89 0 0 0 1.6.26c.14 1.15.7 2.18 1.73 3.11 1.02.13 1.78.09 2.28-.12l1.5-.66.73-1.52 2.3-4.35 2.35-3.93.2-.31c.82-1.28 1.74-2.47 2.72-3.62 1.53-1.79 3.22-3.43 5.12-4.89l3.18-.45c.69-.12 1.39-.3 2.09-.53l-.13.27c-.1.16-.17.32-.24.48-.93 1.55-1.64 3.09-2.15 4.62l-.16.51-1.14 3.93c-.01.05-.03.11-.04.15-.12 1.05-.17 2.09-.16 3.15 0 .21.04.41.05.63l.09 1.02c.07.5.17.99.31 1.48.68 1.7 2.69 3.06 6.04 4.08.81.21 1.63.34 2.45.37a4.78 4.78 0 0 0 1.88-.28l.62-.24a18.69 18.69 0 0 0 3.4-1.79l.18-.11a33.03 33.03 0 0 0 2.9-2.27c.56-.8.4-1.59-.45-2.39-.77-.47-1.65-.49-2.62-.13zm-56.94.54c-.74.6-1.53.63-2.39.08a3.95 3.95 0 0 1-.42-.37c-.81-.87-.93-2.19-.38-3.93a10.8 10.8 0 0 1 .51-1.33l1.31-2.6c.68-1.2 1.31-2.07 1.91-2.63l.15-.14c1.77-1.38 3.4-1.96 4.91-1.74 1.19 1.01 1.55 2.22 1.08 3.61-.13.29-.31.6-.47.9l-.84 1.49-1.54 2.44-1.44 2.06-2.04 1.87a2.45 2.45 0 0 0-.35.29z"/><path fill="#fff" d="M203.6 160.16c-1.44-.35-3.26-.54-5.47-.57.91-2.2 1.32-4.44 1.23-6.71-.09-2.29-.46-4.61-1.1-6.99-.81-1.4-2.33-2.51-4.57-3.32-.41-.05-.77-.05-1.1-.02-.93.08-1.52.47-1.75 1.17.13.45.2.89.18 1.34a3.98 3.98 0 0 1-.26 1.34l-.94 2.69a10.34 10.34 0 0 1-4.42 2.63c-.55.16-1.13.29-1.73.37-2.39.32-4.74.52-7.02.58.06.5.2.93.38 1.34.37.86.97 1.53 1.83 2.02 1.06.6 2.48.92 4.3.92l.78-.03c1.81-.08 3.46-.33 4.9-.77 1.65-.49 3.19-1.61 4.64-3.35.17 2.66.04 4.5-.4 5.53a25.55 25.55 0 0 1-1.48 3.02c-.89.67-2.33 1.13-4.33 1.4-1.49.2-2.56.55-3.19 1.04-.21.16-.37.34-.48.54.1.38.26.77.48 1.14s.5.75.84 1.12c.68.74 1.34 1.27 1.98 1.6 2.12.46 3.85.51 5.18.12 3.63-.87 6.49-2.16 8.55-3.86l3.34-.5 3.37-.5 1.13-1.44c-1.79-.89-3.43-1.5-4.87-1.85z"/></svg>