<svg xmlns="http://www.w3.org/2000/svg" width="230.778" height="80.213" fill="#fff"><path d="M138.534 13.66c-.313.921-.739 1.756-1.277 2.503a8.46 8.46 0 0 1-1.877 1.903c-.713.521-1.504.925-2.372 1.211a8.78 8.78 0 0 1-2.764.431c-1.234 0-2.398-.248-3.493-.744s-2.048-1.17-2.86-2.023-1.453-1.853-1.929-3.002a9.53 9.53 0 0 1-.711-3.681c0-1.305.236-2.528.711-3.667s1.118-2.136 1.929-2.989 1.766-1.526 2.86-2.023 2.259-.744 3.493-.744c1.025 0 1.981.15 2.867.449a8.26 8.26 0 0 1 2.386 1.252 8.34 8.34 0 0 1 1.824 1.91c.513.739.917 1.551 1.213 2.438h-2.32c-.504-1.147-1.256-2.086-2.255-2.815s-2.237-1.095-3.715-1.095c-.939 0-1.817.191-2.633.573a6.83 6.83 0 0 0-2.15 1.577A7.57 7.57 0 0 0 124 7.457a7.5 7.5 0 0 0-.533 2.815c0 .991.178 1.929.533 2.815a7.57 7.57 0 0 0 1.461 2.333 6.83 6.83 0 0 0 2.15 1.577c.815.382 1.693.573 2.633.573 1.339 0 2.528-.352 3.571-1.056s1.842-1.656 2.398-2.855h2.321zm14.207 5.735h-2.138v-1.459c-.452.556-1.008.991-1.669 1.303s-1.407.469-2.241.469c-.817 0-1.547-.139-2.189-.417a4.54 4.54 0 0 1-1.63-1.173c-.443-.504-.778-1.099-1.004-1.786s-.339-1.447-.339-2.281V5.969h2.217v8.186c0 1.078.281 1.938.844 2.581s1.381.964 2.454.964a3.55 3.55 0 0 0 1.362-.26c.425-.173.793-.417 1.104-.73a3.47 3.47 0 0 0 .74-1.107c.183-.426.273-.891.273-1.396V5.969h2.216v13.426zm6.595 0h-2.215V0h2.215v19.395zm10.061 0c-.781.087-1.498.043-2.15-.13a3.93 3.93 0 0 1-1.676-.899c-.465-.426-.831-.964-1.097-1.616s-.395-1.403-.395-2.255V8.082h-1.824V5.943h1.824V3.076h2.217v2.868h3.049v2.138h-3.049v6.413c0 .591.081 1.078.248 1.459a2.16 2.16 0 0 0 .677.9 2.43 2.43 0 0 0 .99.443 4.07 4.07 0 0 0 1.186.065v2.033zm14.158 0h-2.138v-1.459c-.452.556-1.008.991-1.669 1.303s-1.407.469-2.241.469c-.817 0-1.547-.139-2.189-.417a4.54 4.54 0 0 1-1.63-1.173c-.443-.504-.778-1.099-1.004-1.786s-.339-1.447-.339-2.281V5.969h2.216v8.186c0 1.078.282 1.938.845 2.581s1.38.964 2.454.964a3.55 3.55 0 0 0 1.362-.26c.424-.173.792-.417 1.104-.73s.559-.682.74-1.107a3.53 3.53 0 0 0 .273-1.396V5.969h2.216v13.426zm10.843-11.549c-.573-.034-1.12.018-1.643.157s-.978.365-1.368.678a3.39 3.39 0 0 0-.939 1.199c-.233.487-.352 1.069-.352 1.747v7.769h-2.216V5.969h2.138v1.512c.261-.365.561-.673.9-.925a4.44 4.44 0 0 1 1.095-.599c.391-.148.79-.248 1.198-.3s.804-.052 1.187 0v2.189zm15.224 7.379c-.469 1.442-1.252 2.55-2.347 3.323s-2.423 1.16-3.988 1.16c-.974 0-1.876-.183-2.711-.547a6.89 6.89 0 0 1-2.177-1.486c-.617-.626-1.104-1.364-1.46-2.215a7.11 7.11 0 0 1-.534-2.764c0-.973.179-1.89.534-2.75s.838-1.607 1.447-2.241a6.91 6.91 0 0 1 2.138-1.512c.818-.373 1.694-.561 2.632-.561a6.41 6.41 0 0 1 2.53.521c.816.348 1.542.852 2.176 1.512s1.138 1.459 1.512 2.398.562 2.007.562 3.206h-11.288c.069.696.247 1.317.534 1.864a4.94 4.94 0 0 0 1.068 1.395c.425.382.9.673 1.421.873s1.061.299 1.616.299c.956 0 1.768-.217 2.438-.651s1.187-1.042 1.551-1.824h2.346zm-2.138-3.937c-.139-.539-.352-1.034-.639-1.485a5.01 5.01 0 0 0-1.004-1.161 4.34 4.34 0 0 0-1.264-.743c-.461-.173-.935-.26-1.422-.26-.469 0-.934.083-1.395.247a4.45 4.45 0 0 0-1.276.717 5.1 5.1 0 0 0-1.043 1.147c-.304.452-.526.965-.665 1.538h8.708zM53.222 61.54c.335 2.008.148 3.484-.423 4.218-.607.779-1.621 1.264-2.647 1.264-1.421 0-2.567-.664-2.876-2.261-5.546-28.647-7.356-33.334-8.066-34.963-.817-1.874-1.446-2.043-2.174-.772l-2.304 4.164-5.109 9.211c-1.262 2.228-2.934 3.505-4.586 3.505-1.323 0-2.488-.823-3.281-2.317-2.523-4.757-6.218-11.175-6.68-11.892-.181-.281-1.244-2.572-2.557-1.235-3.63 3.695-5.65 11.046-6.395 14.638-.292 1.407-1.39 2.316-2.797 2.316-1.02 0-2.007-.466-2.642-1.246-.594-.729-.811-1.66-.612-2.62.514-2.476 6.247-20.853 13.423-20.852.386 0 .772.053 1.147.157 3.116.864 4.768 4.098 6.096 6.697l.683 1.308c.547.998.966 1.817 1.37 2.608.564 1.104 1.119 2.147 1.942 3.606.458.812 1.107.455 1.292.096l2.754-5.53 1.832-3.713c.164-.328.333-.688.512-1.066 1.327-2.818 3.145-6.678 6.801-6.678.147 0 .265-.02.452.02 2.127.449 4.023 2.588 5.529 5.972 5.258 11.812 9.316 35.365 9.316 35.365zm34.136-15.37c-1.006-.249-2.866-.025-4.098-.503-.796-.308-.75-.735-.746-.866.036-1.26 2.841-3.287 4.207-4.025 1.49-.805 1.908-1.75 1.626-3.076-.327-1.54-1.73-2.7-3.266-2.7-.453 0-.904.098-1.339.292-2.87 1.277-7.319 5.488-7.857 9.762-.274 2.175.512 4.061 2.273 5.454 1.154.913 2.76 1.15 4.183 1.299 1.49.155 1.928.1 2.483.51s3.668 5.845-13.562 9.697c-1.737.389-2.44 1.558-2.343 2.654.121 1.372 1.491 2.83 3.793 2.83a5.84 5.84 0 0 0 .52-.024c3.541-.322 7.598-1.925 10.854-4.289 3.706-2.689 6.096-6.117 6.731-9.65.613-3.393-.515-6.635-3.459-7.365zm-13.034 4.399c-3.644-1.785-3.61-4.598-4.117-5.989-.387-1.063-3.12-2.012-3.915.681-.554 1.872-2.979 5.447-6.12 4.225-2.407-.938-1.201-5.544.459-7.203 1.073-1.073 2.394-2.267 6.146-1.938 1.517.133 1.974.461 2.062-1.132.086-1.556-.908-3.33-2.919-3.553-.453-.05-.911-.076-1.361-.076-3.384 0-5.937 1.662-7.886 3.889-1.787 2.042-4.213 6.468-2.283 12.138.866 2.544 2.751 3.777 5.153 3.907 2.966.16 6.201-1.743 8.456-3.537 0 0 1.997 3.065 5.208 2.827 2.01-.148 3.783-2.933 1.117-4.239zm61.875-16.05c-6.016-.258-7.216 4.293-7.557 2.863-.372-1.559-1.102-2.333-2.292-2.132-1.269.214-1.83 1.082-2.158 2.526-.098.426-.11.87-.037 1.317.481 2.949-.833 14.913 1.17 16.966 1.245 1.276 2.915 1.085 3.803-.354.738-1.196 1.098-11.771 1.53-13.081.453-1.371 1.318-2.503 3.211-2.704.61-.064 7.306-1.071 5.419 14.654-.204 1.699.813 2.601 1.776 2.725 1.203.154 2.749-.85 3.242-3.016a6.3 6.3 0 0 0 .091-.494c.482-3.394.689-8.603-.57-12.161-1.764-4.983-4.461-6.973-7.628-7.109zm-26.031 17.749l-1.8-.732c-1.343-.54-2.73-1.099-4.038-1.701-.484-.223-.985-.475-1.454-.711-.366-.184-.756-.884-.608-1.41.355-1.265 1.703-3.393 6.496-8.039.602-.583.81-1.93.355-2.848-.526-1.064-1.747-1.775-3.036-1.778-1.658-.004-4.253 3.136-5.018 4.254-1.438 2.101-1.785.629-1.816-.078l-.971-23.358c-.075-1.977-1.67-3.011-3.208-3.011-.878 0-1.702.333-2.26.912-.541.563-.81 1.311-.777 2.167l2.142 47.981c.101 1.967 1.706 2.996 3.238 2.996.88 0 1.702-.334 2.255-.916.536-.564.796-1.315.751-2.172l-.31-6.403c-.021-.441-.042-1.563-.062-2.005-.018-.365.192-1.133 1.714-.259 2.062 1.184 4.351 2.787 6.753 3.123.183.025.364.038.542.038 1.55 0 2.838-1.028 3.133-2.5.25-1.243-.279-2.823-2.021-3.55zm8.616-8.557c-.737-2.24-.257-5.463-.257-5.463.853-3.304-2.605-3.281-3.727-2.053-1.969 2.155-2.441 6.788-1.794 9.539.689 2.925 1.738 5.441 3.508 7.346.528.568 1.768.815 2.565.58 1.767-.522 2.761-2.318 1.91-4.264.001 0-1.468-3.445-2.205-5.685zm-.714-17.027c-1.475.68-2.148 2.027-2.409 3.28-.172.826.014 1.715.509 2.441.47.688 1.155 1.139 1.931 1.27.497.084.97.048 1.413-.092 1.708-.537 2.58-2.527 2.67-4.063.055-.94-.494-1.872-1.078-2.345-.856-.692-2.062-.941-3.036-.491zm42.221 16.379c.156 2.153-1.713 9.21-5.439 9.168-2.856-.032-3.402-5.269-2.332-7.633.692-1.528 1.595-3.278 5.605-4.4 1.622-.453 2.223-.292 1.692-1.975-.518-1.644-2.237-3.093-4.405-2.539a13.96 13.96 0 0 0-1.438.452c-3.502 1.319-5.496 4.034-6.645 7.098-1.054 2.811-1.454 8.435 2.506 12.342 1.66 1.637 4.807 2.411 7.191 1.788 3.355-.877 5.758-3.134 6.897-5.6 1.159-2.511 2.711-7.719.151-10.931-.776-.978-4.01-.866-3.783 2.23zm18.732-8.551c-5.91.182-7.308 3.838-7.715 2.378-.443-1.593-1.197-2.343-2.355-2.044-1.232.318-1.738 1.262-1.987 2.787-.073.45-.063.912.031 1.372.621 3.029-.059 15.563 2.009 17.548 1.285 1.233 2.912.91 3.71-.652.663-1.299.478-12.317.835-13.712.375-1.459 2.435-2.873 4.313-2.913 1.834-.04 5.348-.122 4.682 14.738-.079 1.783.931 2.642 1.88 2.698 1.188.071 2.651-1.089 3.025-3.377.027-.167.049-.34.064-.521.3-3.563-.15-8.208-1.257-12.055-1.239-4.31-4.123-6.343-7.235-6.247zm45.119-3.003c2.667-1.825 5.614-1.754 5.825-3.72.106-.993-.986-2.841-2.002-2.754s-3.902 2.473-5.086 4.579c-.776 1.381.43 2.465 1.263 1.895zm5.604 19.448c-.305.52-.71.911-1.029 1.27-1.917 2.152-5.053 3.702-8.729 3.558-2.614-.103-5.569-1.858-6.75-4.032-2.815-5.188-.675-10.775 1.262-13.304 2.111-2.757 6.101-5.442 10.534-5.172 3.352.204 7.233 2.98 5.167 7.728-1.839 4.227-7.203 7.086-12.395 6.882.166 1.138.737 2.573 2.143 3.088 3.078 1.128 5.7-.247 7.839-2.845 2.048-2.488 3.657-.074 1.958 2.827zm-11.976-6.062c.824-.067 3.36-.311 5.691-1.925 1.211-.838 2.263-1.741 2.761-2.646 1.386-2.517-.683-2.499-1.063-2.513-2.584-.1-4.787 2.456-5.811 3.623-.701.798-1.285 2.105-1.578 3.461zm-9.386-7.373c-.656-1.064-3.88-1.34-4.026 1.76-.102 2.157-2.804 8.938-6.498 8.45-2.832-.374-2.746-5.639-1.4-7.857.871-1.435 1.976-3.063 6.093-3.696 1.664-.256 2.241-.024 1.916-1.758-.316-1.694-1.851-3.338-4.068-3.049-.5.065-.999.158-1.481.276-3.635.89-5.94 3.346-7.447 6.25-1.383 2.664-2.825 8.055.738 13.636 1.599 2.505 3.948 3.335 6.562 2.843 1.74-.327 3.574-1.355 5.115-2.605-.718 3.047-1.802 6.622-3.296 8.896-4.991 7.594-10.53 3.803-11.993 7.897s5.558 2.926 5.558 2.926c16.77-4.955 15.498-26.598 15.109-30.637-.008-1.166-.252-2.31-.882-3.332zM96.195 79.118c1.174.949 3.354 1.626 8.837.529s14.763-5.866 26.946-6.995c8.247-.765 16.854.517 27.743 2.271 9.324 1.503 15.746 2.624 21.736.082 2.604-1.105-3.871.196-19.848-2.648-8.257-1.471-19.905-5.303-42.111-1.738s-26.106 6.231-23.303 8.499z"/></svg>