<svg xmlns="http://www.w3.org/2000/svg" width="360" height="124" fill="none" xmlns:v="https://vecta.io/nano"><path d="M181.754 3.343v24.936h-3.456V3.343h-8.867V0h21.189v3.343h-8.866zm22.319 3.537a10.06 10.06 0 0 1 4.183.872 10.24 10.24 0 0 1 3.327 2.358 11.04 11.04 0 0 1 2.212 3.505 11.28 11.28 0 0 1 .856 4.247 11.22 11.22 0 0 1-3.036 7.704 10.11 10.11 0 0 1-3.424 2.31 10.3 10.3 0 0 1-4.182.856 10.03 10.03 0 0 1-4.135-.856 10.34 10.34 0 0 1-3.343-2.342 10.63 10.63 0 0 1-2.229-3.456c-.556-1.347-.836-2.791-.823-4.248a11.31 11.31 0 0 1 .823-4.296 10.82 10.82 0 0 1 2.294-3.424 10.48 10.48 0 0 1 3.343-2.39 9.78 9.78 0 0 1 4.134-.84zm0 18.799a6.46 6.46 0 0 0 2.762-.614c.847-.394 1.614-.941 2.261-1.615a7.72 7.72 0 0 0 1.534-2.471 8.4 8.4 0 0 0 .549-3.004 8.85 8.85 0 0 0-.549-3.069c-.349-.923-.87-1.773-1.534-2.503-.649-.672-1.415-1.219-2.261-1.615a6.33 6.33 0 0 0-5.507 0 7.18 7.18 0 0 0-2.245 1.615 7.82 7.82 0 0 0-1.518 2.503c-.364.982-.55 2.021-.549 3.069a8.4 8.4 0 0 0 .549 3.004c.344.913.859 1.752 1.518 2.471a7.09 7.09 0 0 0 2.245 1.615 6.46 6.46 0 0 0 2.729.533l.016.081zm33.188 2.6h-3.343v-2.277a7.68 7.68 0 0 1-2.6 2.035 8.08 8.08 0 0 1-3.504.727 8.43 8.43 0 0 1-3.408-.646 7.14 7.14 0 0 1-2.536-1.857c-.725-.804-1.274-1.75-1.615-2.778a11.72 11.72 0 0 1-.516-3.553V7.332h3.456v12.775a5.91 5.91 0 0 0 1.308 4.021 4.85 4.85 0 0 0 3.827 1.502 5.5 5.5 0 0 0 2.132-.404 5.05 5.05 0 0 0 1.728-1.147 5.45 5.45 0 0 0 1.198-1.784c.278-.668.419-1.385.417-2.108V7.268h3.456v21.011zm16.925-18.023a8.48 8.48 0 0 0-2.568.242 5.76 5.76 0 0 0-2.131 1.066c-.625.502-1.123 1.143-1.454 1.873a6.13 6.13 0 0 0-.549 2.713v12.129h-3.472V7.284h3.343v2.358a6.68 6.68 0 0 1 1.405-1.453 7 7 0 0 1 1.712-.921 7.41 7.41 0 0 1 1.873-.468c.611-.081 1.23-.081 1.841 0v3.456zm8.172-6.105h-3.456V.049h3.456v4.102zm0 24.128h-3.456V7.284h3.456v20.995zm23.03-6.315a6.29 6.29 0 0 1-.63 2.859c-.42.837-1.028 1.567-1.776 2.132a8.48 8.48 0 0 1-2.73 1.357 11.67 11.67 0 0 1-3.456.501 12.31 12.31 0 0 1-3.537-.501 8.54 8.54 0 0 1-2.842-1.421 7.41 7.41 0 0 1-1.986-2.245 7.51 7.51 0 0 1-.986-2.988h3.505c.097.593.32 1.158.654 1.657s.772.92 1.284 1.234a7.01 7.01 0 0 0 3.908 1.066 6.46 6.46 0 0 0 3.844-1.017 2.94 2.94 0 0 0 1.405-2.406 3.06 3.06 0 0 0-.161-1.017 1.81 1.81 0 0 0-.743-.888 6.47 6.47 0 0 0-1.728-.759c-1.002-.27-2.022-.465-3.053-.581l-3.424-.678a9.36 9.36 0 0 1-2.567-1.05 4.84 4.84 0 0 1-1.615-1.615 4.93 4.93 0 0 1-.582-2.487 5.21 5.21 0 0 1 .501-2.229 5.83 5.83 0 0 1 1.502-2.003 8.21 8.21 0 0 1 2.552-1.437 10.88 10.88 0 0 1 3.666-.549 9.69 9.69 0 0 1 5.943 1.599 6.67 6.67 0 0 1 1.824 2.141 6.66 6.66 0 0 1 .776 2.704h-3.505a3.72 3.72 0 0 0-.588-1.463c-.298-.44-.687-.811-1.14-1.089a7.2 7.2 0 0 0-6.718 0 2.48 2.48 0 0 0-.96.859c-.238.366-.375.789-.397 1.225-.015.337.075.67.259.953a2.08 2.08 0 0 0 .84.694 8.63 8.63 0 0 0 1.614.549l2.568.485 3.23.646a9.77 9.77 0 0 1 2.681 1.05 4.95 4.95 0 0 1 1.825 1.776c.512.893.769 1.91.743 2.939zm34.722 6.315h-3.456V15.213c.074-1.375-.331-2.733-1.146-3.844a4.39 4.39 0 0 0-1.632-1.109 4.38 4.38 0 0 0-1.954-.28c-.68-.011-1.353.133-1.97.42a4.85 4.85 0 0 0-1.615 1.163c-.447.506-.792 1.092-1.017 1.728-.25.694-.376 1.426-.372 2.164v12.823h-3.456V15.213a5.7 5.7 0 0 0-1.195-3.844 4.34 4.34 0 0 0-1.601-1.098c-.61-.24-1.266-.34-1.92-.291-.679-.009-1.353.135-1.97.42a4.85 4.85 0 0 0-1.615 1.163 5.01 5.01 0 0 0-1.033 1.728c-.25.694-.376 1.426-.372 2.164v12.823h-3.456V7.284h3.456v2.277a7.15 7.15 0 0 1 2.406-2.051c.996-.52 2.107-.781 3.23-.759 1.353-.038 2.691.285 3.876.937a6.95 6.95 0 0 1 2.601 2.649c.636-1.075 1.536-1.971 2.616-2.6a7.46 7.46 0 0 1 3.924-.985 7.32 7.32 0 0 1 5.572 2.325 8.95 8.95 0 0 1 2.051 6.218l.048 12.985zm25.711-6.508a9.85 9.85 0 0 1-3.585 5.184 11.3 11.3 0 0 1-5.107 1.762 11.31 11.31 0 0 1-5.342-.809 10.63 10.63 0 0 1-5.701-5.765c-1.12-2.76-1.12-5.848 0-8.608a11.17 11.17 0 0 1 2.261-3.505 10.64 10.64 0 0 1 3.327-2.358 9.78 9.78 0 0 1 4.102-.791 10.06 10.06 0 0 1 7.348 3.23 11.39 11.39 0 0 1 2.342 3.601c.605 1.599.901 3.297.872 5.006h-17.603c.093 1.012.372 1.997.823 2.907a7.85 7.85 0 0 0 1.615 2.18c1.298 1.172 2.984 1.823 4.732 1.825a6.79 6.79 0 0 0 3.795-1.018 6.64 6.64 0 0 0 2.423-2.842h3.698zm-3.343-6.137c-.394-1.612-1.287-3.059-2.551-4.134-.589-.494-1.254-.887-1.971-1.163a6.3 6.3 0 0 0-4.393 0 6.97 6.97 0 0 0-2.002 1.114 7.52 7.52 0 0 0-1.615 1.793 7.37 7.37 0 0 0-1.05 2.406l13.582-.016z" fill="#1d1d1b"/><path d="M83.013 94.09c.533 3.133.242 5.443-.662 6.589-.496.615-1.123 1.111-1.836 1.452s-1.492.518-2.282.519c-1.059.097-2.115-.215-2.951-.873a4.15 4.15 0 0 1-1.539-2.664C65.087 54.361 62.26 47.045 61.227 44.51c-1.276-2.923-2.261-3.23-3.392-1.211l-3.601 6.46-7.978 14.374c-1.97 3.472-4.57 5.475-7.154 5.475-1.106-.066-2.171-.44-3.075-1.079s-1.613-1.519-2.044-2.539c-3.924-7.429-9.69-17.442-10.417-18.556-.274-.436-1.938-4.005-3.989-1.922-5.733 5.798-8.882 17.264-10.029 22.868-.174 1.025-.709 1.954-1.509 2.617s-1.812 1.019-2.851 1a5.33 5.33 0 0 1-4.118-1.954c-.455-.566-.777-1.227-.942-1.934s-.169-1.442-.011-2.151c.791-3.86 9.69-32.526 20.995-32.526a6.64 6.64 0 0 1 1.777.242c4.845 1.357 7.445 6.46 9.512 10.449l1.066 2.035 2.148 4.07c.872 1.728 1.744 3.359 3.02 5.636.711 1.26 1.728.711 2.019.145l4.296-8.624 2.858-5.798.791-1.615c2.083-4.393 4.845-10.417 10.611-10.417a2.71 2.71 0 0 1 .711 0c3.327.694 6.282 4.037 8.624 9.318 8.14 18.411 14.47 55.217 14.47 55.217zm53.295-23.966c-1.615-.404-4.474 0-6.46-.791-1.244-.484-1.163-1.147-1.163-1.357 0-1.954 4.441-5.12 6.573-6.282s2.972-2.729 2.536-4.845a5.38 5.38 0 0 0-1.827-2.986c-.924-.764-2.078-1.197-3.277-1.23a5.02 5.02 0 0 0-2.083.468c-4.474 1.986-11.418 8.56-12.258 15.229-.236 1.606-.032 3.246.591 4.745s1.641 2.801 2.946 3.766c1.928 1.251 4.163 1.949 6.46 2.019 2.326.242 3.02.161 3.876.791s5.733 9.125-21.156 15.132a4.04 4.04 0 0 0-2.586 1.383c-.658.769-1.003 1.756-.967 2.767.193 2.132 2.325 4.409 5.91 4.409h.824a35.9 35.9 0 0 0 16.925-6.702c5.782-4.199 9.513-9.545 10.498-15.052s-.808-10.401-5.394-11.531l.032.065zm-20.333 6.864c-5.685-2.794-5.636-7.187-6.46-9.351a3.23 3.23 0 0 0-3.451-1.75 3.23 3.23 0 0 0-1.795.967c-.478.508-.78 1.156-.859 1.849-.872 2.923-4.651 8.495-9.544 6.589-3.763-1.47-1.873-8.656.711-11.305 1.615-1.615 3.731-3.537 9.594-3.02 2.357.21 3.084.711 3.229-1.777a5.18 5.18 0 0 0-4.57-5.475 18.76 18.76 0 0 0-2.116-.113c-2.373.035-4.709.598-6.837 1.649s-3.997 2.561-5.468 4.424c-2.218 2.556-3.717 5.655-4.344 8.981s-.36 6.758.775 9.947a8.48 8.48 0 0 0 8.075 6.105c4.635.242 9.69-2.729 13.195-5.523 0 0 3.116 4.845 8.074 4.409 3.15-.291 5.911-4.635 1.761-6.67l.032.065z" fill="url(#A)"/><path d="M212.471 51.874c-9.383-.404-11.305 6.702-11.789 4.473s-1.712-3.65-3.569-3.327-2.859 1.615-3.376 3.941c-.129.678-.129 1.374 0 2.051.743 4.603-1.308 23.256 1.825 26.47.369.46.847.82 1.39 1.05a3.57 3.57 0 0 0 3.364-.312c.491-.326.894-.768 1.173-1.288 1.163-1.873 1.712-18.362 2.39-20.413.277-1.145.911-2.171 1.812-2.929s2.02-1.209 3.195-1.286c.953-.113 11.402-1.615 8.462 22.852a3.47 3.47 0 0 0-.057 1.413c.078.47.252.919.511 1.319s.598.742.995 1.006a3.47 3.47 0 0 0 1.313.526c1.841.21 4.231-1.405 5.023-4.635 0-.242.097-.501.129-.759.759-5.297 1.082-13.421-.888-18.976-2.746-7.865-6.961-10.95-11.903-11.176zM171.87 79.555l-2.81-1.147c-2.099-.84-4.264-1.712-6.298-2.665-.759-.339-1.615-.727-2.278-1.098a2.18 2.18 0 0 1-.795-.959 2.17 2.17 0 0 1-.141-1.238c.549-1.986 2.648-5.297 10.126-12.548.496-.616.81-1.358.907-2.142s-.027-1.581-.358-2.299a5.3 5.3 0 0 0-4.732-2.778c-2.584 0-6.638 4.845-7.833 6.638-2.245 3.23-2.778.985-2.826-.129l-1.518-36.434a5.03 5.03 0 0 0-.992-2.631c-.573-.765-1.353-1.351-2.247-1.69a5.04 5.04 0 0 0-5.288 1.091 4.42 4.42 0 0 0-.948 1.546c-.205.575-.29 1.187-.247 1.797l3.343 74.871a5.05 5.05 0 0 0 3.254 4.331c.898.339 1.873.415 2.813.22s1.804-.653 2.492-1.321c.42-.453.742-.989.945-1.573a4.48 4.48 0 0 0 .234-1.819l-.484-9.997c0-.678 0-2.439-.097-3.117s.29-1.776 2.664-.404c3.23 1.841 6.8 4.344 10.546 4.845.28.023.561.023.84 0 1.123-.012 2.207-.414 3.067-1.137a4.84 4.84 0 0 0 1.645-2.827c.204-1.105.018-2.246-.526-3.228s-1.413-1.746-2.458-2.158zm13.437-13.356a22.61 22.61 0 0 1-.404-8.527c1.324-5.152-4.07-5.12-5.814-3.23-3.068 3.359-3.811 10.594-2.794 14.874a24.64 24.64 0 0 0 5.475 11.466 4.5 4.5 0 0 0 1.894.935c.696.157 1.42.147 2.111-.03a4.7 4.7 0 0 0 1.831-.946c.533-.447.96-1.006 1.251-1.638s.437-1.32.429-2.016-.17-1.38-.475-2.006c0 0-2.357-5.378-3.504-8.866v-.016zm-1.114-26.567c-.992.489-1.852 1.21-2.507 2.101s-1.086 1.926-1.256 3.019a5.1 5.1 0 0 0 .791 3.811c.348.507.795.939 1.314 1.269a4.57 4.57 0 0 0 1.706.653c.732.141 1.489.091 2.196-.145 2.665-.824 4.038-3.941 4.167-6.331a4.69 4.69 0 0 0-.518-2.235 4.68 4.68 0 0 0-3.671-2.514c-.772-.082-1.552.029-2.271.324l.049.049zm65.875 25.549c.242 3.359-2.681 14.374-8.495 14.309-4.457 0-5.297-8.22-3.633-11.903 1.082-2.39 2.487-5.12 8.753-6.864 2.519-.711 3.456-.468 2.632-3.085-.418-1.412-1.365-2.609-2.644-3.34s-2.79-.941-4.219-.584c-.776.21-1.519.436-2.245.711a17.77 17.77 0 0 0-6.427 4.377c-1.792 1.916-3.139 4.204-3.942 6.702-1.615 4.377-2.277 13.162 3.909 19.251a12.74 12.74 0 0 0 5.269 2.74c1.948.486 3.983.504 5.939.054a16.33 16.33 0 0 0 6.36-3.168c1.861-1.51 3.368-3.411 4.412-5.569 1.809-3.924 4.231-12.048.226-17.054-.574-.475-1.279-.762-2.021-.823a3.64 3.64 0 0 0-2.129.483 3.63 3.63 0 0 0-1.467 1.615 3.64 3.64 0 0 0-.278 2.165v-.016z" fill="url(#B)"/><path d="M279.251 51.858c-9.222.291-11.402 5.992-12.032 3.715s-1.873-3.65-3.666-3.23-2.713 1.97-3.1 4.36a5.58 5.58 0 0 0 0 2.132c.969 4.732-.097 24.225 3.133 27.455.387.446.883.785 1.441.982a3.42 3.42 0 0 0 1.737.145c.582-.103 1.128-.354 1.584-.73s.807-.863 1.019-1.415c1.034-2.019.743-19.218 1.308-21.382s3.796-4.49 6.719-4.554 8.349-.178 7.316 22.998c-.129 2.778 1.453 4.118 2.923 4.215 1.857.113 4.134-1.615 4.732-5.265 0-.274 0-.533.097-.824a56.04 56.04 0 0 0-1.906-18.847c-1.906-6.735-6.46-9.9-11.305-9.755zm70.43-4.603c4.167-2.842 8.753-2.729 9.092-5.798.162-1.615-1.615-4.441-3.133-4.296s-6.088 3.86-7.929 7.138c-1.212 2.067.678 3.763 1.97 2.956zm8.705 30.265c-.47.73-1.011 1.411-1.615 2.035a17.35 17.35 0 0 1-6.192 4.283c-2.352.957-4.886 1.386-7.423 1.256a13.5 13.5 0 0 1-6.019-1.877c-1.83-1.092-3.376-2.602-4.51-4.405-4.393-8.075-1.05-16.812 1.97-20.753 3.23-4.312 9.512-8.495 16.424-8.075 5.233.323 11.305 4.651 8.075 12.048-2.858 6.605-11.305 11.063-19.38 10.74.069 1.034.416 2.03 1.005 2.883s1.396 1.531 2.338 1.962c4.845 1.744 8.899-.388 12.226-4.441s5.798-.178 3.101 4.344zM339.7 68.056a18.22 18.22 0 0 0 8.996-3.036 14.16 14.16 0 0 0 4.312-4.118c2.164-3.925-1.066-3.908-1.615-3.925-4.021-.161-7.461 3.828-9.06 5.653a12.44 12.44 0 0 0-2.584 5.426h-.049zm-14.648-11.499c-.513-.55-1.184-.928-1.921-1.081a3.63 3.63 0 0 0-3.849 1.682c-.389.645-.568 1.394-.512 2.144-.162 3.359-4.377 13.954-10.142 13.178-4.425-.581-4.28-8.786-2.18-12.258 1.356-2.229 3.084-4.845 9.496-5.766 2.6-.388 3.504 0 3.004-2.745-.243-1.46-1.041-2.769-2.227-3.654s-2.668-1.277-4.136-1.094a18.75 18.75 0 0 0-2.31.436c-2.529.661-4.881 1.873-6.888 3.548s-3.62 3.772-4.724 6.142a21.15 21.15 0 0 0 1.147 21.286 9.35 9.35 0 0 0 10.287 4.409c2.918-.682 5.631-2.049 7.914-3.989-.973 4.865-2.706 9.547-5.136 13.873-7.784 11.855-16.424 5.927-18.718 12.323s8.673 4.57 8.673 4.57c26.163-7.735 24.225-41.505 23.579-47.804a9.89 9.89 0 0 0-1.308-5.2h-.049z" fill="url(#C)"/><path d="M150.052 121.448c1.825 1.486 5.232 2.551 13.775.84s23.046-9.157 41.99-10.918c12.92-1.195 26.292.808 43.282 3.537 14.535 2.342 24.564 4.102 33.915.129 4.054-1.728-6.04.307-30.976-4.134-12.919-2.293-31.056-8.269-65.697-2.713s-40.65 9.722-36.289 13.259z" fill="url(#D)"/><defs><linearGradient id="A" x1="70.949" y1="32.123" x2="70.949" y2="105.072" gradientUnits="userSpaceOnUse"><stop stop-color="#2ea836"/><stop offset="1" stop-color="#005526"/></linearGradient><linearGradient id="B" x1="200.843" y1="19.59" x2="200.843" y2="95.721" gradientUnits="userSpaceOnUse"><stop stop-color="#009fe3"/><stop offset="1" stop-color="#2d2e83"/></linearGradient><linearGradient id="C" x1="310.227" y1="26.276" x2="310.227" y2="93.234" gradientUnits="userSpaceOnUse"><stop stop-color="#ffed00"/><stop offset="1" stop-color="#e84e0f"/></linearGradient><linearGradient id="D" x1="17200.3" y1="1741.17" x2="28503.1" y2="1741.17" gradientUnits="userSpaceOnUse"><stop stop-color="#009fe3"/><stop offset="1" stop-color="#2d2e83"/></linearGradient></defs></svg>