<svg xmlns="http://www.w3.org/2000/svg" xmlns:xlink="http://www.w3.org/1999/xlink" width="188.883" height="108.187" overflow="visible" viewBox="32.157 15.748 126.702 75.579" xmlns:v="https://vecta.io/nano"><path fill="#fff" d="M39.16 82.824l-.395 1.759h-.307a3.43 3.43 0 0 0-.042-.406c-.025-.165-.062-.313-.109-.443-.05-.139-.116-.261-.197-.36a.47.47 0 0 0-.29-.179l-.339-.026-.383-.011h-.279l-1.176 5.229a.59.59 0 0 0-.014.079l-.004.085a.37.37 0 0 0 .04.18c.027.048.077.09.151.125.06.025.167.056.322.089a2.05 2.05 0 0 0 .38.058l-.071.302h-2.98l.071-.305.387-.036c.169-.019.292-.041.369-.068.118-.045.207-.108.267-.188s.1-.173.124-.283l1.186-5.269h-.237l-.333.008-.41.029c-.098.013-.212.073-.342.182a3.46 3.46 0 0 0-.392.38 4.74 4.74 0 0 0-.338.436 3.3 3.3 0 0 0-.236.392h-.311l.395-1.759h5.493zm1.681 2.706c0-.118-.016-.211-.049-.278a.39.39 0 0 0-.124-.154c-.05-.034-.11-.06-.169-.067a1.09 1.09 0 0 0-.182-.014c-.356 0-.684.2-.984.601s-.491.9-.571 1.499l.702-.13c.26-.057.476-.131.649-.222.245-.129.428-.298.548-.503s.18-.449.18-.732m.818.113c0 .323-.099.6-.296.832s-.483.416-.859.553c-.276.104-.554.188-.836.252s-.593.118-.933.16c0 .48.086.848.26 1.104s.427.38.762.38c.296 0 .558-.076.784-.229s.45-.379.669-.68l.254.191c-.238.371-.534.667-.889.891s-.725.333-1.107.333c-.524 0-.925-.152-1.202-.453s-.415-.729-.415-1.283a3.44 3.44 0 0 1 .175-1.1 3.2 3.2 0 0 1 .513-.956c.22-.284.489-.512.807-.686s.67-.261 1.056-.261c.426 0 .742.089.948.268s.309.406.309.684m7.99 3.144l-.067.291-.656.236c-.163.044-.303.065-.419.065-.237 0-.416-.063-.535-.189a.66.66 0 0 1-.178-.469c0-.066.006-.14.018-.221a3.17 3.17 0 0 1 .058-.287l.439-1.703.078-.357a1.54 1.54 0 0 0 .029-.256c0-.203-.043-.365-.129-.484s-.221-.177-.406-.177c-.197 0-.391.047-.581.143s-.405.275-.643.537l-.78 3.387h-.826l.701-3.054.042-.212c.013-.074.02-.13.02-.167 0-.198-.048-.353-.144-.466s-.236-.168-.421-.168c-.168 0-.354.043-.556.129s-.439.282-.707.583l-.759 3.354h-.83l.666-2.963.069-.341a1.81 1.81 0 0 0 .033-.312c0-.176-.028-.293-.085-.35s-.166-.085-.33-.085c-.065 0-.149.014-.252.038l-.239.063.067-.295a4.43 4.43 0 0 1 .616-.239c.179-.052.333-.078.461-.078.238 0 .407.066.506.199s.153.313.159.541h.027c.349-.283.636-.485.861-.607s.492-.183.803-.183c.263 0 .477.079.641.236s.257.353.278.591h.017c.316-.272.597-.478.843-.617s.534-.21.861-.21c.284 0 .501.084.653.254s.228.391.228.664c0 .055-.008.153-.024.293a2.92 2.92 0 0 1-.078.415l-.374 1.467-.076.337c-.024.126-.036.225-.036.295 0 .173.036.291.107.354s.191.094.361.094c.056 0 .137-.008.244-.023a1.31 1.31 0 0 0 .245-.053m3.762-.463c.15-.249.267-.534.348-.852s.123-.655.123-1.012a2.87 2.87 0 0 0-.043-.487c-.028-.163-.073-.298-.135-.404-.066-.12-.154-.211-.267-.276s-.26-.1-.444-.1c-.137 0-.287.043-.451.128s-.365.246-.602.48l-.568 2.592c.021.173.112.336.273.486a.83.83 0 0 0 .585.227 1.15 1.15 0 0 0 .657-.211 1.82 1.82 0 0 0 .524-.571m1.386-1.887a3.24 3.24 0 0 1-.209 1.161c-.139.365-.324.682-.555.95-.257.296-.536.515-.836.657a2.12 2.12 0 0 1-.926.216c-.254 0-.463-.032-.626-.097s-.308-.143-.435-.237l-.259 1.196-.043.214a1.14 1.14 0 0 0-.015.16c0 .082.029.148.087.197a.52.52 0 0 0 .197.104c.074.021.158.042.249.055l.249.028-.062.286h-2.451l.062-.286.267-.024a1.32 1.32 0 0 0 .235-.045c.092-.027.166-.079.22-.154s.094-.166.118-.275l.928-4.203.066-.35c.021-.117.031-.218.031-.304 0-.17-.026-.285-.077-.342s-.164-.088-.336-.088c-.064 0-.148.014-.248.039l-.235.062.067-.292a5.34 5.34 0 0 1 .609-.24c.18-.056.334-.084.462-.084.207 0 .364.055.471.162s.174.258.2.45h.035c.202-.192.417-.35.647-.475s.458-.188.687-.188c.45 0 .8.158 1.051.473s.375.741.375 1.274m1.914 3.002c-.439 0-.804-.079-1.095-.239s-.438-.369-.438-.628c0-.121.043-.236.129-.342s.191-.16.315-.16.214.028.287.084a.67.67 0 0 1 .171.198c.044.079.083.174.118.283l.086.27c.045.052.106.1.185.144s.192.067.34.067c.32 0 .562-.083.726-.248s.247-.387.247-.668c0-.207-.077-.372-.231-.496s-.384-.237-.689-.341c-.109-.036-.238-.092-.387-.167a1.45 1.45 0 0 1-.355-.24 1.13 1.13 0 0 1-.258-.348 1.08 1.08 0 0 1-.098-.476c0-.39.17-.729.509-1.013s.756-.428 1.251-.428a4.18 4.18 0 0 1 .373.019c.134.011.281.045.44.1.139.05.258.12.356.217a.5.5 0 0 1 .146.372c0 .125-.04.238-.122.341a.39.39 0 0 1-.322.152c-.109 0-.2-.024-.271-.072s-.13-.114-.177-.197a1.25 1.25 0 0 1-.116-.264l-.098-.279c-.056-.024-.107-.041-.151-.049a.84.84 0 0 0-.178-.016c-.29 0-.51.08-.66.24a.81.81 0 0 0-.224.571c0 .213.067.374.202.481s.358.221.669.336c.403.149.695.32.878.513s.273.43.273.714a1.41 1.41 0 0 1-.52 1.132c-.347.291-.784.437-1.311.437m8.272-3.674c-.006-.089-.028-.175-.067-.259a.96.96 0 0 0-.146-.226c-.069-.076-.157-.14-.265-.19a.91.91 0 0 0-.385-.074c-.228 0-.444.072-.647.22s-.382.341-.536.584c-.148.235-.267.517-.356.848s-.133.663-.133.994c0 .186.01.352.031.494s.06.276.12.396c.056.113.136.202.24.269s.241.097.413.097c.163 0 .34-.049.531-.148s.403-.277.637-.527l.563-2.478zm-.632 2.91h-.031l-.253.227a2.3 2.3 0 0 1-.324.245c-.142.091-.273.161-.393.21a1.17 1.17 0 0 1-.442.073c-.429 0-.765-.159-1.01-.479s-.366-.751-.366-1.3c0-.383.066-.753.198-1.11a3.27 3.27 0 0 1 .54-.95 2.63 2.63 0 0 1 .803-.65 2.05 2.05 0 0 1 .98-.249 2.26 2.26 0 0 1 .609.082c.202.055.367.122.498.201l.347-1.553.038-.191a.99.99 0 0 0 .011-.151c0-.108-.022-.191-.065-.25a.36.36 0 0 0-.18-.128 1.06 1.06 0 0 0-.293-.055l-.338-.032.063-.279 1.799-.1.045.068-1.233 5.474-.073.344c-.025.13-.038.228-.038.295 0 .173.035.291.107.354s.191.095.36.095c.056 0 .136-.011.239-.028a1.27 1.27 0 0 0 .241-.06l-.067.293a4.59 4.59 0 0 1-.619.242c-.163.045-.315.067-.454.067-.214 0-.384-.057-.51-.172s-.189-.291-.189-.533m4.387-5.727a1.47 1.47 0 0 1-.16.688c-.106.205-.235.38-.387.522-.16.155-.325.284-.495.392l-.429.244-.133-.288.377-.212c.119-.069.226-.146.32-.231a1.43 1.43 0 0 0 .249-.283c.071-.106.128-.235.169-.388h-.191c-.187 0-.321-.047-.402-.143s-.122-.198-.122-.314c0-.146.055-.285.164-.418s.259-.198.449-.198c.201 0 .35.059.446.174s.145.266.145.455m2.736 2.863c0-.101-.011-.196-.032-.288a.6.6 0 0 0-.128-.256c-.06-.076-.141-.138-.245-.183s-.234-.068-.391-.068a1.07 1.07 0 0 0-.631.219c-.205.147-.389.343-.552.591-.154.23-.28.512-.378.84s-.147.663-.147 1.001c0 .186.011.351.031.494s.061.273.12.393a.63.63 0 0 0 .244.27c.107.063.241.096.404.096s.339-.047.521-.144.387-.265.615-.505l.569-2.46zm-.641 2.889h-.031l-.233.207a2.1 2.1 0 0 1-.317.24 2.29 2.29 0 0 1-.378.199c-.136.055-.284.084-.443.084-.429 0-.766-.158-1.01-.475s-.366-.749-.366-1.298a3.08 3.08 0 0 1 .204-1.103c.136-.355.324-.676.564-.959.228-.271.499-.49.813-.655a2.06 2.06 0 0 1 1.57-.163c.191.059.341.124.451.196l.815-.214.054.069-.677 2.946-.074.346a1.81 1.81 0 0 0-.037.299c0 .175.035.291.106.352s.192.093.361.093a1.68 1.68 0 0 0 .24-.028 1.14 1.14 0 0 0 .24-.061l-.066.293-.597.238c-.131.048-.289.072-.477.072-.213 0-.382-.064-.507-.192s-.193-.29-.205-.486m6.287-3.264a1.28 1.28 0 0 1-.035.28.78.78 0 0 1-.103.254.64.64 0 0 1-.175.188c-.064.045-.155.067-.274.067-.16 0-.279-.042-.36-.123a.39.39 0 0 1-.119-.275c0-.094.022-.2.066-.315l.138-.351a.91.91 0 0 0-.175.03c-.082.02-.18.059-.295.116s-.246.145-.393.261-.302.27-.467.461l-.716 3.272h-.829l.648-2.962.064-.328a1.85 1.85 0 0 0 .043-.325c0-.17-.029-.285-.085-.342s-.168-.087-.337-.087a1.21 1.21 0 0 0-.249.033l-.235.058.066-.292a4.46 4.46 0 0 1 .614-.237c.177-.052.33-.078.457-.078.237 0 .406.066.507.199s.151.331.151.596h.026l.803-.657c.182-.125.372-.188.571-.188.095 0 .187.012.275.037a.5.5 0 0 1 .227.123c.065.063.113.138.144.221s.047.206.047.364" class="B"/><path fill="#fff" d="M81.503 85.436a1.28 1.28 0 0 1-.035.28.78.78 0 0 1-.103.254.64.64 0 0 1-.175.188c-.064.045-.155.067-.274.067-.16 0-.279-.042-.36-.123a.39.39 0 0 1-.119-.275c0-.094.022-.2.066-.315l.138-.351a.91.91 0 0 0-.175.03c-.082.02-.18.059-.295.116s-.246.145-.393.261-.302.27-.467.461l-.716 3.272h-.829l.648-2.962.064-.328a1.85 1.85 0 0 0 .043-.325c0-.17-.029-.285-.085-.342s-.168-.087-.337-.087a1.21 1.21 0 0 0-.249.033l-.235.058.066-.292c.232-.106.436-.186.614-.237a1.71 1.71 0 0 1 .457-.078c.237 0 .406.066.507.199s.151.331.151.596h.027l.802-.657c.182-.125.372-.188.571-.188.095 0 .187.012.275.037a.5.5 0 0 1 .227.123c.065.063.113.138.144.221s.047.206.047.364m4.196-1.383l-.217.145-.996-1.246-1.466 1.246-.209-.145 1.347-1.584c.056-.071.113-.122.17-.155s.145-.051.261-.051.191.016.235.048.081.079.111.139l.764 1.603zm-.973 1.477c0-.118-.016-.211-.049-.278a.39.39 0 0 0-.124-.154c-.05-.034-.11-.06-.169-.067a1.09 1.09 0 0 0-.182-.014c-.356 0-.684.2-.984.601s-.491.9-.571 1.499l.702-.13c.26-.057.476-.131.649-.222.245-.129.428-.298.548-.503s.18-.449.18-.732m.817.113c0 .323-.098.6-.296.832s-.483.416-.859.553c-.276.104-.554.188-.836.252s-.593.118-.933.16c0 .48.086.848.26 1.104s.427.38.762.38c.296 0 .558-.076.784-.229s.45-.379.669-.68l.254.191c-.238.371-.534.667-.889.891s-.725.333-1.107.333c-.524 0-.925-.152-1.202-.453s-.415-.729-.415-1.283a3.44 3.44 0 0 1 .175-1.1 3.2 3.2 0 0 1 .513-.956c.22-.284.489-.512.807-.686s.67-.261 1.056-.261c.426 0 .742.089.948.268s.309.406.309.684m1.525 3.755c-.281 0-.487-.059-.618-.176s-.195-.285-.195-.504c0-.07.004-.137.013-.199l.036-.212.692-3.05h-.794l.093-.415h.811l.31-1.338h.8l-.301 1.338h1.237l-.093.415h-1.226l-.574 2.516-.067.335c-.018.108-.026.201-.026.276 0 .168.04.29.122.367s.229.116.442.116a2.74 2.74 0 0 0 .324-.028c.14-.021.248-.046.325-.076l-.075.334-.587.212a2.13 2.13 0 0 1-.649.089m8.249-.594c0 .161-.058.301-.173.415a.56.56 0 0 1-.409.174.56.56 0 0 1-.582-.589c0-.161.057-.301.171-.42a.55.55 0 0 1 .411-.178.55.55 0 0 1 .411.178c.115.119.171.259.171.42m-2.448 0a.56.56 0 0 1-.176.418.57.57 0 0 1-.407.171.56.56 0 0 1-.409-.174c-.115-.114-.173-.254-.173-.415s.057-.301.171-.42a.55.55 0 0 1 .411-.178c.157 0 .294.06.409.178a.58.58 0 0 1 .174.42m-2.449 0a.56.56 0 0 1-.176.418c-.117.113-.252.171-.406.171a.56.56 0 0 1-.582-.589.59.59 0 0 1 .17-.42c.115-.118.252-.178.412-.178a.55.55 0 0 1 .409.178.58.58 0 0 1 .173.42m9.133.594c-.281 0-.486-.059-.619-.176s-.193-.285-.193-.504c0-.07.004-.137.013-.199l.035-.212.693-3.05h-.795l.094-.415h.811l.311-1.338h.799l-.301 1.338h1.236l-.093.415h-1.226l-.574 2.516-.066.335c-.018.108-.026.201-.026.276 0 .168.041.29.122.367s.229.116.442.116a2.76 2.76 0 0 0 .324-.028c.14-.021.248-.046.324-.076l-.074.334-.588.212a2.13 2.13 0 0 1-.649.089m5.389-3.587c0-.101-.012-.196-.032-.288a.6.6 0 0 0-.128-.256c-.06-.076-.142-.138-.245-.183s-.234-.068-.391-.068c-.218 0-.428.073-.632.219a2.22 2.22 0 0 0-.552.591c-.153.23-.279.512-.378.84a3.53 3.53 0 0 0-.146 1.001c0 .186.011.351.03.494s.062.273.12.393.139.205.245.27a.78.78 0 0 0 .403.096c.165 0 .339-.047.521-.144s.388-.265.615-.505l.57-2.46zm-.641 2.889h-.03l-.232.207c-.091.084-.197.164-.318.24-.115.076-.24.142-.378.199a1.17 1.17 0 0 1-.443.084c-.43 0-.765-.158-1.01-.475s-.365-.749-.365-1.298c0-.378.067-.745.205-1.103s.322-.676.563-.959c.228-.271.498-.49.813-.655s.637-.25.968-.25a2.06 2.06 0 0 1 .602.087c.191.059.341.124.451.196l.815-.214.054.069-.678 2.946-.073.346a1.81 1.81 0 0 0-.037.299c0 .175.035.291.106.352s.191.093.36.093a1.65 1.65 0 0 0 .24-.028c.104-.018.185-.038.24-.061l-.066.293-.597.238a1.39 1.39 0 0 1-.478.072c-.213 0-.382-.064-.507-.192a.74.74 0 0 1-.205-.486m7.159.073l-.067.292-.624.238a1.36 1.36 0 0 1-.451.076c-.236 0-.416-.063-.535-.188s-.178-.282-.178-.47c0-.066.006-.14.019-.221a2.34 2.34 0 0 1 .058-.286l.438-1.704.078-.356a1.44 1.44 0 0 0 .029-.256c0-.204-.047-.366-.141-.484s-.235-.178-.419-.178-.382.061-.604.182-.434.3-.631.53l-.759 3.354h-.83l.666-2.962.063-.316a1.81 1.81 0 0 0 .043-.338c0-.17-.027-.283-.084-.342s-.17-.087-.34-.087c-.065 0-.148.012-.251.034l-.235.058.066-.292a4.48 4.48 0 0 1 .617-.237 1.64 1.64 0 0 1 .46-.077c.235 0 .403.064.504.196s.155.312.161.544h.027c.323-.27.604-.469.841-.598a1.65 1.65 0 0 1 .806-.193c.283 0 .505.084.664.254s.24.391.24.665a3.19 3.19 0 0 1-.025.292 3.31 3.31 0 0 1-.078.416l-.374 1.466-.078.337c-.024.126-.036.224-.036.295 0 .173.035.291.11.353s.195.096.364.096c.057 0 .137-.01.243-.031a1.89 1.89 0 0 0 .243-.062m1.56.625c-.282 0-.487-.059-.618-.176s-.195-.285-.195-.504a1.26 1.26 0 0 1 .014-.199l.036-.212.691-3.05h-.794l.094-.415h.811l.31-1.338h.8l-.301 1.338h1.237l-.093.415h-1.228l-.574 2.516-.065.335a1.62 1.62 0 0 0-.027.276c0 .168.041.29.123.367s.229.116.443.116c.076 0 .184-.01.324-.028s.246-.046.323-.076l-.075.334-.587.212a2.13 2.13 0 0 1-.649.089m7.771-3.633a.75.75 0 0 0-.068-.259c-.039-.083-.087-.157-.146-.226-.068-.076-.156-.14-.265-.19a.9.9 0 0 0-.384-.074c-.229 0-.443.072-.647.22s-.383.341-.536.584c-.148.235-.268.517-.356.848a3.86 3.86 0 0 0-.133.994c0 .186.01.352.031.494s.06.276.12.396a.67.67 0 0 0 .239.269c.104.064.241.097.413.097.163 0 .34-.049.531-.148s.403-.277.637-.527l.564-2.478zm-.633 2.91h-.031l-.253.227a2.3 2.3 0 0 1-.324.245c-.143.091-.272.161-.393.21s-.268.073-.441.073c-.429 0-.766-.159-1.011-.479s-.366-.751-.366-1.3c0-.383.066-.753.198-1.11a3.27 3.27 0 0 1 .54-.95c.223-.268.491-.484.803-.65a2.05 2.05 0 0 1 .98-.249c.203 0 .406.026.608.082s.367.122.498.201l.347-1.553.037-.191a.78.78 0 0 0 .013-.151c0-.108-.022-.191-.065-.25a.36.36 0 0 0-.18-.128 1.06 1.06 0 0 0-.292-.055l-.339-.032.063-.279 1.799-.1.045.068-1.231 5.474-.074.344c-.025.13-.038.228-.038.295 0 .173.035.291.107.354s.19.095.359.095c.056 0 .137-.011.24-.028s.183-.038.239-.06l-.066.293a4.59 4.59 0 0 1-.619.242 1.71 1.71 0 0 1-.454.067c-.214 0-.384-.057-.51-.172s-.189-.291-.189-.533m4.387-5.727a1.48 1.48 0 0 1-.16.688c-.107.205-.235.38-.387.522-.16.155-.325.284-.495.392l-.43.244-.133-.288.378-.212c.118-.069.225-.146.319-.231a1.43 1.43 0 0 0 .249-.283 1.27 1.27 0 0 0 .169-.388h-.191c-.187 0-.319-.047-.401-.143a.47.47 0 0 1-.123-.314c0-.146.055-.285.165-.418s.259-.198.448-.198c.201 0 .352.059.446.174s.146.266.146.455m2.735 2.863a1.41 1.41 0 0 0-.031-.288c-.021-.092-.064-.177-.129-.256-.06-.076-.142-.138-.245-.183a.97.97 0 0 0-.392-.068c-.216 0-.427.073-.631.219a2.2 2.2 0 0 0-.551.591c-.155.23-.281.512-.379.84a3.53 3.53 0 0 0-.146 1.001c0 .186.011.351.031.494s.061.273.12.393a.62.62 0 0 0 .244.27c.107.065.241.096.403.096s.339-.047.521-.144.386-.265.614-.505l.571-2.46zm-.641 2.889h-.03l-.232.207c-.091.084-.196.164-.317.24a2.33 2.33 0 0 1-.378.199c-.136.055-.284.084-.444.084-.429 0-.765-.158-1.009-.475s-.367-.749-.367-1.298a3.06 3.06 0 0 1 .205-1.103c.136-.355.323-.676.564-.959.228-.271.498-.49.812-.655s.638-.25.969-.25a2.06 2.06 0 0 1 .602.087c.191.059.341.124.451.196l.816-.214.053.069-.677 2.946-.073.346c-.025.135-.038.234-.038.299 0 .175.035.291.105.352s.192.093.361.093c.056 0 .136-.011.241-.028s.184-.038.239-.061l-.066.293-.597.238c-.13.048-.289.072-.477.072-.214 0-.383-.064-.508-.192s-.193-.29-.205-.486m3.412.698c-.281 0-.487-.059-.618-.176s-.194-.285-.194-.504a1.56 1.56 0 0 1 .013-.199l.035-.212.693-3.05h-.795l.094-.415h.811l.31-1.338h.8l-.302 1.338h1.238l-.093.415h-1.227l-.573 2.516-.066.335a1.62 1.62 0 0 0-.027.276c0 .168.04.29.122.367s.229.116.442.116a2.74 2.74 0 0 0 .324-.028c.14-.021.248-.046.325-.076l-.075.334-.587.212c-.184.059-.401.089-.65.089m3.372 0c-.282 0-.486-.059-.619-.176s-.193-.285-.193-.504c0-.07.004-.137.013-.199l.035-.212.694-3.05h-.796l.094-.415h.811l.311-1.338h.799l-.301 1.338h1.237l-.094.415h-1.226l-.574 2.516-.066.335c-.018.108-.026.201-.026.276 0 .168.041.29.123.367s.228.116.441.116a2.76 2.76 0 0 0 .324-.028c.14-.021.248-.046.324-.076l-.074.334-.587.212a2.14 2.14 0 0 1-.65.089m6.317-3.962a1.28 1.28 0 0 1-.035.28.76.76 0 0 1-.103.254.64.64 0 0 1-.176.188c-.064.045-.154.067-.273.067-.16 0-.279-.042-.359-.123s-.12-.174-.12-.275c0-.094.022-.2.067-.315l.137-.351c-.036 0-.094.011-.176.03a1.42 1.42 0 0 0-.294.116 2.3 2.3 0 0 0-.392.261c-.146.116-.304.27-.469.461l-.716 3.272h-.829l.647-2.962.064-.328a1.85 1.85 0 0 0 .043-.325c0-.17-.028-.285-.084-.342s-.17-.087-.338-.087c-.065 0-.147.011-.249.033l-.234.058.066-.292a4.5 4.5 0 0 1 .613-.237c.177-.052.33-.078.458-.078.236 0 .405.066.505.199s.151.331.151.596h.026l.804-.657c.181-.125.373-.188.57-.188a1.01 1.01 0 0 1 .276.037.5.5 0 0 1 .226.123.61.61 0 0 1 .145.221c.035.084.049.206.049.364m3.637.375c0-.101-.011-.196-.031-.288s-.064-.177-.128-.256a.64.64 0 0 0-.245-.183c-.104-.046-.234-.068-.391-.068-.218 0-.428.073-.632.219a2.22 2.22 0 0 0-.552.591c-.154.23-.28.512-.378.84s-.146.663-.146 1.001c0 .186.01.351.029.494s.062.273.12.393.137.205.244.27.241.096.404.096.339-.047.521-.144.388-.265.615-.505l.57-2.46zm-.641 2.889h-.03l-.233.207a2.1 2.1 0 0 1-.317.24c-.115.076-.24.142-.378.199s-.283.084-.442.084c-.43 0-.767-.158-1.011-.475s-.366-.749-.366-1.298a3.08 3.08 0 0 1 .204-1.103c.137-.355.324-.676.564-.959.229-.271.498-.49.813-.655s.637-.25.968-.25a2.05 2.05 0 0 1 .601.087c.192.059.341.124.451.196l.817-.214.053.069-.677 2.946-.073.346a1.73 1.73 0 0 0-.038.299c0 .175.035.291.106.352s.19.093.36.093c.057 0 .136-.011.24-.028a1.14 1.14 0 0 0 .24-.061l-.066.293-.597.238c-.131.048-.289.072-.477.072-.214 0-.384-.064-.508-.192a.74.74 0 0 1-.204-.486m4.826-5.735a.69.69 0 0 1-.164.455c-.109.129-.246.193-.409.193-.151 0-.282-.061-.391-.185a.62.62 0 0 1-.164-.422c0-.168.055-.313.164-.438a.5.5 0 0 1 .391-.188c.168 0 .306.06.413.177a.59.59 0 0 1 .16.408m-.316 5.839l-.065.292-.654.235c-.163.045-.303.067-.417.067-.238 0-.416-.064-.534-.191a.66.66 0 0 1-.178-.468c0-.07.006-.144.018-.219l.059-.288.469-1.942.067-.343a1.71 1.71 0 0 0 .034-.311c0-.171-.026-.284-.082-.341s-.166-.085-.335-.085c-.064 0-.151.011-.259.032l-.247.055.067-.292a4.44 4.44 0 0 1 .622-.237 1.7 1.7 0 0 1 .435-.077c.243 0 .419.059.529.179s.164.278.164.479c0 .055-.006.13-.019.224l-.053.283-.472 1.942-.077.35c-.022.114-.033.208-.033.28 0 .174.037.293.113.357s.195.095.365.095c.056 0 .136-.007.24-.021a1.14 1.14 0 0 0 .243-.055" class="B"/><path fill="#fff" d="M148.802 89.398c-.282 0-.487-.059-.618-.176s-.194-.285-.194-.504c0-.07.004-.137.013-.199l.036-.212.691-3.05h-.794l.095-.415h.81l.31-1.338h.801l-.302 1.338h1.237l-.093.415h-1.228l-.573 2.516-.066.335a1.73 1.73 0 0 0-.027.276c0 .168.041.29.123.367s.229.116.443.116c.076 0 .184-.01.324-.028s.247-.046.324-.076l-.076.334-.586.212a2.14 2.14 0 0 1-.65.089m3.472.041c-.438 0-.803-.079-1.096-.239s-.437-.369-.437-.628c0-.121.043-.236.129-.342a.39.39 0 0 1 .314-.16c.119 0 .214.028.287.084a.67.67 0 0 1 .171.198c.044.079.084.174.117.283l.087.27a.67.67 0 0 0 .184.144c.079.045.193.067.342.067.318 0 .562-.083.727-.248s.246-.387.246-.668c0-.207-.077-.372-.231-.496s-.384-.237-.688-.341c-.109-.036-.238-.092-.387-.167a1.44 1.44 0 0 1-.355-.24 1.18 1.18 0 0 1-.258-.348c-.066-.134-.097-.293-.097-.476 0-.39.169-.729.509-1.013s.755-.428 1.25-.428a4.18 4.18 0 0 1 .373.019 1.8 1.8 0 0 1 .439.1.93.93 0 0 1 .356.217c.098.096.146.221.146.372 0 .125-.04.238-.122.341a.39.39 0 0 1-.321.152c-.109 0-.2-.024-.271-.072s-.13-.114-.178-.197a1.3 1.3 0 0 1-.115-.264l-.097-.279c-.058-.024-.108-.041-.152-.049a.84.84 0 0 0-.178-.016c-.291 0-.51.08-.66.24s-.224.351-.224.571c0 .213.066.374.203.481s.356.221.668.336c.401.149.694.32.878.513a1 1 0 0 1 .272.714c0 .463-.173.841-.521 1.132s-.782.437-1.31.437m5.998-6.327c0 .055-.009.128-.026.218s-.05.205-.098.348l-.513 1.534-.696 2.119h-.347l.314-2.435.211-1.624c.038-.186.125-.335.26-.448s.283-.168.446-.168c.143 0 .252.042.331.128s.118.195.118.328m-1.141 5.665c0 .171-.06.316-.18.436a.59.59 0 0 1-.43.181c-.166 0-.309-.061-.429-.181a.59.59 0 0 1-.18-.436c0-.17.06-.317.18-.439s.263-.186.429-.186a.58.58 0 0 1 .43.186c.12.121.18.269.18.439M54.609 72.496h8.957v-2.298H56.85V67.89h4.478v-2.299H56.85v-2.295h6.716v-2.299h-8.957z" class="B"/><path fill="#fff" d="M36.637 60.611c-2.469 0-4.48 2.063-4.48 4.595v3.067c0 2.54 2.011 4.606 4.48 4.606s4.478-2.066 4.478-4.606v-.384h-2.239v.384c0 1.273-1.006 2.303-2.239 2.303s-2.239-1.029-2.239-2.303v-3.067c0-1.263 1.003-2.295 2.239-2.295s2.239 1.032 2.239 2.295v.386h2.239v-.386c-.001-2.532-2.011-4.595-4.478-4.595m42.594 2.685h2.24v6.901h-2.24v2.299h6.72v-2.299h-2.24v-6.901h2.24v-2.299h-6.72zm15.676 7.18l-3.793-9.479h-2.926v11.499h2.242v-7.163l2.862 7.163h3.854V60.997h-2.239zm-21.096-9.479l-2.469 6.17-2.465-6.17h-3.073v11.498h2.241v-7.53l2.087 5.232h2.423l2.198-5.507v7.805h2.241V60.997zm46.808 7.277c0 1.272-1.004 2.302-2.242 2.302s-2.238-1.029-2.238-2.302v-7.278h-2.243v7.278c0 2.539 2.013 4.604 4.481 4.604s4.479-2.065 4.479-4.604v-7.278h-2.237v7.278zm13.809-2.683h-3.733v-2.295h3.733c.619 0 1.117.508 1.117 1.144s-.498 1.151-1.117 1.151m3.354-1.151c0-1.899-1.502-3.444-3.354-3.444h-5.974v11.5h2.24V67.89h2.415l2.313 4.606h2.517l-2.414-4.804c1.31-.478 2.257-1.745 2.257-3.252" class="B"/><path fill="#fff" d="M109.422 67.89c0 1.271-1.006 2.307-2.238 2.307h-2.241v-6.9h2.241c1.232 0 2.238 1.03 2.238 2.295v2.298zm-2.238-6.893h-4.481v11.498h2.24 2.241c2.469 0 4.479-2.059 4.479-4.604v-2.299c-.001-2.538-2.011-4.595-4.479-4.595m39.186 7.276c0 1.273-1.008 2.303-2.24 2.303-1.238 0-2.238-1.029-2.238-2.303v-3.067c0-1.263 1-2.295 2.238-2.295 1.232 0 2.24 1.032 2.24 2.295v3.067zm-2.24-7.662c-2.472 0-4.479 2.063-4.479 4.595v3.067c0 2.54 2.008 4.606 4.479 4.606s4.479-2.066 4.479-4.606v-3.067c0-2.532-2.009-4.595-4.479-4.595m12.307.386l-2.235 5.593-2.241-5.593h-2.417l3.536 8.856v2.642h2.237v-2.642l3.542-8.856zM50.132 65.591h-4.479v-4.594h-2.239v11.499h2.239v-4.607h4.479v4.607h2.238V60.997h-2.238zm61.412-30.337c-.146.181-.612.911-.631 1.422-.033.514-.067 1.271-.478 1.547-.797-.914-.979-.578-1.429-.578-.439 0-1.383 2.091-.478 3.391.161-.307 1.371-1.995 1.371-.181 0 .907-1.673 1.017-1.673 1.017-.038.212-.124 2.532-.124 2.532l-1.783.417.042-2.641-1.586.216c-.04-.67.247-1.724.764-1.724.498 0 1.012.823 1.012.823 1.127-1.095 1.52-4.033 0-4.033-.638 0-.994.79-.994.79-.107-.491-.214-1.16-.05-2.119.387-2.362 1.633-4.615-.041-6.972 2.477.284 6.571.518 6.078 6.093m-8.393 2.844c-1.813-1.601-3.096 1.273-1.708 3.848 1.176-2.09 1.906-1.028 1.639.635-.376.056-1.814.145-1.814.145l-.13 2.889-3.097.248.127-2.939-1.407.049c-.18-.764.053-2.055.641-2.055s.994.904.994 1.331c3.39-3.117.892-6.847-1.421-4.546.339-3.72.122-6.343-.02-9.034l5.719.278c1.708 4.117.193 7.303.477 9.151m-10.025 4.859l-1.389-.036.107 2.954-3.169-.239-.016-2.887-1.888-.185c-.27-1.667.46-2.708 1.637-.618 1.39-2.575.089-5.449-1.713-3.848.27-1.848-1.297-5.019.412-9.144l5.824-.277c-.164 2.691-.393 5.306-.073 9.026-2.296-2.301-4.807 1.429-1.425 4.546 0-.427.411-1.331.999-1.331.606 0 .889 1.272.694 2.039m-9.563 1.864l-1.76-.403-.181-2.546s-1.672-.123-1.672-1.017c0-1.814 1.212-.126 1.353.181.908-1.3-.037-3.391-.478-3.391-.43 0-.664-.457-1.463.453-.41-.276-.446-1.028-.46-1.542-.038-.515-.465-1.121-.61-1.302-.498-5.575 3.991-5.872 6.093-6.078-1.676 2.359-.428 4.595-.056 6.957.162.959.073 1.628-.052 2.119 0 0-.427-.79-1.088-.79-1.495 0-1.106 2.938 0 4.033 0 0 .609-.823 1.123-.823.498 0 .822 1.054.802 1.724l-1.621-.219c.001 0 .053 1.887.07 2.644m31.019-10.385s.237-.392.237-.903c0-1.343-2.034-1.884-1.803-3.216.146-.837-.552-.699-1.297-.747-.732-.074-2.972-2.039-3.51-1.974l-2.117.237c-1.034-1.36-1.567.068-2.083.488-1.569 0-1.123-1.362-3.547-1.362-.979 0-1.352.572-1.53.91s-.444.327-.73.032a.43.43 0 0 0 .319-.37c0-.154-.126-.508-.53-.508-.555 0-.394.598-.857.598-.427 0-.587-.116-.587-.549 0-.387.271-.479.364-.496h.526v-.884h-1.139c0-2.658 3.007-2.559 1.496-.164.551 0 2.261-.636 2.261-2.546s-1.71-1.852-3.313-1.569c1.708-2.925-1.352-2.731-1.834-5.665-.463 2.934-3.544 2.74-1.817 5.665-1.603-.283-3.31-.336-3.31 1.569 0 1.91 1.707 2.546 2.259 2.546-1.512-2.395 1.477-2.494 1.477.164h-1.119v.884h.527c.097.017.383.109.383.496 0 .433-.181.549-.589.549-.482 0-.302-.598-.874-.598-.411 0-.517.354-.517.508a.41.41 0 0 0 .322.37c-.286.295-.572.306-.75-.032-.159-.338-.551-.91-1.532-.91-2.402 0-1.973 1.362-3.522 1.362-.535-.42-1.07-1.848-2.103-.488-.428 0-1.585-.175-2.12-.237s-2.758 1.9-3.506 1.974c-.729.048-1.443-.09-1.298.747.248 1.332-1.801 1.873-1.801 3.216a1.95 1.95 0 0 0 .232.903c-.108.67-.074 1.847.427 2.58.498.721-.072 1.082-.072 1.082s-.606.576.358 1.092c.979.512 2.974 1.754 2.974 3.968 0 1.027-.962 1.389-.962 1.389-.18.129-.571.854.142 1.183.713.337 1.389-.546 1.389.485 0 .39-.444.367-.444 1.241s.533 1.21.904 1.605v.671c-.709.268-1.083.567-1.083.879 0 1.328 7.177 2.387 16.046 2.387 8.85 0 16.04-1.059 16.04-2.387 0-.312-.392-.611-1.106-.879v-.671c.376-.395.91-.733.91-1.605s-.429-.851-.429-1.241c0-1.031.662-.148 1.376-.485.71-.329.317-1.054.158-1.183 0 0-.977-.362-.977-1.389 0-2.214 2.011-3.456 2.973-3.968.978-.516.355-1.092.355-1.092s-.571-.361-.055-1.082c.501-.733.518-1.91.408-2.58" class="B"/></svg>